<svg width="29" height="22" fill="none" xmlns="http://www.w3.org/2000/svg"><path d="M6.817 9.954v6.302c0 1.296 0 1.944.425 2.504s.945.707 1.987.999c3.085.866 6.728.866 9.814 0 1.04-.292 1.562-.439 1.986-.999.425-.56.425-1.208.425-2.504V9.954" stroke="#fff" stroke-width="1.905"/><path d="M14.139 12.045S7.229 10.75 2.045 7.766c-.69-.397-.617-1.372.11-1.696 4.533-2.02 10.329-3.94 11.689-4.384a.989.989 0 01.592-.01c1.482.43 8.185 2.417 12.913 4.484.684.3.794 1.19.163 1.591-4.707 2.994-13.373 4.294-13.373 4.294z" stroke="#fff" stroke-width="1.905"/><path d="M25.637 8.91v6.795" stroke="#fff" stroke-width="1.905" stroke-linecap="round"/></svg>