<svg width="20" height="24" fill="none" xmlns="http://www.w3.org/2000/svg"><path d="M6.671 12.498c-2.31.77-3.696 1.848-4.651 3.48-.495.846-.645 1.839-.645 2.82v.402c0 1.412 1.02 2.626 2.422 2.794 4.163.5 8.326.5 12.49 0 1.402-.168 2.422-1.382 2.422-2.794v-.403c0-.98-.15-1.973-.645-2.819-.955-1.632-2.342-2.71-4.652-3.48" stroke="#fff" stroke-width="1.926" stroke-linecap="round"/><path d="M5.412 6.236a4.633 4.633 0 014.63-4.812v0a4.633 4.633 0 014.63 4.812l-.13 3.377a4.503 4.503 0 01-4.5 4.33v0a4.503 4.503 0 01-4.5-4.33l-.13-3.377zm-.185.004c2.407 1.444 8.666.481 8.666-2.89" stroke="#fff" stroke-width="1.926"/></svg>