<svg xmlns="http://www.w3.org/2000/svg" width="19" height="24" fill="none"><path d="M1.487 7.413c.095-2.423.143-3.635.947-4.44.804-.805 2.004-.854 4.403-.951a62.463 62.463 0 015.358 0c2.4.097 3.6.146 4.404.951.804.805.852 2.017.947 4.44a111.02 111.02 0 010 9.235c-.095 2.423-.143 3.634-.947 4.44-.805.805-2.004.854-4.404.951-1.887.077-3.47.077-5.358 0-2.4-.097-3.599-.146-4.403-.951-.804-.806-.852-2.017-.947-4.44a111.073 111.073 0 010-9.235zm15.79.252H1.755" stroke="#fff" stroke-width="1.94"/><circle cx="11.944" cy="12.396" r="1.335" fill="#fff"/><circle cx="11.944" cy="16.761" r="1.335" fill="#fff"/><circle cx="7.098" cy="12.397" r="1.333" fill="#fff"/><circle cx="7.094" cy="16.762" r="1.336" fill="#fff"/></svg>