<svg width="26" height="24" fill="none" xmlns="http://www.w3.org/2000/svg"><path d="M9.251 4.097l.088.878a.882.882 0 00.794-.878h-.882zm7.277 0h-.882c0 .454.344.833.795.878l.087-.878zm-.567-2.133l-.369.801.37-.801zm-6.143 0l-.368-.801.368.8zM2.851 15.532c-.294-2.945.017-5.467 1.03-7.292.983-1.769 2.683-2.987 5.458-3.265L9.163 3.22c-3.29.329-5.532 1.839-6.823 4.163-1.26 2.27-1.556 5.206-1.244 8.325l1.755-.176zm13.59-10.557c2.7.27 4.427 1.73 5.444 3.697 1.037 2.004 1.332 4.545 1.045 6.838l1.751.22c.32-2.559.008-5.476-1.229-7.869-1.257-2.43-3.472-4.305-6.836-4.641l-.175 1.755zm-6.308-.878v-1.17H8.37v1.17h1.764zm.054-1.332c.72-.33 1.69-.514 2.703-.514 1.012 0 1.983.184 2.702.514l.738-1.602C15.323.699 14.086.486 12.89.486c-1.196 0-2.433.213-3.44.677l.737 1.602zm5.46.162v1.17h1.763v-1.17h-1.764zm-.055-.162c.001 0 .01.004.024.027.015.027.03.074.03.135h1.764c0-.671-.333-1.42-1.08-1.764l-.737 1.602zm-5.459.162a.28.28 0 01.03-.135c.014-.023.023-.026.024-.027L9.45 1.163c-.747.343-1.081 1.093-1.081 1.764h1.764z" fill="#fff"/><path d="M24.415 15.62c-8.49 1.213-14.555 1.213-23.045 0-.606 1.213-1.82 6.67 11.523 6.67 13.341 0 12.128-5.457 11.522-6.67z" stroke="#fff" stroke-width="1.764" stroke-linejoin="round"/><path d="M9.257 4.098v2.425m7.273-2.425v2.425" stroke="#fff" stroke-width="1.764" stroke-linecap="round"/></svg>