<svg width="27" height="24" fill="none" xmlns="http://www.w3.org/2000/svg"><path d="M5.574 7.457c-.419 3.352-.179 8.681.461 12.36.199 1.143.298 1.715.846 2.208.547.493 1.158.534 2.38.617 2.694.182 5.921.182 8.615 0 1.222-.083 1.832-.124 2.38-.617.547-.493.647-1.065.846-2.207.64-3.68.88-9.009.46-12.361" stroke="#fff" stroke-width="1.905"/><path d="M11.17 21.846v-4.797c0-1.004 0-1.507.313-1.82.312-.311.815-.311 1.82-.311h.533c1.005 0 1.507 0 1.82.312.311.312.311.815.311 1.82v4.796" stroke="#fff" stroke-width="1.905" stroke-linecap="round"/><path d="M1.84 10.654l9.025-7.384c1.292-1.058 1.938-1.586 2.7-1.586.76 0 1.407.528 2.7 1.586l9.024 7.384" stroke="#fff" stroke-width="1.905" stroke-linecap="round" stroke-linejoin="round"/></svg>