<svg width="13" height="30" fill="none" xmlns="http://www.w3.org/2000/svg"><path d="M10.274 4.81l-.183-.55c-.343-1.028-.514-1.542-.864-1.895a2.132 2.132 0 00-.571-.412c-.446-.22-.988-.22-2.072-.22s-1.626 0-2.072.22a2.132 2.132 0 00-.571.412c-.35.353-.522.867-.865 1.896l-.183.55c-.2.602-.301.903-.313 1.203-.013.311.042.621.161.909.116.277.314.525.711 1.02.352.441.529.662.744.824.224.168.478.29.75.36.26.067.543.067 1.107.067h1.062c.564 0 .846 0 1.107-.068.271-.07.526-.191.75-.36.215-.161.391-.382.743-.822h0c.397-.496.596-.744.711-1.021a2.13 2.13 0 00.162-.909c-.012-.3-.113-.601-.314-1.204zM1.313 21.985C1.564 17.6 2.61 13.795 4.45 9.194h4.263c1.436 4.48 2.777 8.378 3.116 12.792.075.982.113 1.473-.09 2.083-.201.61-.52.977-1.16 1.711-.44.505-.888.97-1.402 1.454-1.167 1.1-1.75 1.649-2.596 1.649-.845 0-1.429-.55-2.596-1.648-.514-.484-.962-.95-1.401-1.455-.636-.73-.954-1.095-1.157-1.688-.202-.592-.173-1.097-.115-2.107z" stroke="#fff" stroke-width="1.905"/></svg>