<svg width="19" height="24" fill="none" xmlns="http://www.w3.org/2000/svg"><path d="M1.154 7.149c.097-2.478.146-3.717.969-4.541.822-.824 2.05-.873 4.503-.973a64.22 64.22 0 015.481 0c2.454.1 3.681.15 4.504.973.822.824.871 2.063.968 4.54.131 3.329.131 6.119 0 9.447-.097 2.478-.146 3.717-.968 4.54-.823.824-2.05.874-4.504.974-1.93.078-3.55.078-5.48 0-2.455-.1-3.682-.15-4.504-.973-.823-.824-.872-2.063-.97-4.54a113.61 113.61 0 010-9.447z" stroke="#fff" stroke-width="1.905"/><path d="M6.016 1.576v1.985c0 .936 0 1.403.29 1.694.29.29.759.29 1.694.29h2.977c.936 0 1.404 0 1.694-.29.291-.29.291-.758.291-1.694V1.576" stroke="#fff" stroke-width="1.905"/><path d="M5.021 11.5h8.684m-8.684 3.473h3.97" stroke="#fff" stroke-width="1.905" stroke-linecap="round"/></svg>