<svg width="1680" height="829" fill="none" xmlns="http://www.w3.org/2000/svg"><g opacity=".03"><mask id="a" fill="#fff"><path fill-rule="evenodd" clip-rule="evenodd" d="M1368.43 1280.25c-2.99 0-9.65 22.57-2.79 38.57 3.64 8.53 12.21 12.12 19.39 9.74 7.06-2.35 9.12-9.05 9.32-14.27.66-17.54-14.78-34.04-25.92-34.04zm-51.39-255.92l2.25 24.78-21.46-2.39v28.22l21.46-2.38-2.25 25.88h29.15l-2.25-25.88 21.45 2.38v-28.22l-21.45 2.39 2.25-24.78h-29.15zm14.61 97.65c-5.8 0-10.51 4.8-10.51 10.72 0 5.92 4.71 10.72 10.51 10.72 5.81 0 10.51-4.8 10.51-10.72 0-5.92-4.71-10.72-10.51-10.72zm0 43.4c-5.8 0-10.51 4.79-10.51 10.71 0 5.92 4.71 10.72 10.51 10.72 5.81 0 10.51-4.8 10.51-10.72 0-5.91-4.71-10.71-10.51-10.71zm0 44.01c-5.8 0-10.51 4.8-10.51 10.72 0 5.93 4.71 10.72 10.51 10.72 5.81 0 10.51-4.8 10.51-10.72 0-5.92-4.71-10.72-10.51-10.72zm33.95 10.72c0 5.93 4.7 10.72 10.51 10.72 5.8 0 10.51-4.8 10.51-10.72 0-5.92-4.71-10.72-10.51-10.72-5.81 0-10.52 4.8-10.52 10.72h.01zm44.05 0c0 5.93 4.71 10.72 10.52 10.72 5.8 0 10.51-4.8 10.51-10.72 0-5.92-4.71-10.72-10.51-10.72-5.81 0-10.52 4.8-10.52 10.72zm-78 48.21c-9 0-31.2 45.54-14.65 68.57 3.17 4.4 8.71 6.88 14.65 6.88 5.94 0 11.49-2.48 14.65-6.88 16.55-23.03-5.65-68.57-14.65-68.57zm-36.78 11.93c-11.14 0-26.58 16.5-25.92 34.04.2 5.22 2.26 11.92 9.32 14.26 7.17 2.39 15.75-1.21 19.4-9.73 6.85-16 .19-38.57-2.8-38.57zm-17.1-60.14c0 5.93 4.7 10.72 10.51 10.72s10.51-4.8 10.51-10.72c0-5.92-4.71-10.72-10.51-10.72-5.81 0-10.51 4.8-10.51 10.72zm-42.98 0c0 5.93 4.7 10.72 10.51 10.72s10.51-4.8 10.51-10.72c0-5.92-4.7-10.72-10.51-10.72s-10.51 4.8-10.51 10.72zm-10.36 0c0-9.14 1.58-17.37 1.58-17.37h87.35v-89.35c-42.16 7.38-75.88 39.84-85.94 81.78-2.44 3.49-10.37 5.27-15.95 4.65-32.24-3.94-97.47-15.68-97.47-29.55 0-19.49 13.22-27.29 25.92-27.29 18.11 0 38.13 9.8 54.79-14.29-59.31 2.71-13.84-82.83-62.49-99.06 2.41 21.84.02 60.27-7.65 80.59 0 0-17.43-18.59-37.01-25.6 1.47 15.85-1.51 48.72-8.61 63.68 0 0-20.73-19.15-42.22-26.32 19.83 28.7 19.15 69.67 13.81 94.58-1.54 7.21 3.84 16.18 18.96 15.52 23.66-1.04 104.45 2.52 139.49 16.82 10.9 4.45 20.23 9.55 24.79 17.3 3.71 10.45 12.9 26.63 24.2 34.92 5.08-18.05 26.71-37.39 40.81-36.69 4.21.2 8.86 7.23 9.83 14.1 1.24-6.39 11.64-24.07 23.03-24.07 10.51 0 20.61 14.79 24.12 27 1.06-7.84 5.7-16.23 9.91-16.23 14.16 0 31.96 12.53 38.67 33.24 5.43-6.76 30.37-38.76 33.19-59.77h-211.53s-1.59-9.08-1.59-18.59h.01zm125.51-106.7v89.33h87.43c-7.6-45.55-42.8-81.5-87.43-89.33zm-1031.675 73.55c1.835.62 3.693.18 5.522-.79-5.893 8.19-5.649 13.58-3.113 16.1 3.987 3.94 6.94-3.3 17.015-13.98 10.085-10.66 17.06-13.91 13.089-17.87-2.56-2.54-7.866-2.61-15.788 3.84.876-1.89 1.213-3.77.575-5.6-3.333-9.63-18.85-22.45-27.403-22.48a9.243 9.243 0 00-3.59.76c3.763-6.03 2.791-10.59.274-13.09-2.772-2.74-4.359-.82-7.47 3.15.425-2.77-.288-6.02-2.913-9.99-12.839-19.4-80.746-83.26-96.166-89.67-9.203-3.85-12.223 1.47-12.223 1.47s-5.093 3.28-1.067 12.59c6.739 15.59 71.991 82.28 91.295 94.83 3.959 2.56 7.139 3.19 9.828 2.67-3.752 3.28-5.55 4.97-2.793 7.71 2.519 2.5 7.004 3.35 12.77-.71a9.915 9.915 0 00-.602 3.7c.293 8.75 13.267 24.25 22.764 27.36h-.004zM155.04 998.029c-2.012 0-4.869.477-6.971 2.701-2.128 2.25-2.876 5.73-2.102 9.77.851 4.39 3.357 8.84 7.07 12.53 4.445 4.43 10.038 7.06 14.939 7.06 2.025 0 4.863-.46 6.968-2.68 4.586-4.86 2.322-15.08-4.96-22.31-4.459-4.41-10.036-7.067-14.943-7.067l-.001-.004zm211.194 237.051c-.057-6.74-12.84-18.06-28.002-18.06-22.519 0-32.267 14.27-32.267 21.55 0 13.69 13.233 15.45 17.289 15.68 15.849.98 41.406-15.23 42.98-19.17zm-19.398 34.2c-5.984 7.66-8.224 15.15-6.676 22.24 1.884 8.59 10.381 12.45 17.971 12.45 7.999 0 15.163-3.77 19.163-10.11 8.603-13.56 8.982-43.6 6.082-46.89-7.211 0-26.389 9.31-36.539 22.31h-.001zM149.208 956.488c-6.365-6.326-19.38 3.1-27.158-1.286 3.448-19.315 17.118.956 30.33-13.009 5.267-5.577 2.441-14.284-.582-16.912-5.692 5.77-14.502 3.771-15.179.564 14.995-35.437-14.303-74.945-42.434-69.994 5.519 7.386 7.169 33.059 4.765 39.998 10.71 7.693 3.054 25.813-8.766 20.549-7.928-3.23-21.91-23.05-5.83-37.014-.463-5.033-9.31-6.256-18.71 5.871 6.897-22.26-35.323-15.28-43.998-9.938-4.933 9.048-10.402 52.538 11.069 44.772-11.517 10.02-10.046 19.041-5.129 19.365 13.104-16.911 32.846-3.192 36.251 4.83 5.505 11.961-11.925 20.353-19.754 9.623-6.7 2.689-31.774 1.806-39.151-3.619-3.932 28.977 35.49 57.752 69.571 41.29 3.141.596 5.37 9.542-.07 15.562 2.66 3.03 11.226 5.65 16.5.06 13.195-13.961-6.997-27.342 11.728-31.492 4.519 7.841-4.251 21.476 2.105 27.802 10.183 10.11 22.973-9.507 35.534-10.294.369-12.898 19.089-26.61 8.909-36.732l-.001.004zM43.674 911.747s-6.587-4.679 1.311-13.25c8.093-8.368 12.875-1.756 12.875-1.756s7.42 16.514 9.613 24.116c-7.482-2.01-23.798-9.11-23.798-9.11h-.001zm65.175 50.227c-4.088.518-13.771 9.139-18.627 4.312L68 944.219l11.11-11.788 11.154-11.763 22.202 22.093c4.856 4.811-3.244 15.014-3.617 19.212v.001zM477.038 1300.2c.753-3.31.236-5.96-1.496-7.68-.543-.54-1.031-.85-1.325-.85-1.252 0-4.036 3.44-6.721 6.78-2.235 2.76-5.022 6.2-8.576 9.95-3.54 3.77-6.818 6.72-9.444 9.11-3.121 2.82-6.357 5.75-6.393 7.06 0 .31.32.81.887 1.37 1.149 1.15 2.689 1.72 4.558 1.72 2.856 0 9.046-1.46 18.359-11.33 7.073-7.47 9.432-12.9 10.153-16.13h-.002zm.134 26.33c-4.842 5.14-9.762 8.79-12.486 10.65 1.932 1.96 7.424 5.43 14.287 5.43 3.918 0 7.577-1.15 10.918-3.43 6.85-11.29.24-22.84-2.733-25.78-1.738 2.86-5.149 8.02-9.988 13.13h.002zm-74.989-62.79c-3.527 3.3-11.684 26.22-8.125 40.18 1.532 5.98 4.834 8.53 10.423 8.23 5.782-.36 8.934-3.37 9.909-9.5 2.217-13.94-8.361-36.1-12.209-38.91h.002zm-4.464-63.7c.2.39 41.836 36.97 55.805 50.21 3.291 3.13 7.83 3.85 12.439 1.51 2.629-1.35 5.904-2.89 9.29-4.44 41.635-14.7 110.12-16.35 135.241-15.24 15.123.66 20.464-8.3 18.957-15.52-4.92-23.58-6.019-65.88 13.815-94.58-21.495 7.16-42.221 26.32-42.221 26.32-7.109-14.96-10.085-47.83-8.616-63.69-19.572 7.01-37.008 25.61-37.008 25.61-7.668-20.32-10.062-58.75-7.646-80.59-48.651 16.23-3.181 101.77-62.494 99.06 16.667 24.09 36.682 14.3 54.794 14.3 12.701 0 28.478 8.3 25.92 27.28-1.854 13.74-81.435 30.85-113.441 30.85-22.371 0-37.351-6.9-48.578-22.4-5.401-7.46-10.908-10.84-17.078-9.89-7.657 1.18-16.611 9-16.611 27.1 0 12.83 5.191 40.94 20.608 40.94 10.829 0 11.308-22.21 6.822-36.83h.002zm51.456 98.68c7.267-7.7 9.809-13.31 8.014-17.69-2.598-6.32-19.126-24.69-40.761-45.43a86.905 86.905 0 01-2.885 12.65c14.58 19.24 20.028 39.91 15.112 57.26 1.78 1.18 2.882 1.72 3.527 1.97 5.598 2.22 12.586-4.09 16.99-8.76h.003zm-105.281-104.64c-.105.11-2.798 2.76-4.539 6.33 4.525.03 9.798.81 14.541 2.08-.315-4.19-.627-9.87-.216-14.77-4.002.9-8.301 4.75-9.784 6.36h-.002zm727.226 132.17c13.71-6.23 23.59-23.13 26.2-39.66-8.69 4.24-18.48 6.31-29.77 6.31-31.06 0-70.076-17.2-105.439-32.79 0 0-7.625 6.39-20.261 7.73 35.682 10.92 105.8 49.68 110.96 74.54 3.44 16.63-7.44 22.97-7.44 22.97-15.6-25.35-55.813-64.72-109.477-84.41.11 9.27-1.675 15.77-1.675 15.77s-10.89 2.67-34.021-1.33c20.225 16.81 73.353 76.17 79.121 121.21 3.845 30.07-17.253 31.46-17.253 31.46-3.012-45.23-26.83-92.03-69.815-139.02 0 0-7.048 11.01-16.416 16.56 0 0-15.875-2.8-29.051-11.48 5.073 59.67 8.07 137.18 4.922 160.65-2.198 16.33-11.702 23.18-11.702 23.18s-9.538-6.85-11.74-23.18c-3.142-23.47-.151-100.98 4.922-160.65-13.171 8.68-29.05 11.48-29.05 11.48-9.369-5.55-16.407-16.56-16.407-16.56-42.994 46.99-66.813 93.79-69.82 139.02 0 0-21.099-1.39-17.251-31.46 5.766-45.04 58.896-104.4 79.118-121.21-23.13 4-34.021 1.33-34.021 1.33s-1.784-6.5-1.672-15.77c-53.661 19.69-93.865 59.06-109.474 84.42 0 0-10.88-6.35-7.432-22.98 5.149-24.86 75.268-63.62 110.955-74.54-12.637-1.34-20.267-7.73-20.267-7.73-35.358 15.6-74.382 32.79-105.438 32.79-11.287 0-21.083-2.07-29.762-6.31 2.598 16.53 12.486 33.43 26.184 39.66-47.976 33.62-18.351 112.41-82.695 97.6 35.881 66.35 108.455 73.01 108.455 73.01-16.076-35.09 3.968-142.17 100.291-190.82-59.293 58.87-86.307 130.25-70.575 180.6 14.434 46.22 61.354 64.95 96.683 65.76-24.982-76.42-9.585-163.94 42.26-219.03-22.217 60.42-53.455 221.69 36.743 252.63 90.19-30.94 58.927-192.21 36.702-252.63 51.855 55.09 67.244 142.61 42.264 219.03 35.327-.81 82.244-19.54 96.684-65.76 15.73-50.35-11.28-121.73-70.573-180.6 96.323 48.65 116.363 155.73 100.283 190.82 0 0 72.58-6.66 108.46-73.01-64.35 14.81-34.72-63.98-82.7-97.6h-.01zM847.66-2.965c0-4.735-3.755-8.593-8.357-8.593-4.614 0-8.358 3.858-8.358 8.593 0 4.748 3.743 8.608 8.358 8.608 4.602 0 8.357-3.86 8.357-8.608zm42.167 0c0-4.735-3.74-8.593-8.358-8.593-4.606 0-8.35 3.858-8.35 8.593 0 4.748 3.744 8.608 8.35 8.608 4.618 0 8.358-3.86 8.358-8.608zm-65.514-223.076c0 8.867 7.016 16.107 15.64 16.107 8.638 0 15.651-7.24 15.651-16.107 0-8.88-7.013-16.113-15.651-16.113-8.624 0-15.64 7.232-15.64 16.112v.001zm5.034-34.224h21.297l-2.302-25.675 23.135 2.459v-20.309l-23.137 2.451L850.642-327h-21.297l2.293 25.661-23.13-2.451v20.309l23.13-2.459-2.293 25.674.002.001zM805.492-2.967c0-4.735-3.755-8.592-8.364-8.592-4.607 0-8.357 3.857-8.357 8.592 0 4.748 3.75 8.609 8.357 8.609 4.609 0 8.364-3.86 8.364-8.609zm-50.196 31.863c2.262.812 4.874 1.254 7.967 1.254h153.471c3.094 0 5.706-.442 7.959-1.254 4.956-1.772 7.968-5.485 9.138-11.419H746.16c1.165 5.934 4.179 9.644 9.136 11.42v-.001zm8.439-31.863c0-4.735-3.747-8.592-8.361-8.592-4.608 0-8.364 3.857-8.364 8.592 0 4.748 3.756 8.609 8.361 8.609 4.614 0 8.361-3.86 8.361-8.609h.003zm167.855 0c0-4.735-3.755-8.592-8.35-8.592-4.613 0-8.365 3.857-8.365 8.592 0 4.748 3.752 8.609 8.367 8.609 4.594 0 8.35-3.86 8.35-8.609h-.002zm10.03-20.384c4.327-5.36 25.838-46.871 25.838-88.779 0-37.717-47.494-58.479-75.751-59.428-3.271 53.877-24.296 138.45-51.702 138.45-25.938 0-48.477-84.085-51.708-138.452-28.253.952-75.746 21.714-75.746 59.432 0 41.907 21.502 83.42 25.832 88.777h203.24-.003zM840.005-59.866c12.905 0 29.586-53.655 33.846-104.438 0-10.282-12.911-26.009-33.845-26.419-20.941.408-33.852 16.136-33.852 26.419 3.741 47.357 21.143 104.438 33.852 104.438h-.001zM429.714 214.022c-25.045 34.371 9.589 71.988 11.725 74.587 1.506 1.834 2.797 1.006 2.567-1.051-.181-1.766 18.024-54.766 122.83-26.856 2.241.596 3.615.643 1.515-1.525-19.361-15.315-42.332-49.644-49.756-77.257 0 0-63.832-2.269-88.883 32.102h.002zm56.184-7.189c0-9.601 13.998-12.25 22.044-12.25 0 0 3.532 9.272 7.076 14.404-8.166-3.644-19.509-4.014-29.12-2.154zm55.634-44.851c-6.972 0-9.577 4.428-7.3 12.096 24.081 81.001 89.731 100.213 115.651 135.294 0 0-.185-10.929 11.84-37.008 8.182 13.413 30.35 38.531 44.755 41.728-3.443-7.225-7.539-35.746-4.345-54.912 34.019 29.702 75.959 35.539 98.466 18.402-19.163.733-44.116-20.552-56.676-39.433 17.535 4.046 41.678-.125 46.654-5.152-11.077-2.697-24.511-12.504-32.601-21.822 12.443-.863 39.442-11.039 47.16-25.387-10.826 2.454-26.877-1.96-37.329-7.476 7.961-4.297 27.827-25.548 32.593-44.198-28.213 13.806-72.728 27.542-138.67 27.542 0 0-116.523.325-120.201.325l.003.001zm72.794 36.927c-18.642 7.37-27.984 17.323-27.984 17.323s-8.947-14.655-11.803-19.366c-2.856-4.707-3.751-10.477 5.886-10.477h57.793c0 3.932-5.252 5.148-23.893 12.519l.001.001zM417.032 330.71c6.031 7.985 23.099 32.371 60.542 10.569 37.434-21.805 56.742-33.675 56.742-33.675s-5.848 11.252-1.41 24.743c.259.775 1.139.74 1.477-.062 3.729-8.731 36.243-33.995 77.704-37.492-15.199-13.258-31.876-25.073-31.876-25.073-17.714 2.854-52.052 14.94-96.467 43.722-44.421 28.782-64.884 16.762-65.734 16.222-.847-.542-2.05-.371-.979 1.046h.001zm530.549 918.96c6.396-2.04 11.749-5.29 14.502-8.94-28.689-1.24-52.37-25.95-61.042-41.2-9.53 15.73-26.543 28.02-26.543 28.02-12.113-3.19-28.667-16.36-34.498-26.43-5.826 10.08-22.382 23.24-34.498 26.43 0 0-17.012-12.29-26.544-28.02-8.668 15.25-32.351 39.96-61.042 41.2 2.755 3.65 8.109 6.9 14.505 8.94 4.282 1.37 9.022 2.21 13.793 2.21 5.054 0 10.129-.91 14.679-3.04-2.865 10.39-3.818 23.22-1.721 32.01 0 0 15.258 1.2 31.008-4.74 1.133 9.5 5.479 21 12.609 28.78 1.401 1.52 2.865 2.95 4.478 4.14 8.46 0 28.885-9.84 32.735-15.9 3.845 6.06 24.271 15.9 32.735 15.9 1.606-1.19 3.073-2.63 4.476-4.15 7.126-7.77 11.474-19.27 12.604-28.77 7.086 3.55 15.316 4.97 24.425 4.97 2.195-.01 4.391-.08 6.581-.23 2.104-8.8 1.15-21.62-1.719-32.01 4.553 2.13 9.628 3.04 14.678 3.04 4.782 0 9.515-.84 13.798-2.21h.001zM661.249 639.408c-5.621 0-9.101 3.58-9.101 9.343v349.885c0 33.364 13.18 50.284 39.169 50.284l65.032.25c44.56 0 70.847 15.3 83.651 34.27 10.888-17.69 41.486-34.27 83.653-34.27l65.013-.25c25.994 0 39.174-16.92 39.174-50.284V648.751c0-5.763-3.49-9.343-9.09-9.343H661.246h.003zm63.518 327.349c-.624 7.743 8.397 21.827 23.287 17.42-.448 2.857.388 10.672 3.716 16.533-26.38 5.96-37.757-15.68-27.003-33.953zm239.166-115.826a616.736 616.736 0 01-10.743-11.666c-3.763-4.171-6.448-5.792-10.287-5.792-8.633 0-17.871 4.716-22.81 7.981-.328.133-.577.45-.699 1.301 5.249-.467 10.514-.851 15.748-1.442 4.595-.529 8.885-.345 12.844 2.596 3.117 2.305 4.876 5.159 5.045 8.886.499 11.909 10.029 36.975 10.622 44.498.743 2.959-2.825 3.821-7.766 17.656-3.648 4.067-13.51-8.844-12.082-11.865 5.747-7.475 7.331-12.132 5.873-17.7-1.165-4.477-3.353-12.472-4.975-16.806-2.167-5.783-7.045-7.95-13.105-5.877-23.779 7.871-27.444-2.619-51.012 7.247l27.142 41.898c-.1-3.036-1.559-8.518-5.949-12.458.79-4.229 9.353-5.979 12.552-2.018 3.927 5.022 11.586 12.183 17.89 13.331 12.112 2.235 11.195 20.576 43.56 26.715-4.023 4.158-12.999 2.748-16.91.867 2.361 3.638 5.078 7.072 9.955 8.313-5.018 5.023-19.414-6.748-17.941 5.097 2.49-1.437 5.939-1.67 8.855-.938 6.459 1.607 17.052 38.229-5.262 54.235 4.75 1.42 9.859-1.09 14.678-1.09 2.824 0 5.463 2.74 5.744 5.79 2.081 1.59 3.448 3.55 4.66 6.05-1.68.56-4.923.04-6.723-1.15.724 2.03.551 6.92-.205 7.01-2.018.27-3.574-.88-5.637-2.11-2.873 1.47-12.313.87-14.986-1.52-7.127 1.73-14.162 4.05-21.587 4.05-4.009 0-9.29-.25-9.101-5.14.091-2.38 1.275-3.61 2.204-6.22-3.417-3.5-9.112-.11-15.903.55-9.205.88-13.001-.55-14.997-2.42 8.691-8.03 3.445-27.589-9.978-29.32 11.042 10.559 9.6 27.64-2.76 31.48 3.571 1.15 5.34 2.76 6.707 5.3 4.346 1.8 4.409 4.94 4.083 6.35-2.378-1.69-6.66-3.35-10.077-2.9-.246 1.49-.869 4.28-2.157 5.36-1.476-.32-3.401-1.67-4.149-2.75-3.948-3.02-28.541 2.75-30.035-1.29-.945-3.75 5.621-6.9 11.679-8.23-15.577-5.71-29.092-34.987-53.074-39.945-11.122-2.292-26.191 2.697-26.191 17.142 0 7.097 5.716 12.563 11.896 12.563 5.689 0 8.534-3.929 8.534-7.906-.916.693-1.483 1.121-2.042 1.578-3.48 2.85-7.914 2.668-11.123-.455-2.824-2.751-2.824-7.527-.083-10.757 2.255-2.688 4.963-4.202 8.581-4.735 9.389-1.364 17.068 1.624 22.241 9.149 2.465 3.591 3.826 7.429 3.826 11.146 0 16.64-16.694 20.42-25.933 20.42-23.259 0-36.966-16.62-36.966-35.861 0-2.242.11-4.516.495-6.805 3.64-21.65 23.004-30.702 39.757-33.41-2.137-7.536-6.264-13.626-12.187-18.597-2.949-2.473-3.248-4.492-1.39-7.646 2.53-4.312 5.188-8.555 6.306-13.414.255-1.09.371-2.242.452-3.426-8.342 7.464-20.003 14.305-36.139 19.189-5.089 2.349-7.782 6.978-8.429 12.302-.735 6.178-.907 12.445-1.019 18.678-.028 1.438 1.014 3.003 1.806 4.381 3.003 5.143 6.319 10.151 7.059 16.568 0 3.108-15.667 3.429-15.667.937-.146-11.283-7.691-15.667-6.881-23.117 2.085-11.588 2.551-23.179.651-34.826-.479-2.932 1.083-4.861 3.176-6.421 3.328-2.534 6.865-4.798 10.187-7.312 7.841-5.982 11.085-13.776 9.243-23.442-.237-1.257-.794-2.469-1.339-3.653-3.905-8.599-6.755-17.308-6.755-27.005 0-10.634-13.201-10.027-12.338.423.271 3.265 2.712 7.831 4.083 10.969 13.535 31.088-10.801 53.476-35.975 53.46 26.462-9.144-6.185-42.961-6.185-68.19 0-15.472 11.976-26.911 26.267-26.911 16.482 0 26.932 10.603 29.925 12.425 7.974-12.622 32.389-14.899 41.556-16.354-.699-6.796.26-12.836 4.434-18.052.272-.352.444-1.006.296-1.382-1.302-3.215-2.689-6.389-4.488-9.498-7.517 8.467-9.321 19.698-9.321 25.504-27.835-.408-40.112-12.576-48.339-17.367.032-2.117 7.437-15.421 14.004-24.201-7.198 6.159-13.116 13.093-17.461 21.408-3.979-2.87-8.163-5.465-12.253-7.163 6.273-13.411 14.586-23.85 25.18-34.758-14.918 5.492-27.901 22.328-32.822 32.905-4.256-.486-10.543-.651-14.054.031 16.257-19.843 23.687-58.939 59.431-67.708-8.953 36.257 13.311 50.99 28.641 41.528-1.995 0-3.361.317-4.648 0-29.889-7.569-12.176-48.883-19.414-57.484-2.749-3.261-4.168-6.252-3.721-10.38.161-1.452-.27-3.136-.938-4.474l-15.897-26.487c-1.999-3.335 4.189-5.708 5.522-4.174l16.212 26.489c.42.663.937 1.634 1.54 1.745 5.928 1.041 7.762 5.943 10.159 10.281.759 1.399 1.357 3.006 1.495 4.587.114 1.207-.217 2.895-1.023 3.716-2.578 2.603-2.078 5.164-.085 8.541 3.199 5.415 99.234 164.902 99.234 164.902-20.858 8.515-58.589 9.205-69.519 8.148-2.268 5.535-5.813 11.376-11.053 17.003 5.232-3.398 9.278-7.708 13.018-12.393 4.22.486 10.546 2.171 17.014 2.642-3.826 8.158-9.573 16.276-16.951 23.075-3.47 3.41-7.769 6.429-6.188 11.89 1.782 6.147 13.248 17.86 17.43 25.459 4.151.875 11.159 2.349 16.297 4.397 2.932 6.281 12.848 14.17 24.799 10.087-24.028-.301-22.255-24.849-14.788-37.832-.808 12.058 5.032 22.068 12.428 23.21-11.09-10.092-9.98-33.013.822-45.587 1.536 20.415 7.746 31.145 16.63 33.571-11.742-10.772-18.789-35.694-1.058-53.854 1.37 46.602 44.166 38.197 48.055 92.144 15.851 0 16.753-21.283 7.917-25.195-5.157-1.926-9.816-5.313-12.455-9.923-1.099-1.939-2.239-5.398-3.136-7.432-4.711-13.862-18.013-12.984-17.69-16.308.315-1.124 2.409-1.64 5.347-1.64l-25.067-38.611-1.307-2.016c3.023-.612 3.694-2.365.589-7.248 0 0-94.064-155.956-94.512-156.85 8.745-1.513 17.147.851 25.328 4.008-2.184-2.02-3.965-4.841-4.346-7.751-.315-2.339-.227-3.705 1.663-5.19 2-1.628 3.921-3.506 5.322-5.629 4.67-7.082 13.251-10.542 21.048-8.327 11.765 3.332 15.929 16.598 7.28 23.573-4.603 10.118-10.311 8.843-11.485 13.378 2.308 1.066 18.4 13.458 19.474 18.675-4.796 9.953-7.18 25.512-3.019 34.196 3.109-41.373 28.097-61.608 52.433-61.608 5.779 0 11.522 1.003 17.284 2.959 3.152 1.061 6.304 2.59 8.927 4.578a80.132 80.132 0 0110.566 9.667c4.748 5.202 9.1 10.757 17.178 11.118-2.362 3.355-5.051 5.811-7.803 8.222-1.984 1.772-2.981 3.9-3.225 6.57-.562 5.747-2.457 11.011-6.695 15.242a5.634 5.634 0 00-1.291 2.018c-2.701 7.815-5.437 15.597-7.977 23.457-.63 1.914-.488 4.552-3.08 4.521-2.251-.031-4.971-.685-6.648-2.051-3.567-2.879-4.846-7.072-3.567-11.498 1.27-4.402 0-8.181-1.399-12.275-1.433-4.095-1.93-8.524-2.892-13.198-6.645-2.321-19.118 11.911-9.597 23.834 6.183 8.797 11.74 24.985 12.703 31.612.2.654-5.625 4.312-13.651 3.293-27.129-3.459-44.287-22.235-49.501-38.075-.425 26.833 21.918 46.724 55.031 44.798 1.349 6.251 6.471 10.497 12.439 10.694 1.239-4.036 1.212-12.503.2-17.886-.45-2.368.795-3.58 2.996-4.143 7.24-1.835 16.664-1.121 24.725-3.989 7.149-2.562 10.531-1.062 14.974 7.558 3.37 6.502 9.128 13.501 14.565 18.325 2.283 2.017 4.566 4.065 6.723 6.219 2.749 2.744 4.179 5.974 4.393 9.965-.708 6.253.126 18.84.126 19.039-1.57 4.127-13.015-.241-14.864-4.673-.697-1.652 4.897-13.257-.976-19.479l.002.006zM1161.41 181.92c-7.43 27.613-30.4 61.942-49.76 77.257-2.1 2.167-.72 2.123 1.52 1.525 104.8-27.91 123.01 25.089 122.82 26.858-.22 2.057 1.07 2.885 2.57 1.05 2.14-2.598 36.77-40.217 11.73-74.586-25.05-34.372-88.88-32.103-88.88-32.103v-.001zm3.58 27.067c3.54-5.132 7.08-14.404 7.08-14.404 8.04 0 22.03 2.65 22.03 12.25-9.61-1.862-20.95-1.49-29.11 2.154zm97.98 121.723c1.07-1.417-.14-1.588-.98-1.046-.85.54-21.32 12.56-65.73-16.222-44.42-28.782-78.76-40.87-96.47-43.722 0 0-16.68 11.815-31.88 25.073 41.46 3.497 73.98 28.761 77.71 37.492.34.802 1.21.837 1.47.062 4.44-13.491-1.41-24.743-1.41-24.743s19.31 11.87 56.74 33.673c37.45 21.802 54.52-2.584 60.55-10.568v.001zM912.193 178.313c-10.45 5.517-26.5 9.929-37.328 7.477 7.72 14.347 34.719 24.524 47.158 25.386-8.085 9.317-21.524 19.124-32.599 21.821 4.978 5.027 29.116 9.196 46.657 5.152-12.565 18.88-37.516 40.166-56.679 39.433 22.512 17.139 64.455 11.299 98.472-18.401 3.188 19.165-.902 47.684-4.351 54.913 14.408-3.199 36.577-28.319 44.757-41.729 12.02 26.08 11.84 37.011 11.84 37.011 25.93-35.083 91.57-54.293 115.65-135.296 2.28-7.668-.33-12.098-7.3-12.098-3.68 0-120.19-.324-120.19-.324-65.952 0-110.467-13.736-138.68-27.543 4.766 18.65 24.632 39.904 32.599 44.197l-.006.001zm187.387 8.076c9.63 0 8.74 5.77 5.88 10.479-2.86 4.709-11.8 19.365-11.8 19.365s-9.34-9.954-27.98-17.327c-18.65-7.369-23.9-8.585-23.9-12.517h57.8zM668.371 307.715c-3.755 10.6-4.862 22.291-2.866 37.5 12.118 26.217 17.979 74.895 14.239 102.11 19.304-26.823 27.876-56.987 33.399-81.122 11.069 11.278 25.433 27.424 35.453 40.505 1.721-14.167 4.774-31.662 7.448-44.297 14.419 13.716 44.342 30.937 64.576 37.045-13.619-57.24-36.927-93.726-36.927-93.726-19.78 1.984-51.639-2.816-65.961-16.85 2.557 20.739 16.882 44.582 16.882 44.582-30.693 2.983-52.433-7.451-66.241-25.747h-.002zm343.259 0c-13.811 18.299-35.551 28.731-66.244 25.747 0 0 14.322-23.842 16.879-44.579-14.322 14.034-46.173 18.832-65.958 16.847 0 0-23.303 36.485-36.932 93.724 20.242-6.107 50.16-23.329 64.578-37.044 2.677 12.635 5.725 30.129 7.448 44.296 10.022-13.077 24.38-29.228 35.459-40.505 5.52 24.135 14.092 54.301 33.4 81.122-3.747-27.215 2.12-75.893 14.23-102.11 2-15.21.89-26.901-2.87-37.499l.01.001zM747.623 488.054c11.582 18.545 21.889 40.847 25.46 60.71 11.104-13.382 22.831-36.645 30.778-64.431 9.743 12.131 26.763 36.838 36.139 57.218 9.369-20.38 26.393-45.087 36.133-57.218 7.951 27.786 19.679 51.049 30.782 64.431 3.57-19.863 13.877-42.165 25.458-60.708 8.809 36.093 42.79 71.201 77.857 73.842-22.813-29.498-23.756-80.484-22.142-97.465-15.188-23.523-25.193-44.745-29.979-59.166-10.301 10.145-26.237 29.863-40.536 52.654 0-.277-.409-28.577-6.112-62.94-14.741 13.268-41.436 22.874-55.704 26.604-9.007 14.627-11.474 26.038-15.757 44.396-4.283-18.358-6.758-29.769-15.758-44.396-14.273-3.731-40.963-13.336-55.708-26.603-5.699 34.362-6.114 62.662-6.114 62.938-14.303-22.79-30.231-42.509-40.538-52.655-4.782 14.423-14.785 35.645-29.979 59.17 1.621 16.982.672 67.968-22.138 97.466 35.071-2.641 69.048-37.749 77.853-73.842l.005-.005zM429.898 914.907c19.682-12.789 32.136-36.026 46.314-64.446-8.254 3.402-20.214 7.087-32.2 9.565-11.693 22.527-28.252 13.789-28.684 10.593 3.579-3.951 7.665-9.791 10.739-14.873-4.984-9.287-10.987-23.122-14.297-31.677-16.73 35.08-47.457 70.713-73.19 84.616 15.141 20.964 62.066 25.229 91.316 6.22l.002.002zm60.828-59.125c-13.959 29.343-10.676 74.56 33.764 75.841-3.687-32.019 10.795-62.141 26.275-75.839-13.314 3.269-34.991 20.667-34.991 20.667s-3.264 7.456-3.921 17.104c-9.302 1.656-14.443-5.482-10.581-20.369 0 0-6.723-7.657-10.546-17.4v-.004zm-219.987 33.506a81.765 81.765 0 0019.437-2.368c42.912-10.56 83.777-47.109 108.067-77.796-13.875 4.375-27.89 7.216-43.426 8.784 0 0-10.88 12.678-19.257 17.365-4.245 2.396-8.487 3.54-12.506 3.54-12.14 0-17.295-9.918-17.295-9.918s19.581-9.345 32.042-22.623c-2.469-9.785-4.039-23.34-4.324-36.854-33.79 33.807-97.301 66.654-141.662 73.03 8.78 18.205 39.931 46.84 78.926 46.84h-.002zm-85.915-71.709a70.347 70.347 0 006.668-.32c44.103-4.343 97.333-32.477 131.609-56.825-10.912 2.207-39.6 2.846-53.212.956-4.708 3.141-25.464 16.207-42.733 18.389-31.501 3.975-34.832-15.436-34.832-15.436 20.237-2.462 43.567-9.267 65.868-19.61 2.239-16.725 6.125-31.633 9.447-42.624-48.622 26.97-127.945 45.94-175 46.566 9.416 22.271 45.922 68.902 92.187 68.902l-.002.002zm6.936-158.219c6.778-11.942 17.506-26.058 27.271-37.57-38.817 10.647-88.789 12.873-115.281 12.873-31.232 0-61.58-2.195-78.992-5.676 1.547 31.251 31.392 85.16 90.279 90.419 3.07.282 6.468.417 10.102.417 36.738 0 95.163-14.805 135.367-29.011-28.666-3.674-56.353-10.451-62.667-13.089-14.95 4.273-50.664 10.24-62.262 9.6-26.327-1.438-29.145-21.57-29.145-21.57s47.378 1.994 85.325-6.393h.003zM50.402 602.096c21.876 7.04 56.765 11.078 95.727 11.078 23.77 0 48.846-2.117 69.241-5.006-22.028-7.47-49.211-18.761-66.876-29.949-22.079-.439-52.05-1.063-71.295-6.931-28.303-8.628-27.901-27.91-27.397-32.238 24.468 9.8 66.093 19.174 96.858 21 11.342-10.882 28.862-23.849 47.347-35.139-73.006.636-166.205-28.162-218.57-55.775-11.973 97.036 54.187 126.261 74.965 132.958v.002zm160.481-201.21c-11.266-21.529-22.252-50.491-23.702-75.454-34.144-26.722-73.119-60.725-95.67-99.59-13.032-22.465-8.222-42.153 1.008-48.93 7.038 24.406 52.889 92.749 94.451 127.018.328-21.902 4.026-47.093 9.759-66.039-48.323-52.38-102.487-139.14-115.572-173.13-14.706 12.132-40.056 42.651-46.287 85.654-6.274 43.286 7.816 87.752 41.877 132.169 26.196 34.168 83.86 85.108 134.136 118.303v-.001zm-13.888 110.083c-33.22-21.941-56.247-42.299-68.519-60.582-27.76-10.754-63.651-27.169-81.334-41.964-24.295-20.306-16.603-38.584-13.77-42.236 21.39 21.756 67.714 53.114 100.616 67.065 20.542-7.975 49.085-13.818 76.893-17.227C128.466 383.59 39.999 322.704-6.233 265.306c-9.375 18.131-47.457 103.424 23.94 173.366 37.6 36.843 115.051 62.262 179.284 72.299l.004-.002zM1268.23 824.071c-3.31 8.555-9.32 22.391-14.3 31.677 3.07 5.08 7.16 10.92 10.74 14.873-.44 3.195-16.99 11.932-28.68-10.595-11.99-2.475-23.95-6.163-32.2-9.565 14.18 28.422 26.62 51.658 46.31 64.446 29.25 19.009 76.18 14.744 91.31-6.221-25.73-13.904-56.46-49.537-73.18-84.617v.002zm-78.96 31.713c-3.82 9.745-10.54 17.4-10.54 17.4 3.86 14.889-1.28 22.027-10.59 20.369-.65-9.646-3.92-17.104-3.92-17.104s-21.68-17.397-34.99-20.667c15.48 13.699 29.96 43.822 26.28 75.841 44.44-1.279 47.72-46.498 33.76-75.839zm152.93-49.511c12.46 13.277 32.03 22.624 32.03 22.624s-5.15 9.918-17.28 9.918c-4.03 0-8.27-1.145-12.52-3.541-8.37-4.688-19.25-17.364-19.25-17.364-15.54-1.568-29.55-4.406-43.43-8.784 24.29 30.686 65.16 67.237 108.07 77.794a81.796 81.796 0 0019.44 2.368c38.99 0 70.14-28.635 78.92-46.837-44.36-6.377-107.87-39.223-141.66-73.031-.29 13.513-1.86 27.067-4.32 36.853zm79.6-61.537c22.31 10.343 45.64 17.146 65.88 19.61 0 0-3.34 19.412-34.84 15.434-17.27-2.183-38.03-15.249-42.73-18.39-13.61 1.89-42.31 1.251-53.21-.956 34.27 24.348 87.5 52.482 131.6 56.825 2.22.212 4.45.319 6.67.32 46.27 0 82.77-46.633 92.19-68.902-47.06-.628-126.38-19.598-175-46.566 3.32 10.992 7.2 25.899 9.44 42.624v.001zm39.16-122.946c9.77 11.514 20.5 25.629 27.27 37.57 37.95 8.389 85.33 6.393 85.33 6.393s-2.82 20.13-29.14 21.568c-11.6.638-47.31-5.326-62.26-9.599-6.32 2.637-34 9.414-62.67 13.09 40.2 14.206 98.64 29.013 135.37 29.013 3.64 0 7.03-.135 10.1-.417 58.89-5.259 88.74-59.168 90.28-90.418-17.41 3.478-47.76 5.677-78.99 5.677-26.49 0-76.47-2.227-115.29-12.877zm243.6-152.651c-52.37 27.613-145.56 56.412-218.57 55.775 18.48 11.29 36 24.257 47.35 35.14 30.76-1.829 72.38-11.202 96.85-21.003.5 4.328.91 23.61-27.39 32.239-19.25 5.868-49.22 6.492-71.3 6.931-17.67 11.188-44.85 22.479-66.88 29.949 20.4 2.885 45.47 5.005 69.25 5.005 38.96 0 73.85-4.036 95.72-11.078 20.78-6.695 86.95-35.923 74.97-132.958zm-117.08-292.226c9.23 6.777 14.04 26.465 1.01 48.931-22.56 38.865-61.53 72.866-95.67 99.59-1.45 24.963-12.44 53.924-23.71 75.453 50.28-33.195 107.95-84.135 134.14-118.3 34.06-44.419 48.15-88.885 41.87-132.169-6.23-43.006-31.57-73.525-46.29-85.655-13.07 33.99-67.24 120.749-115.57 173.129 5.74 18.947 9.44 44.137 9.77 66.039 41.55-34.27 87.41-102.611 94.45-127.018zm-41.47 256.342c32.9-13.953 79.23-45.31 100.61-67.065 2.84 3.65 10.53 21.929-13.77 42.235-17.68 14.794-53.57 31.21-81.33 41.964-12.27 18.283-35.3 38.641-68.52 60.582 64.23-10.035 141.69-35.456 179.3-72.297 71.39-69.941 33.3-155.235 23.93-173.365-46.23 57.398-134.7 118.285-217.12 150.719 27.81 3.409 56.36 9.252 76.9 17.228v-.001zm-192.04-98.19c-26.77 61.887-94.63 117.063-138.53 144.688-20.02 12.598-12.72 36.491-6.31 47.094 59.8 99.017-48.95 172.813-147.17 123.74 21.43.235 43.07-17.918 46.07-34.094-6.81 5.865-34.71 2.642-42.95-4.95 12.65-6.598 15.66-13.285 16.32-19.538-15.65 9.573-47.28 10.892-56.6-5.281-51.897-1.395-86.419-41.764-90.237-53.413-3.847 12.393-10.062 34.049-12.101 55.422-14.076-9.499-38.112-30.994-50.643-60.145-14.182 20.188-24.878 42.929-31.822 66.892-6.944-23.963-17.632-46.704-31.822-66.892-12.533 29.149-36.57 50.647-50.64 60.146-2.047-21.372-8.251-43.026-12.101-55.42-3.818 11.65-38.34 52.019-90.237 53.413-9.322 16.173-40.948 14.854-56.596 5.28.651 6.256 3.663 12.941 16.313 19.537-8.243 7.594-36.132 10.82-42.948 4.952 2.997 16.176 24.637 34.328 46.067 34.094-98.224 49.071-206.972-24.723-147.167-123.74 6.408-10.603 13.714-34.496-6.309-47.095-43.899-27.629-111.762-82.803-138.529-144.692-3.181 25.236-.756 87.863 26.433 126.832-19.864 7.573-45.34 19.859-62.467 31.254 10.833 12.273 36.054 33.471 53 44.996-13.833 12.262-35.306 35.742-46.575 51.113 14.278 8.467 43.048 18.746 65.033 25.68-10.164 16.718-25.791 46.874-29.718 64.822 24.617 3.571 49.748 3.243 71.926 2.545-2.83 20.929-.969 47.207 1.253 66.353 22.847-3.274 47.98-12.518 64.654-21.271 3.165 14.442 11.882 41.098 19.698 55.368 21.673-20.51 50.262-29.896 76.727-24.462 54.188 11.129 70.296 65.779 70.296 65.779l.084-166.242v-18.56c0-10.364 5.592-15.848 15.627-15.845H1028c10.04-.003 15.63 5.482 15.63 15.844v18.557l.08 166.243s16.11-54.651 70.3-65.779c26.46-5.435 55.06 3.952 76.73 24.461 7.82-14.269 16.53-40.925 19.7-55.367 16.67 8.753 41.8 17.997 64.65 21.272 2.22-19.145 4.08-45.422 1.26-66.351 21.92 2.266 47.14 2.266 71.92-2.546-3.92-17.945-19.56-48.101-29.72-64.82 22.86-6.115 50.75-17.212 65.03-25.679-11.26-15.372-32.74-38.851-46.57-51.113 16.94-11.525 42.16-32.725 53-44.997-17.13-11.395-42.61-23.682-62.47-31.254 27.19-38.968 29.62-101.595 26.43-126.831zM670.593 140.456l-2.236 5.834c65.698 0 128.853-22.414 145.704-100.464h-50.323c-8.931 56.229-42.079 94.63-93.147 94.63h.002zM386.56 13.473s35.936 8.3 49.998 58.722c14.067 50.422 49.409 74.538 85.671 74.538l-2.232-6.871c-21.099-2.618-50.847-32.58-56.412-88.07-5.611-55.864-19.354-63.061-19.354-63.061-14.198-9.791-49.888 16.069-57.676 24.743l.005-.001zM281.443 36.026c29.975-.979 50.145 8.527 87.817-25.69 44.472-40.41 65.585-33.504 65.585-33.504-22.695-14.72-54.344-21.262-65.213-12.76-10.869 8.508-25.582 31.332-50.307 47.583-34.845 22.9-70.634 16.857-72.235 38.2h.969s3.414-12.841 33.381-13.83h.003zm27.649 133.949c18.221 17.91 19.895 54.711 19.895 54.711s21.82-39.008 3.838-80.48c-17.976-41.464-54.718-73.28-18.699-97.496-22.001.185-45.843-4.86-56.314 10.012-3.259 4.63-6.279 16.112 4.688 32.446 13.934 20.757 48.743 69.024 20.22 101.166 20.853-3.837 26.371-20.361 26.371-20.361l.001.002zm225.044-23.463h123.451s3.055-7.47 6.947-18.263H527.195c3.896 10.793 6.941 18.263 6.941 18.263zm73.873-174.78c0-6.72-5.328-12.18-11.896-12.18-6.572 0-11.903 5.458-11.903 12.18 0 6.727 5.331 12.175 11.903 12.175 6.566 0 11.896-5.447 11.896-12.175zm61.66 142.737c5.274-16.508 11.221-41.615 11.221-53.73 0-22.14-11.951-46.652-55.09-54.197 0 26.758-13.04 92.32-28.805 92.32h-1.773c-15.756 0-28.798-65.074-28.798-92.326-43.285 7.536-55.591 32.055-55.591 54.203 0 12.117 5.952 37.222 11.234 53.73H669.67h-.001zm-73.556-33.97c8.213 0 14.869-42.807 14.869-64.12 0-11.643-6.654-19.28-14.867-19.28-8.219 0-14.879 7.637-14.879 19.28 0 21.313 6.66 64.12 14.879 64.12h-.002zm-7.938-137.182h15.868l-1.981-20.296 19.83 2.032v-16.239l-19.83 2.033 1.981-20.3h-15.868l1.984 20.3-19.829-2.032v16.238l19.83-2.032-1.984 20.298-.001-.002zm328.08 102.509h-50.322c16.855 78.052 80.007 100.464 145.707 100.464l-2.23-5.834c-51.068 0-84.222-38.397-93.153-94.63h-.002zm241.515 100.909c36.26 0 71.6-24.116 85.67-74.54 14.06-50.418 50-58.72 50-58.72-7.79-8.67-43.47-34.532-57.68-24.743 0 0-13.74 7.198-19.35 63.063-5.56 55.49-35.31 85.452-56.41 88.07l-2.23 6.871v-.001zm152.97-136.397c37.67 34.215 57.84 24.712 87.82 25.69 29.96.987 33.37 13.83 33.37 13.83h.97c-1.6-21.345-37.39-15.302-72.23-38.201-24.72-16.251-39.44-39.075-50.31-47.584-10.87-8.503-42.52-1.96-65.21 12.761 0 0 21.11-6.907 65.59 33.504zm111.44 46.387c-10.47-14.873-34.31-9.827-56.31-10.013 36.02 24.215-.71 56.03-18.7 97.494-17.98 41.474 3.84 80.48 3.84 80.48s1.68-36.801 19.89-54.711c0 0 5.52 16.523 26.38 20.36-28.53-32.139 6.28-80.408 20.22-101.166 10.96-16.334 7.94-27.816 4.68-32.445v.001zm-276.32 89.789s3.04-7.47 6.94-18.263h-137.34c3.89 10.793 6.95 18.263 6.95 18.263h123.45zm-50.08-174.78c0-6.721-5.33-12.18-11.9-12.18-6.56 0-11.9 5.457-11.9 12.18 0 6.726 5.33 12.175 11.9 12.175s11.9-5.447 11.9-12.176zm62.15 142.737c5.28-16.508 11.24-41.615 11.24-53.73 0-22.148-12.32-46.668-55.6-54.202 0 27.247-13.04 92.322-28.8 92.322H1083c-15.76 0-28.8-65.559-28.8-92.319-43.15 7.545-55.092 32.057-55.092 54.197 0 12.117 5.942 37.222 11.222 53.73h147.6v.002zm-74.05-33.97c8.22 0 14.88-42.807 14.88-64.12 0-11.644-6.66-19.28-14.88-19.28-8.21 0-14.87 7.636-14.87 19.28 0 21.313 6.66 64.12 14.87 64.12zm-7.92-137.182h15.86l-1.98-20.297 19.83 2.033v-16.239l-19.83 2.032 1.98-20.3h-15.86l1.98 20.3-19.84-2.032v16.239l19.84-2.033-1.98 20.299v-.002zM268.259 431.207c-32.065.771-88.53 7.153-117.209 16.245 19.493 23.379 70.395 56.947 100.897 71.204-23.719 8.977-66.265 31.759-84.007 48.201 22.859 14.112 73.067 30.238 96.797 35.51-13.815 11.195-42.264 43.566-52.7 61.021 19.65 6.122 60.053 11.447 85.709 12.952-8.226 17.123-17.594 47.347-20.076 67.04 12.718 1.286 55.204-.906 76.24-5.62-1.804 17.162-1.118 48.383 1.727 61.843 20.756-2.976 50.391-11.316 64.179-16.64 3.993 15.299 18.265 48.244 23.28 56.073 16.627-3.191 36.477-9.973 51.067-17.609 4.61 12.262 15.089 30.608 17.986 35.24 48.603-49.068 118.008-9.277 118.008 42.94-4.985 34.403-53.625 32.479-79.228 48.65-33.667 21.263-27.842 70.563-62.494 78.123 32.743 20.68 42.27-18.13 76.279-19.23-4.538 20.93-4.107 58.1-.699 73.66 13.997-10.79 33.627-19.02 46.471-19.86-3.173 12.21-5.65 40.78-1.058 58.58 9.022-6.83 42.717-36.09 122.72-17.28 9.699 2.28-54.267-.23-46.285 20.38 6.287 16.24 8.066 27.54.548 50.6 3.391 1.21 7.326 1.79 11.565 1.79 17.939 0 41.198-10.4 50.437-26.72 7.139 5.3 7.139 43.06-16.781 52.44 25.552 1.86 45.01-18.87 48.786-31.61 0 0 12.49 29.66 27.302 39.39 9.301-3.25 25.873-18.65 32.278-34.64 6.398 15.99 22.973 31.39 32.269 34.64 14.814-9.73 27.306-39.39 27.306-39.39 3.776 12.74 23.24 33.47 48.791 31.61-23.922-9.38-23.922-47.14-16.785-52.44 9.243 16.32 32.499 26.72 50.442 26.72 4.236 0 8.175-.58 11.568-1.79-7.518-23.06-5.74-34.36.547-50.6 7.984-20.61-55.985-18.1-46.286-20.38 79.99-18.81 113.7 10.45 122.72 17.28 4.59-17.8 2.12-46.37-1.06-58.58 12.84.84 32.47 9.07 46.47 19.86 3.4-15.57 3.84-52.73-.71-73.66 34.01 1.1 43.54 39.91 76.29 19.23-34.66-7.57-28.83-56.864-62.5-78.125-25.6-16.171-74.24-14.247-79.23-48.649 0-52.216 69.41-92.009 118.01-42.941 2.9-4.633 13.37-22.979 17.99-35.241 14.58 7.639 34.44 14.419 51.07 17.612 5.01-7.832 19.28-40.777 23.27-56.076 13.79 5.323 43.43 13.664 64.18 16.642 2.85-13.46 3.54-44.681 1.73-61.844 21.03 4.714 63.52 6.908 76.23 5.62-2.47-19.694-11.84-49.917-20.07-67.041 25.66-1.505 66.06-6.83 85.72-12.952-10.45-17.457-38.89-49.827-52.7-61.023 23.72-5.272 73.93-21.396 96.79-35.511-17.74-16.441-60.29-39.223-84.01-48.198 30.51-14.258 81.4-47.825 100.9-71.204-28.68-9.095-85.15-15.477-117.21-16.245 66.37-45.229 68.42-143.331 49.3-196.641-12.85 32.317-55.46 85.411-82.97 114.035 2.44 27.246-6.43 75.573-21.65 105.069 21.79 8.242 47.61 20.675 65.91 34.536-12.14 15.216-38.26 38.829-54.64 51.623 13.86 14.441 37.18 40.968 47.57 56.303-15.36 11.453-48.76 24.592-65.89 30.624 8.43 17.217 20.67 48.624 23.83 70.304-19.5 3.214-46.35 5.388-74.41 5.049 1.36 20.761-1.57 52.905-5.2 72.153-26.03-2.062-56.75-12.709-70.44-19.549-7.25 28.692-25.15 56.528-25.93 58.008-81.38-88.359-153.5-5.002-153.5 72.876v106.124c0 50.192-15.87 73.112-61.56 73.112h-59.121c-36.806 0-67.647 15.56-83.035 45.44-15.391-29.88-46.232-45.44-83.037-45.44h-59.125c-45.687 0-61.564-22.92-61.564-73.113V885.592c0-77.876-72.119-161.233-153.492-72.874-.783-1.48-18.69-29.316-25.936-58.008-13.694 6.84-44.407 17.487-70.43 19.55-3.64-19.247-6.566-51.392-5.202-72.149-28.068.337-54.914-1.835-74.423-5.049 3.168-21.681 15.409-53.089 23.839-70.306-17.122-6.032-50.532-19.171-65.885-30.624 10.384-15.335 33.701-41.861 47.564-56.305-16.384-12.795-42.497-36.406-54.634-51.624 18.288-13.861 44.116-26.296 65.9-34.537-15.217-29.495-24.094-77.822-21.651-105.069-27.507-28.625-70.117-81.72-82.969-114.035-19.115 53.31-17.068 151.412 49.306 196.639l.004.006zM85.105 937.905l-5.984 6.361s12.411 16.159 22.431 10.012c5.705-10.49-10.434-22.705-10.434-22.705l-6.015 6.332h.002z"/></mask><path clip-rule="evenodd" d="M1368.43 1280.25c-2.99 0-9.65 22.57-2.79 38.57 3.64 8.53 12.21 12.12 19.39 9.74 7.06-2.35 9.12-9.05 9.32-14.27.66-17.54-14.78-34.04-25.92-34.04h0zm-51.39-255.92l2.25 24.78-21.46-2.39v28.22l21.46-2.38-2.25 25.88h29.15l-2.25-25.88 21.45 2.38v-28.22l-21.45 2.39 2.25-24.78h-29.15 0zm14.61 97.65c-5.8 0-10.51 4.8-10.51 10.72 0 5.92 4.71 10.72 10.51 10.72 5.81 0 10.51-4.8 10.51-10.72 0-5.92-4.71-10.72-10.51-10.72zm0 43.4c-5.8 0-10.51 4.79-10.51 10.71 0 5.92 4.71 10.72 10.51 10.72 5.81 0 10.51-4.8 10.51-10.72 0-5.91-4.71-10.71-10.51-10.71zm0 44.01c-5.8 0-10.51 4.8-10.51 10.72 0 5.93 4.71 10.72 10.51 10.72 5.81 0 10.51-4.8 10.51-10.72 0-5.92-4.71-10.72-10.51-10.72v0zm33.95 10.72c0 5.93 4.7 10.72 10.51 10.72 5.8 0 10.51-4.8 10.51-10.72 0-5.92-4.71-10.72-10.51-10.72-5.81 0-10.52 4.8-10.52 10.72h.01zm44.05 0c0 5.93 4.71 10.72 10.52 10.72 5.8 0 10.51-4.8 10.51-10.72 0-5.92-4.71-10.72-10.51-10.72-5.81 0-10.52 4.8-10.52 10.72v0zm-78 48.21c-9 0-31.2 45.54-14.65 68.57 3.17 4.4 8.71 6.88 14.65 6.88 5.94 0 11.49-2.48 14.65-6.88 16.55-23.03-5.65-68.57-14.65-68.57zm-36.78 11.93c-11.14 0-26.58 16.5-25.92 34.04.2 5.22 2.26 11.92 9.32 14.26 7.17 2.39 15.75-1.21 19.4-9.73 6.85-16 .19-38.57-2.8-38.57zm-17.1-60.14c0 5.93 4.7 10.72 10.51 10.72s10.51-4.8 10.51-10.72c0-5.92-4.71-10.72-10.51-10.72-5.81 0-10.51 4.8-10.51 10.72h0zm-42.98 0c0 5.93 4.7 10.72 10.51 10.72s10.51-4.8 10.51-10.72c0-5.92-4.7-10.72-10.51-10.72s-10.51 4.8-10.51 10.72v0zm-10.36 0c0-9.14 1.58-17.37 1.58-17.37h87.35v-71.24h0v-18.11c-42.16 7.38-75.88 39.84-85.94 81.78-2.44 3.49-10.37 5.27-15.95 4.65-32.24-3.94-97.47-15.68-97.47-29.55 0-19.49 13.22-27.29 25.92-27.29 18.11 0 38.13 9.8 54.79-14.29-59.31 2.71-13.84-82.83-62.49-99.06 2.41 21.84.02 60.27-7.65 80.59 0 0-17.43-18.59-37.01-25.6 1.47 15.85-1.51 48.72-8.61 63.68 0 0-20.73-19.15-42.22-26.32 19.83 28.7 19.15 69.67 13.81 94.58-1.54 7.21 3.84 16.18 18.96 15.52 23.66-1.04 104.45 2.52 139.49 16.82 10.9 4.45 20.23 9.55 24.79 17.3 3.71 10.45 12.9 26.63 24.2 34.92 5.08-18.05 26.71-37.39 40.81-36.69 4.21.2 8.86 7.23 9.83 14.1 1.24-6.39 11.64-24.07 23.03-24.07 10.51 0 20.61 14.79 24.12 27 1.06-7.84 5.7-16.23 9.91-16.23 14.16 0 31.96 12.53 38.67 33.24 5.43-6.76 30.37-38.76 33.19-59.77h-211.53s-1.59-9.08-1.59-18.59h.01zm125.51-106.7v89.33h87.43c-7.6-45.55-42.8-81.5-87.43-89.33h0zm-1031.675 73.55c1.835.62 3.693.18 5.522-.79-5.893 8.19-5.649 13.58-3.113 16.1 3.987 3.94 6.94-3.3 17.015-13.98 10.085-10.66 17.06-13.91 13.089-17.87-2.56-2.54-7.866-2.61-15.788 3.84.876-1.89 1.213-3.77.575-5.6-3.333-9.63-18.85-22.45-27.403-22.48a9.243 9.243 0 00-3.59.76c3.763-6.03 2.791-10.59.274-13.09-2.772-2.74-4.359-.82-7.47 3.15.425-2.77-.288-6.02-2.913-9.99-12.839-19.4-80.746-83.26-96.166-89.67-9.203-3.85-12.223 1.47-12.223 1.47s-5.093 3.28-1.067 12.59c6.739 15.59 71.991 82.28 91.295 94.83 3.959 2.56 7.139 3.19 9.828 2.67-3.752 3.28-5.55 4.97-2.793 7.71 2.519 2.5 7.004 3.35 12.77-.71a9.915 9.915 0 00-.602 3.7c.293 8.75 13.267 24.25 22.764 27.36h-.004zM155.04 998.029c-2.012 0-4.869.477-6.971 2.701-2.128 2.25-2.876 5.73-2.102 9.77.851 4.39 3.357 8.84 7.07 12.53 4.445 4.43 10.038 7.06 14.939 7.06 2.025 0 4.863-.46 6.968-2.68 4.586-4.86 2.322-15.08-4.96-22.31-4.459-4.41-10.036-7.067-14.943-7.067l-.001-.004zm211.194 237.051c-.057-6.74-12.84-18.06-28.002-18.06-22.519 0-32.267 14.27-32.267 21.55 0 13.69 13.233 15.45 17.289 15.68 15.849.98 41.406-15.23 42.98-19.17zm-19.398 34.2c-5.984 7.66-8.224 15.15-6.676 22.24 1.884 8.59 10.381 12.45 17.971 12.45 7.999 0 15.163-3.77 19.163-10.11 8.603-13.56 8.982-43.6 6.082-46.89-7.211 0-26.389 9.31-36.539 22.31h-.001zM149.208 956.488c-6.365-6.326-19.38 3.1-27.158-1.286 3.448-19.315 17.118.956 30.33-13.009 5.267-5.577 2.441-14.284-.582-16.912-5.692 5.77-14.502 3.771-15.179.564 14.995-35.437-14.303-74.945-42.434-69.994 5.519 7.386 7.169 33.059 4.765 39.998 10.71 7.693 3.054 25.813-8.766 20.549-7.928-3.23-21.91-23.05-5.83-37.014-.463-5.033-9.31-6.256-18.71 5.871 6.897-22.26-35.323-15.28-43.998-9.938-4.933 9.048-10.402 52.538 11.069 44.772-11.517 10.02-10.046 19.041-5.129 19.365 13.104-16.911 32.846-3.192 36.251 4.83 5.505 11.961-11.925 20.353-19.754 9.623-6.7 2.689-31.774 1.806-39.151-3.619-3.932 28.977 35.49 57.752 69.571 41.29 3.141.596 5.37 9.542-.07 15.562 2.66 3.03 11.226 5.65 16.5.06 13.195-13.961-6.997-27.342 11.728-31.492 4.519 7.841-4.251 21.476 2.105 27.802 10.183 10.11 22.973-9.507 35.534-10.294.369-12.898 19.089-26.61 8.909-36.732l-.001.004zM43.674 911.747s-6.587-4.679 1.311-13.25c8.093-8.368 12.875-1.756 12.875-1.756s7.42 16.514 9.613 24.116c-7.482-2.01-23.798-9.11-23.798-9.11h-.001zm65.175 50.227c-4.088.518-13.771 9.139-18.627 4.312L68 944.219l11.11-11.788 11.154-11.763 22.202 22.093c4.856 4.811-3.244 15.014-3.617 19.212v.001zM477.038 1300.2c.753-3.31.236-5.96-1.496-7.68-.543-.54-1.031-.85-1.325-.85-1.252 0-4.036 3.44-6.721 6.78-2.235 2.76-5.022 6.2-8.576 9.95-3.54 3.77-6.818 6.72-9.444 9.11-3.121 2.82-6.357 5.75-6.393 7.06 0 .31.32.81.887 1.37 1.149 1.15 2.689 1.72 4.558 1.72 2.856 0 9.046-1.46 18.359-11.33 7.073-7.47 9.432-12.9 10.153-16.13h-.002zm.134 26.33c-4.842 5.14-9.762 8.79-12.486 10.65 1.932 1.96 7.424 5.43 14.287 5.43 3.918 0 7.577-1.15 10.918-3.43 6.85-11.29.24-22.84-2.733-25.78-1.738 2.86-5.149 8.02-9.988 13.13h.002zm-74.989-62.79c-3.527 3.3-11.684 26.22-8.125 40.18 1.532 5.98 4.834 8.53 10.423 8.23 5.782-.36 8.934-3.37 9.909-9.5 2.217-13.94-8.361-36.1-12.209-38.91h.002zm-4.464-63.7c.2.39 41.836 36.97 55.805 50.21 3.291 3.13 7.83 3.85 12.439 1.51 2.629-1.35 5.904-2.89 9.29-4.44 41.635-14.7 110.12-16.35 135.241-15.24 15.123.66 20.464-8.3 18.957-15.52-4.92-23.58-6.019-65.88 13.815-94.58-21.495 7.16-42.221 26.32-42.221 26.32-7.109-14.96-10.085-47.83-8.616-63.69-19.572 7.01-37.008 25.61-37.008 25.61-7.668-20.32-10.062-58.75-7.646-80.59-48.651 16.23-3.181 101.77-62.494 99.06 16.667 24.09 36.682 14.3 54.794 14.3 12.701 0 28.478 8.3 25.92 27.28-1.854 13.74-81.435 30.85-113.441 30.85-22.371 0-37.351-6.9-48.578-22.4-5.401-7.46-10.908-10.84-17.078-9.89-7.657 1.18-16.611 9-16.611 27.1 0 12.83 5.191 40.94 20.608 40.94 10.829 0 11.308-22.21 6.822-36.83h.002zm51.456 98.68c7.267-7.7 9.809-13.31 8.014-17.69-2.598-6.32-19.126-24.69-40.761-45.43a86.905 86.905 0 01-2.885 12.65c14.58 19.24 20.028 39.91 15.112 57.26 1.78 1.18 2.882 1.72 3.527 1.97 5.598 2.22 12.586-4.09 16.99-8.76h.003zm-105.281-104.64c-.105.11-2.798 2.76-4.539 6.33 4.525.03 9.798.81 14.541 2.08-.315-4.19-.627-9.87-.216-14.77-4.002.9-8.301 4.75-9.784 6.36h-.002zm727.226 132.17c13.71-6.23 23.59-23.13 26.2-39.66-8.69 4.24-18.48 6.31-29.77 6.31-31.06 0-70.076-17.2-105.439-32.79 0 0-7.625 6.39-20.261 7.73 35.682 10.92 105.8 49.68 110.96 74.54 3.44 16.63-7.44 22.97-7.44 22.97-15.6-25.35-55.813-64.72-109.477-84.41.11 9.27-1.675 15.77-1.675 15.77s-10.89 2.67-34.021-1.33c20.225 16.81 73.353 76.17 79.121 121.21 3.845 30.07-17.253 31.46-17.253 31.46-3.012-45.23-26.83-92.03-69.815-139.02 0 0-7.048 11.01-16.416 16.56 0 0-15.875-2.8-29.051-11.48 5.073 59.67 8.07 137.18 4.922 160.65-2.198 16.33-11.702 23.18-11.702 23.18s-9.538-6.85-11.74-23.18c-3.142-23.47-.151-100.98 4.922-160.65-13.171 8.68-29.05 11.48-29.05 11.48-9.369-5.55-16.407-16.56-16.407-16.56-42.994 46.99-66.813 93.79-69.82 139.02 0 0-21.099-1.39-17.251-31.46 5.766-45.04 58.896-104.4 79.118-121.21-23.13 4-34.021 1.33-34.021 1.33s-1.784-6.5-1.672-15.77c-53.661 19.69-93.865 59.06-109.474 84.42 0 0-10.88-6.35-7.432-22.98 5.149-24.86 75.268-63.62 110.955-74.54-12.637-1.34-20.267-7.73-20.267-7.73-35.358 15.6-74.382 32.79-105.438 32.79-11.287 0-21.083-2.07-29.762-6.31 2.598 16.53 12.486 33.43 26.184 39.66-47.976 33.62-18.351 112.41-82.695 97.6 35.881 66.35 108.455 73.01 108.455 73.01-16.076-35.09 3.968-142.17 100.291-190.82-59.293 58.87-86.307 130.25-70.575 180.6 14.434 46.22 61.354 64.95 96.683 65.76-24.982-76.42-9.585-163.94 42.26-219.03-22.217 60.42-53.455 221.69 36.743 252.63 90.19-30.94 58.927-192.21 36.702-252.63 51.855 55.09 67.244 142.61 42.264 219.03 35.327-.81 82.244-19.54 96.684-65.76 15.73-50.35-11.28-121.73-70.573-180.6 96.323 48.65 116.363 155.73 100.283 190.82 0 0 72.58-6.66 108.46-73.01-64.35 14.81-34.72-63.98-82.7-97.6h-.01zM847.66-2.965c0-4.735-3.755-8.593-8.357-8.593-4.614 0-8.358 3.858-8.358 8.593 0 4.748 3.743 8.608 8.358 8.608 4.602 0 8.357-3.86 8.357-8.608zm42.167 0c0-4.735-3.74-8.593-8.358-8.593-4.606 0-8.35 3.858-8.35 8.593 0 4.748 3.744 8.608 8.35 8.608 4.618 0 8.358-3.86 8.358-8.608zm-65.514-223.076c0 8.867 7.016 16.107 15.64 16.107 8.638 0 15.651-7.24 15.651-16.107 0-8.88-7.013-16.113-15.651-16.113-8.624 0-15.64 7.232-15.64 16.112v.001zm5.034-34.224h21.297l-2.302-25.675 23.135 2.459v-20.309l-23.137 2.451L850.642-327h-21.297l2.293 25.661-23.13-2.451v20.309l23.13-2.459-2.293 25.674.002.001zM805.492-2.967c0-4.735-3.755-8.592-8.364-8.592-4.607 0-8.357 3.857-8.357 8.592 0 4.748 3.75 8.609 8.357 8.609 4.609 0 8.364-3.86 8.364-8.609zm-50.196 31.863c2.262.812 4.874 1.254 7.967 1.254h153.471c3.094 0 5.706-.442 7.959-1.254 4.956-1.772 7.968-5.485 9.138-11.419H746.16c1.165 5.934 4.179 9.644 9.136 11.42v-.001zm8.439-31.863c0-4.735-3.747-8.592-8.361-8.592-4.608 0-8.364 3.857-8.364 8.592 0 4.748 3.756 8.609 8.361 8.609 4.614 0 8.361-3.86 8.361-8.609h.003zm167.855 0c0-4.735-3.755-8.592-8.35-8.592-4.613 0-8.365 3.857-8.365 8.592 0 4.748 3.752 8.609 8.367 8.609 4.594 0 8.35-3.86 8.35-8.609h-.002zm10.03-20.384c4.327-5.36 25.838-46.871 25.838-88.779 0-37.717-47.494-58.479-75.751-59.428-3.271 53.877-24.296 138.45-51.702 138.45-25.938 0-48.477-84.085-51.708-138.452-28.253.952-75.746 21.714-75.746 59.432 0 41.907 21.502 83.42 25.832 88.777h203.24-.003zM840.005-59.866c12.905 0 29.586-53.655 33.846-104.438 0-10.282-12.911-26.009-33.845-26.419-20.941.408-33.852 16.136-33.852 26.419 3.741 47.357 21.143 104.438 33.852 104.438h-.001zM429.714 214.022c-25.045 34.371 9.589 71.988 11.725 74.587 1.506 1.834 2.797 1.006 2.567-1.051-.181-1.766 18.024-54.766 122.83-26.856 2.241.596 3.615.643 1.515-1.525-19.361-15.315-42.332-49.644-49.756-77.257 0 0-63.832-2.269-88.883 32.102h.002zm56.184-7.189c0-9.601 13.998-12.25 22.044-12.25 0 0 3.532 9.272 7.076 14.404-8.166-3.644-19.509-4.014-29.12-2.154zm55.634-44.851c-6.972 0-9.577 4.428-7.3 12.096 24.081 81.001 89.731 100.213 115.651 135.294 0 0-.185-10.929 11.84-37.008 8.182 13.413 30.35 38.531 44.755 41.728-3.443-7.225-7.539-35.746-4.345-54.912 34.019 29.702 75.959 35.539 98.466 18.402-19.163.733-44.116-20.552-56.676-39.433 17.535 4.046 41.678-.125 46.654-5.152-11.077-2.697-24.511-12.504-32.601-21.822 12.443-.863 39.442-11.039 47.16-25.387-10.826 2.454-26.877-1.96-37.329-7.476 7.961-4.297 27.827-25.548 32.593-44.198-28.213 13.806-72.728 27.542-138.67 27.542 0 0-116.523.325-120.201.325l.003.001zm72.794 36.927c-18.642 7.37-27.984 17.323-27.984 17.323s-8.947-14.655-11.803-19.366c-2.856-4.707-3.751-10.477 5.886-10.477h57.793c0 3.932-5.252 5.148-23.893 12.519l.001.001zM417.032 330.71c6.031 7.985 23.099 32.371 60.542 10.569 37.434-21.805 56.742-33.675 56.742-33.675s-5.848 11.252-1.41 24.743c.259.775 1.139.74 1.477-.062 3.729-8.731 36.243-33.995 77.704-37.492-15.199-13.258-31.876-25.073-31.876-25.073-17.714 2.854-52.052 14.94-96.467 43.722-44.421 28.782-64.884 16.762-65.734 16.222-.847-.542-2.05-.371-.979 1.046h.001zm530.549 918.96c6.396-2.04 11.749-5.29 14.502-8.94-28.689-1.24-52.37-25.95-61.042-41.2-9.53 15.73-26.543 28.02-26.543 28.02-12.113-3.19-28.667-16.36-34.498-26.43-5.826 10.08-22.382 23.24-34.498 26.43 0 0-17.012-12.29-26.544-28.02-8.668 15.25-32.351 39.96-61.042 41.2 2.755 3.65 8.109 6.9 14.505 8.94 4.282 1.37 9.022 2.21 13.793 2.21 5.054 0 10.129-.91 14.679-3.04-2.865 10.39-3.818 23.22-1.721 32.01 0 0 15.258 1.2 31.008-4.74 1.133 9.5 5.479 21 12.609 28.78 1.401 1.52 2.865 2.95 4.478 4.14 8.46 0 28.885-9.84 32.735-15.9 3.845 6.06 24.271 15.9 32.735 15.9 1.606-1.19 3.073-2.63 4.476-4.15 7.126-7.77 11.474-19.27 12.604-28.77 7.086 3.55 15.316 4.97 24.425 4.97 2.195-.01 4.391-.08 6.581-.23 2.104-8.8 1.15-21.62-1.719-32.01 4.553 2.13 9.628 3.04 14.678 3.04 4.782 0 9.515-.84 13.798-2.21h.001zM661.249 639.408c-5.621 0-9.101 3.58-9.101 9.343v349.885c0 33.364 13.18 50.284 39.169 50.284l65.032.25c44.56 0 70.847 15.3 83.651 34.27 10.888-17.69 41.486-34.27 83.653-34.27l65.013-.25c25.994 0 39.174-16.92 39.174-50.284V648.751c0-5.763-3.49-9.343-9.09-9.343H661.246h.003zm63.518 327.349c-.624 7.743 8.397 21.827 23.287 17.42-.448 2.857.388 10.672 3.716 16.533-26.38 5.96-37.757-15.68-27.003-33.953zm239.166-115.826a616.736 616.736 0 01-10.743-11.666c-3.763-4.171-6.448-5.792-10.287-5.792-8.633 0-17.871 4.716-22.81 7.981-.328.133-.577.45-.699 1.301 5.249-.467 10.514-.851 15.748-1.442 4.595-.529 8.885-.345 12.844 2.596 3.117 2.305 4.876 5.159 5.045 8.886.499 11.909 10.029 36.975 10.622 44.498.743 2.959-2.825 3.821-7.766 17.656-3.648 4.067-13.51-8.844-12.082-11.865 5.747-7.475 7.331-12.132 5.873-17.7-1.165-4.477-3.353-12.472-4.975-16.806-2.167-5.783-7.045-7.95-13.105-5.877-23.779 7.871-27.444-2.619-51.012 7.247l27.142 41.898c-.1-3.036-1.559-8.518-5.949-12.458.79-4.229 9.353-5.979 12.552-2.018 3.927 5.022 11.586 12.183 17.89 13.331 12.112 2.235 11.195 20.576 43.56 26.715-4.023 4.158-12.999 2.748-16.91.867 2.361 3.638 5.078 7.072 9.955 8.313-5.018 5.023-19.414-6.748-17.941 5.097 2.49-1.437 5.939-1.67 8.855-.938 6.459 1.607 17.052 38.229-5.262 54.235 4.75 1.42 9.859-1.09 14.678-1.09 2.824 0 5.463 2.74 5.744 5.79 2.081 1.59 3.448 3.55 4.66 6.05-1.68.56-4.923.04-6.723-1.15.724 2.03.551 6.92-.205 7.01-2.018.27-3.574-.88-5.637-2.11-2.873 1.47-12.313.87-14.986-1.52-7.127 1.73-14.162 4.05-21.587 4.05-4.009 0-9.29-.25-9.101-5.14.091-2.38 1.275-3.61 2.204-6.22-3.417-3.5-9.112-.11-15.903.55-9.205.88-13.001-.55-14.997-2.42 8.691-8.03 3.445-27.589-9.978-29.32 11.042 10.559 9.6 27.64-2.76 31.48 3.571 1.15 5.34 2.76 6.707 5.3 4.346 1.8 4.409 4.94 4.083 6.35-2.378-1.69-6.66-3.35-10.077-2.9-.246 1.49-.869 4.28-2.157 5.36-1.476-.32-3.401-1.67-4.149-2.75-3.948-3.02-28.541 2.75-30.035-1.29-.945-3.75 5.621-6.9 11.679-8.23-15.577-5.71-29.092-34.987-53.074-39.945-11.122-2.292-26.191 2.697-26.191 17.142 0 7.097 5.716 12.563 11.896 12.563 5.689 0 8.534-3.929 8.534-7.906-.916.693-1.483 1.121-2.042 1.578-3.48 2.85-7.914 2.668-11.123-.455-2.824-2.751-2.824-7.527-.083-10.757 2.255-2.688 4.963-4.202 8.581-4.735 9.389-1.364 17.068 1.624 22.241 9.149 2.465 3.591 3.826 7.429 3.826 11.146 0 16.64-16.694 20.42-25.933 20.42-23.259 0-36.966-16.62-36.966-35.861 0-2.242.11-4.516.495-6.805 3.64-21.65 23.004-30.702 39.757-33.41-2.137-7.536-6.264-13.626-12.187-18.597-2.949-2.473-3.248-4.492-1.39-7.646 2.53-4.312 5.188-8.555 6.306-13.414.255-1.09.371-2.242.452-3.426-8.342 7.464-20.003 14.305-36.139 19.189-5.089 2.349-7.782 6.978-8.429 12.302-.735 6.178-.907 12.445-1.019 18.678-.028 1.438 1.014 3.003 1.806 4.381 3.003 5.143 6.319 10.151 7.059 16.568 0 3.108-15.667 3.429-15.667.937-.146-11.283-7.691-15.667-6.881-23.117 2.085-11.588 2.551-23.179.651-34.826-.479-2.932 1.083-4.861 3.176-6.421 3.328-2.534 6.865-4.798 10.187-7.312 7.841-5.982 11.085-13.776 9.243-23.442-.237-1.257-.794-2.469-1.339-3.653-3.905-8.599-6.755-17.308-6.755-27.005 0-10.634-13.201-10.027-12.338.423.271 3.265 2.712 7.831 4.083 10.969 13.535 31.088-10.801 53.476-35.975 53.46 26.462-9.144-6.185-42.961-6.185-68.19 0-15.472 11.976-26.911 26.267-26.911 16.482 0 26.932 10.603 29.925 12.425 7.974-12.622 32.389-14.899 41.556-16.354-.699-6.796.26-12.836 4.434-18.052.272-.352.444-1.006.296-1.382-1.302-3.215-2.689-6.389-4.488-9.498-7.517 8.467-9.321 19.698-9.321 25.504-27.835-.408-40.112-12.576-48.339-17.367.032-2.117 7.437-15.421 14.004-24.201-7.198 6.159-13.116 13.093-17.461 21.408-3.979-2.87-8.163-5.465-12.253-7.163 6.273-13.411 14.586-23.85 25.18-34.758-14.918 5.492-27.901 22.328-32.822 32.905-4.256-.486-10.543-.651-14.054.031 16.257-19.843 23.687-58.939 59.431-67.708-8.953 36.257 13.311 50.99 28.641 41.528-1.995 0-3.361.317-4.648 0-29.889-7.569-12.176-48.883-19.414-57.484-2.749-3.261-4.168-6.252-3.721-10.38.161-1.452-.27-3.136-.938-4.474l-15.897-26.487c-1.999-3.335 4.189-5.708 5.522-4.174l16.212 26.489c.42.663.937 1.634 1.54 1.745 5.928 1.041 7.762 5.943 10.159 10.281.759 1.399 1.357 3.006 1.495 4.587.114 1.207-.217 2.895-1.023 3.716-2.578 2.603-2.078 5.164-.085 8.541 3.199 5.415 99.234 164.902 99.234 164.902-20.858 8.515-58.589 9.205-69.519 8.148-2.268 5.535-5.813 11.376-11.053 17.003 5.232-3.398 9.278-7.708 13.018-12.393 4.22.486 10.546 2.171 17.014 2.642-3.826 8.158-9.573 16.276-16.951 23.075-3.47 3.41-7.769 6.429-6.188 11.89 1.782 6.147 13.248 17.86 17.43 25.459 4.151.875 11.159 2.349 16.297 4.397 2.932 6.281 12.848 14.17 24.799 10.087-24.028-.301-22.255-24.849-14.788-37.832-.808 12.058 5.032 22.068 12.428 23.21-11.09-10.092-9.98-33.013.822-45.587 1.536 20.415 7.746 31.145 16.63 33.571-11.742-10.772-18.789-35.694-1.058-53.854 1.37 46.602 44.166 38.197 48.055 92.144 15.851 0 16.753-21.283 7.917-25.195-5.157-1.926-9.816-5.313-12.455-9.923-1.099-1.939-2.239-5.398-3.136-7.432-4.711-13.862-18.013-12.984-17.69-16.308.315-1.124 2.409-1.64 5.347-1.64l-25.067-38.611-1.307-2.016c3.023-.612 3.694-2.365.589-7.248 0 0-94.064-155.956-94.512-156.85 8.745-1.513 17.147.851 25.328 4.008-2.184-2.02-3.965-4.841-4.346-7.751-.315-2.339-.227-3.705 1.663-5.19 2-1.628 3.921-3.506 5.322-5.629 4.67-7.082 13.251-10.542 21.048-8.327 11.765 3.332 15.929 16.598 7.28 23.573-4.603 10.118-10.311 8.843-11.485 13.378 2.308 1.066 18.4 13.458 19.474 18.675-4.796 9.953-7.18 25.512-3.019 34.196 3.109-41.373 28.097-61.608 52.433-61.608 5.779 0 11.522 1.003 17.284 2.959 3.152 1.061 6.304 2.59 8.927 4.578a80.132 80.132 0 0110.566 9.667c4.748 5.202 9.1 10.757 17.178 11.118-2.362 3.355-5.051 5.811-7.803 8.222-1.984 1.772-2.981 3.9-3.225 6.57-.562 5.747-2.457 11.011-6.695 15.242a5.634 5.634 0 00-1.291 2.018c-2.701 7.815-5.437 15.597-7.977 23.457-.63 1.914-.488 4.552-3.08 4.521-2.251-.031-4.971-.685-6.648-2.051-3.567-2.879-4.846-7.072-3.567-11.498 1.27-4.402 0-8.181-1.399-12.275-1.433-4.095-1.93-8.524-2.892-13.198-6.645-2.321-19.118 11.911-9.597 23.834 6.183 8.797 11.74 24.985 12.703 31.612.2.654-5.625 4.312-13.651 3.293-27.129-3.459-44.287-22.235-49.501-38.075-.425 26.833 21.918 46.724 55.031 44.798 1.349 6.251 6.471 10.497 12.439 10.694 1.239-4.036 1.212-12.503.2-17.886-.45-2.368.795-3.58 2.996-4.143 7.24-1.835 16.664-1.121 24.725-3.989 7.149-2.562 10.531-1.062 14.974 7.558 3.37 6.502 9.128 13.501 14.565 18.325 2.283 2.017 4.566 4.065 6.723 6.219 2.749 2.744 4.179 5.974 4.393 9.965-.708 6.253.126 18.84.126 19.039-1.57 4.127-13.015-.241-14.864-4.673-.697-1.652 4.897-13.257-.976-19.479l.002.006zM1161.41 181.92c-7.43 27.613-30.4 61.942-49.76 77.257-2.1 2.167-.72 2.123 1.52 1.525 104.8-27.91 123.01 25.089 122.82 26.858-.22 2.057 1.07 2.885 2.57 1.05 2.14-2.598 36.77-40.217 11.73-74.586-25.05-34.372-88.88-32.103-88.88-32.103v-.001zm3.58 27.067c3.54-5.132 7.08-14.404 7.08-14.404 8.04 0 22.03 2.65 22.03 12.25-9.61-1.862-20.95-1.49-29.11 2.154h0zm97.98 121.723c1.07-1.417-.14-1.588-.98-1.046-.85.54-21.32 12.56-65.73-16.222-44.42-28.782-78.76-40.87-96.47-43.722 0 0-16.68 11.815-31.88 25.073 41.46 3.497 73.98 28.761 77.71 37.492.34.802 1.21.837 1.47.062 4.44-13.491-1.41-24.743-1.41-24.743s19.31 11.87 56.74 33.673c37.45 21.802 54.52-2.584 60.55-10.568v.001zM912.193 178.313c-10.45 5.517-26.5 9.929-37.328 7.477 7.72 14.347 34.719 24.524 47.158 25.386-8.085 9.317-21.524 19.124-32.599 21.821 4.978 5.027 29.116 9.196 46.657 5.152-12.565 18.88-37.516 40.166-56.679 39.433 22.512 17.139 64.455 11.299 98.472-18.401 3.188 19.165-.902 47.684-4.351 54.913 14.408-3.199 36.577-28.319 44.757-41.729 12.02 26.08 11.84 37.011 11.84 37.011 25.93-35.083 91.57-54.293 115.65-135.296 2.28-7.668-.33-12.098-7.3-12.098-3.68 0-120.19-.324-120.19-.324-65.952 0-110.467-13.736-138.68-27.543 4.766 18.65 24.632 39.904 32.599 44.197l-.006.001zm187.387 8.076c9.63 0 8.74 5.77 5.88 10.479-2.86 4.709-11.8 19.365-11.8 19.365s-9.34-9.954-27.98-17.327c-18.65-7.369-23.9-8.585-23.9-12.517h57.8zM668.371 307.715c-3.755 10.6-4.862 22.291-2.866 37.5 12.118 26.217 17.979 74.895 14.239 102.11 19.304-26.823 27.876-56.987 33.399-81.122 11.069 11.278 25.433 27.424 35.453 40.505 1.721-14.167 4.774-31.662 7.448-44.297 14.419 13.716 44.342 30.937 64.576 37.045-13.619-57.24-36.927-93.726-36.927-93.726-19.78 1.984-51.639-2.816-65.961-16.85 2.557 20.739 16.882 44.582 16.882 44.582-30.693 2.983-52.433-7.451-66.241-25.747h-.002zm343.259 0c-13.811 18.299-35.551 28.731-66.244 25.747 0 0 14.322-23.842 16.879-44.579-14.322 14.034-46.173 18.832-65.958 16.847 0 0-23.303 36.485-36.932 93.724 20.242-6.107 50.16-23.329 64.578-37.044 2.677 12.635 5.725 30.129 7.448 44.296 10.022-13.077 24.38-29.228 35.459-40.505 5.52 24.135 14.092 54.301 33.4 81.122-3.747-27.215 2.12-75.893 14.23-102.11 2-15.21.89-26.901-2.87-37.499l.01.001zM747.623 488.054c11.582 18.545 21.889 40.847 25.46 60.71 11.104-13.382 22.831-36.645 30.778-64.431 9.743 12.131 26.763 36.838 36.139 57.218 9.369-20.38 26.393-45.087 36.133-57.218 7.951 27.786 19.679 51.049 30.782 64.431 3.57-19.863 13.877-42.165 25.458-60.708 8.809 36.093 42.79 71.201 77.857 73.842-22.813-29.498-23.756-80.484-22.142-97.465-15.188-23.523-25.193-44.745-29.979-59.166-10.301 10.145-26.237 29.863-40.536 52.654 0-.277-.409-28.577-6.112-62.94-14.741 13.268-41.436 22.874-55.704 26.604-9.007 14.627-11.474 26.038-15.757 44.396-4.283-18.358-6.758-29.769-15.758-44.396-14.273-3.731-40.963-13.336-55.708-26.603-5.699 34.362-6.114 62.662-6.114 62.938-14.303-22.79-30.231-42.509-40.538-52.655-4.782 14.423-14.785 35.645-29.979 59.17 1.621 16.982.672 67.968-22.138 97.466 35.071-2.641 69.048-37.749 77.853-73.842l.005-.005zM429.898 914.907c19.682-12.789 32.136-36.026 46.314-64.446-8.254 3.402-20.214 7.087-32.2 9.565-11.693 22.527-28.252 13.789-28.684 10.593 3.579-3.951 7.665-9.791 10.739-14.873-4.984-9.287-10.987-23.122-14.297-31.677-16.73 35.08-47.457 70.713-73.19 84.616 15.141 20.964 62.066 25.229 91.316 6.22l.002.002zm60.828-59.125c-13.959 29.343-10.676 74.56 33.764 75.841-3.687-32.019 10.795-62.141 26.275-75.839-13.314 3.269-34.991 20.667-34.991 20.667s-3.264 7.456-3.921 17.104c-9.302 1.656-14.443-5.482-10.581-20.369 0 0-6.723-7.657-10.546-17.4v-.004zm-219.987 33.506a81.765 81.765 0 0019.437-2.368c42.912-10.56 83.777-47.109 108.067-77.796-13.875 4.375-27.89 7.216-43.426 8.784 0 0-10.88 12.678-19.257 17.365-4.245 2.396-8.487 3.54-12.506 3.54-12.14 0-17.295-9.918-17.295-9.918s19.581-9.345 32.042-22.623c-2.469-9.785-4.039-23.34-4.324-36.854-33.79 33.807-97.301 66.654-141.662 73.03 8.78 18.205 39.931 46.84 78.926 46.84h-.002zm-85.915-71.709a70.347 70.347 0 006.668-.32c44.103-4.343 97.333-32.477 131.609-56.825-10.912 2.207-39.6 2.846-53.212.956-4.708 3.141-25.464 16.207-42.733 18.389-31.501 3.975-34.832-15.436-34.832-15.436 20.237-2.462 43.567-9.267 65.868-19.61 2.239-16.725 6.125-31.633 9.447-42.624-48.622 26.97-127.945 45.94-175 46.566 9.416 22.271 45.922 68.902 92.187 68.902l-.002.002zm6.936-158.219c6.778-11.942 17.506-26.058 27.271-37.57-38.817 10.647-88.789 12.873-115.281 12.873-31.232 0-61.58-2.195-78.992-5.676 1.547 31.251 31.392 85.16 90.279 90.419 3.07.282 6.468.417 10.102.417 36.738 0 95.163-14.805 135.367-29.011-28.666-3.674-56.353-10.451-62.667-13.089-14.95 4.273-50.664 10.24-62.262 9.6-26.327-1.438-29.145-21.57-29.145-21.57s47.378 1.994 85.325-6.393h.003zM50.402 602.096c21.876 7.04 56.765 11.078 95.727 11.078 23.77 0 48.846-2.117 69.241-5.006-22.028-7.47-49.211-18.761-66.876-29.949-22.079-.439-52.05-1.063-71.295-6.931-28.303-8.628-27.901-27.91-27.397-32.238 24.468 9.8 66.093 19.174 96.858 21 11.342-10.882 28.862-23.849 47.347-35.139-73.006.636-166.205-28.162-218.57-55.775-11.973 97.036 54.187 126.261 74.965 132.958v.002zm160.481-201.21c-11.266-21.529-22.252-50.491-23.702-75.454-34.144-26.722-73.119-60.725-95.67-99.59-13.032-22.465-8.222-42.153 1.008-48.93 7.038 24.406 52.889 92.749 94.451 127.018.328-21.902 4.026-47.093 9.759-66.039-48.323-52.38-102.487-139.14-115.572-173.13-14.706 12.132-40.056 42.651-46.287 85.654-6.274 43.286 7.816 87.752 41.877 132.169 26.196 34.168 83.86 85.108 134.136 118.303v-.001zm-13.888 110.083c-33.22-21.941-56.247-42.299-68.519-60.582-27.76-10.754-63.651-27.169-81.334-41.964-24.295-20.306-16.603-38.584-13.77-42.236 21.39 21.756 67.714 53.114 100.616 67.065 20.542-7.975 49.085-13.818 76.893-17.227C128.466 383.59 39.999 322.704-6.233 265.306c-9.375 18.131-47.457 103.424 23.94 173.366 37.6 36.843 115.051 62.262 179.284 72.299l.004-.002zM1268.23 824.071c-3.31 8.555-9.32 22.391-14.3 31.677 3.07 5.08 7.16 10.92 10.74 14.873-.44 3.195-16.99 11.932-28.68-10.595-11.99-2.475-23.95-6.163-32.2-9.565 14.18 28.422 26.62 51.658 46.31 64.446 29.25 19.009 76.18 14.744 91.31-6.221-25.73-13.904-56.46-49.537-73.18-84.617v.002zm-78.96 31.713c-3.82 9.745-10.54 17.4-10.54 17.4 3.86 14.889-1.28 22.027-10.59 20.369-.65-9.646-3.92-17.104-3.92-17.104s-21.68-17.397-34.99-20.667c15.48 13.699 29.96 43.822 26.28 75.841 44.44-1.279 47.72-46.498 33.76-75.839zm152.93-49.511c12.46 13.277 32.03 22.624 32.03 22.624s-5.15 9.918-17.28 9.918c-4.03 0-8.27-1.145-12.52-3.541-8.37-4.688-19.25-17.364-19.25-17.364-15.54-1.568-29.55-4.406-43.43-8.784 24.29 30.686 65.16 67.237 108.07 77.794a81.796 81.796 0 0019.44 2.368c38.99 0 70.14-28.635 78.92-46.837-44.36-6.377-107.87-39.223-141.66-73.031-.29 13.513-1.86 27.067-4.32 36.853zm79.6-61.537c22.31 10.343 45.64 17.146 65.88 19.61 0 0-3.34 19.412-34.84 15.434-17.27-2.183-38.03-15.249-42.73-18.39-13.61 1.89-42.31 1.251-53.21-.956 34.27 24.348 87.5 52.482 131.6 56.825 2.22.212 4.45.319 6.67.32 46.27 0 82.77-46.633 92.19-68.902-47.06-.628-126.38-19.598-175-46.566 3.32 10.992 7.2 25.899 9.44 42.624v.001zm39.16-122.946c9.77 11.514 20.5 25.629 27.27 37.57 37.95 8.389 85.33 6.393 85.33 6.393s-2.82 20.13-29.14 21.568c-11.6.638-47.31-5.326-62.26-9.599-6.32 2.637-34 9.414-62.67 13.09 40.2 14.206 98.64 29.013 135.37 29.013 3.64 0 7.03-.135 10.1-.417 58.89-5.259 88.74-59.168 90.28-90.418-17.41 3.478-47.76 5.677-78.99 5.677-26.49 0-76.47-2.227-115.29-12.877h0zm243.6-152.651c-52.37 27.613-145.56 56.412-218.57 55.775 18.48 11.29 36 24.257 47.35 35.14 30.76-1.829 72.38-11.202 96.85-21.003.5 4.328.91 23.61-27.39 32.239-19.25 5.868-49.22 6.492-71.3 6.931-17.67 11.188-44.85 22.479-66.88 29.949 20.4 2.885 45.47 5.005 69.25 5.005 38.96 0 73.85-4.036 95.72-11.078 20.78-6.695 86.95-35.923 74.97-132.958h0zm-117.08-292.226c9.23 6.777 14.04 26.465 1.01 48.931-22.56 38.865-61.53 72.866-95.67 99.59-1.45 24.963-12.44 53.924-23.71 75.453 50.28-33.195 107.95-84.135 134.14-118.3 34.06-44.419 48.15-88.885 41.87-132.169-6.23-43.006-31.57-73.525-46.29-85.655-13.07 33.99-67.24 120.749-115.57 173.129 5.74 18.947 9.44 44.137 9.77 66.039 41.55-34.27 87.41-102.611 94.45-127.018zm-41.47 256.342c32.9-13.953 79.23-45.31 100.61-67.065 2.84 3.65 10.53 21.929-13.77 42.235-17.68 14.794-53.57 31.21-81.33 41.964-12.27 18.283-35.3 38.641-68.52 60.582 64.23-10.035 141.69-35.456 179.3-72.297 71.39-69.941 33.3-155.235 23.93-173.365-46.23 57.398-134.7 118.285-217.12 150.719 27.81 3.409 56.36 9.252 76.9 17.228v-.001zm-192.04-98.19c-26.77 61.887-94.63 117.063-138.53 144.688-20.02 12.598-12.72 36.491-6.31 47.094 59.8 99.017-48.95 172.813-147.17 123.74 21.43.235 43.07-17.918 46.07-34.094-6.81 5.865-34.71 2.642-42.95-4.95 12.65-6.598 15.66-13.285 16.32-19.538-15.65 9.573-47.28 10.892-56.6-5.281-51.897-1.395-86.419-41.764-90.237-53.413-3.847 12.393-10.062 34.049-12.101 55.422-14.076-9.499-38.112-30.994-50.643-60.145-14.182 20.188-24.878 42.929-31.822 66.892-6.944-23.963-17.632-46.704-31.822-66.892-12.533 29.149-36.57 50.647-50.64 60.146-2.047-21.372-8.251-43.026-12.101-55.42-3.818 11.65-38.34 52.019-90.237 53.413-9.322 16.173-40.948 14.854-56.596 5.28.651 6.256 3.663 12.941 16.313 19.537-8.243 7.594-36.132 10.82-42.948 4.952 2.997 16.176 24.637 34.328 46.067 34.094-98.224 49.071-206.972-24.723-147.167-123.74 6.408-10.603 13.714-34.496-6.309-47.095-43.899-27.629-111.762-82.803-138.529-144.692-3.181 25.236-.756 87.863 26.433 126.832-19.864 7.573-45.34 19.859-62.467 31.254 10.833 12.273 36.054 33.471 53 44.996-13.833 12.262-35.306 35.742-46.575 51.113 14.278 8.467 43.048 18.746 65.033 25.68-10.164 16.718-25.791 46.874-29.718 64.822 24.617 3.571 49.748 3.243 71.926 2.545-2.83 20.929-.969 47.207 1.253 66.353 22.847-3.274 47.98-12.518 64.654-21.271 3.165 14.442 11.882 41.098 19.698 55.368 21.673-20.51 50.262-29.896 76.727-24.462 54.188 11.129 70.296 65.779 70.296 65.779l.084-166.242v-18.56c0-10.364 5.592-15.848 15.627-15.845H1028c10.04-.003 15.63 5.482 15.63 15.844v18.557l.08 166.243s16.11-54.651 70.3-65.779c26.46-5.435 55.06 3.952 76.73 24.461 7.82-14.269 16.53-40.925 19.7-55.367 16.67 8.753 41.8 17.997 64.65 21.272 2.22-19.145 4.08-45.422 1.26-66.351 21.92 2.266 47.14 2.266 71.92-2.546-3.92-17.945-19.56-48.101-29.72-64.82 22.86-6.115 50.75-17.212 65.03-25.679-11.26-15.372-32.74-38.851-46.57-51.113 16.94-11.525 42.16-32.725 53-44.997-17.13-11.395-42.61-23.682-62.47-31.254 27.19-38.968 29.62-101.595 26.43-126.831h0zM670.593 140.456l-2.236 5.834c65.698 0 128.853-22.414 145.704-100.464h-50.323c-8.931 56.229-42.079 94.63-93.147 94.63h.002zM386.56 13.473s35.936 8.3 49.998 58.722c14.067 50.422 49.409 74.538 85.671 74.538l-2.232-6.871c-21.099-2.618-50.847-32.58-56.412-88.07-5.611-55.864-19.354-63.061-19.354-63.061-14.198-9.791-49.888 16.069-57.676 24.743l.005-.001zM281.443 36.026c29.975-.979 50.145 8.527 87.817-25.69 44.472-40.41 65.585-33.504 65.585-33.504-22.695-14.72-54.344-21.262-65.213-12.76-10.869 8.508-25.582 31.332-50.307 47.583-34.845 22.9-70.634 16.857-72.235 38.2h.969s3.414-12.841 33.381-13.83h.003zm27.649 133.949c18.221 17.91 19.895 54.711 19.895 54.711s21.82-39.008 3.838-80.48c-17.976-41.464-54.718-73.28-18.699-97.496-22.001.185-45.843-4.86-56.314 10.012-3.259 4.63-6.279 16.112 4.688 32.446 13.934 20.757 48.743 69.024 20.22 101.166 20.853-3.837 26.371-20.361 26.371-20.361l.001.002zm225.044-23.463h123.451s3.055-7.47 6.947-18.263H527.195c3.896 10.793 6.941 18.263 6.941 18.263zm73.873-174.78c0-6.72-5.328-12.18-11.896-12.18-6.572 0-11.903 5.458-11.903 12.18 0 6.727 5.331 12.175 11.903 12.175 6.566 0 11.896-5.447 11.896-12.175zm61.66 142.737c5.274-16.508 11.221-41.615 11.221-53.73 0-22.14-11.951-46.652-55.09-54.197 0 26.758-13.04 92.32-28.805 92.32h-1.773c-15.756 0-28.798-65.074-28.798-92.326-43.285 7.536-55.591 32.055-55.591 54.203 0 12.117 5.952 37.222 11.234 53.73H669.67h-.001zm-73.556-33.97c8.213 0 14.869-42.807 14.869-64.12 0-11.643-6.654-19.28-14.867-19.28-8.219 0-14.879 7.637-14.879 19.28 0 21.313 6.66 64.12 14.879 64.12h-.002zm-7.938-137.182h15.868l-1.981-20.296 19.83 2.032v-16.239l-19.83 2.033 1.981-20.3h-15.868l1.984 20.3-19.829-2.032v16.238l19.83-2.032-1.984 20.298-.001-.002zm328.08 102.509h-50.322c16.855 78.052 80.007 100.464 145.707 100.464l-2.23-5.834c-51.068 0-84.222-38.397-93.153-94.63h-.002zm241.515 100.909c36.26 0 71.6-24.116 85.67-74.54 14.06-50.418 50-58.72 50-58.72-7.79-8.67-43.47-34.532-57.68-24.743 0 0-13.74 7.198-19.35 63.063-5.56 55.49-35.31 85.452-56.41 88.07l-2.23 6.871v-.001zm152.97-136.397c37.67 34.215 57.84 24.712 87.82 25.69 29.96.987 33.37 13.83 33.37 13.83h.97c-1.6-21.345-37.39-15.302-72.23-38.201-24.72-16.251-39.44-39.075-50.31-47.584-10.87-8.503-42.52-1.96-65.21 12.761 0 0 21.11-6.907 65.59 33.504h0zm111.44 46.387c-10.47-14.873-34.31-9.827-56.31-10.013 36.02 24.215-.71 56.03-18.7 97.494-17.98 41.474 3.84 80.48 3.84 80.48s1.68-36.801 19.89-54.711c0 0 5.52 16.523 26.38 20.36-28.53-32.139 6.28-80.408 20.22-101.166 10.96-16.334 7.94-27.816 4.68-32.445v.001zm-276.32 89.789s3.04-7.47 6.94-18.263h-137.34c3.89 10.793 6.95 18.263 6.95 18.263h123.45zm-50.08-174.78c0-6.721-5.33-12.18-11.9-12.18-6.56 0-11.9 5.457-11.9 12.18 0 6.726 5.33 12.175 11.9 12.175s11.9-5.447 11.9-12.176zm62.15 142.737c5.28-16.508 11.24-41.615 11.24-53.73 0-22.148-12.32-46.668-55.6-54.202 0 27.247-13.04 92.322-28.8 92.322H1083c-15.76 0-28.8-65.559-28.8-92.319-43.15 7.545-55.092 32.057-55.092 54.197 0 12.117 5.942 37.222 11.222 53.73h147.6v.002zm-74.05-33.97c8.22 0 14.88-42.807 14.88-64.12 0-11.644-6.66-19.28-14.88-19.28-8.21 0-14.87 7.636-14.87 19.28 0 21.313 6.66 64.12 14.87 64.12zm-7.92-137.182h15.86l-1.98-20.297 19.83 2.033v-16.239l-19.83 2.032 1.98-20.3h-15.86l1.98 20.3-19.84-2.032v16.239l19.84-2.033-1.98 20.299v-.002zM268.259 431.207c-32.065.771-88.53 7.153-117.209 16.245 19.493 23.379 70.395 56.947 100.897 71.204-23.719 8.977-66.265 31.759-84.007 48.201 22.859 14.112 73.067 30.238 96.797 35.51-13.815 11.195-42.264 43.566-52.7 61.021 19.65 6.122 60.053 11.447 85.709 12.952-8.226 17.123-17.594 47.347-20.076 67.04 12.718 1.286 55.204-.906 76.24-5.62-1.804 17.162-1.118 48.383 1.727 61.843 20.756-2.976 50.391-11.316 64.179-16.64 3.993 15.299 18.265 48.244 23.28 56.073 16.627-3.191 36.477-9.973 51.067-17.609 4.61 12.262 15.089 30.608 17.986 35.24 48.603-49.068 118.008-9.277 118.008 42.94-4.985 34.403-53.625 32.479-79.228 48.65-33.667 21.263-27.842 70.563-62.494 78.123 32.743 20.68 42.27-18.13 76.279-19.23-4.538 20.93-4.107 58.1-.699 73.66 13.997-10.79 33.627-19.02 46.471-19.86-3.173 12.21-5.65 40.78-1.058 58.58 9.022-6.83 42.717-36.09 122.72-17.28 9.699 2.28-54.267-.23-46.285 20.38 6.287 16.24 8.066 27.54.548 50.6 3.391 1.21 7.326 1.79 11.565 1.79 17.939 0 41.198-10.4 50.437-26.72 7.139 5.3 7.139 43.06-16.781 52.44 25.552 1.86 45.01-18.87 48.786-31.61 0 0 12.49 29.66 27.302 39.39 9.301-3.25 25.873-18.65 32.278-34.64 6.398 15.99 22.973 31.39 32.269 34.64 14.814-9.73 27.306-39.39 27.306-39.39 3.776 12.74 23.24 33.47 48.791 31.61-23.922-9.38-23.922-47.14-16.785-52.44 9.243 16.32 32.499 26.72 50.442 26.72 4.236 0 8.175-.58 11.568-1.79-7.518-23.06-5.74-34.36.547-50.6 7.984-20.61-55.985-18.1-46.286-20.38 79.99-18.81 113.7 10.45 122.72 17.28 4.59-17.8 2.12-46.37-1.06-58.58 12.84.84 32.47 9.07 46.47 19.86 3.4-15.57 3.84-52.73-.71-73.66 34.01 1.1 43.54 39.91 76.29 19.23-34.66-7.57-28.83-56.864-62.5-78.125-25.6-16.171-74.24-14.247-79.23-48.649 0-52.216 69.41-92.009 118.01-42.941 2.9-4.633 13.37-22.979 17.99-35.241 14.58 7.639 34.44 14.419 51.07 17.612 5.01-7.832 19.28-40.777 23.27-56.076 13.79 5.323 43.43 13.664 64.18 16.642 2.85-13.46 3.54-44.681 1.73-61.844 21.03 4.714 63.52 6.908 76.23 5.62-2.47-19.694-11.84-49.917-20.07-67.041 25.66-1.505 66.06-6.83 85.72-12.952-10.45-17.457-38.89-49.827-52.7-61.023 23.72-5.272 73.93-21.396 96.79-35.511-17.74-16.441-60.29-39.223-84.01-48.198 30.51-14.258 81.4-47.825 100.9-71.204-28.68-9.095-85.15-15.477-117.21-16.245 66.37-45.229 68.42-143.331 49.3-196.641-12.85 32.317-55.46 85.411-82.97 114.035 2.44 27.246-6.43 75.573-21.65 105.069 21.79 8.242 47.61 20.675 65.91 34.536-12.14 15.216-38.26 38.829-54.64 51.623 13.86 14.441 37.18 40.968 47.57 56.303-15.36 11.453-48.76 24.592-65.89 30.624 8.43 17.217 20.67 48.624 23.83 70.304-19.5 3.214-46.35 5.388-74.41 5.049 1.36 20.761-1.57 52.905-5.2 72.153-26.03-2.062-56.75-12.709-70.44-19.549-7.25 28.692-25.15 56.528-25.93 58.008-81.38-88.359-153.5-5.002-153.5 72.876v106.124c0 50.192-15.87 73.112-61.56 73.112h-59.121c-36.806 0-67.647 15.56-83.035 45.44-15.391-29.88-46.232-45.44-83.037-45.44h-59.125c-45.687 0-61.564-22.92-61.564-73.113V885.592c0-77.876-72.119-161.233-153.492-72.874-.783-1.48-18.69-29.316-25.936-58.008-13.694 6.84-44.407 17.487-70.43 19.55-3.64-19.247-6.566-51.392-5.202-72.149-28.068.337-54.914-1.835-74.423-5.049 3.168-21.681 15.409-53.089 23.839-70.306-17.122-6.032-50.532-19.171-65.885-30.624 10.384-15.335 33.701-41.861 47.564-56.305-16.384-12.795-42.497-36.406-54.634-51.624 18.288-13.861 44.116-26.296 65.9-34.537-15.217-29.495-24.094-77.822-21.651-105.069-27.507-28.625-70.117-81.72-82.969-114.035-19.115 53.31-17.068 151.412 49.306 196.639l.004.006zM85.105 937.905l-5.984 6.361s12.411 16.159 22.431 10.012c5.705-10.49-10.434-22.705-10.434-22.705l-6.015 6.332h.002z" stroke="#fff" stroke-width="6" mask="url(#a)"/></g></svg>