<svg width="101" height="77" fill="none" xmlns="http://www.w3.org/2000/svg"><path d="M79.984 28.647c-.202-2.374-.047-8.828 5.64-17.803.43-.677.352-1.59-.182-2.172-2.32-2.52-3.755-4.111-4.762-5.224C79.356 1.98 78.752 1.31 77.867.439a1.478 1.478 0 00-2.081-.021c-9.913 9.378-20.923 28.755-19.33 52.495.933 13.94 10.286 24.059 22.238 24.059 12.265 0 22.244-10.847 22.244-24.182 0-12.863-9.287-23.412-20.954-24.143zm-1.29 44.917c-10.264 0-18.3-8.789-19.113-20.897v-.001C57.79 25.966 72.388 8.623 76.8 4.03c.43.461.921 1.003 1.645 1.805.873.966 2.066 2.287 3.872 4.257-6.904 11.564-5.601 19.803-5.03 20.985.27.56.826.938 1.408.938 10.537 0 19.11 9.32 19.11 20.775 0 11.455-8.573 20.774-19.11 20.774zM24.322 28.647c-.203-2.368-.053-8.817 5.64-17.804.429-.677.352-1.59-.182-2.17-2.314-2.517-3.748-4.106-4.754-5.219-1.328-1.47-1.934-2.141-2.819-3.015a1.48 1.48 0 00-2.081-.023C10.213 9.794-.8 29.168.79 52.913v.002C1.728 66.853 11.082 76.97 23.034 76.97c12.265 0 22.244-10.847 22.244-24.181 0-12.865-9.287-23.416-20.956-24.143zm-1.288 44.916c-10.262 0-18.303-8.788-19.117-20.898v.002C2.129 25.96 16.728 8.62 21.139 4.03c.432.46.925 1.006 1.65 1.81.87.965 2.063 2.285 3.866 4.251-6.904 11.566-5.602 19.804-5.03 20.983.27.561.827.94 1.409.94 10.537 0 19.11 9.32 19.11 20.776 0 11.454-8.573 20.774-19.11 20.774z" opacity=".5" fill="#1C9AA2"/></svg>