<svg width="21" height="23" fill="none" xmlns="http://www.w3.org/2000/svg"><path d="M20 18.5c0 .283-.13.637-.537 1.05-.411.416-1.056.837-1.932 1.213C15.782 21.513 13.297 22 10.5 22c-2.797 0-5.282-.488-7.03-1.237-.877-.376-1.522-.797-1.933-1.214C1.13 19.137 1 18.783 1 18.5c0-.283.13-.637.537-1.05.411-.416 1.056-.837 1.932-1.213C5.218 15.487 7.703 15 10.5 15c2.797 0 5.282.488 7.03 1.237.877.376 1.522.797 1.933 1.214.407.412.537.766.537 1.049z" stroke="#F1361D" stroke-width="2"/><ellipse cx="10.5" cy="13.5" rx="10.5" ry="4.5" fill="#F7F6F4"/><path d="M20 11.5c0 .283-.13.636-.537 1.05-.411.416-1.056.837-1.932 1.213C15.782 14.513 13.297 15 10.5 15c-2.797 0-5.282-.488-7.03-1.237-.877-.376-1.522-.797-1.933-1.214C1.13 12.137 1 11.783 1 11.5c0-.283.13-.636.537-1.05.411-.416 1.056-.837 1.932-1.213C5.218 8.487 7.703 8 10.5 8c2.797 0 5.282.488 7.03 1.237.877.376 1.522.797 1.933 1.214.407.412.537.766.537 1.049z" stroke="#F1361D" stroke-width="2"/><ellipse cx="10.5" cy="6.5" rx="10.5" ry="4.5" fill="#F7F6F4"/><path d="M20 4.5c0 .283-.13.637-.537 1.05-.411.416-1.056.837-1.932 1.213C15.782 7.513 13.297 8 10.5 8c-2.797 0-5.282-.488-7.03-1.237-.877-.376-1.522-.797-1.933-1.214C1.13 5.137 1 4.783 1 4.5c0-.283.13-.637.537-1.05.411-.416 1.056-.837 1.932-1.213C5.218 1.487 7.703 1 10.5 1c2.797 0 5.282.488 7.03 1.237.877.376 1.522.797 1.933 1.214.407.412.537.766.537 1.049z" stroke="#F1361D" stroke-width="2"/></svg>