<svg width="72" height="72" fill="none" xmlns="http://www.w3.org/2000/svg"><path opacity=".2" d="M25.381 28.984c.121-1.583.181-2.374.705-2.898.524-.523 1.315-.584 2.898-.705 6.654-.508 11.378-.508 18.032 0 1.583.121 2.374.181 2.898.705.523.524.584 1.315.705 2.898.508 6.654.508 11.378 0 18.032-.121 1.583-.182 2.374-.705 2.898-.524.523-1.315.584-2.898.705-6.654.508-11.378.508-18.032 0-1.583-.121-2.374-.182-2.898-.705-.523-.524-.584-1.315-.705-2.898-.508-6.654-.508-11.378 0-18.032z" fill="#F1361D"/><path d="M23.381 26.984c.121-1.583.181-2.374.705-2.898.524-.523 1.315-.584 2.898-.705 6.654-.508 11.378-.508 18.032 0 1.583.121 2.374.181 2.898.705.523.524.584 1.315.705 2.898.508 6.654.508 11.378 0 18.032-.121 1.583-.182 2.374-.705 2.898-.524.523-1.315.584-2.898.705-6.654.508-11.378.508-18.032 0-1.583-.121-2.374-.182-2.898-.705-.523-.524-.584-1.315-.705-2.898-.508-6.654-.508-11.378 0-18.032z" stroke="#F1361D" stroke-width="2"/><path d="M21.03 22.815c.04-.787.06-1.18.332-1.453.272-.273.666-.292 1.453-.331.82-.041 1.55-.041 2.37 0 .787.039 1.18.058 1.453.33.273.273.292.667.331 1.454.041.82.041 1.55 0 2.37-.039.787-.058 1.18-.33 1.453-.273.273-.667.292-1.454.331-.82.041-1.55.041-2.37 0-.787-.039-1.18-.058-1.453-.33-.273-.273-.292-.667-.331-1.454-.041-.82-.041-1.55 0-2.37zm24 0c.04-.787.06-1.18.332-1.453.272-.273.666-.292 1.453-.331.82-.041 1.55-.041 2.37 0 .787.039 1.18.058 1.453.33.273.273.292.667.331 1.454.041.82.041 1.55 0 2.37-.039.787-.058 1.18-.33 1.453-.273.273-.667.292-1.454.331-.82.041-1.55.041-2.37 0-.787-.039-1.18-.058-1.453-.33-.273-.273-.292-.667-.331-1.454-.041-.82-.041-1.55 0-2.37zm0 24c.04-.787.06-1.18.332-1.453.272-.273.666-.292 1.453-.331.82-.041 1.55-.041 2.37 0 .787.039 1.18.058 1.453.33.273.273.292.667.331 1.454.041.82.041 1.55 0 2.37-.039.787-.058 1.18-.33 1.453-.273.273-.667.292-1.454.331-.82.041-1.55.041-2.37 0-.787-.039-1.18-.058-1.453-.33-.273-.273-.292-.667-.331-1.454-.041-.82-.041-1.55 0-2.37zm-24 0c.04-.787.06-1.18.332-1.453.272-.273.666-.292 1.453-.331.82-.041 1.55-.041 2.37 0 .787.039 1.18.058 1.453.33.273.273.292.667.331 1.454.041.82.041 1.55 0 2.37-.039.787-.058 1.18-.33 1.453-.273.273-.667.292-1.454.331-.82.041-1.55.041-2.37 0-.787-.039-1.18-.058-1.453-.33-.273-.273-.292-.667-.331-1.454-.041-.82-.041-1.55 0-2.37z" fill="#fff" stroke="#F1361D" stroke-width="2"/><path d="M32 29h1a3 3 0 013 3v0m4-3h-1a3 3 0 00-3 3v0m-4 11h1a3 3 0 003-3v0m4 3h-1a3 3 0 01-3-3v0" stroke="#F1361D" stroke-width="2" stroke-linecap="round" stroke-linejoin="round"/><path d="M36 32v8" stroke="#F1361D" stroke-width="2"/><rect x="1" y="1" width="70" height="70" rx="35" stroke="#FFE9E6" stroke-width="2"/></svg>