<svg width="72" height="72" fill="none" xmlns="http://www.w3.org/2000/svg"><path opacity=".2" d="M33.596 38.715L25.41 27.868c-.74-.98-.428-2.394.713-2.849 6.756-2.692 15.997-2.692 22.754 0 1.142.455 1.453 1.868.713 2.85l-8.186 10.846A2 2 0 0041 39.92v11.413c0 .433-.133.861-.426 1.18-1.335 1.452-3.278 2.268-5.575 2.449-.55.043-.999-.41-.999-.962V39.92a2 2 0 00-.404-1.205z" fill="#F1361D"/><path d="M31.193 36.18l-6.373-8.444c-1.332-1.765-1.998-2.647-1.67-3.643.33-.995 1.281-1.275 3.185-1.835 5.703-1.677 12.627-1.677 18.33 0 1.904.56 2.855.84 3.184 1.835.33.996-.337 1.878-1.669 3.643l-6.373 8.444c-.4.53-.6.795-.703 1.105-.104.309-.104.641-.104 1.305v10.077c0 .694 0 1.041-.175 1.432-.175.39-.359.554-.726.88-1.087.969-2.49 1.589-4.107 1.861-.856.144-1.283.216-1.638-.084C32 52.457 32 51.972 32 51V38.59c0-.664 0-.996-.104-1.305-.103-.31-.303-.574-.703-1.105z" stroke="#F1361D" stroke-width="2"/><path d="M34 29a1 1 0 100-2v2zm-12-4.5c0 1.279.667 2.216 1.591 2.849.885.605 2.041.966 3.218 1.195 2.362.46 5.214.456 7.191.456v-2c-2.023 0-4.671-.003-6.81-.42-1.072-.208-1.916-.503-2.469-.882-.513-.351-.721-.727-.721-1.198h-2zm21.134 4.217a1 1 0 11-.268-1.982l.268 1.982zM49 24.5c0 1.478-.883 2.476-1.995 3.099-1.077.603-2.477.929-3.87 1.118l-.27-1.982c1.316-.178 2.417-.464 3.162-.881.711-.398.973-.83.973-1.354h2z" fill="#F1361D"/><rect x="1" y="1" width="70" height="70" rx="35" stroke="#FFE9E6" stroke-width="2"/></svg>