<svg width="72" height="72" fill="none" xmlns="http://www.w3.org/2000/svg"><g opacity=".2" fill="#F1361D"><circle r="3" transform="matrix(1 0 0 -1 38 29)"/><circle r="3" transform="matrix(1 0 0 -1 50 29)"/><circle r="3" transform="matrix(1 0 0 -1 26 29)"/><circle r="3" transform="matrix(1 0 0 -1 38 51)"/><circle r="3" transform="matrix(1 0 0 -1 44 40)"/><circle r="3" transform="matrix(1 0 0 -1 32 40)"/></g><circle r="3" transform="matrix(1 0 0 -1 36 27)" stroke="#F1361D" stroke-width="2"/><circle r="3" transform="matrix(1 0 0 -1 48 27)" stroke="#F1361D" stroke-width="2"/><circle r="3" transform="matrix(1 0 0 -1 24 27)" stroke="#F1361D" stroke-width="2"/><circle r="3" transform="matrix(1 0 0 -1 36 49)" stroke="#F1361D" stroke-width="2"/><path d="M37.5 46.5l2.912-5.5M46.5 29.5L43.588 35m-8.977-5.5L31.5 35.377m3 11.123L31.588 41M25.5 29.5l2.912 5.5m9.199-5.5l2.912 5.5" stroke="#F1361D" stroke-width="2"/><circle r="3" transform="matrix(1 0 0 -1 42 38)" stroke="#F1361D" stroke-width="2"/><circle r="3" transform="matrix(1 0 0 -1 30 38)" stroke="#F1361D" stroke-width="2"/><rect x="1" y="1" width="70" height="70" rx="35" stroke="#FFE9E6" stroke-width="2"/></svg>