<svg width="63" height="62" fill="none" xmlns="http://www.w3.org/2000/svg"><g clip-path="url(#clip0)" fill="#fff"><path d="M43.647 27.744H19.805a.542.542 0 00-.542.542v13.005a2.712 2.712 0 002.71 2.71H41.48a2.712 2.712 0 002.71-2.71V28.286c0-.3-.244-.542-.543-.542zm-.542 13.547c0 .896-.729 1.625-1.625 1.625H21.973a1.627 1.627 0 01-1.626-1.625V28.828h22.758V41.29z"/><path d="M44.17 22.73l-.921-3.5a1.637 1.637 0 00-1.943-1.19l-21.833 5.18c-.43.098-.793.36-1.023.734-.231.375-.3.817-.191 1.246l1.02 4.036a.54.54 0 00.66.392.54.54 0 00.39-.657l-.059-.235 23.497-5.339a.547.547 0 00.404-.667zm-24.165 4.954l-.696-2.747a.544.544 0 01.41-.662l21.832-5.18a.548.548 0 01.647.403l.782 2.965-22.975 5.221z"/><path d="M24.383 27.8a.546.546 0 00-.728.243l-2.168 4.335a.543.543 0 00.971.484l2.168-4.335a.543.543 0 00-.243-.727zm5.417 0a.545.545 0 00-.727.243l-2.167 4.335a.543.543 0 00.97.484l2.167-4.335a.543.543 0 00-.243-.727zm5.419 0a.545.545 0 00-.727.243l-2.168 4.335a.543.543 0 00.97.484l2.168-4.335a.543.543 0 00-.243-.727zm5.419 0a.545.545 0 00-.727.243l-2.168 4.335a.543.543 0 00.97.484l2.167-4.335a.543.543 0 00-.242-.727z"/><path d="M43.647 32.08H19.805a.542.542 0 000 1.083h23.842a.541.541 0 100-1.084zm-18.602-5.282l-3.733-3.732a.542.542 0 00-.766.766l3.733 3.733a.544.544 0 00.766 0 .542.542 0 000-.767zm5.301-1.204l-3.736-3.732a.542.542 0 00-.766.766l3.735 3.732a.544.544 0 00.767 0 .542.542 0 000-.766zm5.298-1.204l-3.73-3.733a.542.542 0 00-.766.766l3.73 3.733a.544.544 0 00.766 0 .542.542 0 000-.766zm5.295-1.203l-3.73-3.734a.542.542 0 00-.767.767l3.73 3.733a.544.544 0 00.767 0 .542.542 0 000-.766z"/></g><rect x=".699" y=".5" width="61" height="61" rx="30.5" stroke="#999"/><defs><clipPath id="clip0"><path fill="#fff" transform="translate(18.2 18)" d="M0 0h26v26H0z"/></clipPath></defs></svg>