<svg width="97" height="51" fill="none" xmlns="http://www.w3.org/2000/svg"><path d="M72.999 1.696A23.966 23.966 0 0188.2 10.722a23.415 23.415 0 014.076 8.075 24.193 24.193 0 01-.119 13.534 23.941 23.941 0 01-4.275 8.076 24.676 24.676 0 01-3.197 3.297c-.28.265-.599.474-.898.726-.3.252-.603.475-.921.69-.623.44-1.254.864-1.9 1.263a35.825 35.825 0 01-4.038 2.166 28.502 28.502 0 01-8.855 2.446l-.11-1.23c5.863-.504 11.497-3.116 16.152-6.77a23.755 23.755 0 003.135-3.125 25.668 25.668 0 002.499-3.663 26.006 26.006 0 001.753-4.08 23.542 23.542 0 00.337-13.202 23.05 23.05 0 00-3.876-8.018 23.818 23.818 0 00-14.964-9.211z" fill="url(#paint0_linear)"/><path d="M72.999 1.696A23.966 23.966 0 0188.2 10.722a23.415 23.415 0 014.076 8.075 24.193 24.193 0 01-.119 13.534 23.941 23.941 0 01-4.275 8.076 24.676 24.676 0 01-3.197 3.297c-.28.265-.599.474-.898.726-.3.252-.603.475-.921.69-.623.44-1.254.864-1.9 1.263a35.825 35.825 0 01-4.038 2.166 28.502 28.502 0 01-8.855 2.446l-.11-1.23c5.863-.504 11.497-3.116 16.152-6.77a23.755 23.755 0 003.135-3.125 25.668 25.668 0 002.499-3.663 26.006 26.006 0 001.753-4.08 23.542 23.542 0 00.337-13.202 23.05 23.05 0 00-3.876-8.018 23.818 23.818 0 00-14.964-9.211z" fill="#FDC33E"/><path d="M79.374 47.394a2.18 2.18 0 01.756-.475 2.541 2.541 0 012.104.186 6.47 6.47 0 011.9 1.667 6.75 6.75 0 01-.665.27 5.786 5.786 0 01-1.525.314c-1.135.033-2.299-.39-2.57-1.962z" fill="url(#paint1_linear)"/><path d="M79.374 47.394a2.18 2.18 0 01.756-.475 2.541 2.541 0 012.104.186 6.47 6.47 0 011.9 1.667 6.75 6.75 0 01-.665.27 5.786 5.786 0 01-1.525.314c-1.135.033-2.299-.39-2.57-1.962z" fill="#FDC33E"/><path d="M78.852 46.411c.292-.055.565-.184.793-.375a2.147 2.147 0 00.737-1.9 6.302 6.302 0 00-.818-2.376 4.954 4.954 0 00-.408.428c-.29.326-.54.684-.746 1.069-.446.874-.708 2.024.442 3.154z" fill="url(#paint2_linear)"/><path d="M78.852 46.411c.292-.055.565-.184.793-.375a2.147 2.147 0 00.737-1.9 6.302 6.302 0 00-.818-2.376 4.954 4.954 0 00-.408.428c-.29.326-.54.684-.746 1.069-.446.874-.708 2.024.442 3.154z" fill="#FDC33E"/><path d="M82.719 45.319c.05-.072.11-.137.175-.195.16-.144.336-.27.523-.376a2.703 2.703 0 012.114-.123 6.26 6.26 0 012.1 1.316s-.257.176-.647.39a5.59 5.59 0 01-1.525.56 3.325 3.325 0 01-.86.076 2.221 2.221 0 01-.788-.204 2.124 2.124 0 01-1.093-1.444z" fill="url(#paint3_linear)"/><path d="M82.719 45.319c.05-.072.11-.137.175-.195.16-.144.336-.27.523-.376a2.703 2.703 0 012.114-.123 6.26 6.26 0 012.1 1.316s-.257.176-.647.39a5.59 5.59 0 01-1.525.56 3.325 3.325 0 01-.86.076 2.221 2.221 0 01-.788-.204 2.124 2.124 0 01-1.093-1.444z" fill="#FDC33E"/><path d="M82.12 44.435c.082-.024.161-.056.237-.095.191-.086.364-.209.508-.361a2.062 2.062 0 00.5-1.929 5.967 5.967 0 00-1.122-2.166c-.116.142-.222.29-.318.447-.22.345-.406.711-.556 1.092a3.435 3.435 0 00-.18.708c-.05.252-.06.51-.029.765a2.304 2.304 0 00.96 1.539z" fill="url(#paint4_linear)"/><path d="M82.12 44.435c.082-.024.161-.056.237-.095.191-.086.364-.209.508-.361a2.062 2.062 0 00.5-1.929 5.967 5.967 0 00-1.122-2.166c-.116.142-.222.29-.318.447-.22.345-.406.711-.556 1.092a3.435 3.435 0 00-.18.708c-.05.252-.06.51-.029.765a2.304 2.304 0 00.96 1.539z" fill="#FDC33E"/><path d="M85.792 42.839c.151-.264.357-.492.603-.67a2.724 2.724 0 012.038-.475 4.855 4.855 0 011.52.503c.246.124.484.262.713.414a4.542 4.542 0 01-.57.475 6.178 6.178 0 01-1.392.803c-1.107.413-2.309.375-2.912-1.05z" fill="url(#paint5_linear)"/><path d="M85.792 42.839c.151-.264.357-.492.603-.67a2.724 2.724 0 012.038-.475 4.855 4.855 0 011.52.503c.246.124.484.262.713.414a4.542 4.542 0 01-.57.475 6.178 6.178 0 01-1.392.803c-1.107.413-2.309.375-2.912-1.05z" fill="#FDC33E"/><path d="M85.078 42.084c.258-.141.482-.338.656-.575a2.033 2.033 0 00.213-1.962 4.125 4.125 0 00-.826-1.316 6.356 6.356 0 00-.575-.594l-.247.475c-.173.376-.303.77-.39 1.173a2.332 2.332 0 001.169 2.799z" fill="url(#paint6_linear)"/><path d="M85.078 42.084c.258-.141.482-.338.656-.575a2.033 2.033 0 00.213-1.962 4.125 4.125 0 00-.826-1.316 6.356 6.356 0 00-.575-.594l-.247.475c-.173.376-.303.77-.39 1.173a2.332 2.332 0 001.169 2.799z" fill="#FDC33E"/><path d="M88.423 39.889c.032-.082.07-.162.114-.238.11-.185.237-.36.38-.522a2.68 2.68 0 011.9-.822 5.59 5.59 0 012.29.513 6.175 6.175 0 01-1.71 1.591 2.507 2.507 0 01-1.563.442 1.872 1.872 0 01-1.41-.964z" fill="url(#paint7_linear)"/><path d="M88.423 39.889c.032-.082.07-.162.114-.238.11-.185.237-.36.38-.522a2.68 2.68 0 011.9-.822 5.59 5.59 0 012.29.513 6.175 6.175 0 01-1.71 1.591 2.507 2.507 0 01-1.563.442 1.872 1.872 0 01-1.41-.964z" fill="#FDC33E"/><path d="M87.62 39.276c.07-.047.135-.1.194-.162.155-.142.28-.313.371-.503a2.066 2.066 0 00-.08-1.953 5.304 5.304 0 00-1.635-1.634 4.035 4.035 0 00-.166.528c-.11.397-.183.804-.219 1.216-.04.486.037.974.224 1.425a2.11 2.11 0 001.31 1.083z" fill="url(#paint8_linear)"/><path d="M87.62 39.276c.07-.047.135-.1.194-.162.155-.142.28-.313.371-.503a2.066 2.066 0 00-.08-1.953 5.304 5.304 0 00-1.635-1.634 4.035 4.035 0 00-.166.528c-.11.397-.183.804-.219 1.216-.04.486.037.974.224 1.425a2.11 2.11 0 001.31 1.083z" fill="#FDC33E"/><path d="M90.556 36.563c.06-.297.18-.58.352-.83a2.755 2.755 0 011.714-1.131 5.42 5.42 0 012.285.109l-.09.185a24.52 24.52 0 01-.29.475 6.23 6.23 0 01-1.007 1.192c-.907.756-2 1.112-2.964 0z" fill="url(#paint9_linear)"/><path d="M90.556 36.563c.06-.297.18-.58.352-.83a2.755 2.755 0 011.714-1.131 5.42 5.42 0 012.285.109l-.09.185a24.52 24.52 0 01-.29.475 6.23 6.23 0 01-1.007 1.192c-.907.756-2 1.112-2.964 0z" fill="#FDC33E"/><path d="M89.69 36.103a2.028 2.028 0 00.076-2.655 4.963 4.963 0 00-1.804-1.321v.152c0 .095-.048.228-.072.394-.05.41-.057.823-.023 1.235.042.898.427 1.962 1.824 2.195z" fill="url(#paint10_linear)"/><path d="M89.69 36.103a2.028 2.028 0 00.076-2.655 4.963 4.963 0 00-1.804-1.321v.152c0 .095-.048.228-.072.394-.05.41-.057.823-.023 1.235.042.898.427 1.962 1.824 2.195z" fill="#FDC33E"/><path d="M92.094 32.934c.007-.088.02-.175.038-.261.046-.21.112-.415.195-.613a2.66 2.66 0 011.473-1.4 5.02 5.02 0 012.195-.28s-.09.294-.257.698c-.21.487-.483.943-.812 1.358-.312.447-.76.78-1.278.95a1.686 1.686 0 01-1.554-.45z" fill="url(#paint11_linear)"/><path d="M92.094 32.934c.007-.088.02-.175.038-.261.046-.21.112-.415.195-.613a2.66 2.66 0 011.473-1.4 5.02 5.02 0 012.195-.28s-.09.294-.257.698c-.21.487-.483.943-.812 1.358-.312.447-.76.78-1.278.95a1.686 1.686 0 01-1.554-.45z" fill="#FDC33E"/><path d="M91.207 32.63c.047-.07.09-.143.129-.218.098-.185.162-.386.19-.594a2.095 2.095 0 00-.637-1.81 4.718 4.718 0 00-1.938-.998c-.01.186-.01.371 0 .556.013.411.064.82.152 1.221.096.46.301.89.598 1.254a1.901 1.901 0 001.506.59z" fill="url(#paint12_linear)"/><path d="M91.207 32.63c.047-.07.09-.143.129-.218.098-.185.162-.386.19-.594a2.095 2.095 0 00-.637-1.81 4.718 4.718 0 00-1.938-.998c-.01.186-.01.371 0 .556.013.411.064.82.152 1.221.096.46.301.89.598 1.254a1.901 1.901 0 001.506.59z" fill="#FDC33E"/><path d="M93.045 29.105a2.375 2.375 0 01.067-.902c.077-.29.202-.564.37-.812.213-.326.491-.602.817-.813a4.83 4.83 0 012.072-.631s-.048.303-.152.726a5.836 5.836 0 01-.556 1.468c-.238.473-.61.866-1.069 1.13a1.581 1.581 0 01-1.549-.166z" fill="url(#paint13_linear)"/><path d="M93.045 29.105a2.375 2.375 0 01.067-.902c.077-.29.202-.564.37-.812.213-.326.491-.602.817-.813a4.83 4.83 0 012.072-.631s-.048.303-.152.726a5.836 5.836 0 01-.556 1.468c-.238.473-.61.866-1.069 1.13a1.581 1.581 0 01-1.549-.166z" fill="#FDC33E"/><path d="M92.152 28.958c.11-.272.165-.562.162-.855a1.901 1.901 0 00-.171-.831 2.328 2.328 0 00-.713-.85 4.422 4.422 0 00-1.995-.67c.015.184.04.369.076.55.082.405.197.802.342 1.188.152.442.42.836.774 1.14a1.77 1.77 0 001.525.328z" fill="url(#paint14_linear)"/><path d="M92.152 28.958c.11-.272.165-.562.162-.855a1.901 1.901 0 00-.171-.831 2.328 2.328 0 00-.713-.85 4.422 4.422 0 00-1.995-.67c.015.184.04.369.076.55.082.405.197.802.342 1.188.152.442.42.836.774 1.14a1.77 1.77 0 001.525.328z" fill="#FDC33E"/><path d="M93.35 25.172a2.48 2.48 0 01-.057-.898 2.65 2.65 0 01.879-1.79c.342-.315.742-.56 1.178-.723.218-.089.441-.162.67-.218.019.243.019.488 0 .732a7.755 7.755 0 01-.3 1.524c-.38 1.07-1.125 1.896-2.37 1.373z" fill="url(#paint15_linear)"/><path d="M93.35 25.172a2.48 2.48 0 01-.057-.898 2.65 2.65 0 01.879-1.79c.342-.315.742-.56 1.178-.723.218-.089.441-.162.67-.218.019.243.019.488 0 .732a7.755 7.755 0 01-.3 1.524c-.38 1.07-1.125 1.896-2.37 1.373z" fill="#FDC33E"/><path d="M92.466 25.177a2.36 2.36 0 00.038-.874 2.147 2.147 0 00-1.112-1.52 3.326 3.326 0 00-1.325-.343 5.254 5.254 0 00-.703 0s.066.22.18.533c.125.4.295.784.509 1.144.446.756 1.163 1.525 2.413 1.06z" fill="url(#paint16_linear)"/><path d="M92.466 25.177a2.36 2.36 0 00.038-.874 2.147 2.147 0 00-1.112-1.52 3.326 3.326 0 00-1.325-.343 5.254 5.254 0 00-.703 0s.066.22.18.533c.125.4.295.784.509 1.144.446.756 1.163 1.525 2.413 1.06z" fill="#FDC33E"/><path d="M93.011 21.267a2.85 2.85 0 01-.194-.883 2.593 2.593 0 01.537-1.9 3.6 3.6 0 011.016-.893c.192-.122.394-.229.603-.319l.043.2c.035.172.058.347.067.522a7.604 7.604 0 01-.043 1.554 2.403 2.403 0 01-.608 1.392 1.425 1.425 0 01-1.42.327z" fill="url(#paint17_linear)"/><path d="M93.011 21.267a2.85 2.85 0 01-.194-.883 2.593 2.593 0 01.537-1.9 3.6 3.6 0 011.016-.893c.192-.122.394-.229.603-.319l.043.2c.035.172.058.347.067.522a7.604 7.604 0 01-.043 1.554 2.403 2.403 0 01-.608 1.392 1.425 1.425 0 01-1.42.327z" fill="#FDC33E"/><path d="M92.161 21.39a2.085 2.085 0 00-1.425-2.199 2.984 2.984 0 00-1.311-.137 5.253 5.253 0 00-.675.1l.072.137c.047.09.114.214.185.361.181.371.404.72.665 1.04.27.362.622.655 1.026.856a1.544 1.544 0 001.463-.157z" fill="url(#paint18_linear)"/><path d="M92.161 21.39a2.085 2.085 0 00-1.425-2.199 2.984 2.984 0 00-1.311-.137 5.253 5.253 0 00-.675.1l.072.137c.047.09.114.214.185.361.181.371.404.72.665 1.04.27.362.622.655 1.026.856a1.544 1.544 0 001.463-.157z" fill="#FDC33E"/><path d="M92.051 17.434a2.513 2.513 0 01-.327-.84 2.589 2.589 0 01.185-1.939c.203-.393.48-.743.817-1.03a3.93 3.93 0 01.523-.4l.07.19c.067.163.118.331.153.504.127.499.203 1.01.228 1.524.04.511-.08 1.022-.347 1.459a1.302 1.302 0 01-1.302.532z" fill="url(#paint19_linear)"/><path d="M92.051 17.434a2.513 2.513 0 01-.327-.84 2.589 2.589 0 01.185-1.939c.203-.393.48-.743.817-1.03a3.93 3.93 0 01.523-.4l.07.19c.067.163.118.331.153.504.127.499.203 1.01.228 1.524.04.511-.08 1.022-.347 1.459a1.302 1.302 0 01-1.302.532z" fill="#FDC33E"/><path d="M91.265 17.7a2.412 2.412 0 00-.228-.846 2.267 2.267 0 00-1.487-1.111 2.916 2.916 0 00-1.273.057 4.67 4.67 0 00-.632.2l.095.127c.062.076.143.195.233.333.238.336.512.645.817.921a2.85 2.85 0 001.121.694 1.426 1.426 0 001.354-.375z" fill="url(#paint20_linear)"/><path d="M91.265 17.7a2.412 2.412 0 00-.228-.846 2.267 2.267 0 00-1.487-1.111 2.916 2.916 0 00-1.273.057 4.67 4.67 0 00-.632.2l.095.127c.062.076.143.195.233.333.238.336.512.645.817.921a2.85 2.85 0 001.121.694 1.426 1.426 0 001.354-.375z" fill="#FDC33E"/><path d="M90.485 13.828a2.74 2.74 0 01-.475-.774 2.64 2.64 0 01-.162-1.929c.128-.408.33-.788.599-1.12.13-.17.275-.33.432-.476a3.969 3.969 0 00.338.646c.203.469.362.956.475 1.454a2.46 2.46 0 01-.076 1.482 1.231 1.231 0 01-1.131.717z" fill="url(#paint21_linear)"/><path d="M90.485 13.828a2.74 2.74 0 01-.475-.774 2.64 2.64 0 01-.162-1.929c.128-.408.33-.788.599-1.12.13-.17.275-.33.432-.476a3.969 3.969 0 00.338.646c.203.469.362.956.475 1.454a2.46 2.46 0 01-.076 1.482 1.231 1.231 0 01-1.131.717z" fill="#FDC33E"/><path d="M89.779 14.204a2.585 2.585 0 00-.366-.794 2.288 2.288 0 00-1.62-.879 2.755 2.755 0 00-1.216.243 3.738 3.738 0 00-.565.285l.11.109c.075.067.175.166.289.29.286.299.605.565.95.793.352.262.76.44 1.192.518a1.335 1.335 0 001.226-.565z" fill="url(#paint22_linear)"/><path d="M89.779 14.204a2.585 2.585 0 00-.366-.794 2.288 2.288 0 00-1.62-.879 2.755 2.755 0 00-1.216.243 3.738 3.738 0 00-.565.285l.11.109c.075.067.175.166.289.29.286.299.605.565.95.793.352.262.76.44 1.192.518a1.335 1.335 0 001.226-.565z" fill="#FDC33E"/><path d="M88.348 10.527a3.173 3.173 0 01-.58-.69 2.656 2.656 0 01-.475-1.852c.044-.411.171-.809.376-1.168.097-.178.208-.348.332-.509l.133.152c.113.13.216.269.31.414.28.425.52.875.716 1.344a2.4 2.4 0 01.186 1.425 1.145 1.145 0 01-.998.884z" fill="url(#paint23_linear)"/><path d="M88.348 10.527a3.173 3.173 0 01-.58-.69 2.656 2.656 0 01-.475-1.852c.044-.411.171-.809.376-1.168.097-.178.208-.348.332-.509l.133.152c.113.13.216.269.31.414.28.425.52.875.716 1.344a2.4 2.4 0 01.186 1.425 1.145 1.145 0 01-.998.884z" fill="#FDC33E"/><path d="M87.74 10.992a2.528 2.528 0 00-.5-.722 2.309 2.309 0 00-1.71-.627c-.403.046-.79.184-1.13.404a3.923 3.923 0 00-.475.356l.475.333a5.85 5.85 0 001.05.65c.385.203.81.318 1.244.338a1.25 1.25 0 001.045-.732z" fill="url(#paint24_linear)"/><path d="M87.74 10.992a2.528 2.528 0 00-.5-.722 2.309 2.309 0 00-1.71-.627c-.403.046-.79.184-1.13.404a3.923 3.923 0 00-.475.356l.475.333a5.85 5.85 0 001.05.65c.385.203.81.318 1.244.338a1.25 1.25 0 001.045-.732z" fill="#FDC33E"/><path d="M85.711 7.62a2.574 2.574 0 01-.213-.153 4.835 4.835 0 01-.476-.432 2.727 2.727 0 01-.797-1.724 2.773 2.773 0 01.151-1.174c.063-.187.142-.368.238-.541.186.147.362.306.527.475.345.368.655.767.927 1.192.281.403.434.882.437 1.373a1.074 1.074 0 01-.794.983z" fill="url(#paint25_linear)"/><path d="M85.711 7.62a2.574 2.574 0 01-.213-.153 4.835 4.835 0 01-.476-.432 2.727 2.727 0 01-.797-1.724 2.773 2.773 0 01.151-1.174c.063-.187.142-.368.238-.541.186.147.362.306.527.475.345.368.655.767.927 1.192.281.403.434.882.437 1.373a1.074 1.074 0 01-.794.983z" fill="#FDC33E"/><path d="M85.203 8.156s-.052-.08-.152-.204a2.372 2.372 0 00-.475-.423 2.323 2.323 0 00-1.772-.375c-.38.098-.732.285-1.026.546a3.83 3.83 0 00-.422.409l.513.261c.36.198.74.357 1.135.475.404.147.836.2 1.263.157a1.154 1.154 0 00.936-.846z" fill="url(#paint26_linear)"/><path d="M85.203 8.156s-.052-.08-.152-.204a2.372 2.372 0 00-.475-.423 2.323 2.323 0 00-1.772-.375c-.38.098-.732.285-1.026.546a3.83 3.83 0 00-.422.409l.513.261c.36.198.74.357 1.135.475.404.147.836.2 1.263.157a1.154 1.154 0 00.936-.846z" fill="#FDC33E"/><path d="M82.637 5.173a1.7 1.7 0 01-.233-.11c-.147-.075-.327-.208-.541-.35a2.775 2.775 0 01-1.083-1.55 3.012 3.012 0 01.08-1.686s.252.143.6.38c.399.306.769.648 1.106 1.022.347.337.581.773.67 1.249a.992.992 0 01-.599 1.045z" fill="url(#paint27_linear)"/><path d="M82.637 5.173a1.7 1.7 0 01-.233-.11c-.147-.075-.327-.208-.541-.35a2.775 2.775 0 01-1.083-1.55 3.012 3.012 0 01.08-1.686s.252.143.6.38c.399.306.769.648 1.106 1.022.347.337.581.773.67 1.249a.992.992 0 01-.599 1.045z" fill="#FDC33E"/><path d="M82.239 5.762a1.83 1.83 0 00-.186-.176 2.11 2.11 0 00-.522-.342 2.347 2.347 0 00-1.786-.128 2.911 2.911 0 00-1.25 1.121s.219.08.551.176c.387.142.786.248 1.193.318.418.08.849.07 1.263-.028a1.064 1.064 0 00.737-.94z" fill="url(#paint28_linear)"/><path d="M82.239 5.762a1.83 1.83 0 00-.186-.176 2.11 2.11 0 00-.522-.342 2.347 2.347 0 00-1.786-.128 2.911 2.911 0 00-1.25 1.121s.219.08.551.176c.387.142.786.248 1.193.318.418.08.849.07 1.263-.028a1.064 1.064 0 00.737-.94z" fill="#FDC33E"/><path d="M79.207 3.264s-.095 0-.247-.076c-.152-.077-.351-.148-.589-.257a2.85 2.85 0 01-1.325-1.316A2.788 2.788 0 0176.827 0s.271.1.656.276a8.74 8.74 0 011.259.807c.193.154.37.327.527.518.142.172.252.368.323.58a.95.95 0 01-.385 1.083z" fill="url(#paint29_linear)"/><path d="M79.207 3.264s-.095 0-.247-.076c-.152-.077-.351-.148-.589-.257a2.85 2.85 0 01-1.325-1.316A2.788 2.788 0 0176.827 0s.271.1.656.276a8.74 8.74 0 011.259.807c.193.154.37.327.527.518.142.172.252.368.323.58a.95.95 0 01-.385 1.083z" fill="#FDC33E"/><path d="M78.926 3.881c-.068-.052-.14-.1-.214-.143a1.899 1.899 0 00-.57-.251 2.375 2.375 0 00-1.772.137c-.463.3-.823.734-1.03 1.245 0 0 .227.048.57.086.405.08.817.126 1.23.137.222.004.445-.012.665-.047.197-.02.39-.071.57-.152a.998.998 0 00.551-1.012z" fill="url(#paint30_linear)"/><path d="M78.926 3.881c-.068-.052-.14-.1-.214-.143a1.899 1.899 0 00-.57-.251 2.375 2.375 0 00-1.772.137c-.463.3-.823.734-1.03 1.245 0 0 .227.048.57.086.405.08.817.126 1.23.137.222.004.445-.012.665-.047.197-.02.39-.071.57-.152a.998.998 0 00.551-1.012z" fill="#FDC33E"/><path d="M72.999 1.696a5.27 5.27 0 001.544 1.12c.317.166.676.234 1.031.196.334-.052.639-.22.86-.475a1.287 1.287 0 00-.475-.865c-.3-.239-.67-.374-1.055-.385A4.943 4.943 0 0073 1.696z" fill="url(#paint31_linear)"/><path d="M72.999 1.696a5.27 5.27 0 001.544 1.12c.317.166.676.234 1.031.196.334-.052.639-.22.86-.475a1.287 1.287 0 00-.475-.865c-.3-.239-.67-.374-1.055-.385A4.943 4.943 0 0073 1.696z" fill="#FDC33E"/><path d="M23.386 1.696a23.842 23.842 0 00-14.973 9.22 23.04 23.04 0 00-3.872 8.019 23.624 23.624 0 00.333 13.201 25.59 25.59 0 001.757 4.08 25.29 25.29 0 002.5 3.663 23.485 23.485 0 003.134 3.126c4.632 3.653 10.266 6.29 16.128 6.765L28.279 51a28.503 28.503 0 01-8.864-2.442 35.413 35.413 0 01-4.038-2.166 32.141 32.141 0 01-1.9-1.263c-.314-.21-.613-.475-.917-.69a10.018 10.018 0 01-.898-.726 24.675 24.675 0 01-3.197-3.297 23.941 23.941 0 01-4.275-8.075 24.194 24.194 0 01-.119-13.534 23.415 23.415 0 014.076-8.076 23.951 23.951 0 0115.239-9.035z" fill="url(#paint32_linear)"/><path d="M23.386 1.696a23.842 23.842 0 00-14.973 9.22 23.04 23.04 0 00-3.872 8.019 23.624 23.624 0 00.333 13.201 25.59 25.59 0 001.757 4.08 25.29 25.29 0 002.5 3.663 23.485 23.485 0 003.134 3.126c4.632 3.653 10.266 6.29 16.128 6.765L28.279 51a28.503 28.503 0 01-8.864-2.442 35.413 35.413 0 01-4.038-2.166 32.141 32.141 0 01-1.9-1.263c-.314-.21-.613-.475-.917-.69a10.018 10.018 0 01-.898-.726 24.675 24.675 0 01-3.197-3.297 23.941 23.941 0 01-4.275-8.075 24.194 24.194 0 01-.119-13.534 23.415 23.415 0 014.076-8.076 23.951 23.951 0 0115.239-9.035z" fill="#FDC33E"/><path d="M17.515 46.411a1.743 1.743 0 01-.794-.375 2.134 2.134 0 01-.736-1.9 6.3 6.3 0 01.817-2.376c.144.134.279.277.404.428.305.324.568.684.784 1.074a2.455 2.455 0 01-.475 3.15z" fill="url(#paint33_linear)"/><path d="M17.515 46.411a1.743 1.743 0 01-.794-.375 2.134 2.134 0 01-.736-1.9 6.3 6.3 0 01.817-2.376c.144.134.279.277.404.428.305.324.568.684.784 1.074a2.455 2.455 0 01-.475 3.15z" fill="#FDC33E"/><path d="M17.012 47.395a2.218 2.218 0 00-.756-.476 2.55 2.55 0 00-2.109.186 6.489 6.489 0 00-1.9 1.667c.217.102.439.192.665.27a5.73 5.73 0 001.52.314c1.14.034 2.31-.39 2.58-1.962z" fill="url(#paint34_linear)"/><path d="M17.012 47.395a2.218 2.218 0 00-.756-.476 2.55 2.55 0 00-2.109.186 6.489 6.489 0 00-1.9 1.667c.217.102.439.192.665.27a5.73 5.73 0 001.52.314c1.14.034 2.31-.39 2.58-1.962z" fill="#FDC33E"/><path d="M14.27 44.435a1.296 1.296 0 01-.238-.095 1.61 1.61 0 01-.508-.361 2.06 2.06 0 01-.499-1.929c.218-.792.6-1.53 1.121-2.166.115.141.22.29.314.447.22.345.409.71.56 1.092.083.23.144.467.18.708.05.252.06.51.03.765a2.323 2.323 0 01-.96 1.539z" fill="url(#paint35_linear)"/><path d="M14.27 44.435a1.296 1.296 0 01-.238-.095 1.61 1.61 0 01-.508-.361 2.06 2.06 0 01-.499-1.929c.218-.792.6-1.53 1.121-2.166.115.141.22.29.314.447.22.345.409.71.56 1.092.083.23.144.467.18.708.05.252.06.51.03.765a2.323 2.323 0 01-.96 1.539z" fill="#FDC33E"/><path d="M13.666 45.318a1.46 1.46 0 00-.18-.194 2.503 2.503 0 00-2.632-.5 6.26 6.26 0 00-2.1 1.317c.21.14.425.27.647.39.478.26.992.448 1.524.56.283.062.572.088.86.076.273-.02.54-.089.789-.204a2.121 2.121 0 001.092-1.445z" fill="url(#paint36_linear)"/><path d="M13.666 45.318a1.46 1.46 0 00-.18-.194 2.503 2.503 0 00-2.632-.5 6.26 6.26 0 00-2.1 1.317c.21.14.425.27.647.39.478.26.992.448 1.524.56.283.062.572.088.86.076.273-.02.54-.089.789-.204a2.121 2.121 0 001.092-1.445z" fill="#FDC33E"/><path d="M11.301 42.084a1.976 1.976 0 01-.864-2.537c.19-.486.468-.932.822-1.316a7.16 7.16 0 01.574-.594l.252.475c.17.377.301.77.39 1.173a2.337 2.337 0 01-1.174 2.799z" fill="url(#paint37_linear)"/><path d="M11.301 42.084a1.976 1.976 0 01-.864-2.537c.19-.486.468-.932.822-1.316a7.16 7.16 0 01.574-.594l.252.475c.17.377.301.77.39 1.173a2.337 2.337 0 01-1.174 2.799z" fill="#FDC33E"/><path d="M10.594 42.839a2.137 2.137 0 00-.603-.68 2.726 2.726 0 00-2.038-.475 4.927 4.927 0 00-1.525.504 6.777 6.777 0 00-.712.413c.178.175.37.333.574.475.428.327.895.597 1.392.803 1.107.423 2.29.385 2.912-1.04z" fill="url(#paint38_linear)"/><path d="M10.594 42.839a2.137 2.137 0 00-.603-.68 2.726 2.726 0 00-2.038-.475 4.927 4.927 0 00-1.525.504 6.777 6.777 0 00-.712.413c.178.175.37.333.574.475.428.327.895.597 1.392.803 1.107.423 2.29.385 2.912-1.04z" fill="#FDC33E"/><path d="M8.76 39.276a1.744 1.744 0 01-.56-.665 2.052 2.052 0 01.08-1.953 5.306 5.306 0 011.634-1.615c.068.172.123.348.167.528.108.398.18.805.218 1.216.04.486-.037.974-.223 1.425a2.118 2.118 0 01-1.316 1.064z" fill="url(#paint39_linear)"/><path d="M8.76 39.276a1.744 1.744 0 01-.56-.665 2.052 2.052 0 01.08-1.953 5.306 5.306 0 011.634-1.615c.068.172.123.348.167.528.108.398.18.805.218 1.216.04.486-.037.974-.223 1.425a2.118 2.118 0 01-1.316 1.064z" fill="#FDC33E"/><path d="M7.962 39.889a1.626 1.626 0 00-.114-.238 3.488 3.488 0 00-.38-.522 2.69 2.69 0 00-1.9-.822 5.592 5.592 0 00-2.305.537 6.175 6.175 0 001.706 1.591c.46.316 1.01.472 1.567.442a1.871 1.871 0 001.426-.988z" fill="url(#paint40_linear)"/><path d="M7.962 39.889a1.626 1.626 0 00-.114-.238 3.488 3.488 0 00-.38-.522 2.69 2.69 0 00-1.9-.822 5.592 5.592 0 00-2.305.537 6.175 6.175 0 001.706 1.591c.46.316 1.01.472 1.567.442a1.871 1.871 0 001.426-.988z" fill="#FDC33E"/><path d="M6.693 36.103a2.028 2.028 0 01-.076-2.655 4.963 4.963 0 011.805-1.321v.152c0 .095.048.228.067.394.051.41.061.823.028 1.235-.028.898-.408 1.962-1.824 2.195z" fill="url(#paint41_linear)"/><path d="M6.693 36.103a2.028 2.028 0 01-.076-2.655 4.963 4.963 0 011.805-1.321v.152c0 .095.048.228.067.394.051.41.061.823.028 1.235-.028.898-.408 1.962-1.824 2.195z" fill="#FDC33E"/><path d="M5.828 36.563a2.219 2.219 0 00-.356-.83 2.731 2.731 0 00-1.71-1.131 5.42 5.42 0 00-2.285.109l.09.185c.067.114.166.276.29.475a6.06 6.06 0 001.026 1.207c.888.74 1.98 1.097 2.945-.015z" fill="url(#paint42_linear)"/><path d="M5.828 36.563a2.219 2.219 0 00-.356-.83 2.731 2.731 0 00-1.71-1.131 5.42 5.42 0 00-2.285.109l.09.185c.067.114.166.276.29.475a6.06 6.06 0 001.026 1.207c.888.74 1.98 1.097 2.945-.015z" fill="#FDC33E"/><path d="M5.164 32.63a2.044 2.044 0 01-.129-.218 1.847 1.847 0 01-.194-.594 2.095 2.095 0 01.636-1.81 4.752 4.752 0 011.943-.998c.01.186.01.371 0 .556-.015.41-.066.82-.152 1.221a2.95 2.95 0 01-.603 1.254 1.873 1.873 0 01-1.501.59z" fill="url(#paint43_linear)"/><path d="M5.164 32.63a2.044 2.044 0 01-.129-.218 1.847 1.847 0 01-.194-.594 2.095 2.095 0 01.636-1.81 4.752 4.752 0 011.943-.998c.01.186.01.371 0 .556-.015.41-.066.82-.152 1.221a2.95 2.95 0 01-.603 1.254 1.873 1.873 0 01-1.501.59z" fill="#FDC33E"/><path d="M4.28 32.934a1.425 1.425 0 00-.034-.261 3.578 3.578 0 00-.2-.613 2.633 2.633 0 00-1.466-1.4 5.02 5.02 0 00-2.195-.28c.073.237.159.47.257.698.207.486.479.943.807 1.358.315.447.764.78 1.283.95a1.676 1.676 0 001.549-.45z" fill="url(#paint44_linear)"/><path d="M4.28 32.934a1.425 1.425 0 00-.034-.261 3.578 3.578 0 00-.2-.613 2.633 2.633 0 00-1.466-1.4 5.02 5.02 0 00-2.195-.28c.073.237.159.47.257.698.207.486.479.943.807 1.358.315.447.764.78 1.283.95a1.676 1.676 0 001.549-.45z" fill="#FDC33E"/><path d="M4.214 28.958a2.18 2.18 0 01-.166-.855c-.002-.286.056-.57.17-.831.17-.336.415-.628.718-.85a4.395 4.395 0 011.99-.67 4.219 4.219 0 01-.07.55 8.58 8.58 0 01-.343 1.188 2.67 2.67 0 01-.774 1.14 1.771 1.771 0 01-1.525.328z" fill="url(#paint45_linear)"/><path d="M4.214 28.958a2.18 2.18 0 01-.166-.855c-.002-.286.056-.57.17-.831.17-.336.415-.628.718-.85a4.395 4.395 0 011.99-.67 4.219 4.219 0 01-.07.55 8.58 8.58 0 01-.343 1.188 2.67 2.67 0 01-.774 1.14 1.771 1.771 0 01-1.525.328z" fill="#FDC33E"/><path d="M3.325 29.105a2.375 2.375 0 00-.066-.902 2.65 2.65 0 00-.37-.812 2.822 2.822 0 00-.818-.813A4.844 4.844 0 000 25.947s.048.303.152.726c.114.514.301 1.008.556 1.468.238.473.61.866 1.069 1.13a1.582 1.582 0 001.548-.166z" fill="url(#paint46_linear)"/><path d="M3.325 29.105a2.375 2.375 0 00-.066-.902 2.65 2.65 0 00-.37-.812 2.822 2.822 0 00-.818-.813A4.844 4.844 0 000 25.947s.048.303.152.726c.114.514.301 1.008.556 1.468.238.473.61.866 1.069 1.13a1.582 1.582 0 001.548-.166z" fill="#FDC33E"/><path d="M3.919 25.177a2.333 2.333 0 01-.043-.874 2.152 2.152 0 011.116-1.52c.412-.204.862-.32 1.32-.342.237-.016.473-.016.709 0 0 0-.067.218-.18.532a5.381 5.381 0 01-.51 1.126c-.45.774-1.168 1.543-2.412 1.078z" fill="url(#paint47_linear)"/><path d="M3.919 25.177a2.333 2.333 0 01-.043-.874 2.152 2.152 0 011.116-1.52c.412-.204.862-.32 1.32-.342.237-.016.473-.016.709 0 0 0-.067.218-.18.532a5.381 5.381 0 01-.51 1.126c-.45.774-1.168 1.543-2.412 1.078z" fill="#FDC33E"/><path d="M3.03 25.172c.076-.293.096-.598.057-.898a2.622 2.622 0 00-.874-1.79 3.71 3.71 0 00-1.178-.723 4.802 4.802 0 00-.67-.218 4.718 4.718 0 000 .732 7.42 7.42 0 00.3 1.524c.38 1.07 1.125 1.896 2.365 1.373z" fill="url(#paint48_linear)"/><path d="M3.03 25.172c.076-.293.096-.598.057-.898a2.622 2.622 0 00-.874-1.79 3.71 3.71 0 00-1.178-.723 4.802 4.802 0 00-.67-.218 4.718 4.718 0 000 .732 7.42 7.42 0 00.3 1.524c.38 1.07 1.125 1.896 2.365 1.373z" fill="#FDC33E"/><path d="M4.214 21.391a2.247 2.247 0 01.095-.87 2.19 2.19 0 011.316-1.33 2.97 2.97 0 011.306-.137c.229.018.456.052.68.1l-.072.137c-.052.09-.114.214-.185.361-.181.371-.404.72-.665 1.04a2.88 2.88 0 01-1.026.856 1.554 1.554 0 01-1.449-.157z" fill="url(#paint49_linear)"/><path d="M4.214 21.391a2.247 2.247 0 01.095-.87 2.19 2.19 0 011.316-1.33 2.97 2.97 0 011.306-.137c.229.018.456.052.68.1l-.072.137c-.052.09-.114.214-.185.361-.181.371-.404.72-.665 1.04a2.88 2.88 0 01-1.026.856 1.554 1.554 0 01-1.449-.157z" fill="#FDC33E"/><path d="M3.372 21.267c.111-.282.175-.58.19-.883a2.575 2.575 0 00-.537-1.9 3.588 3.588 0 00-1.012-.893 4.28 4.28 0 00-.603-.319l-.047.195a2.97 2.97 0 00-.067.523 7.9 7.9 0 00.038 1.553 2.44 2.44 0 00.613 1.392 1.425 1.425 0 001.425.332z" fill="url(#paint50_linear)"/><path d="M3.372 21.267c.111-.282.175-.58.19-.883a2.575 2.575 0 00-.537-1.9 3.588 3.588 0 00-1.012-.893 4.28 4.28 0 00-.603-.319l-.047.195a2.97 2.97 0 00-.067.523 7.9 7.9 0 00.038 1.553 2.44 2.44 0 00.613 1.392 1.425 1.425 0 001.425.332z" fill="#FDC33E"/><path d="M5.116 17.7c.027-.294.106-.58.233-.846a2.243 2.243 0 011.487-1.111 2.927 2.927 0 011.273.056c.214.052.423.118.627.2l-.09.128c-.062.076-.143.195-.238.333a5.447 5.447 0 01-.812.921 2.85 2.85 0 01-1.121.694 1.425 1.425 0 01-1.359-.375z" fill="url(#paint51_linear)"/><path d="M5.116 17.7c.027-.294.106-.58.233-.846a2.243 2.243 0 011.487-1.111 2.927 2.927 0 011.273.056c.214.052.423.118.627.2l-.09.128c-.062.076-.143.195-.238.333a5.447 5.447 0 01-.812.921 2.85 2.85 0 01-1.121.694 1.425 1.425 0 01-1.359-.375z" fill="#FDC33E"/><path d="M4.332 17.434c.156-.26.267-.544.328-.84a2.589 2.589 0 00-.186-1.939 3.438 3.438 0 00-.817-1.03 3.929 3.929 0 00-.522-.4l-.076.19a3.221 3.221 0 00-.148.504 7.703 7.703 0 00-.232 1.524 2.46 2.46 0 00.351 1.459 1.296 1.296 0 001.302.532z" fill="url(#paint52_linear)"/><path d="M4.332 17.434c.156-.26.267-.544.328-.84a2.589 2.589 0 00-.186-1.939 3.438 3.438 0 00-.817-1.03 3.929 3.929 0 00-.522-.4l-.076.19a3.221 3.221 0 00-.148.504 7.703 7.703 0 00-.232 1.524 2.46 2.46 0 00.351 1.459 1.296 1.296 0 001.302.532z" fill="#FDC33E"/><path d="M6.588 14.204a2.54 2.54 0 01.371-.794 2.266 2.266 0 011.62-.879 2.73 2.73 0 011.211.243c.198.078.389.174.57.285l-.109.109a4.107 4.107 0 00-.29.29 5.6 5.6 0 01-.95.793c-.352.262-.76.44-1.192.518a1.348 1.348 0 01-1.23-.565z" fill="url(#paint53_linear)"/><path d="M6.588 14.204a2.54 2.54 0 01.371-.794 2.266 2.266 0 011.62-.879 2.73 2.73 0 011.211.243c.198.078.389.174.57.285l-.109.109a4.107 4.107 0 00-.29.29 5.6 5.6 0 01-.95.793c-.352.262-.76.44-1.192.518a1.348 1.348 0 01-1.23-.565z" fill="#FDC33E"/><path d="M5.9 13.828c.2-.23.36-.491.475-.774.296-.6.353-1.288.161-1.929a3.326 3.326 0 00-.603-1.12 3.82 3.82 0 00-.432-.476l-.1.171c-.092.152-.172.31-.238.475a8.14 8.14 0 00-.475 1.454 2.456 2.456 0 00.081 1.482 1.23 1.23 0 001.13.717z" fill="url(#paint54_linear)"/><path d="M5.9 13.828c.2-.23.36-.491.475-.774.296-.6.353-1.288.161-1.929a3.326 3.326 0 00-.603-1.12 3.82 3.82 0 00-.432-.476l-.1.171c-.092.152-.172.31-.238.475a8.14 8.14 0 00-.475 1.454 2.456 2.456 0 00.081 1.482 1.23 1.23 0 001.13.717z" fill="#FDC33E"/><path d="M8.645 10.992c.117-.266.277-.51.476-.722a2.318 2.318 0 011.743-.627c.403.045.79.184 1.13.404.168.107.326.226.476.356l-.476.333c-.328.252-.682.47-1.054.65a2.927 2.927 0 01-1.24.338 1.25 1.25 0 01-1.055-.732z" fill="url(#paint55_linear)"/><path d="M8.645 10.992c.117-.266.277-.51.476-.722a2.318 2.318 0 011.743-.627c.403.045.79.184 1.13.404.168.107.326.226.476.356l-.476.333c-.328.252-.682.47-1.054.65a2.927 2.927 0 01-1.24.338 1.25 1.25 0 01-1.055-.732z" fill="#FDC33E"/><path d="M8.015 10.527c.226-.2.422-.432.58-.69a2.632 2.632 0 00.474-1.852 3.078 3.078 0 00-.375-1.168 3.581 3.581 0 00-.337-.509l-.128.152a2.802 2.802 0 00-.31.414c-.28.425-.52.875-.717 1.344a2.4 2.4 0 00-.185 1.425 1.144 1.144 0 00.998.884z" fill="url(#paint56_linear)"/><path d="M8.015 10.527c.226-.2.422-.432.58-.69a2.632 2.632 0 00.474-1.852 3.078 3.078 0 00-.375-1.168 3.581 3.581 0 00-.337-.509l-.128.152a2.802 2.802 0 00-.31.414c-.28.425-.52.875-.717 1.344a2.4 2.4 0 00-.185 1.425 1.144 1.144 0 00.998.884z" fill="#FDC33E"/><path d="M11.181 8.156s.053-.08.153-.204c.138-.162.298-.304.475-.423a2.323 2.323 0 011.772-.375c.38.098.732.285 1.026.546.15.125.292.262.422.409l-.513.261a6.124 6.124 0 01-1.135.475 2.85 2.85 0 01-1.268.157 1.155 1.155 0 01-.931-.846z" fill="url(#paint57_linear)"/><path d="M11.181 8.156s.053-.08.153-.204c.138-.162.298-.304.475-.423a2.323 2.323 0 011.772-.375c.38.098.732.285 1.026.546.15.125.292.262.422.409l-.513.261a6.124 6.124 0 01-1.135.475 2.85 2.85 0 01-1.268.157 1.155 1.155 0 01-.931-.846z" fill="#FDC33E"/><path d="M10.674 7.62c.073-.048.145-.098.213-.153.168-.133.327-.278.475-.432a2.703 2.703 0 00.803-1.724 2.773 2.773 0 00-.157-1.174 3.472 3.472 0 00-.232-.541 5.598 5.598 0 00-.528.475 8.258 8.258 0 00-.926 1.192 2.375 2.375 0 00-.437 1.373 1.074 1.074 0 00.789.983z" fill="url(#paint58_linear)"/><path d="M10.674 7.62c.073-.048.145-.098.213-.153.168-.133.327-.278.475-.432a2.703 2.703 0 00.803-1.724 2.773 2.773 0 00-.157-1.174 3.472 3.472 0 00-.232-.541 5.598 5.598 0 00-.528.475 8.258 8.258 0 00-.926 1.192 2.375 2.375 0 00-.437 1.373 1.074 1.074 0 00.789.983z" fill="#FDC33E"/><path d="M14.146 5.762a2.309 2.309 0 01.703-.518 2.375 2.375 0 011.791-.118c.517.242.95.632 1.245 1.12 0 0-.219.082-.547.177a6.87 6.87 0 01-1.197.318c-.418.08-.849.07-1.263-.029a1.055 1.055 0 01-.732-.95z" fill="url(#paint59_linear)"/><path d="M14.146 5.762a2.309 2.309 0 01.703-.518 2.375 2.375 0 011.791-.118c.517.242.95.632 1.245 1.12 0 0-.219.082-.547.177a6.87 6.87 0 01-1.197.318c-.418.08-.849.07-1.263-.029a1.055 1.055 0 01-.732-.95z" fill="#FDC33E"/><path d="M13.747 5.173c.08-.03.158-.067.233-.11.142-.075.323-.208.536-.35.54-.369.93-.918 1.098-1.55a2.983 2.983 0 00-.076-1.686s-.252.143-.604.38a8.556 8.556 0 00-1.106 1.022 2.367 2.367 0 00-.665 1.249.993.993 0 00.584 1.045z" fill="url(#paint60_linear)"/><path d="M13.747 5.173c.08-.03.158-.067.233-.11.142-.075.323-.208.536-.35.54-.369.93-.918 1.098-1.55a2.983 2.983 0 00-.076-1.686s-.252.143-.604.38a8.556 8.556 0 00-1.106 1.022 2.367 2.367 0 00-.665 1.249.993.993 0 00.584 1.045z" fill="#FDC33E"/><path d="M17.458 3.881c.067-.052.136-.1.209-.143a1.99 1.99 0 01.575-.251 2.375 2.375 0 011.771.137c.464.3.824.734 1.031 1.245 0 0-.228.048-.57.086a7.35 7.35 0 01-1.23.137 3.848 3.848 0 01-.665-.047 1.8 1.8 0 01-.57-.152.993.993 0 01-.551-1.012z" fill="url(#paint61_linear)"/><path d="M17.458 3.881c.067-.052.136-.1.209-.143a1.99 1.99 0 01.575-.251 2.375 2.375 0 011.771.137c.464.3.824.734 1.031 1.245 0 0-.228.048-.57.086a7.35 7.35 0 01-1.23.137 3.848 3.848 0 01-.665-.047 1.8 1.8 0 01-.57-.152.993.993 0 01-.551-1.012z" fill="#FDC33E"/><path d="M17.172 3.264s.1 0 .247-.076c.147-.077.356-.148.589-.257a2.85 2.85 0 001.33-1.316A2.79 2.79 0 0019.556 0s-.275.1-.655.276a8.781 8.781 0 00-1.259.807 3.86 3.86 0 00-.551.518c-.14.172-.249.368-.318.58a.922.922 0 00.399 1.083z" fill="url(#paint62_linear)"/><path d="M17.172 3.264s.1 0 .247-.076c.147-.077.356-.148.589-.257a2.85 2.85 0 001.33-1.316A2.79 2.79 0 0019.556 0s-.275.1-.655.276a8.781 8.781 0 00-1.259.807 3.86 3.86 0 00-.551.518c-.14.172-.249.368-.318.58a.922.922 0 00.399 1.083z" fill="#FDC33E"/><path d="M23.386 1.696c-.6-.26-1.246-.4-1.9-.409a1.78 1.78 0 00-1.05.385 1.263 1.263 0 00-.475.865c.222.255.526.423.86.475.355.038.714-.03 1.031-.195a5.27 5.27 0 001.534-1.121z" fill="url(#paint63_linear)"/><path d="M23.386 1.696c-.6-.26-1.246-.4-1.9-.409a1.78 1.78 0 00-1.05.385 1.263 1.263 0 00-.475.865c.222.255.526.423.86.475.355.038.714-.03 1.031-.195a5.27 5.27 0 001.534-1.121z" fill="#FDC33E"/><path d="M31.077 9.867h2.589a6.242 6.242 0 012.375.365c.547.236 1.01.634 1.325 1.14.32.511.484 1.104.475 1.706.006.56-.142 1.11-.427 1.591-.3.497-.733.9-1.25 1.164a4.81 4.81 0 011.573.817c.367.308.661.694.86 1.13.204.448.31.934.308 1.426a3.534 3.534 0 01-1.159 2.674 4.322 4.322 0 01-3.097 1.093h-3.606l.034-13.106zm1.287 1.282v4.2h.75c.68.034 1.36-.052 2.01-.252a2.2 2.2 0 001.021-.803 2.13 2.13 0 00.375-1.216 1.727 1.727 0 00-.631-1.425 3.159 3.159 0 00-2.005-.513l-1.52.01zm0 5.52v5.03h1.625a5.776 5.776 0 002.109-.28c.438-.18.813-.486 1.078-.878a2.298 2.298 0 00-.166-2.817 2.96 2.96 0 00-1.573-.893 11.652 11.652 0 00-2.332-.162h-.741z" fill="url(#paint64_linear)"/><path d="M31.077 9.867h2.589a6.242 6.242 0 012.375.365c.547.236 1.01.634 1.325 1.14.32.511.484 1.104.475 1.706.006.56-.142 1.11-.427 1.591-.3.497-.733.9-1.25 1.164a4.81 4.81 0 011.573.817c.367.308.661.694.86 1.13.204.448.31.934.308 1.426a3.534 3.534 0 01-1.159 2.674 4.322 4.322 0 01-3.097 1.093h-3.606l.034-13.106zm1.287 1.282v4.2h.75c.68.034 1.36-.052 2.01-.252a2.2 2.2 0 001.021-.803 2.13 2.13 0 00.375-1.216 1.727 1.727 0 00-.631-1.425 3.159 3.159 0 00-2.005-.513l-1.52.01zm0 5.52v5.03h1.625a5.776 5.776 0 002.109-.28c.438-.18.813-.486 1.078-.878a2.298 2.298 0 00-.166-2.817 2.96 2.96 0 00-1.573-.893 11.652 11.652 0 00-2.332-.162h-.741z" fill="#FDC33E"/><path d="M41.542 9.866h7.52v1.283h-6.209v4.114h6.175v1.283h-6.175V21.7h6.175v1.287h-7.486V9.867z" fill="url(#paint65_linear)"/><path d="M41.542 9.866h7.52v1.283h-6.209v4.114h6.175v1.283h-6.175V21.7h6.175v1.287h-7.486V9.867z" fill="#FDC33E"/><path d="M49.97 20.55l1.115-.665c.786 1.444 1.693 2.166 2.722 2.166.431 0 .856-.105 1.235-.309a2.19 2.19 0 00.884-.826c.198-.332.303-.711.304-1.098a2.252 2.252 0 00-.446-1.292 10.755 10.755 0 00-2.247-2.104 11.216 11.216 0 01-2.043-1.796 3.268 3.268 0 01-.698-2.004 3.04 3.04 0 01.413-1.563 2.893 2.893 0 011.154-1.112 3.368 3.368 0 011.615-.404 3.44 3.44 0 011.74.475 5.895 5.895 0 011.7 1.677l-1.07.813a5.103 5.103 0 00-1.263-1.297 2.162 2.162 0 00-1.135-.314 1.792 1.792 0 00-1.297.475 1.567 1.567 0 00-.503 1.188c-.001.285.059.566.175.826.162.329.383.625.651.875.171.167.736.604 1.696 1.31.9.61 1.691 1.368 2.337 2.243.4.58.62 1.266.632 1.971a3.35 3.35 0 01-1.083 2.48 3.654 3.654 0 01-2.637 1.05 3.834 3.834 0 01-2.156-.623 5.812 5.812 0 01-1.796-2.142z" fill="url(#paint66_linear)"/><path d="M49.97 20.55l1.115-.665c.786 1.444 1.693 2.166 2.722 2.166.431 0 .856-.105 1.235-.309a2.19 2.19 0 00.884-.826c.198-.332.303-.711.304-1.098a2.252 2.252 0 00-.446-1.292 10.755 10.755 0 00-2.247-2.104 11.216 11.216 0 01-2.043-1.796 3.268 3.268 0 01-.698-2.004 3.04 3.04 0 01.413-1.563 2.893 2.893 0 011.154-1.112 3.368 3.368 0 011.615-.404 3.44 3.44 0 011.74.475 5.895 5.895 0 011.7 1.677l-1.07.813a5.103 5.103 0 00-1.263-1.297 2.162 2.162 0 00-1.135-.314 1.792 1.792 0 00-1.297.475 1.567 1.567 0 00-.503 1.188c-.001.285.059.566.175.826.162.329.383.625.651.875.171.167.736.604 1.696 1.31.9.61 1.691 1.368 2.337 2.243.4.58.62 1.266.632 1.971a3.35 3.35 0 01-1.083 2.48 3.654 3.654 0 01-2.637 1.05 3.834 3.834 0 01-2.156-.623 5.812 5.812 0 01-1.796-2.142z" fill="#FDC33E"/><path d="M59.124 11.159V9.866h7.192v1.283h-2.927v11.838h-1.34V11.159h-2.925z" fill="url(#paint67_linear)"/><path d="M59.124 11.159V9.866h7.192v1.283h-2.927v11.838h-1.34V11.159h-2.925z" fill="#FDC33E"/><path d="M34.017 29.68h5.26v1.026H35.09v3.292h4.21v1.045h-4.21v5.155h-1.05l-.024-10.518z" fill="url(#paint68_linear)"/><path d="M34.017 29.68h5.26v1.026H35.09v3.292h4.21v1.045h-4.21v5.155h-1.05l-.024-10.518z" fill="#FDC33E"/><path d="M40.957 29.68h1.045v10.5h-1.045v-10.5z" fill="url(#paint69_linear)"/><path d="M40.957 29.68h1.045v10.5h-1.045v-10.5z" fill="#FDC33E"/><path d="M44.412 29.68h1.045v9.501h4.042v1.012h-5.087V29.68z" fill="url(#paint70_linear)"/><path d="M44.412 29.68h1.045v9.501h4.042v1.012h-5.087V29.68z" fill="#FDC33E"/><path d="M50.68 40.179l1.502-10.499h.17l4.276 8.613 4.228-8.613h.166l1.51 10.499h-1.03l-1.04-7.51-3.71 7.505h-.285l-3.758-7.568-.993 7.573h-1.035z" fill="url(#paint71_linear)"/><path d="M50.68 40.179l1.502-10.499h.17l4.276 8.613 4.228-8.613h.166l1.51 10.499h-1.03l-1.04-7.51-3.71 7.505h-.285l-3.758-7.568-.993 7.573h-1.035z" fill="#FDC33E"/><defs><linearGradient id="paint0_linear" x1="78" y1="-54" x2="21" y2="66.5" gradientUnits="userSpaceOnUse"><stop stop-color="#FDC33E" stop-opacity="0"/><stop offset=".371" stop-color="#FDC33E" stop-opacity=".55"/><stop offset="1" stop-color="#FDC33E"/></linearGradient><linearGradient id="paint1_linear" x1="78" y1="-54" x2="21" y2="66.5" gradientUnits="userSpaceOnUse"><stop stop-color="#FDC33E" stop-opacity="0"/><stop offset=".371" stop-color="#FDC33E" stop-opacity=".55"/><stop offset="1" stop-color="#FDC33E"/></linearGradient><linearGradient id="paint2_linear" x1="78" y1="-54" x2="21" y2="66.5" gradientUnits="userSpaceOnUse"><stop stop-color="#FDC33E" stop-opacity="0"/><stop offset=".371" stop-color="#FDC33E" stop-opacity=".55"/><stop offset="1" stop-color="#FDC33E"/></linearGradient><linearGradient id="paint3_linear" x1="78" y1="-54" x2="21" y2="66.5" gradientUnits="userSpaceOnUse"><stop stop-color="#FDC33E" stop-opacity="0"/><stop offset=".371" stop-color="#FDC33E" stop-opacity=".55"/><stop offset="1" stop-color="#FDC33E"/></linearGradient><linearGradient id="paint4_linear" x1="78" y1="-54" x2="21" y2="66.5" gradientUnits="userSpaceOnUse"><stop stop-color="#FDC33E" stop-opacity="0"/><stop offset=".371" stop-color="#FDC33E" stop-opacity=".55"/><stop offset="1" stop-color="#FDC33E"/></linearGradient><linearGradient id="paint5_linear" x1="78" y1="-54" x2="21" y2="66.5" gradientUnits="userSpaceOnUse"><stop stop-color="#FDC33E" stop-opacity="0"/><stop offset=".371" stop-color="#FDC33E" stop-opacity=".55"/><stop offset="1" stop-color="#FDC33E"/></linearGradient><linearGradient id="paint6_linear" x1="78" y1="-54" x2="21" y2="66.5" gradientUnits="userSpaceOnUse"><stop stop-color="#FDC33E" stop-opacity="0"/><stop offset=".371" stop-color="#FDC33E" stop-opacity=".55"/><stop offset="1" stop-color="#FDC33E"/></linearGradient><linearGradient id="paint7_linear" x1="78" y1="-54" x2="21" y2="66.5" gradientUnits="userSpaceOnUse"><stop stop-color="#FDC33E" stop-opacity="0"/><stop offset=".371" stop-color="#FDC33E" stop-opacity=".55"/><stop offset="1" stop-color="#FDC33E"/></linearGradient><linearGradient id="paint8_linear" x1="78" y1="-54" x2="21" y2="66.5" gradientUnits="userSpaceOnUse"><stop stop-color="#FDC33E" stop-opacity="0"/><stop offset=".371" stop-color="#FDC33E" stop-opacity=".55"/><stop offset="1" stop-color="#FDC33E"/></linearGradient><linearGradient id="paint9_linear" x1="78" y1="-54" x2="21" y2="66.5" gradientUnits="userSpaceOnUse"><stop stop-color="#FDC33E" stop-opacity="0"/><stop offset=".371" stop-color="#FDC33E" stop-opacity=".55"/><stop offset="1" stop-color="#FDC33E"/></linearGradient><linearGradient id="paint10_linear" x1="78" y1="-54" x2="21" y2="66.5" gradientUnits="userSpaceOnUse"><stop stop-color="#FDC33E" stop-opacity="0"/><stop offset=".371" stop-color="#FDC33E" stop-opacity=".55"/><stop offset="1" stop-color="#FDC33E"/></linearGradient><linearGradient id="paint11_linear" x1="78" y1="-54" x2="21" y2="66.5" gradientUnits="userSpaceOnUse"><stop stop-color="#FDC33E" stop-opacity="0"/><stop offset=".371" stop-color="#FDC33E" stop-opacity=".55"/><stop offset="1" stop-color="#FDC33E"/></linearGradient><linearGradient id="paint12_linear" x1="78" y1="-54" x2="21" y2="66.5" gradientUnits="userSpaceOnUse"><stop stop-color="#FDC33E" stop-opacity="0"/><stop offset=".371" stop-color="#FDC33E" stop-opacity=".55"/><stop offset="1" stop-color="#FDC33E"/></linearGradient><linearGradient id="paint13_linear" x1="78" y1="-54" x2="21" y2="66.5" gradientUnits="userSpaceOnUse"><stop stop-color="#FDC33E" stop-opacity="0"/><stop offset=".371" stop-color="#FDC33E" stop-opacity=".55"/><stop offset="1" stop-color="#FDC33E"/></linearGradient><linearGradient id="paint14_linear" x1="78" y1="-54" x2="21" y2="66.5" gradientUnits="userSpaceOnUse"><stop stop-color="#FDC33E" stop-opacity="0"/><stop offset=".371" stop-color="#FDC33E" stop-opacity=".55"/><stop offset="1" stop-color="#FDC33E"/></linearGradient><linearGradient id="paint15_linear" x1="78" y1="-54" x2="21" y2="66.5" gradientUnits="userSpaceOnUse"><stop stop-color="#FDC33E" stop-opacity="0"/><stop offset=".371" stop-color="#FDC33E" stop-opacity=".55"/><stop offset="1" stop-color="#FDC33E"/></linearGradient><linearGradient id="paint16_linear" x1="78" y1="-54" x2="21" y2="66.5" gradientUnits="userSpaceOnUse"><stop stop-color="#FDC33E" stop-opacity="0"/><stop offset=".371" stop-color="#FDC33E" stop-opacity=".55"/><stop offset="1" stop-color="#FDC33E"/></linearGradient><linearGradient id="paint17_linear" x1="78" y1="-54" x2="21" y2="66.5" gradientUnits="userSpaceOnUse"><stop stop-color="#FDC33E" stop-opacity="0"/><stop offset=".371" stop-color="#FDC33E" stop-opacity=".55"/><stop offset="1" stop-color="#FDC33E"/></linearGradient><linearGradient id="paint18_linear" x1="78" y1="-54" x2="21" y2="66.5" gradientUnits="userSpaceOnUse"><stop stop-color="#FDC33E" stop-opacity="0"/><stop offset=".371" stop-color="#FDC33E" stop-opacity=".55"/><stop offset="1" stop-color="#FDC33E"/></linearGradient><linearGradient id="paint19_linear" x1="78" y1="-54" x2="21" y2="66.5" gradientUnits="userSpaceOnUse"><stop stop-color="#FDC33E" stop-opacity="0"/><stop offset=".371" stop-color="#FDC33E" stop-opacity=".55"/><stop offset="1" stop-color="#FDC33E"/></linearGradient><linearGradient id="paint20_linear" x1="78" y1="-54" x2="21" y2="66.5" gradientUnits="userSpaceOnUse"><stop stop-color="#FDC33E" stop-opacity="0"/><stop offset=".371" stop-color="#FDC33E" stop-opacity=".55"/><stop offset="1" stop-color="#FDC33E"/></linearGradient><linearGradient id="paint21_linear" x1="78" y1="-54" x2="21" y2="66.5" gradientUnits="userSpaceOnUse"><stop stop-color="#FDC33E" stop-opacity="0"/><stop offset=".371" stop-color="#FDC33E" stop-opacity=".55"/><stop offset="1" stop-color="#FDC33E"/></linearGradient><linearGradient id="paint22_linear" x1="78" y1="-54" x2="21" y2="66.5" gradientUnits="userSpaceOnUse"><stop stop-color="#FDC33E" stop-opacity="0"/><stop offset=".371" stop-color="#FDC33E" stop-opacity=".55"/><stop offset="1" stop-color="#FDC33E"/></linearGradient><linearGradient id="paint23_linear" x1="78" y1="-54" x2="21" y2="66.5" gradientUnits="userSpaceOnUse"><stop stop-color="#FDC33E" stop-opacity="0"/><stop offset=".371" stop-color="#FDC33E" stop-opacity=".55"/><stop offset="1" stop-color="#FDC33E"/></linearGradient><linearGradient id="paint24_linear" x1="78" y1="-54" x2="21" y2="66.5" gradientUnits="userSpaceOnUse"><stop stop-color="#FDC33E" stop-opacity="0"/><stop offset=".371" stop-color="#FDC33E" stop-opacity=".55"/><stop offset="1" stop-color="#FDC33E"/></linearGradient><linearGradient id="paint25_linear" x1="78" y1="-54" x2="21" y2="66.5" gradientUnits="userSpaceOnUse"><stop stop-color="#FDC33E" stop-opacity="0"/><stop offset=".371" stop-color="#FDC33E" stop-opacity=".55"/><stop offset="1" stop-color="#FDC33E"/></linearGradient><linearGradient id="paint26_linear" x1="78" y1="-54" x2="21" y2="66.5" gradientUnits="userSpaceOnUse"><stop stop-color="#FDC33E" stop-opacity="0"/><stop offset=".371" stop-color="#FDC33E" stop-opacity=".55"/><stop offset="1" stop-color="#FDC33E"/></linearGradient><linearGradient id="paint27_linear" x1="78" y1="-54" x2="21" y2="66.5" gradientUnits="userSpaceOnUse"><stop stop-color="#FDC33E" stop-opacity="0"/><stop offset=".371" stop-color="#FDC33E" stop-opacity=".55"/><stop offset="1" stop-color="#FDC33E"/></linearGradient><linearGradient id="paint28_linear" x1="78" y1="-54" x2="21" y2="66.5" gradientUnits="userSpaceOnUse"><stop stop-color="#FDC33E" stop-opacity="0"/><stop offset=".371" stop-color="#FDC33E" stop-opacity=".55"/><stop offset="1" stop-color="#FDC33E"/></linearGradient><linearGradient id="paint29_linear" x1="78" y1="-54" x2="21" y2="66.5" gradientUnits="userSpaceOnUse"><stop stop-color="#FDC33E" stop-opacity="0"/><stop offset=".371" stop-color="#FDC33E" stop-opacity=".55"/><stop offset="1" stop-color="#FDC33E"/></linearGradient><linearGradient id="paint30_linear" x1="78" y1="-54" x2="21" y2="66.5" gradientUnits="userSpaceOnUse"><stop stop-color="#FDC33E" stop-opacity="0"/><stop offset=".371" stop-color="#FDC33E" stop-opacity=".55"/><stop offset="1" stop-color="#FDC33E"/></linearGradient><linearGradient id="paint31_linear" x1="78" y1="-54" x2="21" y2="66.5" gradientUnits="userSpaceOnUse"><stop stop-color="#FDC33E" stop-opacity="0"/><stop offset=".371" stop-color="#FDC33E" stop-opacity=".55"/><stop offset="1" stop-color="#FDC33E"/></linearGradient><linearGradient id="paint32_linear" x1="78" y1="-54" x2="21" y2="66.5" gradientUnits="userSpaceOnUse"><stop stop-color="#FDC33E" stop-opacity="0"/><stop offset=".371" stop-color="#FDC33E" stop-opacity=".55"/><stop offset="1" stop-color="#FDC33E"/></linearGradient><linearGradient id="paint33_linear" x1="78" y1="-54" x2="21" y2="66.5" gradientUnits="userSpaceOnUse"><stop stop-color="#FDC33E" stop-opacity="0"/><stop offset=".371" stop-color="#FDC33E" stop-opacity=".55"/><stop offset="1" stop-color="#FDC33E"/></linearGradient><linearGradient id="paint34_linear" x1="78" y1="-54" x2="21" y2="66.5" gradientUnits="userSpaceOnUse"><stop stop-color="#FDC33E" stop-opacity="0"/><stop offset=".371" stop-color="#FDC33E" stop-opacity=".55"/><stop offset="1" stop-color="#FDC33E"/></linearGradient><linearGradient id="paint35_linear" x1="78" y1="-54" x2="21" y2="66.5" gradientUnits="userSpaceOnUse"><stop stop-color="#FDC33E" stop-opacity="0"/><stop offset=".371" stop-color="#FDC33E" stop-opacity=".55"/><stop offset="1" stop-color="#FDC33E"/></linearGradient><linearGradient id="paint36_linear" x1="78" y1="-54" x2="21" y2="66.5" gradientUnits="userSpaceOnUse"><stop stop-color="#FDC33E" stop-opacity="0"/><stop offset=".371" stop-color="#FDC33E" stop-opacity=".55"/><stop offset="1" stop-color="#FDC33E"/></linearGradient><linearGradient id="paint37_linear" x1="78" y1="-54" x2="21" y2="66.5" gradientUnits="userSpaceOnUse"><stop stop-color="#FDC33E" stop-opacity="0"/><stop offset=".371" stop-color="#FDC33E" stop-opacity=".55"/><stop offset="1" stop-color="#FDC33E"/></linearGradient><linearGradient id="paint38_linear" x1="78" y1="-54" x2="21" y2="66.5" gradientUnits="userSpaceOnUse"><stop stop-color="#FDC33E" stop-opacity="0"/><stop offset=".371" stop-color="#FDC33E" stop-opacity=".55"/><stop offset="1" stop-color="#FDC33E"/></linearGradient><linearGradient id="paint39_linear" x1="78" y1="-54" x2="21" y2="66.5" gradientUnits="userSpaceOnUse"><stop stop-color="#FDC33E" stop-opacity="0"/><stop offset=".371" stop-color="#FDC33E" stop-opacity=".55"/><stop offset="1" stop-color="#FDC33E"/></linearGradient><linearGradient id="paint40_linear" x1="78" y1="-54" x2="21" y2="66.5" gradientUnits="userSpaceOnUse"><stop stop-color="#FDC33E" stop-opacity="0"/><stop offset=".371" stop-color="#FDC33E" stop-opacity=".55"/><stop offset="1" stop-color="#FDC33E"/></linearGradient><linearGradient id="paint41_linear" x1="78" y1="-54" x2="21" y2="66.5" gradientUnits="userSpaceOnUse"><stop stop-color="#FDC33E" stop-opacity="0"/><stop offset=".371" stop-color="#FDC33E" stop-opacity=".55"/><stop offset="1" stop-color="#FDC33E"/></linearGradient><linearGradient id="paint42_linear" x1="78" y1="-54" x2="21" y2="66.5" gradientUnits="userSpaceOnUse"><stop stop-color="#FDC33E" stop-opacity="0"/><stop offset=".371" stop-color="#FDC33E" stop-opacity=".55"/><stop offset="1" stop-color="#FDC33E"/></linearGradient><linearGradient id="paint43_linear" x1="78" y1="-54" x2="21" y2="66.5" gradientUnits="userSpaceOnUse"><stop stop-color="#FDC33E" stop-opacity="0"/><stop offset=".371" stop-color="#FDC33E" stop-opacity=".55"/><stop offset="1" stop-color="#FDC33E"/></linearGradient><linearGradient id="paint44_linear" x1="78" y1="-54" x2="21" y2="66.5" gradientUnits="userSpaceOnUse"><stop stop-color="#FDC33E" stop-opacity="0"/><stop offset=".371" stop-color="#FDC33E" stop-opacity=".55"/><stop offset="1" stop-color="#FDC33E"/></linearGradient><linearGradient id="paint45_linear" x1="78" y1="-54" x2="21" y2="66.5" gradientUnits="userSpaceOnUse"><stop stop-color="#FDC33E" stop-opacity="0"/><stop offset=".371" stop-color="#FDC33E" stop-opacity=".55"/><stop offset="1" stop-color="#FDC33E"/></linearGradient><linearGradient id="paint46_linear" x1="78" y1="-54" x2="21" y2="66.5" gradientUnits="userSpaceOnUse"><stop stop-color="#FDC33E" stop-opacity="0"/><stop offset=".371" stop-color="#FDC33E" stop-opacity=".55"/><stop offset="1" stop-color="#FDC33E"/></linearGradient><linearGradient id="paint47_linear" x1="78" y1="-54" x2="21" y2="66.5" gradientUnits="userSpaceOnUse"><stop stop-color="#FDC33E" stop-opacity="0"/><stop offset=".371" stop-color="#FDC33E" stop-opacity=".55"/><stop offset="1" stop-color="#FDC33E"/></linearGradient><linearGradient id="paint48_linear" x1="78" y1="-54" x2="21" y2="66.5" gradientUnits="userSpaceOnUse"><stop stop-color="#FDC33E" stop-opacity="0"/><stop offset=".371" stop-color="#FDC33E" stop-opacity=".55"/><stop offset="1" stop-color="#FDC33E"/></linearGradient><linearGradient id="paint49_linear" x1="78" y1="-54" x2="21" y2="66.5" gradientUnits="userSpaceOnUse"><stop stop-color="#FDC33E" stop-opacity="0"/><stop offset=".371" stop-color="#FDC33E" stop-opacity=".55"/><stop offset="1" stop-color="#FDC33E"/></linearGradient><linearGradient id="paint50_linear" x1="78" y1="-54" x2="21" y2="66.5" gradientUnits="userSpaceOnUse"><stop stop-color="#FDC33E" stop-opacity="0"/><stop offset=".371" stop-color="#FDC33E" stop-opacity=".55"/><stop offset="1" stop-color="#FDC33E"/></linearGradient><linearGradient id="paint51_linear" x1="78" y1="-54" x2="21" y2="66.5" gradientUnits="userSpaceOnUse"><stop stop-color="#FDC33E" stop-opacity="0"/><stop offset=".371" stop-color="#FDC33E" stop-opacity=".55"/><stop offset="1" stop-color="#FDC33E"/></linearGradient><linearGradient id="paint52_linear" x1="78" y1="-54" x2="21" y2="66.5" gradientUnits="userSpaceOnUse"><stop stop-color="#FDC33E" stop-opacity="0"/><stop offset=".371" stop-color="#FDC33E" stop-opacity=".55"/><stop offset="1" stop-color="#FDC33E"/></linearGradient><linearGradient id="paint53_linear" x1="78" y1="-54" x2="21" y2="66.5" gradientUnits="userSpaceOnUse"><stop stop-color="#FDC33E" stop-opacity="0"/><stop offset=".371" stop-color="#FDC33E" stop-opacity=".55"/><stop offset="1" stop-color="#FDC33E"/></linearGradient><linearGradient id="paint54_linear" x1="78" y1="-54" x2="21" y2="66.5" gradientUnits="userSpaceOnUse"><stop stop-color="#FDC33E" stop-opacity="0"/><stop offset=".371" stop-color="#FDC33E" stop-opacity=".55"/><stop offset="1" stop-color="#FDC33E"/></linearGradient><linearGradient id="paint55_linear" x1="78" y1="-54" x2="21" y2="66.5" gradientUnits="userSpaceOnUse"><stop stop-color="#FDC33E" stop-opacity="0"/><stop offset=".371" stop-color="#FDC33E" stop-opacity=".55"/><stop offset="1" stop-color="#FDC33E"/></linearGradient><linearGradient id="paint56_linear" x1="78" y1="-54" x2="21" y2="66.5" gradientUnits="userSpaceOnUse"><stop stop-color="#FDC33E" stop-opacity="0"/><stop offset=".371" stop-color="#FDC33E" stop-opacity=".55"/><stop offset="1" stop-color="#FDC33E"/></linearGradient><linearGradient id="paint57_linear" x1="78" y1="-54" x2="21" y2="66.5" gradientUnits="userSpaceOnUse"><stop stop-color="#FDC33E" stop-opacity="0"/><stop offset=".371" stop-color="#FDC33E" stop-opacity=".55"/><stop offset="1" stop-color="#FDC33E"/></linearGradient><linearGradient id="paint58_linear" x1="78" y1="-54" x2="21" y2="66.5" gradientUnits="userSpaceOnUse"><stop stop-color="#FDC33E" stop-opacity="0"/><stop offset=".371" stop-color="#FDC33E" stop-opacity=".55"/><stop offset="1" stop-color="#FDC33E"/></linearGradient><linearGradient id="paint59_linear" x1="78" y1="-54" x2="21" y2="66.5" gradientUnits="userSpaceOnUse"><stop stop-color="#FDC33E" stop-opacity="0"/><stop offset=".371" stop-color="#FDC33E" stop-opacity=".55"/><stop offset="1" stop-color="#FDC33E"/></linearGradient><linearGradient id="paint60_linear" x1="78" y1="-54" x2="21" y2="66.5" gradientUnits="userSpaceOnUse"><stop stop-color="#FDC33E" stop-opacity="0"/><stop offset=".371" stop-color="#FDC33E" stop-opacity=".55"/><stop offset="1" stop-color="#FDC33E"/></linearGradient><linearGradient id="paint61_linear" x1="78" y1="-54" x2="21" y2="66.5" gradientUnits="userSpaceOnUse"><stop stop-color="#FDC33E" stop-opacity="0"/><stop offset=".371" stop-color="#FDC33E" stop-opacity=".55"/><stop offset="1" stop-color="#FDC33E"/></linearGradient><linearGradient id="paint62_linear" x1="78" y1="-54" x2="21" y2="66.5" gradientUnits="userSpaceOnUse"><stop stop-color="#FDC33E" stop-opacity="0"/><stop offset=".371" stop-color="#FDC33E" stop-opacity=".55"/><stop offset="1" stop-color="#FDC33E"/></linearGradient><linearGradient id="paint63_linear" x1="78" y1="-54" x2="21" y2="66.5" gradientUnits="userSpaceOnUse"><stop stop-color="#FDC33E" stop-opacity="0"/><stop offset=".371" stop-color="#FDC33E" stop-opacity=".55"/><stop offset="1" stop-color="#FDC33E"/></linearGradient><linearGradient id="paint64_linear" x1="78" y1="-54" x2="21" y2="66.5" gradientUnits="userSpaceOnUse"><stop stop-color="#FDC33E" stop-opacity="0"/><stop offset=".371" stop-color="#FDC33E" stop-opacity=".55"/><stop offset="1" stop-color="#FDC33E"/></linearGradient><linearGradient id="paint65_linear" x1="78" y1="-54" x2="21" y2="66.5" gradientUnits="userSpaceOnUse"><stop stop-color="#FDC33E" stop-opacity="0"/><stop offset=".371" stop-color="#FDC33E" stop-opacity=".55"/><stop offset="1" stop-color="#FDC33E"/></linearGradient><linearGradient id="paint66_linear" x1="78" y1="-54" x2="21" y2="66.5" gradientUnits="userSpaceOnUse"><stop stop-color="#FDC33E" stop-opacity="0"/><stop offset=".371" stop-color="#FDC33E" stop-opacity=".55"/><stop offset="1" stop-color="#FDC33E"/></linearGradient><linearGradient id="paint67_linear" x1="78" y1="-54" x2="21" y2="66.5" gradientUnits="userSpaceOnUse"><stop stop-color="#FDC33E" stop-opacity="0"/><stop offset=".371" stop-color="#FDC33E" stop-opacity=".55"/><stop offset="1" stop-color="#FDC33E"/></linearGradient><linearGradient id="paint68_linear" x1="78" y1="-54" x2="21" y2="66.5" gradientUnits="userSpaceOnUse"><stop stop-color="#FDC33E" stop-opacity="0"/><stop offset=".371" stop-color="#FDC33E" stop-opacity=".55"/><stop offset="1" stop-color="#FDC33E"/></linearGradient><linearGradient id="paint69_linear" x1="78" y1="-54" x2="21" y2="66.5" gradientUnits="userSpaceOnUse"><stop stop-color="#FDC33E" stop-opacity="0"/><stop offset=".371" stop-color="#FDC33E" stop-opacity=".55"/><stop offset="1" stop-color="#FDC33E"/></linearGradient><linearGradient id="paint70_linear" x1="78" y1="-54" x2="21" y2="66.5" gradientUnits="userSpaceOnUse"><stop stop-color="#FDC33E" stop-opacity="0"/><stop offset=".371" stop-color="#FDC33E" stop-opacity=".55"/><stop offset="1" stop-color="#FDC33E"/></linearGradient><linearGradient id="paint71_linear" x1="78" y1="-54" x2="21" y2="66.5" gradientUnits="userSpaceOnUse"><stop stop-color="#FDC33E" stop-opacity="0"/><stop offset=".371" stop-color="#FDC33E" stop-opacity=".55"/><stop offset="1" stop-color="#FDC33E"/></linearGradient></defs></svg>