<svg width="62" height="62" fill="none" xmlns="http://www.w3.org/2000/svg"><g clip-path="url(#clip0)"><path d="M40.715 19.22a.867.867 0 00-.666-.214L24.62 20.721a.857.857 0 00-.763.852v15.274a4.971 4.971 0 00-2.571-.703c-2.363 0-4.286 1.538-4.286 3.428 0 1.891 1.923 3.43 4.286 3.43 2.363 0 4.285-1.539 4.285-3.43V26.63l13.715-1.53v10.03a4.97 4.97 0 00-2.572-.7c-2.363 0-4.285 1.537-4.285 3.428s1.922 3.429 4.285 3.429c2.363 0 4.286-1.538 4.286-3.429v-18a.857.857 0 00-.285-.638zm-19.43 22.067c-1.393 0-2.57-.785-2.57-1.715 0-.929 1.177-1.714 2.57-1.714 1.394 0 2.572.785 2.572 1.715 0 .929-1.178 1.714-2.571 1.714zm15.43-1.715c-1.394 0-2.572-.785-2.572-1.714 0-.929 1.178-1.714 2.571-1.714 1.394 0 2.572.785 2.572 1.714 0 .93-1.178 1.715-2.572 1.715zm2.57-16.195L25.572 24.9v-2.557l13.715-1.528v2.56z" fill="#fff"/></g><rect x=".5" y=".5" width="61" height="61" rx="30.5" stroke="#999"/><defs><clipPath id="clip0"><path fill="#fff" transform="translate(17 19)" d="M0 0h24v24H0z"/></clipPath></defs></svg>