<svg width="72" height="72" fill="none" xmlns="http://www.w3.org/2000/svg"><rect width="72" height="72" rx="36" fill="#FFE9E6"/><path d="M24.32 32.581v-9.325c0-.845.687-1.534 1.533-1.534h2.832a1.299 1.299 0 100-2.597h-2.832a4.136 4.136 0 00-4.131 4.13v9.327c0 .031-.012.06-.035.082l-2.016 2.017a1.867 1.867 0 000 2.638l2.017 2.017a.116.116 0 01.034.082v9.326a4.136 4.136 0 004.13 4.131h2.833a1.299 1.299 0 100-2.597h-2.832a1.535 1.535 0 01-1.533-1.533v-9.327a2.7 2.7 0 00-.796-1.92L22.025 36l1.5-1.5a2.697 2.697 0 00.795-1.919zm28.008 2.099l-2.017-2.016a.116.116 0 01-.034-.083v-9.325a4.136 4.136 0 00-4.131-4.131h-2.832a1.299 1.299 0 100 2.597h2.832c.845 0 1.533.688 1.533 1.534v9.326a2.7 2.7 0 00.795 1.919l1.5 1.499-1.5 1.499a2.697 2.697 0 00-.794 1.92v9.325c0 .845-.688 1.533-1.533 1.533h-2.833a1.299 1.299 0 100 2.597h2.833a4.136 4.136 0 004.13-4.13v-9.326c0-.031.012-.06.035-.082l2.017-2.017a1.868 1.868 0 00-.001-2.638zm-16.151-8.21c-1.47 0-2.627 1.158-2.627 2.655a2.604 2.604 0 002.627 2.627c1.497 0 2.655-1.159 2.655-2.627 0-1.497-1.159-2.656-2.655-2.656zm-2.29 12.362v4.322h2.062v.452c0 1.271-.508 1.582-1.469 1.582v1.836c4.66 0 4.944-4.717 3.39-8.192h-3.983z" fill="#F1361D"/></svg>