<svg width="48" height="48" fill="none" xmlns="http://www.w3.org/2000/svg"><path d="M24 0c13.255 0 24 10.746 24 24 0 13.256-10.745 24-24 24C10.744 48 0 37.255 0 24 0 10.746 10.745 0 24 0z" fill="#111"/><path fill-rule="evenodd" clip-rule="evenodd" d="M35.032 17.948c.164-.547 0-.948-.78-.948h-2.578c-.656 0-.958.347-1.122.73 0 0-1.312 3.196-3.17 5.273-.6.6-.874.792-1.202.792-.164 0-.401-.191-.401-.738v-5.109c0-.656-.19-.948-.737-.948H20.99c-.41 0-.656.304-.656.593 0 .621.93.765 1.025 2.513v3.798c0 .833-.15.984-.478.984-.875 0-3.001-3.211-4.263-6.885-.247-.715-.495-1.003-1.154-1.003h-2.579c-.737 0-.884.347-.884.73 0 .682.874 4.07 4.071 8.551 2.13 3.06 5.133 4.719 7.865 4.719 1.64 0 1.842-.368 1.842-1.003v-2.313c0-.737.155-.884.674-.884.383 0 1.039.192 2.569 1.667C30.77 30.216 31.059 31 32.042 31h2.58c.736 0 1.104-.368.892-1.096-.233-.724-1.068-1.775-2.175-3.022-.602-.71-1.503-1.475-1.776-1.858-.383-.491-.274-.71 0-1.147 0 0 3.142-4.426 3.47-5.929z" fill="#fff"/></svg>