<svg width="30" height="36" fill="none" xmlns="http://www.w3.org/2000/svg"><path d="M9.75 18.75c-3.598 1.2-5.758 2.878-7.246 5.42-.771 1.318-1.004 2.864-1.004 4.391v.627c0 2.2 1.59 4.09 3.773 4.353a81.29 81.29 0 0019.454 0c2.184-.262 3.773-2.153 3.773-4.353v-.627c0-1.527-.233-3.073-1.004-4.39-1.488-2.543-3.648-4.222-7.246-5.421" stroke="#111" stroke-width="3" stroke-linecap="round"/><path d="M7.788 8.994A7.217 7.217 0 0115 1.5v0a7.217 7.217 0 017.212 7.494l-.203 5.261A7.014 7.014 0 0115 21v0a7.015 7.015 0 01-7.01-6.745l-.202-5.26zM7.5 9c3.75 2.25 13.5.75 13.5-4.5" stroke="#111" stroke-width="3"/></svg>