<svg width="29" height="35" fill="none" xmlns="http://www.w3.org/2000/svg"><path d="M2.086 10.36c.147-3.745.221-5.618 1.464-6.863 1.244-1.245 3.098-1.32 6.808-1.47a96.58 96.58 0 018.284 0c3.71.15 5.564.225 6.808 1.47 1.243 1.245 1.317 3.118 1.464 6.864.198 5.03.198 9.247 0 14.278-.147 3.746-.221 5.619-1.465 6.864-1.243 1.245-3.098 1.32-6.807 1.47a96.651 96.651 0 01-8.284 0c-3.71-.15-5.564-.225-6.808-1.47-1.243-1.245-1.317-3.118-1.464-6.864-.198-5.03-.198-9.247 0-14.278zm24.414.39h-24" stroke="#111" stroke-width="3"/><circle cx="18.252" cy="18.064" r="2.064" fill="#111"/><circle cx="18.252" cy="24.813" r="2.064" fill="#111"/><circle cx="10.756" cy="18.064" r="2.06" fill="#111"/><circle cx="10.75" cy="24.813" r="2.065" fill="#111"/></svg>