<svg width="37" height="34" fill="none" xmlns="http://www.w3.org/2000/svg"><path d="M7.251 10C6.661 14.718 7 22.218 7.9 27.396c.28 1.608.42 2.412 1.19 3.106s1.63.752 3.349.868c3.791.257 8.333.257 12.125 0 1.719-.116 2.578-.174 3.349-.868.77-.694.91-1.498 1.19-3.106.9-5.178 1.238-12.678.648-17.396" stroke="#111" stroke-width="3"/><path d="M15.125 30.25V23.5c0-1.414 0-2.121.44-2.56.439-.44 1.146-.44 2.56-.44h.75c1.414 0 2.121 0 2.56.44.44.439.44 1.146.44 2.56v6.75" stroke="#111" stroke-width="3" stroke-linecap="round"/><path d="M2 14.5L14.7 4.109c1.82-1.489 2.73-2.233 3.8-2.233 1.07 0 1.98.744 3.8 2.233L35 14.5" stroke="#111" stroke-width="3" stroke-linecap="round" stroke-linejoin="round"/></svg>