<svg width="18" height="42" fill="none" xmlns="http://www.w3.org/2000/svg"><path d="M14.194 5.831l-.258-.773c-.482-1.447-.724-2.17-1.216-2.669a3.001 3.001 0 00-.804-.579C11.288 1.5 10.526 1.5 9 1.5c-1.525 0-2.288 0-2.916.31a3 3 0 00-.804.58c-.492.497-.734 1.22-1.216 2.668l-.258.773c-.282.848-.424 1.272-.441 1.695a3 3 0 00.228 1.278c.162.39.441.74 1 1.437h0c.496.62.744.93 1.047 1.158a3 3 0 001.054.506C7.062 12 7.46 12 8.253 12h1.494c.794 0 1.191 0 1.559-.095a3 3 0 001.054-.506c.303-.228.551-.538 1.047-1.158h0c.559-.698.838-1.047 1-1.437.169-.405.246-.84.228-1.278-.017-.423-.159-.847-.441-1.695h0zM1.584 30C1.938 23.833 3.41 18.476 6 12h6c2.02 6.305 3.908 11.79 4.385 18.002.106 1.383.159 2.074-.125 2.932-.285.858-.734 1.375-1.634 2.408a28.57 28.57 0 01-1.972 2.047c-1.643 1.546-2.464 2.32-3.654 2.32s-2.011-.774-3.654-2.32a28.13 28.13 0 01-1.972-2.047c-.895-1.027-1.342-1.54-1.627-2.375-.285-.834-.244-1.545-.163-2.966z" stroke="#111" stroke-width="3"/></svg>