<svg width="42" height="31" fill="none" xmlns="http://www.w3.org/2000/svg"><path d="M9.5 14.25v9.042c0 1.86 0 2.79.61 3.593.608.804 1.355 1.014 2.85 1.433 4.427 1.243 9.653 1.243 14.08 0 1.495-.42 2.242-.629 2.85-1.433.61-.803.61-1.733.61-3.593V14.25" stroke="#111" stroke-width="3"/><path d="M20 17.25s-9.914-1.859-17.351-6.14c-.99-.57-.887-1.968.157-2.433 6.504-2.897 14.82-5.654 16.77-6.29a1.42 1.42 0 01.85-.014c2.127.618 11.744 3.468 18.527 6.434.982.43 1.14 1.707.235 2.282C32.433 15.385 20 17.25 20 17.25z" stroke="#111" stroke-width="3"/><path d="M36.5 12.75v9.75" stroke="#111" stroke-width="3" stroke-linecap="round"/></svg>