<svg width="29" height="35" fill="none" xmlns="http://www.w3.org/2000/svg"><path d="M2.148 10.423c.148-3.745.222-5.618 1.465-6.863S6.71 2.24 10.42 2.089a96.58 96.58 0 018.285 0c3.709.15 5.564.226 6.807 1.47 1.243 1.246 1.317 3.119 1.465 6.864a172.57 172.57 0 010 14.279c-.148 3.745-.222 5.618-1.465 6.863s-3.098 1.32-6.807 1.471a96.651 96.651 0 01-8.285 0c-3.709-.15-5.564-.226-6.807-1.47-1.243-1.246-1.317-3.118-1.465-6.864a172.57 172.57 0 010-14.279z" stroke="#111" stroke-width="3"/><path d="M9.5 2v3c0 1.414 0 2.121.44 2.56.439.44 1.146.44 2.56.44H17c1.414 0 2.121 0 2.56-.44C20 7.122 20 6.415 20 5V2" stroke="#111" stroke-width="3"/><path d="M8 17h13.125M8 22.25h6" stroke="#111" stroke-width="3" stroke-linecap="round"/></svg>