<svg width="34" height="30" fill="none" xmlns="http://www.w3.org/2000/svg"><path d="M12.5 5.5l.15 1.492A1.5 1.5 0 0014 5.5h-1.5zm9 0H20a1.5 1.5 0 001.351 1.492l.15-1.492zm-.7-2.638l.627-1.363-.627 1.363zm-8.3 1.19H11h1.5zm.702-1.19l-.627-1.363.627 1.362zM4.992 19.6c-.36-3.603.03-6.626 1.226-8.779 1.143-2.058 3.12-3.498 6.432-3.83l-.299-2.985c-4.188.42-7.087 2.354-8.756 5.358-1.616 2.91-1.977 6.637-1.587 10.534l2.985-.298zm16.36-12.609c3.184.319 5.207 2.029 6.41 4.353 1.235 2.39 1.597 5.444 1.25 8.219l2.977.372c.403-3.225.014-6.92-1.563-9.969-1.61-3.113-4.462-5.528-8.776-5.96l-.299 2.985zM14 5.5V4.053h-3V5.5h3zm-.171-1.276c.822-.378 1.962-.599 3.171-.599 1.21 0 2.35.22 3.172.6l1.254-2.726C20.113.895 18.522.625 17 .625c-1.521 0-3.113.27-4.425.874l1.254 2.725zM20 4.053V5.5h3V4.053h-3zm.172.171a.35.35 0 01-.156-.136c-.02-.033-.016-.046-.016-.035h3c0-.954-.475-2.048-1.574-2.554l-1.254 2.725zM14 4.053c0-.011.004.002-.015.034a.35.35 0 01-.156.137L12.575 1.5C11.475 2.006 11 3.1 11 4.054h3z" fill="#111"/><path d="M31.25 19.75c-10.5 1.5-18 1.5-28.5 0C2 21.25.5 28 17 28s15-6.75 14.25-8.25z" stroke="#111" stroke-width="3" stroke-linejoin="round"/><path d="M12.5 5.5v3m9-3v3" stroke="#111" stroke-width="3" stroke-linecap="round"/></svg>