<svg width="27" height="24" viewBox="0 0 27 24" fill="none" xmlns="http://www.w3.org/2000/svg">
<path d="M5.57431 7.45654C5.15526 10.8089 5.39519 16.1384 6.03505 19.8175C6.2338 20.9604 6.33318 21.5318 6.88069 22.0248C7.42819 22.5178 8.03892 22.5591 9.26037 22.6418C11.9547 22.824 15.182 22.824 17.8763 22.6418C19.0977 22.5591 19.7084 22.5178 20.256 22.0248C20.8035 21.5318 20.9028 20.9604 21.1016 19.8176C21.7415 16.1384 21.9815 10.809 21.5624 7.45654" stroke="white" stroke-width="1.90534"/>
<path d="M11.1709 21.8459V17.0495C11.1709 16.0446 11.1709 15.5421 11.4831 15.2299C11.7953 14.9177 12.2977 14.9177 13.3026 14.9177H13.8356C14.8405 14.9177 15.343 14.9177 15.6551 15.2299C15.9673 15.5421 15.9673 16.0446 15.9673 17.0495V21.8459" stroke="white" stroke-width="1.90534" stroke-linecap="round"/>
<path d="M1.83984 10.6539L10.8646 3.26997C12.1572 2.21241 12.8035 1.68364 13.5644 1.68364C14.3254 1.68364 14.9717 2.21241 16.2643 3.26997L25.2891 10.6539" stroke="white" stroke-width="1.90534" stroke-linecap="round" stroke-linejoin="round"/>
</svg>
