<svg xmlns="http://www.w3.org/2000/svg" width="19" height="24" viewBox="0 0 19 24" fill="none">
<path d="M1.48665 7.41273C1.58199 4.98987 1.62966 3.77843 2.43389 2.9732C3.23813 2.16796 4.43775 2.11925 6.83701 2.02184C8.72471 1.94519 10.3078 1.94519 12.1955 2.02184C14.5947 2.11925 15.7944 2.16796 16.5986 2.9732C17.4028 3.77844 17.4505 4.98987 17.5458 7.41274C17.6739 10.6666 17.6739 13.3943 17.5458 16.6482C17.4505 19.071 17.4028 20.2825 16.5986 21.0877C15.7944 21.893 14.5947 21.9417 12.1955 22.0391C10.3078 22.1157 8.72471 22.1157 6.83702 22.0391C4.43776 21.9417 3.23813 21.893 2.4339 21.0877C1.62966 20.2825 1.58199 19.071 1.48665 16.6482C1.35861 13.3943 1.35861 10.6666 1.48665 7.41273Z" stroke="white" stroke-width="1.94045"/>
<path d="M17.2775 7.66455H1.75391" stroke="white" stroke-width="1.94045"/>
<circle cx="11.9444" cy="12.3956" r="1.335" fill="white"/>
<circle cx="11.9444" cy="16.7608" r="1.33501" fill="white"/>
<circle cx="7.09836" cy="12.3967" r="1.33273" fill="white"/>
<circle cx="7.09368" cy="16.7617" r="1.33587" fill="white"/>
</svg>