<svg width="20" height="24" viewBox="0 0 20 24" fill="none" xmlns="http://www.w3.org/2000/svg">
<path d="M6.67143 12.4985C4.36136 13.2686 2.97488 14.3464 2.01964 15.9784C1.52453 16.8242 1.375 17.817 1.375 18.7971V19.1995C1.375 20.6118 2.39526 21.8258 3.79743 21.9942C7.9604 22.4941 12.1234 22.4941 16.2864 21.9942C17.6885 21.8258 18.7088 20.6118 18.7088 19.1995V18.7971C18.7088 17.817 18.5593 16.8242 18.0641 15.9784C17.1089 14.3464 15.7224 13.2686 13.4124 12.4985" stroke="white" stroke-width="1.92598" stroke-linecap="round"/>
<path d="M5.41162 6.2357C5.31058 3.60889 7.41276 1.42432 10.0415 1.42432V1.42432C12.6702 1.42432 14.7724 3.6089 14.6714 6.2357L14.5415 9.61292C14.4485 12.0309 12.4613 13.9432 10.0415 13.9432V13.9432C7.62173 13.9432 5.63451 12.0309 5.54151 9.61292L5.41162 6.2357Z" stroke="white" stroke-width="1.92598"/>
<path d="M5.22656 6.23955C7.63403 7.68403 13.8935 6.72104 13.8935 3.35059" stroke="white" stroke-width="1.92598"/>
</svg>
