<svg width="26" height="24" viewBox="0 0 26 24" fill="none" xmlns="http://www.w3.org/2000/svg">
<path d="M9.25106 4.09736L9.33884 4.97508C9.78978 4.92999 10.1332 4.55052 10.1332 4.09733L9.25106 4.09736ZM16.5284 4.09734H15.6463C15.6463 4.55052 15.9897 4.92997 16.4406 4.97507L16.5284 4.09734ZM15.9611 1.96402L15.5925 2.76539L15.9611 1.96402ZM9.81834 1.96394L9.44972 1.16255L9.81834 1.96394ZM2.85138 15.5321C2.55685 12.5866 2.86826 10.0647 3.88183 8.24026C4.86449 6.47147 6.56418 5.25257 9.33884 4.97508L9.16329 3.21964C5.87336 3.54865 3.63114 5.05878 2.33964 7.3835C1.07906 9.65256 0.784059 12.5887 1.09593 15.7076L2.85138 15.5321ZM16.4406 4.97507C19.1405 5.2451 20.8679 6.70545 21.8851 8.67197C22.9218 10.6763 23.2171 13.2169 22.9304 15.5104L24.681 15.7293C25.0007 13.1712 24.6895 10.2539 23.4521 7.86145C22.1951 5.43123 19.9805 3.5561 16.6162 3.21962L16.4406 4.97507ZM10.1332 4.09733L10.1331 2.92714L8.36892 2.9272L8.36896 4.09739L10.1332 4.09733ZM10.187 2.76533C10.9062 2.4345 11.8775 2.2505 12.8897 2.25051C13.9019 2.25052 14.8732 2.43454 15.5925 2.76539L16.3297 1.16264C15.3227 0.699367 14.0857 0.486319 12.8897 0.486306C11.6937 0.486294 10.4568 0.699316 9.44972 1.16255L10.187 2.76533ZM15.6463 2.9272V4.09734H17.4105V2.9272H15.6463ZM15.5925 2.76539C15.5934 2.76583 15.6024 2.76886 15.6156 2.79216C15.6307 2.81889 15.6463 2.86561 15.6463 2.9272H17.4105C17.4105 2.25581 17.0768 1.50628 16.3297 1.16264L15.5925 2.76539ZM10.1331 2.92714C10.1331 2.86554 10.1487 2.81882 10.1639 2.79208C10.1771 2.76879 10.186 2.76576 10.187 2.76533L9.44972 1.16255C8.70264 1.5062 8.36889 2.25578 8.36892 2.9272L10.1331 2.92714Z" fill="white"/>
<path d="M24.4151 15.6196C15.9249 16.8325 9.86032 16.8325 1.37011 15.6196C0.763611 16.8325 -0.449303 22.2905 12.8925 22.2905C26.2343 22.2905 25.0214 16.8325 24.4151 15.6196Z" stroke="white" stroke-width="1.7642" stroke-linejoin="round"/>
<path d="M9.25684 4.09766V6.52344" stroke="white" stroke-width="1.7642" stroke-linecap="round"/>
<path d="M16.5303 4.09766V6.52344" stroke="white" stroke-width="1.7642" stroke-linecap="round"/>
</svg>
