<svg width="13" height="30" viewBox="0 0 13 30" fill="none" xmlns="http://www.w3.org/2000/svg">
<path d="M10.2744 4.81026L10.0911 4.26061C9.7484 3.2324 9.57703 2.71829 9.22701 2.3647C9.06071 2.19671 8.86763 2.05755 8.65568 1.95291C8.20955 1.73267 7.66763 1.73267 6.58381 1.73267C5.49998 1.73267 4.95806 1.73267 4.51193 1.95291C4.29998 2.05755 4.1069 2.19671 3.9406 2.3647C3.59058 2.71829 3.41921 3.2324 3.07648 4.26061L2.89326 4.81027C2.69242 5.41277 2.592 5.71403 2.5795 6.01434C2.56656 6.32526 2.62184 6.63524 2.74147 6.92251C2.85702 7.19998 3.0554 7.44795 3.45214 7.94388C3.80447 8.3843 3.98064 8.60451 4.19649 8.76661C4.42007 8.93452 4.67449 9.0568 4.94528 9.12649C5.20669 9.19378 5.4887 9.19378 6.05271 9.19378H7.1149C7.67891 9.19378 7.96092 9.19378 8.22233 9.12649C8.49312 9.0568 8.74754 8.93452 8.97112 8.76661C9.18697 8.60451 9.36313 8.3843 9.71546 7.94389L9.71547 7.94388C10.1122 7.44795 10.3106 7.19998 10.4261 6.92251C10.5458 6.63524 10.6011 6.32526 10.5881 6.01434C10.5756 5.71403 10.4752 5.41277 10.2744 4.81026Z" stroke="white" stroke-width="1.90534"/>
<path d="M1.31267 21.9847C1.56423 17.601 2.61019 13.7945 4.45055 9.1936H8.71404C10.15 13.6738 11.4912 17.572 11.8298 21.9858C11.9052 22.9682 11.9429 23.4594 11.7409 24.0692C11.5389 24.6789 11.2192 25.046 10.58 25.7801C10.1405 26.2849 9.6923 26.7507 9.1785 27.2345C8.01145 28.3333 7.42792 28.8827 6.5823 28.8827C5.73667 28.8827 5.15314 28.3333 3.98609 27.2345C3.47228 26.7507 3.02411 26.2849 2.58455 25.7801C1.94893 25.0501 1.63111 24.6851 1.42842 24.0925C1.22573 23.4998 1.25471 22.9948 1.31267 21.9847Z" stroke="white" stroke-width="1.90534"/>
</svg>
