<svg width="19" height="24" viewBox="0 0 19 24" fill="none" xmlns="http://www.w3.org/2000/svg">
<path d="M1.15388 7.14887C1.2514 4.67072 1.30015 3.43165 2.12274 2.60803C2.94532 1.78442 4.17232 1.7346 6.62632 1.63497C8.55709 1.55657 10.1763 1.55657 12.1071 1.63497C14.5611 1.7346 15.7881 1.78442 16.6107 2.60804C17.4332 3.43165 17.482 4.67073 17.5795 7.14888C17.7105 10.477 17.7105 13.2669 17.5795 16.595C17.482 19.0732 17.4332 20.3123 16.6107 21.1359C15.7881 21.9595 14.5611 22.0093 12.1071 22.109C10.1763 22.1873 8.5571 22.1873 6.62634 22.109C4.17233 22.0093 2.94533 21.9595 2.12274 21.1359C1.30016 20.3123 1.2514 19.0732 1.15388 16.5951C1.02292 13.2669 1.02292 10.477 1.15388 7.14887Z" stroke="white" stroke-width="1.90534"/>
<path d="M6.01562 1.57617V3.5609C6.01562 4.49651 6.01562 4.96432 6.30628 5.25497C6.59694 5.54563 7.06474 5.54563 8.00035 5.54563H10.9774C11.9131 5.54563 12.3809 5.54563 12.6715 5.25497C12.9622 4.96432 12.9622 4.49651 12.9622 3.5609V1.57617" stroke="white" stroke-width="1.90534"/>
<path d="M5.02148 11.4998H13.7047" stroke="white" stroke-width="1.90534" stroke-linecap="round"/>
<path d="M5.02148 14.9731H8.99094" stroke="white" stroke-width="1.90534" stroke-linecap="round"/>
</svg>
