<svg width="29" height="22" viewBox="0 0 29 22" fill="none" xmlns="http://www.w3.org/2000/svg">
<path d="M6.81738 9.95386V16.2557C6.81738 17.552 6.81738 18.2001 7.24195 18.7602C7.66652 19.3204 8.18722 19.4666 9.22862 19.7589C12.3141 20.6249 15.957 20.6249 19.0425 19.7589C20.0839 19.4666 20.6046 19.3204 21.0292 18.7602C21.4537 18.2001 21.4537 17.552 21.4537 16.2557V9.95386" stroke="white" stroke-width="1.90534"/>
<path d="M14.1388 12.0451C14.1388 12.0451 7.22921 10.7496 2.04546 7.76599C1.35528 7.36874 1.4275 6.3939 2.15495 6.06991C6.68836 4.05085 12.4837 2.12918 13.8439 1.68599C14.0394 1.62228 14.2388 1.61896 14.4363 1.67632C15.9184 2.10679 22.621 4.0935 27.3486 6.16045C28.0332 6.45974 28.143 7.35014 27.5125 7.75107C22.8045 10.7453 14.1388 12.0451 14.1388 12.0451Z" stroke="white" stroke-width="1.90534"/>
<path d="M25.6367 8.90918V15.7046" stroke="white" stroke-width="1.90534" stroke-linecap="round"/>
</svg>
