<svg width="50" height="50" viewBox="0 0 50 50" fill="none" xmlns="http://www.w3.org/2000/svg">
<circle cx="25" cy="25" r="24.6094" transform="rotate(90 25 25)" stroke="#FF6854" stroke-width="0.78125"/>
<path fill-rule="evenodd" clip-rule="evenodd" d="M19.1002 18.3931C18.905 18.1979 18.5884 18.1979 18.3931 18.3931C18.1979 18.5884 18.1979 18.905 18.3931 19.1002L24.2929 25L18.3931 30.8998C18.1979 31.095 18.1979 31.4116 18.3931 31.6069C18.5884 31.8021 18.905 31.8021 19.1002 31.6069L25 25.7071L30.8998 31.6069C31.095 31.8021 31.4116 31.8021 31.6069 31.6069C31.8021 31.4116 31.8021 31.095 31.6069 30.8998L25.7071 25L31.6069 19.1002C31.8021 18.905 31.8021 18.5884 31.6069 18.3931C31.4116 18.1979 31.095 18.1979 30.8998 18.3931L25 24.2929L19.1002 18.3931Z" fill="white"/>
</svg>
