<svg width="21" height="23" viewBox="0 0 21 23" fill="none" xmlns="http://www.w3.org/2000/svg">
<path d="M20 18.5C20 18.7832 19.8703 19.1365 19.4631 19.5492C19.0516 19.9661 18.4067 20.3874 17.5307 20.7628C15.7823 21.5121 13.2973 22 10.5 22C7.70269 22 5.21765 21.5121 3.4693 20.7628C2.59334 20.3874 1.94836 19.9661 1.53689 19.5492C1.12966 19.1365 1 18.7832 1 18.5C1 18.2168 1.12966 17.8635 1.53689 17.4508C1.94836 17.0339 2.59334 16.6126 3.4693 16.2372C5.21765 15.4879 7.70269 15 10.5 15C13.2973 15 15.7823 15.4879 17.5307 16.2372C18.4067 16.6126 19.0516 17.0339 19.4631 17.4508C19.8703 17.8635 20 18.2168 20 18.5Z" stroke="#F1361D" stroke-width="2"/>
<ellipse cx="10.5" cy="13.5" rx="10.5" ry="4.5" fill="#F7F6F4"/>
<path d="M20 11.5C20 11.7832 19.8703 12.1365 19.4631 12.5492C19.0516 12.9661 18.4067 13.3874 17.5307 13.7628C15.7823 14.5121 13.2973 15 10.5 15C7.70269 15 5.21765 14.5121 3.4693 13.7628C2.59334 13.3874 1.94836 12.9661 1.53689 12.5492C1.12966 12.1365 1 11.7832 1 11.5C1 11.2168 1.12966 10.8635 1.53689 10.4508C1.94836 10.0339 2.59334 9.61257 3.4693 9.23716C5.21765 8.48787 7.70269 8 10.5 8C13.2973 8 15.7823 8.48787 17.5307 9.23716C18.4067 9.61257 19.0516 10.0339 19.4631 10.4508C19.8703 10.8635 20 11.2168 20 11.5Z" stroke="#F1361D" stroke-width="2"/>
<ellipse cx="10.5" cy="6.5" rx="10.5" ry="4.5" fill="#F7F6F4"/>
<path d="M20 4.5C20 4.78316 19.8703 5.13654 19.4631 5.54917C19.0516 5.96609 18.4067 6.38743 17.5307 6.76284C15.7823 7.51213 13.2973 8 10.5 8C7.70269 8 5.21765 7.51213 3.4693 6.76284C2.59334 6.38743 1.94836 5.96609 1.53689 5.54917C1.12966 5.13654 1 4.78316 1 4.5C1 4.21684 1.12966 3.86346 1.53689 3.45083C1.94836 3.03391 2.59334 2.61257 3.4693 2.23716C5.21765 1.48787 7.70269 1 10.5 1C13.2973 1 15.7823 1.48787 17.5307 2.23716C18.4067 2.61257 19.0516 3.03391 19.4631 3.45083C19.8703 3.86346 20 4.21684 20 4.5Z" stroke="#F1361D" stroke-width="2"/>
</svg>
