<svg width="1680" height="829" viewBox="0 0 1680 829" fill="none" xmlns="http://www.w3.org/2000/svg">
<g opacity="0.03">
<mask id="path-1-inside-1" fill="white">
<path fill-rule="evenodd" clip-rule="evenodd" d="M1368.43 1280.25C1365.44 1280.25 1358.78 1302.82 1365.64 1318.82C1369.28 1327.35 1377.85 1330.94 1385.03 1328.56C1392.09 1326.21 1394.15 1319.51 1394.35 1314.29C1395.01 1296.75 1379.57 1280.25 1368.43 1280.25H1368.43ZM1317.04 1024.33L1319.29 1049.11L1297.83 1046.72V1074.94L1319.29 1072.56L1317.04 1098.44H1346.19L1343.94 1072.56L1365.39 1074.94V1046.72L1343.94 1049.11L1346.19 1024.33H1317.04H1317.04ZM1331.65 1121.98C1325.85 1121.98 1321.14 1126.78 1321.14 1132.7C1321.14 1138.62 1325.85 1143.42 1331.65 1143.42C1337.46 1143.42 1342.16 1138.62 1342.16 1132.7C1342.16 1126.78 1337.45 1121.98 1331.65 1121.98ZM1331.65 1165.38C1325.85 1165.38 1321.14 1170.17 1321.14 1176.09C1321.14 1182.01 1325.85 1186.81 1331.65 1186.81C1337.46 1186.81 1342.16 1182.01 1342.16 1176.09C1342.16 1170.18 1337.45 1165.38 1331.65 1165.38ZM1331.65 1209.39C1325.85 1209.39 1321.14 1214.19 1321.14 1220.11C1321.14 1226.04 1325.85 1230.83 1331.65 1230.83C1337.46 1230.83 1342.16 1226.03 1342.16 1220.11C1342.16 1214.19 1337.45 1209.39 1331.65 1209.39V1209.39ZM1365.6 1220.11C1365.6 1226.04 1370.3 1230.83 1376.11 1230.83C1381.91 1230.83 1386.62 1226.03 1386.62 1220.11C1386.62 1214.19 1381.91 1209.39 1376.11 1209.39C1370.3 1209.39 1365.59 1214.19 1365.59 1220.11L1365.6 1220.11ZM1409.65 1220.11C1409.65 1226.04 1414.36 1230.83 1420.17 1230.83C1425.97 1230.83 1430.68 1226.03 1430.68 1220.11C1430.68 1214.19 1425.97 1209.39 1420.17 1209.39C1414.36 1209.39 1409.65 1214.19 1409.65 1220.11V1220.11ZM1331.65 1268.32C1322.65 1268.32 1300.45 1313.86 1317 1336.89C1320.17 1341.29 1325.71 1343.77 1331.65 1343.77C1337.59 1343.77 1343.14 1341.29 1346.3 1336.89C1362.85 1313.86 1340.65 1268.32 1331.65 1268.32ZM1294.87 1280.25C1283.73 1280.25 1268.29 1296.75 1268.95 1314.29C1269.15 1319.51 1271.21 1326.21 1278.27 1328.55C1285.44 1330.94 1294.02 1327.34 1297.67 1318.82C1304.52 1302.82 1297.86 1280.25 1294.87 1280.25ZM1277.77 1220.11C1277.77 1226.04 1282.47 1230.83 1288.28 1230.83C1294.09 1230.83 1298.79 1226.03 1298.79 1220.11C1298.79 1214.19 1294.08 1209.39 1288.28 1209.39C1282.47 1209.39 1277.77 1214.19 1277.77 1220.11L1277.77 1220.11ZM1234.79 1220.11C1234.79 1226.04 1239.49 1230.83 1245.3 1230.83C1251.11 1230.83 1255.81 1226.03 1255.81 1220.11C1255.81 1214.19 1251.11 1209.39 1245.3 1209.39C1239.49 1209.39 1234.79 1214.19 1234.79 1220.11V1220.11ZM1224.43 1220.11C1224.43 1210.97 1226.01 1202.74 1226.01 1202.74H1313.36V1195.18L1313.36 1131.5L1313.36 1131.5V1113.39C1271.2 1120.77 1237.48 1153.23 1227.42 1195.17C1224.98 1198.66 1217.05 1200.44 1211.47 1199.82C1179.23 1195.88 1114 1184.14 1114 1170.27C1114 1150.78 1127.22 1142.98 1139.92 1142.98C1158.03 1142.98 1178.05 1152.78 1194.71 1128.69C1135.4 1131.4 1180.87 1045.86 1132.22 1029.63C1134.63 1051.47 1132.24 1089.9 1124.57 1110.22C1124.57 1110.22 1107.14 1091.63 1087.56 1084.62C1089.03 1100.47 1086.05 1133.34 1078.95 1148.3C1078.95 1148.3 1058.22 1129.15 1036.73 1121.98C1056.56 1150.68 1055.88 1191.65 1050.54 1216.56C1049 1223.77 1054.38 1232.74 1069.5 1232.08C1093.16 1231.04 1173.95 1234.6 1208.99 1248.9C1219.89 1253.35 1229.22 1258.45 1233.78 1266.2C1237.49 1276.65 1246.68 1292.83 1257.98 1301.12C1263.06 1283.07 1284.69 1263.73 1298.79 1264.43C1303 1264.63 1307.65 1271.66 1308.62 1278.53C1309.86 1272.14 1320.26 1254.46 1331.65 1254.46C1342.16 1254.46 1352.26 1269.25 1355.77 1281.46C1356.83 1273.62 1361.47 1265.23 1365.68 1265.23C1379.84 1265.23 1397.64 1277.76 1404.35 1298.47C1409.78 1291.71 1434.72 1259.71 1437.54 1238.7H1226.01C1226.01 1238.7 1224.42 1229.62 1224.42 1220.11L1224.43 1220.11ZM1349.94 1113.41V1202.74H1437.37C1429.77 1157.19 1394.57 1121.24 1349.94 1113.41H1349.94ZM318.265 1186.96C320.1 1187.58 321.958 1187.14 323.787 1186.17C317.894 1194.36 318.138 1199.75 320.674 1202.27C324.661 1206.21 327.614 1198.97 337.689 1188.29C347.774 1177.63 354.749 1174.38 350.778 1170.42C348.218 1167.88 342.912 1167.81 334.99 1174.26C335.866 1172.37 336.203 1170.49 335.565 1168.66C332.232 1159.03 316.715 1146.21 308.162 1146.18C306.927 1146.19 305.706 1146.45 304.572 1146.94C308.335 1140.91 307.363 1136.35 304.846 1133.85C302.074 1131.11 300.487 1133.03 297.376 1137C297.801 1134.23 297.088 1130.98 294.463 1127.01C281.624 1107.61 213.717 1043.75 198.297 1037.34C189.094 1033.49 186.074 1038.81 186.074 1038.81C186.074 1038.81 180.981 1042.09 185.007 1051.4C191.746 1066.99 256.998 1133.68 276.302 1146.23C280.261 1148.79 283.441 1149.42 286.13 1148.9C282.378 1152.18 280.58 1153.87 283.337 1156.61C285.856 1159.11 290.341 1159.96 296.107 1155.9C295.673 1157.08 295.469 1158.34 295.505 1159.6C295.798 1168.35 308.772 1183.85 318.269 1186.96L318.265 1186.96ZM155.04 998.029C153.028 998.029 150.171 998.506 148.069 1000.73C145.941 1002.98 145.193 1006.46 145.967 1010.5C146.818 1014.89 149.324 1019.34 153.037 1023.03C157.482 1027.46 163.075 1030.09 167.976 1030.09C170.001 1030.09 172.839 1029.63 174.944 1027.41C179.53 1022.55 177.266 1012.33 169.984 1005.1C165.525 1000.69 159.948 998.033 155.041 998.033L155.04 998.029ZM366.234 1235.08C366.177 1228.34 353.394 1217.02 338.232 1217.02C315.713 1217.02 305.965 1231.29 305.965 1238.57C305.965 1252.26 319.198 1254.02 323.254 1254.25C339.103 1255.23 364.66 1239.02 366.234 1235.08ZM346.836 1269.28C340.852 1276.94 338.612 1284.43 340.16 1291.52C342.044 1300.11 350.541 1303.97 358.131 1303.97C366.13 1303.97 373.294 1300.2 377.294 1293.86C385.897 1280.3 386.276 1250.26 383.376 1246.97C376.165 1246.97 356.987 1256.28 346.837 1269.28L346.836 1269.28ZM149.208 956.488C142.843 950.162 129.828 959.588 122.05 955.202C125.498 935.887 139.168 956.158 152.38 942.193C157.647 936.616 154.821 927.909 151.798 925.281C146.106 931.051 137.296 929.052 136.619 925.845C151.614 890.408 122.316 850.9 94.1851 855.851C99.7039 863.237 101.354 888.91 98.9497 895.849C109.66 903.542 102.004 921.662 90.1842 916.398C82.2563 913.168 68.2743 893.348 84.3536 879.384C83.8907 874.351 75.0449 873.128 65.6448 885.255C72.5413 862.995 30.3214 869.975 21.6456 875.317C16.7126 884.365 11.2442 927.855 32.7147 920.089C21.1985 930.109 22.6691 939.13 27.5864 939.454C40.6898 922.543 60.4315 936.262 63.8372 944.284C69.3419 956.245 51.9116 964.637 44.0829 953.907C37.3832 956.596 12.3086 955.713 4.93179 950.288C1.00014 979.265 40.4221 1008.04 74.5032 991.578C77.6445 992.174 79.8724 1001.12 74.4324 1007.14C77.0934 1010.17 85.6589 1012.79 90.9336 1007.2C104.128 993.239 83.9364 979.858 102.661 975.708C107.18 983.549 98.4096 997.184 104.766 1003.51C114.949 1013.62 127.739 994.003 140.3 993.216C140.669 980.318 159.389 966.606 149.209 956.484L149.208 956.488ZM43.6736 911.747C43.6736 911.747 37.0872 907.068 44.9852 898.497C53.0783 890.129 57.8602 896.741 57.8602 896.741C57.8602 896.741 65.2795 913.255 67.4729 920.857C59.9906 918.847 43.6751 911.747 43.6751 911.747H43.6736ZM108.849 961.974C104.761 962.492 95.0779 971.113 90.2219 966.286L68.0003 944.219L79.1104 932.431L90.2645 920.668L112.466 942.761C117.322 947.572 109.222 957.775 108.849 961.973V961.974ZM477.038 1300.2C477.791 1296.89 477.274 1294.24 475.542 1292.52C474.999 1291.98 474.511 1291.67 474.217 1291.67C472.965 1291.67 470.181 1295.11 467.496 1298.45C465.261 1301.21 462.474 1304.65 458.92 1308.4C455.38 1312.17 452.102 1315.12 449.476 1317.51C446.355 1320.33 443.119 1323.26 443.083 1324.57C443.083 1324.88 443.403 1325.38 443.97 1325.94C445.119 1327.09 446.659 1327.66 448.528 1327.66C451.384 1327.66 457.574 1326.2 466.887 1316.33C473.96 1308.86 476.319 1303.43 477.04 1300.2L477.038 1300.2ZM477.172 1326.53C472.33 1331.67 467.41 1335.32 464.686 1337.18C466.618 1339.14 472.11 1342.61 478.973 1342.61C482.891 1342.61 486.55 1341.46 489.891 1339.18C496.741 1327.89 490.131 1316.34 487.158 1313.4C485.42 1316.26 482.009 1321.42 477.17 1326.53L477.172 1326.53ZM402.183 1263.74C398.656 1267.04 390.499 1289.96 394.058 1303.92C395.59 1309.9 398.892 1312.45 404.481 1312.15C410.263 1311.79 413.415 1308.78 414.39 1302.65C416.607 1288.71 406.029 1266.55 402.181 1263.74L402.183 1263.74ZM397.719 1200.04C397.919 1200.43 439.555 1237.01 453.524 1250.25C456.815 1253.38 461.354 1254.1 465.963 1251.76C468.592 1250.41 471.867 1248.87 475.253 1247.32C516.888 1232.62 585.373 1230.97 610.494 1232.08C625.617 1232.74 630.958 1223.78 629.451 1216.56C624.531 1192.98 623.432 1150.68 643.266 1121.98C621.771 1129.14 601.045 1148.3 601.045 1148.3C593.936 1133.34 590.96 1100.47 592.429 1084.61C572.857 1091.62 555.421 1110.22 555.421 1110.22C547.753 1089.9 545.359 1051.47 547.775 1029.63C499.124 1045.86 544.594 1131.4 485.281 1128.69C501.948 1152.78 521.963 1142.99 540.075 1142.99C552.776 1142.99 568.553 1151.29 565.995 1170.27C564.141 1184.01 484.56 1201.12 452.554 1201.12C430.183 1201.12 415.203 1194.22 403.976 1178.72C398.575 1171.26 393.068 1167.88 386.898 1168.83C379.241 1170.01 370.287 1177.83 370.287 1195.93C370.287 1208.76 375.478 1236.87 390.895 1236.87C401.724 1236.87 402.203 1214.66 397.717 1200.04L397.719 1200.04ZM449.175 1298.72C456.442 1291.02 458.984 1285.41 457.189 1281.03C454.591 1274.71 438.063 1256.34 416.428 1235.6C415.782 1239.89 414.818 1244.11 413.543 1248.25C428.123 1267.49 433.571 1288.16 428.655 1305.51C430.435 1306.69 431.537 1307.23 432.182 1307.48C437.78 1309.7 444.768 1303.39 449.172 1298.72H449.175ZM343.894 1194.08C343.789 1194.19 341.096 1196.84 339.355 1200.41C343.88 1200.44 349.153 1201.22 353.896 1202.49C353.581 1198.3 353.269 1192.62 353.68 1187.72C349.678 1188.62 345.379 1192.47 343.896 1194.08H343.894ZM1071.12 1326.25C1084.83 1320.02 1094.71 1303.12 1097.32 1286.59C1088.63 1290.83 1078.84 1292.9 1067.55 1292.9C1036.49 1292.9 997.474 1275.7 962.111 1260.11C962.111 1260.11 954.486 1266.5 941.85 1267.84C977.532 1278.76 1047.65 1317.52 1052.81 1342.38C1056.25 1359.01 1045.37 1365.35 1045.37 1365.35C1029.77 1340 989.557 1300.63 935.893 1280.94C936.003 1290.21 934.218 1296.71 934.218 1296.71C934.218 1296.71 923.328 1299.38 900.197 1295.38C920.422 1312.19 973.55 1371.55 979.318 1416.59C983.163 1446.66 962.065 1448.05 962.065 1448.05C959.053 1402.82 935.235 1356.02 892.25 1309.03C892.25 1309.03 885.202 1320.04 875.834 1325.59C875.834 1325.59 859.959 1322.79 846.783 1314.11C851.856 1373.78 854.853 1451.29 851.705 1474.76C849.507 1491.09 840.003 1497.94 840.003 1497.94C840.003 1497.94 830.465 1491.09 828.263 1474.76C825.121 1451.29 828.112 1373.78 833.185 1314.11C820.014 1322.79 804.135 1325.59 804.135 1325.59C794.766 1320.04 787.728 1309.03 787.728 1309.03C744.734 1356.02 720.915 1402.82 717.908 1448.05C717.908 1448.05 696.809 1446.66 700.657 1416.59C706.423 1371.55 759.553 1312.19 779.775 1295.38C756.645 1299.38 745.754 1296.71 745.754 1296.71C745.754 1296.71 743.97 1290.21 744.082 1280.94C690.421 1300.63 650.217 1340 634.608 1365.36C634.608 1365.36 623.728 1359.01 627.176 1342.38C632.325 1317.52 702.444 1278.76 738.131 1267.84C725.494 1266.5 717.864 1260.11 717.864 1260.11C682.506 1275.71 643.482 1292.9 612.426 1292.9C601.139 1292.9 591.343 1290.83 582.664 1286.59C585.262 1303.12 595.15 1320.02 608.848 1326.25C560.872 1359.87 590.497 1438.66 526.153 1423.85C562.034 1490.2 634.608 1496.86 634.608 1496.86C618.532 1461.77 638.576 1354.69 734.899 1306.04C675.606 1364.91 648.592 1436.29 664.324 1486.64C678.758 1532.86 725.678 1551.59 761.007 1552.4C736.025 1475.98 751.422 1388.46 803.267 1333.37C781.05 1393.79 749.812 1555.06 840.01 1586C930.2 1555.06 898.937 1393.79 876.712 1333.37C928.567 1388.46 943.956 1475.98 918.976 1552.4C954.303 1551.59 1001.22 1532.86 1015.66 1486.64C1031.39 1436.29 1004.38 1364.91 945.087 1306.04C1041.41 1354.69 1061.45 1461.77 1045.37 1496.86C1045.37 1496.86 1117.95 1490.2 1153.83 1423.85C1089.48 1438.66 1119.11 1359.87 1071.13 1326.25L1071.12 1326.25ZM847.66 -2.965C847.66 -7.70044 843.905 -11.5578 839.303 -11.5578C834.689 -11.5578 830.945 -7.70044 830.945 -2.965C830.945 1.78299 834.688 5.64349 839.303 5.64349C843.905 5.64349 847.66 1.78299 847.66 -2.965ZM889.827 -2.965C889.827 -7.70044 886.087 -11.5578 881.469 -11.5578C876.863 -11.5578 873.119 -7.70044 873.119 -2.965C873.119 1.78299 876.863 5.64349 881.469 5.64349C886.087 5.64349 889.827 1.78299 889.827 -2.965ZM824.313 -226.041C824.313 -217.174 831.329 -209.934 839.953 -209.934C848.591 -209.934 855.604 -217.174 855.604 -226.041C855.604 -234.921 848.591 -242.154 839.953 -242.154C831.329 -242.154 824.313 -234.922 824.313 -226.042V-226.041ZM829.347 -260.265H850.644L848.342 -285.94L871.477 -283.481V-303.79L848.34 -301.339L850.642 -327H829.345L831.638 -301.339L808.508 -303.79V-283.481L831.638 -285.94L829.345 -260.266L829.347 -260.265ZM805.492 -2.96658C805.492 -7.70203 801.737 -11.5594 797.128 -11.5594C792.521 -11.5594 788.771 -7.70203 788.771 -2.96658C788.771 1.7814 792.521 5.64191 797.128 5.64191C801.737 5.64191 805.492 1.7814 805.492 -2.96658ZM755.296 28.8958C757.558 29.7081 760.17 30.1502 763.263 30.1502H916.734C919.828 30.1502 922.44 29.7081 924.693 28.8958C929.649 27.1239 932.661 23.4108 933.831 17.4774H746.16C747.325 23.4108 750.339 27.1208 755.296 28.8974V28.8958ZM763.735 -2.96658C763.735 -7.70203 759.988 -11.5594 755.374 -11.5594C750.766 -11.5594 747.01 -7.70203 747.01 -2.96658C747.01 1.7814 750.766 5.64191 755.371 5.64191C759.985 5.64191 763.732 1.7814 763.732 -2.96658H763.735ZM931.59 -2.96658C931.59 -7.70203 927.835 -11.5594 923.24 -11.5594C918.627 -11.5594 914.875 -7.70203 914.875 -2.96658C914.875 1.7814 918.627 5.64191 923.242 5.64191C927.836 5.64191 931.592 1.7814 931.592 -2.96658H931.59ZM941.62 -23.351C945.947 -28.7105 967.458 -70.2225 967.458 -112.13C967.458 -149.847 919.964 -170.609 891.707 -171.558C888.436 -117.681 867.411 -33.1072 840.005 -33.1072C814.067 -33.1072 791.528 -117.193 788.297 -171.56C760.044 -170.608 712.551 -149.846 712.551 -112.128C712.551 -70.2209 734.053 -28.7089 738.383 -23.351H941.623H941.62ZM840.005 -59.8657C852.91 -59.8657 869.591 -113.521 873.851 -164.304C873.851 -174.586 860.94 -190.313 840.006 -190.723C819.065 -190.315 806.154 -174.587 806.154 -164.304C809.895 -116.947 827.297 -59.8657 840.006 -59.8657H840.005ZM429.714 214.022C404.669 248.393 439.303 286.01 441.439 288.609C442.945 290.443 444.236 289.615 444.006 287.558C443.825 285.792 462.03 232.792 566.836 260.702C569.077 261.298 570.451 261.345 568.351 259.177C548.99 243.862 526.019 209.533 518.595 181.92C518.595 181.92 454.763 179.651 429.712 214.022H429.714ZM485.898 206.833C485.898 197.232 499.896 194.583 507.942 194.583C507.942 194.583 511.474 203.855 515.018 208.987C506.852 205.343 495.509 204.973 485.898 206.833ZM541.532 161.982C534.56 161.982 531.955 166.41 534.232 174.078C558.313 255.079 623.963 274.291 649.883 309.372C649.883 309.372 649.698 298.443 661.723 272.364C669.905 285.777 692.073 310.895 706.478 314.092C703.035 306.867 698.939 278.346 702.133 259.18C736.152 288.882 778.092 294.719 800.599 277.582C781.436 278.315 756.483 257.03 743.923 238.149C761.458 242.195 785.601 238.024 790.577 232.997C779.5 230.3 766.066 220.493 757.976 211.175C770.419 210.312 797.418 200.136 805.136 185.788C794.31 188.242 778.259 183.828 767.807 178.312C775.768 174.015 795.634 152.764 800.4 134.114C772.187 147.92 727.672 161.656 661.73 161.656C661.73 161.656 545.207 161.981 541.529 161.981L541.532 161.982ZM614.326 198.909C595.684 206.279 586.342 216.232 586.342 216.232C586.342 216.232 577.395 201.577 574.539 196.866C571.683 192.159 570.788 186.389 580.425 186.389H638.218C638.218 190.321 632.966 191.537 614.325 198.908L614.326 198.909ZM417.032 330.71C423.063 338.695 440.131 363.081 477.574 341.279C515.008 319.474 534.316 307.604 534.316 307.604C534.316 307.604 528.468 318.856 532.906 332.347C533.165 333.122 534.045 333.087 534.383 332.285C538.112 323.554 570.626 298.29 612.087 294.793C596.888 281.535 580.211 269.72 580.211 269.72C562.497 272.574 528.159 284.66 483.744 313.442C439.323 342.224 418.86 330.204 418.01 329.664C417.163 329.122 415.96 329.293 417.031 330.71H417.032ZM947.581 1249.67C953.977 1247.63 959.33 1244.38 962.083 1240.73C933.394 1239.49 909.713 1214.78 901.041 1199.53C891.511 1215.26 874.498 1227.55 874.498 1227.55C862.385 1224.36 845.831 1211.19 840 1201.12C834.174 1211.2 817.618 1224.36 805.502 1227.55C805.502 1227.55 788.49 1215.26 778.958 1199.53C770.29 1214.78 746.607 1239.49 717.916 1240.73C720.671 1244.38 726.025 1247.63 732.421 1249.67C736.703 1251.04 741.443 1251.88 746.214 1251.88C751.268 1251.88 756.343 1250.97 760.893 1248.84C758.028 1259.23 757.075 1272.06 759.172 1280.85C759.172 1280.85 774.43 1282.05 790.18 1276.11C791.313 1285.61 795.659 1297.11 802.789 1304.89C804.19 1306.41 805.654 1307.84 807.267 1309.03C815.727 1309.03 836.152 1299.19 840.002 1293.13C843.847 1299.19 864.273 1309.03 872.737 1309.03C874.343 1307.84 875.81 1306.4 877.213 1304.88C884.339 1297.11 888.687 1285.61 889.817 1276.11C896.903 1279.66 905.133 1281.08 914.242 1281.08C916.437 1281.07 918.633 1281 920.823 1280.85C922.927 1272.05 921.973 1259.23 919.104 1248.84C923.657 1250.97 928.732 1251.88 933.782 1251.88C938.564 1251.88 943.297 1251.04 947.58 1249.67L947.581 1249.67ZM661.249 639.408C655.628 639.408 652.148 642.988 652.148 648.751V998.636C652.148 1032 665.328 1048.92 691.317 1048.92L756.349 1049.17C800.909 1049.17 827.196 1064.47 840 1083.44C850.888 1065.75 881.486 1049.17 923.653 1049.17L988.666 1048.92C1014.66 1048.92 1027.84 1032 1027.84 998.636V648.751C1027.84 642.988 1024.35 639.408 1018.75 639.408H661.246H661.249ZM724.767 966.757C724.143 974.5 733.164 988.584 748.054 984.177C747.606 987.034 748.442 994.849 751.77 1000.71C725.39 1006.67 714.013 985.03 724.767 966.757ZM963.933 850.931C960.302 847.088 956.72 843.199 953.19 839.265C949.427 835.094 946.742 833.473 942.903 833.473C934.27 833.473 925.032 838.189 920.093 841.454C919.765 841.587 919.516 841.904 919.394 842.755C924.643 842.288 929.908 841.904 935.142 841.313C939.737 840.784 944.027 840.968 947.986 843.909C951.103 846.214 952.862 849.068 953.031 852.795C953.53 864.704 963.06 889.77 963.653 897.293C964.396 900.252 960.828 901.114 955.887 914.949C952.239 919.016 942.377 906.105 943.805 903.084C949.552 895.609 951.136 890.952 949.678 885.384C948.513 880.907 946.325 872.912 944.703 868.578C942.536 862.795 937.658 860.628 931.598 862.701C907.819 870.572 904.154 860.082 880.586 869.948L907.728 911.846C907.628 908.81 906.169 903.328 901.779 899.388C902.569 895.159 911.132 893.409 914.331 897.37C918.258 902.392 925.917 909.553 932.221 910.701C944.333 912.936 943.416 931.277 975.781 937.416C971.758 941.574 962.782 940.164 958.871 938.283C961.232 941.921 963.949 945.355 968.826 946.596C963.808 951.619 949.412 939.848 950.885 951.693C953.375 950.256 956.824 950.023 959.74 950.755C966.199 952.362 976.792 988.984 954.478 1004.99C959.228 1006.41 964.337 1003.9 969.156 1003.9C971.98 1003.9 974.619 1006.64 974.9 1009.69C976.981 1011.28 978.348 1013.24 979.56 1015.74C977.88 1016.3 974.637 1015.78 972.837 1014.59C973.561 1016.62 973.388 1021.51 972.632 1021.6C970.614 1021.87 969.058 1020.72 966.995 1019.49C964.122 1020.96 954.682 1020.36 952.009 1017.97C944.882 1019.7 937.847 1022.02 930.422 1022.02C926.413 1022.02 921.132 1021.77 921.321 1016.88C921.412 1014.5 922.596 1013.27 923.525 1010.66C920.108 1007.16 914.413 1010.55 907.622 1011.21C898.417 1012.09 894.621 1010.66 892.625 1008.79C901.316 1000.76 896.07 981.201 882.647 979.47C893.689 990.029 892.247 1007.11 879.887 1010.95C883.458 1012.1 885.227 1013.71 886.594 1016.25C890.94 1018.05 891.003 1021.19 890.677 1022.6C888.299 1020.91 884.017 1019.25 880.6 1019.7C880.354 1021.19 879.731 1023.98 878.443 1025.06C876.967 1024.74 875.042 1023.39 874.294 1022.31C870.346 1019.29 845.753 1025.06 844.259 1021.02C843.314 1017.27 849.88 1014.12 855.938 1012.79C840.361 1007.08 826.846 977.803 802.864 972.845C791.742 970.553 776.673 975.542 776.673 989.987C776.673 997.084 782.389 1002.55 788.569 1002.55C794.258 1002.55 797.103 998.621 797.103 994.644C796.187 995.337 795.62 995.765 795.061 996.222C791.581 999.072 787.147 998.89 783.938 995.767C781.114 993.016 781.114 988.24 783.855 985.01C786.11 982.322 788.818 980.808 792.436 980.275C801.825 978.911 809.504 981.899 814.677 989.424C817.142 993.015 818.503 996.853 818.503 1000.57C818.503 1017.21 801.809 1020.99 792.57 1020.99C769.311 1020.99 755.604 1004.37 755.604 985.129C755.604 982.887 755.714 980.613 756.099 978.324C759.739 956.674 779.103 947.622 795.856 944.914C793.719 937.378 789.592 931.288 783.669 926.317C780.72 923.844 780.421 921.825 782.279 918.671C784.809 914.359 787.467 910.116 788.585 905.257C788.84 904.167 788.956 903.015 789.037 901.831C780.695 909.295 769.034 916.136 752.898 921.02C747.809 923.369 745.116 927.998 744.469 933.322C743.734 939.5 743.562 945.767 743.45 952C743.422 953.438 744.464 955.003 745.256 956.381C748.259 961.524 751.575 966.532 752.315 972.949C752.315 976.057 736.648 976.378 736.648 973.886C736.502 962.603 728.957 958.219 729.767 950.769C731.852 939.181 732.318 927.59 730.418 915.943C729.939 913.011 731.501 911.082 733.594 909.522C736.922 906.988 740.459 904.724 743.781 902.21C751.622 896.228 754.866 888.434 753.024 878.768C752.787 877.511 752.23 876.299 751.685 875.115C747.78 866.516 744.93 857.807 744.93 848.11C744.93 837.476 731.729 838.083 732.592 848.533C732.863 851.798 735.304 856.364 736.675 859.502C750.21 890.59 725.874 912.978 700.7 912.962C727.162 903.818 694.515 870.001 694.515 844.772C694.515 829.3 706.491 817.861 720.782 817.861C737.264 817.861 747.714 828.464 750.707 830.286C758.681 817.664 783.096 815.387 792.263 813.932C791.564 807.136 792.523 801.096 796.697 795.88C796.969 795.528 797.141 794.874 796.993 794.498C795.691 791.283 794.304 788.109 792.505 785C784.988 793.467 783.184 804.698 783.184 810.504C755.349 810.096 743.072 797.928 734.845 793.137C734.877 791.02 742.282 777.716 748.849 768.936C741.651 775.095 735.733 782.029 731.388 790.344C727.409 787.474 723.225 784.879 719.135 783.181C725.408 769.77 733.721 759.331 744.315 748.423C729.397 753.915 716.414 770.751 711.493 781.328C707.237 780.842 700.95 780.677 697.439 781.359C713.696 761.516 721.126 722.42 756.87 713.651C747.917 749.908 770.181 764.641 785.511 755.179C783.516 755.179 782.15 755.496 780.863 755.179C750.974 747.61 768.687 706.296 761.449 697.695C758.7 694.434 757.281 691.443 757.728 687.315C757.889 685.863 757.458 684.179 756.79 682.841L740.893 656.354C738.894 653.019 745.082 650.646 746.415 652.18L762.627 678.669C763.047 679.332 763.564 680.303 764.167 680.414C770.095 681.455 771.929 686.357 774.326 690.695C775.085 692.094 775.683 693.701 775.821 695.282C775.935 696.489 775.604 698.177 774.798 698.998C772.22 701.601 772.72 704.162 774.713 707.539C777.912 712.954 873.947 872.441 873.947 872.441C853.089 880.956 815.358 881.646 804.428 880.589C802.16 886.124 798.615 891.965 793.375 897.592C798.607 894.194 802.653 889.884 806.393 885.199C810.613 885.685 816.939 887.37 823.407 887.841C819.581 895.999 813.834 904.117 806.456 910.916C802.986 914.326 798.687 917.345 800.268 922.806C802.05 928.953 813.516 940.666 817.698 948.265C821.849 949.14 828.857 950.614 833.995 952.662C836.927 958.943 846.843 966.832 858.794 962.749C834.766 962.448 836.539 937.9 844.006 924.917C843.198 936.975 849.038 946.985 856.434 948.127C845.344 938.035 846.454 915.114 857.256 902.54C858.792 922.955 865.002 933.685 873.886 936.111C862.144 925.339 855.097 900.417 872.828 882.257C874.198 928.859 916.994 920.454 920.883 974.401C936.734 974.401 937.636 953.118 928.8 949.206C923.643 947.28 918.984 943.893 916.345 939.283C915.246 937.344 914.106 933.885 913.209 931.851C908.498 917.989 895.196 918.867 895.519 915.543C895.834 914.419 897.928 913.903 900.866 913.903L875.799 875.292L874.492 873.276C877.515 872.664 878.186 870.911 875.081 866.028C875.081 866.028 781.017 710.072 780.569 709.178C789.314 707.665 797.716 710.029 805.897 713.186C803.713 711.166 801.932 708.345 801.551 705.435C801.236 703.096 801.324 701.73 803.214 700.245C805.214 698.617 807.135 696.739 808.536 694.616C813.206 687.534 821.787 684.074 829.584 686.289C841.349 689.621 845.513 702.887 836.864 709.862C832.261 719.98 826.553 718.705 825.379 723.24C827.687 724.306 843.779 736.698 844.853 741.915C840.057 751.868 837.673 767.427 841.834 776.111C844.943 734.738 869.931 714.503 894.267 714.503C900.046 714.503 905.789 715.506 911.551 717.462C914.703 718.523 917.855 720.052 920.478 722.04C924.283 724.942 927.819 728.177 931.044 731.707C935.792 736.909 940.144 742.464 948.222 742.825C945.86 746.18 943.171 748.636 940.419 751.047C938.435 752.819 937.438 754.947 937.194 757.617C936.632 763.364 934.737 768.628 930.499 772.859C929.929 773.432 929.488 774.12 929.208 774.877C926.507 782.692 923.771 790.474 921.231 798.334C920.601 800.248 920.743 802.886 918.151 802.855C915.9 802.824 913.18 802.17 911.503 800.804C907.936 797.925 906.657 793.732 907.936 789.306C909.206 784.904 907.936 781.125 906.537 777.031C905.104 772.936 904.607 768.507 903.645 763.833C897 761.512 884.527 775.744 894.048 787.667C900.231 796.464 905.788 812.652 906.751 819.279C906.951 819.933 901.126 823.591 893.1 822.572C865.971 819.113 848.813 800.337 843.599 784.497C843.174 811.33 865.517 831.221 898.63 829.295C899.979 835.546 905.101 839.792 911.069 839.989C912.308 835.953 912.281 827.486 911.269 822.103C910.819 819.735 912.064 818.523 914.265 817.96C921.505 816.125 930.929 816.839 938.99 813.971C946.139 811.409 949.521 812.909 953.964 821.529C957.334 828.031 963.092 835.03 968.529 839.854C970.812 841.871 973.095 843.919 975.252 846.073C978.001 848.817 979.431 852.047 979.645 856.038C978.937 862.291 979.771 874.878 979.771 875.077C978.201 879.204 966.756 874.836 964.907 870.404C964.21 868.752 969.804 857.147 963.931 850.925L963.933 850.931ZM1161.41 181.92C1153.98 209.533 1131.01 243.862 1111.65 259.177C1109.55 261.344 1110.93 261.3 1113.17 260.702C1217.97 232.792 1236.18 285.791 1235.99 287.56C1235.77 289.617 1237.06 290.445 1238.56 288.61C1240.7 286.012 1275.33 248.393 1250.29 214.024C1225.24 179.652 1161.41 181.921 1161.41 181.921V181.92ZM1164.99 208.987C1168.53 203.855 1172.07 194.583 1172.07 194.583C1180.11 194.583 1194.1 197.233 1194.1 206.833C1184.49 204.971 1173.15 205.343 1164.99 208.987H1164.99ZM1262.97 330.71C1264.04 329.293 1262.83 329.122 1261.99 329.664C1261.14 330.204 1240.67 342.224 1196.26 313.442C1151.84 284.66 1117.5 272.572 1099.79 269.72C1099.79 269.72 1083.11 281.535 1067.91 294.793C1109.37 298.29 1141.89 323.554 1145.62 332.285C1145.96 333.087 1146.83 333.122 1147.09 332.347C1151.53 318.856 1145.68 307.604 1145.68 307.604C1145.68 307.604 1164.99 319.474 1202.42 341.277C1239.87 363.079 1256.94 338.693 1262.97 330.709L1262.97 330.71ZM912.193 178.313C901.743 183.83 885.693 188.242 874.865 185.79C882.585 200.137 909.584 210.314 922.023 211.176C913.938 220.493 900.499 230.3 889.424 232.997C894.402 238.024 918.54 242.193 936.081 238.149C923.516 257.029 898.565 278.315 879.402 277.582C901.914 294.721 943.857 288.881 977.874 259.181C981.062 278.346 976.972 306.865 973.523 314.094C987.931 310.895 1010.1 285.775 1018.28 272.365C1030.3 298.445 1030.12 309.376 1030.12 309.376C1056.05 274.293 1121.69 255.083 1145.77 174.08C1148.05 166.412 1145.44 161.982 1138.47 161.982C1134.79 161.982 1018.28 161.658 1018.28 161.658C952.328 161.658 907.813 147.922 879.6 134.115C884.366 152.765 904.232 174.019 912.199 178.312L912.193 178.313ZM1099.58 186.389C1109.21 186.389 1108.32 192.159 1105.46 196.868C1102.6 201.577 1093.66 216.233 1093.66 216.233C1093.66 216.233 1084.32 206.279 1065.68 198.906C1047.03 191.537 1041.78 190.321 1041.78 186.389H1099.58ZM668.371 307.715C664.616 318.315 663.509 330.006 665.505 345.215C677.623 371.432 683.484 420.11 679.744 447.325C699.048 420.502 707.62 390.338 713.143 366.203C724.212 377.481 738.576 393.627 748.596 406.708C750.317 392.541 753.37 375.046 756.044 362.411C770.463 376.127 800.386 393.348 820.62 399.456C807.001 342.216 783.693 305.73 783.693 305.73C763.913 307.714 732.054 302.914 717.732 288.88C720.289 309.619 734.614 333.462 734.614 333.462C703.921 336.445 682.181 326.011 668.373 307.715H668.371ZM1011.63 307.715C997.819 326.014 976.079 336.446 945.386 333.462C945.386 333.462 959.708 309.62 962.265 288.883C947.943 302.917 916.092 307.715 896.307 305.73C896.307 305.73 873.004 342.215 859.375 399.454C879.617 393.347 909.535 376.125 923.953 362.41C926.63 375.045 929.678 392.539 931.401 406.706C941.423 393.629 955.781 377.478 966.86 366.201C972.38 390.336 980.952 420.502 1000.26 447.323C996.513 420.108 1002.38 371.43 1014.49 345.213C1016.49 330.003 1015.38 318.312 1011.62 307.714L1011.63 307.715ZM747.623 488.054C759.205 506.599 769.512 528.901 773.083 548.764C784.187 535.382 795.914 512.119 803.861 484.333C813.604 496.464 830.624 521.171 840 541.551C849.369 521.171 866.393 496.464 876.133 484.333C884.084 512.119 895.812 535.382 906.915 548.764C910.485 528.901 920.792 506.599 932.373 488.056C941.182 524.149 975.163 559.257 1010.23 561.898C987.417 532.4 986.474 481.414 988.088 464.433C972.9 440.91 962.895 419.688 958.109 405.267C947.808 415.412 931.872 435.13 917.573 457.921C917.573 457.644 917.164 429.344 911.461 394.981C896.72 408.249 870.025 417.855 855.757 421.585C846.75 436.212 844.283 447.623 840 465.981C835.717 447.623 833.242 436.212 824.242 421.585C809.969 417.854 783.279 408.249 768.534 394.982C762.835 429.344 762.42 457.644 762.42 457.92C748.117 435.13 732.189 415.411 721.882 405.265C717.1 419.688 707.097 440.91 691.903 464.435C693.524 481.417 692.575 532.403 669.765 561.901C704.836 559.26 738.813 524.152 747.618 488.059L747.623 488.054ZM429.898 914.907C449.58 902.118 462.034 878.881 476.212 850.461C467.958 853.863 455.998 857.548 444.012 860.026C432.319 882.553 415.76 873.815 415.328 870.619C418.907 866.668 422.993 860.828 426.067 855.746C421.083 846.459 415.08 832.624 411.77 824.069C395.04 859.149 364.313 894.782 338.58 908.685C353.721 929.649 400.646 933.914 429.896 914.905L429.898 914.907ZM490.726 855.782C476.767 885.125 480.05 930.342 524.49 931.623C520.803 899.604 535.285 869.482 550.765 855.784C537.451 859.053 515.774 876.451 515.774 876.451C515.774 876.451 512.51 883.907 511.853 893.555C502.551 895.211 497.41 888.073 501.272 873.186C501.272 873.186 494.549 865.529 490.726 855.786V855.782ZM270.739 889.288C277.29 889.28 283.816 888.485 290.176 886.92C333.088 876.36 373.953 839.811 398.243 809.124C384.368 813.499 370.353 816.34 354.817 817.908C354.817 817.908 343.937 830.586 335.56 835.273C331.315 837.669 327.073 838.813 323.054 838.813C310.914 838.813 305.759 828.895 305.759 828.895C305.759 828.895 325.34 819.55 337.801 806.272C335.332 796.487 333.762 782.932 333.477 769.418C299.687 803.225 236.176 836.072 191.815 842.448C200.595 860.653 231.746 889.288 270.741 889.288H270.739ZM184.824 817.579C187.051 817.578 189.276 817.471 191.492 817.259C235.595 812.916 288.825 784.782 323.101 760.434C312.189 762.641 283.501 763.28 269.889 761.39C265.181 764.531 244.425 777.597 227.156 779.779C195.655 783.754 192.324 764.343 192.324 764.343C212.561 761.881 235.891 755.076 258.192 744.733C260.431 728.008 264.317 713.1 267.639 702.109C219.017 729.079 139.694 748.049 92.6389 748.675C102.055 770.946 138.561 817.577 184.826 817.577L184.824 817.579ZM191.76 659.36C198.538 647.418 209.266 633.302 219.031 621.79C180.214 632.437 130.242 634.663 103.75 634.663C72.5177 634.663 42.1699 632.468 24.7585 628.987C26.3047 660.238 56.1503 714.147 115.037 719.406C118.107 719.688 121.505 719.823 125.139 719.823C161.877 719.823 220.302 705.018 260.506 690.812C231.84 687.138 204.153 680.361 197.839 677.723C182.889 681.996 147.175 687.963 135.577 687.323C109.25 685.885 106.432 665.753 106.432 665.753C106.432 665.753 153.81 667.747 191.757 659.36H191.76ZM50.4016 602.096C72.2784 609.136 107.167 613.174 146.129 613.174C169.899 613.174 194.975 611.057 215.37 608.168C193.342 600.698 166.159 589.407 148.494 578.219C126.415 577.78 96.4446 577.156 77.1989 571.288C48.8963 562.66 49.2979 543.378 49.8017 539.05C74.2702 548.85 115.895 558.224 146.66 560.05C158.002 549.168 175.522 536.201 194.007 524.911C121.001 525.547 27.8021 496.749 -24.5627 469.136C-36.5355 566.172 29.6239 595.397 50.4016 602.094V602.096ZM210.883 400.886C199.617 379.357 188.631 350.395 187.181 325.432C153.037 298.71 114.062 264.707 91.5115 225.842C78.479 203.377 83.2892 183.689 92.5192 176.912C99.5574 201.318 145.408 269.661 186.97 303.93C187.298 282.028 190.996 256.837 196.729 237.891C148.406 185.511 94.2418 98.7516 81.1573 64.7614C66.451 76.8932 41.1008 107.412 34.8703 150.415C28.5957 193.701 42.6863 238.167 76.747 282.584C102.943 316.752 160.607 367.692 210.883 400.887V400.886ZM196.995 510.969C163.775 489.028 140.748 468.67 128.476 450.387C100.716 439.633 64.8245 423.218 47.1423 408.423C22.847 388.117 30.5387 369.839 33.3713 366.187C54.7615 387.943 101.086 419.301 133.988 433.252C154.53 425.277 183.073 419.434 210.881 416.025C128.466 383.59 39.9986 322.704 -6.23333 265.306C-15.6082 283.437 -53.6902 368.73 17.7061 438.672C55.3063 475.515 132.758 500.934 196.991 510.971L196.995 510.969ZM1268.23 824.071C1264.92 832.626 1258.91 846.462 1253.93 855.748C1257 860.828 1261.09 866.668 1264.67 870.621C1264.23 873.816 1247.68 882.553 1235.99 860.026C1224 857.551 1212.04 853.863 1203.79 850.461C1217.97 878.883 1230.41 902.119 1250.1 914.907C1279.35 933.916 1326.28 929.651 1341.41 908.686C1315.68 894.782 1284.95 859.149 1268.23 824.069L1268.23 824.071ZM1189.27 855.784C1185.45 865.529 1178.73 873.184 1178.73 873.184C1182.59 888.073 1177.45 895.211 1168.14 893.553C1167.49 883.907 1164.22 876.449 1164.22 876.449C1164.22 876.449 1142.54 859.052 1129.23 855.782C1144.71 869.481 1159.19 899.604 1155.51 931.623C1199.95 930.344 1203.23 885.125 1189.27 855.784ZM1342.2 806.273C1354.66 819.55 1374.23 828.897 1374.23 828.897C1374.23 828.897 1369.08 838.815 1356.95 838.815C1352.92 838.815 1348.68 837.67 1344.43 835.274C1336.06 830.586 1325.18 817.91 1325.18 817.91C1309.64 816.342 1295.63 813.504 1281.75 809.126C1306.04 839.812 1346.91 876.363 1389.82 886.92C1396.18 888.485 1402.71 889.28 1409.26 889.288C1448.25 889.288 1479.4 860.653 1488.18 842.451C1443.82 836.074 1380.31 803.228 1346.52 769.42C1346.23 782.933 1344.66 796.487 1342.2 806.273ZM1421.8 744.736C1444.11 755.079 1467.44 761.882 1487.68 764.346C1487.68 764.346 1484.34 783.758 1452.84 779.78C1435.57 777.597 1414.81 764.531 1410.11 761.39C1396.5 763.28 1367.8 762.641 1356.9 760.434C1391.17 784.782 1444.4 812.916 1488.5 817.259C1490.72 817.471 1492.95 817.578 1495.17 817.579C1541.44 817.579 1577.94 770.946 1587.36 748.677C1540.3 748.049 1460.98 729.079 1412.36 702.111C1415.68 713.103 1419.56 728.01 1421.8 744.735V744.736ZM1460.96 621.79C1470.73 633.304 1481.46 647.419 1488.23 659.36C1526.18 667.749 1573.56 665.753 1573.56 665.753C1573.56 665.753 1570.74 685.883 1544.42 687.321C1532.82 687.959 1497.11 681.995 1482.16 677.722C1475.84 680.359 1448.16 687.136 1419.49 690.812C1459.69 705.018 1518.13 719.825 1554.86 719.825C1558.5 719.825 1561.89 719.69 1564.96 719.408C1623.85 714.149 1653.7 660.24 1655.24 628.99C1637.83 632.468 1607.48 634.667 1576.25 634.667C1549.76 634.667 1499.78 632.44 1460.96 621.79H1460.96ZM1704.56 469.139C1652.19 496.752 1559 525.551 1485.99 524.914C1504.47 536.204 1521.99 549.171 1533.34 560.054C1564.1 558.225 1605.72 548.852 1630.19 539.051C1630.69 543.379 1631.1 562.661 1602.8 571.29C1583.55 577.158 1553.58 577.782 1531.5 578.221C1513.83 589.409 1486.65 600.7 1464.62 608.17C1485.02 611.055 1510.09 613.175 1533.87 613.175C1572.83 613.175 1607.72 609.139 1629.59 602.097C1650.37 595.402 1716.54 566.174 1704.56 469.139H1704.56ZM1587.48 176.913C1596.71 183.69 1601.52 203.378 1588.49 225.844C1565.93 264.709 1526.96 298.71 1492.82 325.434C1491.37 350.397 1480.38 379.358 1469.11 400.887C1519.39 367.692 1577.06 316.752 1603.25 282.587C1637.31 238.168 1651.4 193.702 1645.12 150.418C1638.89 107.412 1613.55 76.8932 1598.83 64.7629C1585.76 98.7531 1531.59 185.512 1483.26 237.892C1489 256.839 1492.7 282.029 1493.03 303.931C1534.58 269.661 1580.44 201.32 1587.48 176.913ZM1546.01 433.255C1578.91 419.302 1625.24 387.945 1646.62 366.19C1649.46 369.84 1657.15 388.119 1632.85 408.425C1615.17 423.219 1579.28 439.635 1551.52 450.389C1539.25 468.672 1516.22 489.03 1483 510.971C1547.23 500.936 1624.69 475.515 1662.3 438.674C1733.69 368.733 1695.6 283.439 1686.23 265.309C1640 322.707 1551.53 383.594 1469.11 416.028C1496.92 419.437 1525.47 425.28 1546.01 433.256L1546.01 433.255ZM1353.97 335.065C1327.2 396.952 1259.34 452.128 1215.44 479.753C1195.42 492.351 1202.72 516.244 1209.13 526.847C1268.93 625.864 1160.18 699.66 1061.96 650.587C1083.39 650.822 1105.03 632.669 1108.03 616.493C1101.22 622.358 1073.32 619.135 1065.08 611.543C1077.73 604.945 1080.74 598.258 1081.4 592.005C1065.75 601.578 1034.12 602.897 1024.8 586.724C972.903 585.329 938.381 544.96 934.563 533.311C930.716 545.704 924.501 567.36 922.462 588.733C908.386 579.234 884.35 557.739 871.819 528.588C857.637 548.776 846.941 571.517 839.997 595.48C833.053 571.517 822.365 548.776 808.175 528.588C795.642 557.737 771.605 579.235 757.535 588.734C755.488 567.362 749.284 545.708 745.434 533.314C741.616 544.964 707.094 585.333 655.197 586.727C645.875 602.9 614.249 601.581 598.601 592.007C599.252 598.263 602.264 604.948 614.914 611.544C606.671 619.138 578.782 622.364 571.966 616.496C574.963 632.672 596.603 650.824 618.033 650.59C519.809 699.661 411.061 625.867 470.866 526.85C477.274 516.247 484.58 492.354 464.557 479.755C420.658 452.126 352.795 396.952 326.028 335.063C322.847 360.299 325.272 422.926 352.461 461.895C332.597 469.468 307.121 481.754 289.994 493.149C300.827 505.422 326.048 526.62 342.994 538.145C329.161 550.407 307.688 573.887 296.419 589.258C310.697 597.725 339.467 608.004 361.452 614.938C351.288 631.656 335.661 661.812 331.734 679.76C356.351 683.331 381.482 683.003 403.66 682.305C400.83 703.234 402.691 729.512 404.913 748.658C427.76 745.384 452.893 736.14 469.567 727.387C472.732 741.829 481.449 768.485 489.265 782.755C510.938 762.245 539.527 752.859 565.992 758.293C620.18 769.422 636.288 824.072 636.288 824.072L636.372 657.83V639.27C636.372 628.906 641.964 623.422 651.999 623.425H1028C1038.04 623.422 1043.63 628.907 1043.63 639.269V657.826L1043.71 824.069C1043.71 824.069 1059.82 769.418 1114.01 758.29C1140.47 752.855 1169.07 762.242 1190.74 782.751C1198.56 768.482 1207.27 741.826 1210.44 727.384C1227.11 736.137 1252.24 745.381 1275.09 748.656C1277.31 729.511 1279.17 703.234 1276.35 682.305C1298.27 684.571 1323.49 684.571 1348.27 679.759C1344.35 661.814 1328.71 631.658 1318.55 614.939C1341.41 608.824 1369.3 597.727 1383.58 589.26C1372.32 573.888 1350.84 550.409 1337.01 538.147C1353.95 526.622 1379.17 505.422 1390.01 493.15C1372.88 481.755 1347.4 469.468 1327.54 461.896C1354.73 422.928 1357.16 360.301 1353.97 335.065H1353.97ZM670.593 140.456L668.357 146.29C734.055 146.29 797.21 123.876 814.061 45.8258H763.738C754.807 102.055 721.659 140.456 670.591 140.456H670.593ZM386.56 13.4727C386.56 13.4727 422.496 21.7738 436.558 72.1954C450.625 122.617 485.967 146.733 522.229 146.733L519.997 139.862C498.898 137.244 469.15 107.282 463.585 51.7922C457.974 -4.07202 444.231 -11.2693 444.231 -11.2693C430.033 -21.0601 394.343 4.79987 386.555 13.4742L386.56 13.4727ZM281.443 36.0256C311.418 35.0472 331.588 44.5526 369.26 10.3366C413.732 -30.0747 434.845 -23.1675 434.845 -23.1675C412.15 -37.8882 380.501 -44.43 369.632 -35.9281C358.763 -27.42 344.05 -4.59576 319.325 11.6553C284.48 34.5548 248.691 28.5116 247.09 49.8557H248.059C248.059 49.8557 251.473 37.0135 281.44 36.0256H281.443ZM309.092 169.975C327.313 187.885 328.987 224.686 328.987 224.686C328.987 224.686 350.807 185.678 332.825 144.206C314.849 102.742 278.107 70.9268 314.126 46.7102C292.125 46.8952 268.283 41.8493 257.812 56.7221C254.553 61.3524 251.533 72.8336 262.5 89.1678C276.434 109.925 311.243 158.192 282.72 190.334C303.573 186.497 309.091 169.973 309.091 169.973L309.092 169.975ZM534.136 146.512H657.587C657.587 146.512 660.642 139.042 664.534 128.249H527.195C531.091 139.042 534.136 146.512 534.136 146.512ZM608.009 -28.2683C608.009 -34.9889 602.681 -40.4472 596.113 -40.4472C589.541 -40.4472 584.21 -34.9904 584.21 -28.2683C584.21 -21.5415 589.541 -16.0926 596.113 -16.0926C602.679 -16.0926 608.009 -21.5399 608.009 -28.2683ZM669.669 114.469C674.943 97.9613 680.89 72.854 680.89 60.7394C680.89 38.5988 668.939 14.0873 625.8 6.54196C625.8 33.3004 612.76 98.8613 596.995 98.8613H595.222C579.466 98.8613 566.424 33.7881 566.424 6.53571C523.139 14.0717 510.833 38.5909 510.833 60.7394C510.833 72.8555 516.785 97.9613 522.067 114.469H669.67H669.669ZM596.113 80.4997C604.326 80.4997 610.982 37.6924 610.982 16.3798C610.982 4.7356 604.328 -2.90073 596.115 -2.90073C587.896 -2.90073 581.236 4.7356 581.236 16.3798C581.236 37.6924 587.896 80.4997 596.115 80.4997H596.113ZM588.175 -56.6826H604.043L602.062 -76.9792L621.892 -74.947V-91.1855L602.062 -89.1534L604.043 -109.453H588.175L590.159 -89.1534L570.33 -91.1855V-74.947L590.16 -76.9792L588.176 -56.681L588.175 -56.6826ZM916.255 45.8258H865.933C882.788 123.878 945.94 146.29 1011.64 146.29L1009.41 140.456C958.342 140.456 925.188 102.059 916.257 45.8258H916.255ZM1157.77 146.735C1194.03 146.735 1229.37 122.619 1243.44 72.1954C1257.5 21.7769 1293.44 13.4758 1293.44 13.4758C1285.65 4.8046 1249.97 -21.0569 1235.76 -11.2677C1235.76 -11.2677 1222.02 -4.07047 1216.41 51.7953C1210.85 107.285 1181.1 137.247 1160 139.865L1157.77 146.736V146.735ZM1310.74 10.3382C1348.41 44.5526 1368.58 35.0503 1398.56 36.0272C1428.52 37.0151 1431.93 49.8572 1431.93 49.8572H1432.9C1431.3 28.5132 1395.51 34.5564 1360.67 11.6569C1335.95 -4.59421 1321.23 -27.4184 1310.36 -35.9266C1299.49 -44.43 1267.84 -37.8866 1245.15 -23.1659C1245.15 -23.1659 1266.26 -30.0731 1310.74 10.3382H1310.74ZM1422.18 56.7252C1411.71 41.8524 1387.87 46.8984 1365.87 46.7118C1401.89 70.9268 1365.16 102.742 1347.17 144.206C1329.19 185.68 1351.01 224.686 1351.01 224.686C1351.01 224.686 1352.69 187.885 1370.9 169.975C1370.9 169.975 1376.42 186.498 1397.28 190.335C1368.75 158.196 1403.56 109.927 1417.5 89.1693C1428.46 72.8351 1425.44 61.3525 1422.18 56.7237L1422.18 56.7252ZM1145.86 146.514C1145.86 146.514 1148.9 139.044 1152.8 128.251H1015.46C1019.35 139.044 1022.41 146.514 1022.41 146.514H1145.86ZM1095.78 -28.2667C1095.78 -34.9873 1090.45 -40.4456 1083.88 -40.4456C1077.32 -40.4456 1071.98 -34.9889 1071.98 -28.2667C1071.98 -21.5399 1077.31 -16.091 1083.88 -16.091C1090.45 -16.091 1095.78 -21.5383 1095.78 -28.2667ZM1157.93 114.471C1163.21 97.9628 1169.17 72.8555 1169.17 60.7409C1169.17 38.5925 1156.85 14.0732 1113.57 6.53885C1113.57 33.7865 1100.53 98.8613 1084.77 98.8613H1083C1067.24 98.8613 1054.2 33.302 1054.2 6.54196C1011.05 14.0873 999.108 38.5988 999.108 60.7394C999.108 72.8555 1005.05 97.9613 1010.33 114.469H1157.93L1157.93 114.471ZM1083.88 80.5013C1092.1 80.5013 1098.76 37.694 1098.76 16.3813C1098.76 4.73715 1092.1 -2.89914 1083.88 -2.89914C1075.67 -2.89914 1069.01 4.73715 1069.01 16.3813C1069.01 37.694 1075.67 80.5013 1083.88 80.5013ZM1075.96 -56.681H1091.82L1089.84 -76.9776L1109.67 -74.9454V-91.1839L1089.84 -89.1518L1091.82 -109.452H1075.96L1077.94 -89.1518L1058.1 -91.1839V-74.9454L1077.94 -76.9776L1075.96 -56.6794L1075.96 -56.681ZM268.259 431.207C236.194 431.978 179.729 438.36 151.05 447.452C170.543 470.831 221.445 504.399 251.947 518.656C228.228 527.633 185.682 550.415 167.94 566.857C190.799 580.969 241.007 597.095 264.737 602.367C250.922 613.562 222.473 645.933 212.037 663.388C231.687 669.51 272.09 674.835 297.746 676.34C289.52 693.463 280.152 723.687 277.67 743.38C290.388 744.666 332.874 742.474 353.91 737.76C352.106 754.922 352.792 786.143 355.637 799.603C376.393 796.627 406.028 788.287 419.816 782.963C423.809 798.262 438.081 831.207 443.096 839.036C459.723 835.845 479.573 829.063 494.163 821.427C498.773 833.689 509.252 852.035 512.149 856.667C560.752 807.599 630.157 847.39 630.157 899.607C625.172 934.01 576.532 932.086 550.929 948.257C517.262 969.52 523.087 1018.82 488.435 1026.38C521.178 1047.06 530.705 1008.25 564.714 1007.15C560.176 1028.08 560.607 1065.25 564.015 1080.81C578.012 1070.02 597.642 1061.79 610.486 1060.95C607.313 1073.16 604.836 1101.73 609.428 1119.53C618.45 1112.7 652.145 1083.44 732.148 1102.25C741.847 1104.53 677.881 1102.02 685.863 1122.63C692.15 1138.87 693.929 1150.17 686.411 1173.23C689.802 1174.44 693.737 1175.02 697.976 1175.02C715.915 1175.02 739.174 1164.62 748.413 1148.3C755.552 1153.6 755.552 1191.36 731.632 1200.74C757.184 1202.6 776.642 1181.87 780.418 1169.13C780.418 1169.13 792.908 1198.79 807.72 1208.52C817.021 1205.27 833.593 1189.87 839.998 1173.88C846.396 1189.87 862.971 1205.27 872.267 1208.52C887.081 1198.79 899.573 1169.13 899.573 1169.13C903.349 1181.87 922.813 1202.6 948.364 1200.74C924.442 1191.36 924.442 1153.6 931.579 1148.3C940.822 1164.62 964.078 1175.02 982.021 1175.02C986.257 1175.02 990.196 1174.44 993.589 1173.23C986.071 1150.17 987.849 1138.87 994.136 1122.63C1002.12 1102.02 938.151 1104.53 947.85 1102.25C1027.84 1083.44 1061.55 1112.7 1070.57 1119.53C1075.16 1101.73 1072.69 1073.16 1069.51 1060.95C1082.35 1061.79 1101.98 1070.02 1115.98 1080.81C1119.38 1065.24 1119.82 1028.08 1115.27 1007.15C1149.28 1008.25 1158.81 1047.06 1191.56 1026.38C1156.9 1018.81 1162.73 969.516 1129.06 948.255C1103.46 932.084 1054.82 934.008 1049.83 899.606C1049.83 847.39 1119.24 807.597 1167.84 856.665C1170.74 852.032 1181.21 833.686 1185.83 821.424C1200.41 829.063 1220.27 835.843 1236.9 839.036C1241.91 831.204 1256.18 798.259 1260.17 782.96C1273.96 788.283 1303.6 796.624 1324.35 799.602C1327.2 786.142 1327.89 754.921 1326.08 737.758C1347.11 742.472 1389.6 744.666 1402.31 743.378C1399.84 723.684 1390.47 693.461 1382.24 676.337C1407.9 674.832 1448.3 669.507 1467.96 663.385C1457.51 645.928 1429.07 613.558 1415.26 602.362C1438.98 597.09 1489.19 580.966 1512.05 566.851C1494.31 550.41 1451.76 527.628 1428.04 518.653C1458.55 504.395 1509.44 470.828 1528.94 447.449C1500.26 438.354 1443.79 431.972 1411.73 431.204C1478.1 385.975 1480.15 287.873 1461.03 234.563C1448.18 266.88 1405.57 319.974 1378.06 348.598C1380.5 375.844 1371.63 424.171 1356.41 453.667C1378.2 461.909 1404.02 474.342 1422.32 488.203C1410.18 503.419 1384.06 527.032 1367.68 539.826C1381.54 554.267 1404.86 580.794 1415.25 596.129C1399.89 607.582 1366.49 620.721 1349.36 626.753C1357.79 643.97 1370.03 675.377 1373.19 697.057C1353.69 700.271 1326.84 702.445 1298.78 702.106C1300.14 722.867 1297.21 755.011 1293.58 774.259C1267.55 772.197 1236.83 761.55 1223.14 754.71C1215.89 783.402 1197.99 811.238 1197.21 812.718C1115.83 724.359 1043.71 807.716 1043.71 885.594V991.718C1043.71 1041.91 1027.84 1064.83 982.15 1064.83H923.029C886.223 1064.83 855.382 1080.39 839.994 1110.27C824.603 1080.39 793.762 1064.83 756.957 1064.83H697.832C652.145 1064.83 636.268 1041.91 636.268 991.717V885.592C636.268 807.716 564.149 724.359 482.776 812.718C481.993 811.238 464.086 783.402 456.84 754.71C443.146 761.55 412.433 772.197 386.41 774.26C382.77 755.013 379.844 722.868 381.208 702.111C353.14 702.448 326.294 700.276 306.785 697.062C309.953 675.381 322.194 643.973 330.624 626.756C313.502 620.724 280.092 607.585 264.739 596.132C275.123 580.797 298.44 554.271 312.303 539.827C295.919 527.032 269.806 503.421 257.669 488.203C275.957 474.342 301.785 461.907 323.569 453.666C308.352 424.171 299.475 375.844 301.918 348.597C274.411 319.972 231.801 266.877 218.949 234.562C199.834 287.872 201.881 385.974 268.255 431.201L268.259 431.207ZM85.1047 937.905L79.1214 944.266C79.1214 944.266 91.532 960.425 101.552 954.278C107.257 943.788 91.1179 931.573 91.1179 931.573L85.1031 937.905H85.1047Z"/>
</mask>
<path fill-rule="evenodd" clip-rule="evenodd" d="M1368.43 1280.25C1365.44 1280.25 1358.78 1302.82 1365.64 1318.82C1369.28 1327.35 1377.85 1330.94 1385.03 1328.56C1392.09 1326.21 1394.15 1319.51 1394.35 1314.29C1395.01 1296.75 1379.57 1280.25 1368.43 1280.25H1368.43ZM1317.04 1024.33L1319.29 1049.11L1297.83 1046.72V1074.94L1319.29 1072.56L1317.04 1098.44H1346.19L1343.94 1072.56L1365.39 1074.94V1046.72L1343.94 1049.11L1346.19 1024.33H1317.04H1317.04ZM1331.65 1121.98C1325.85 1121.98 1321.14 1126.78 1321.14 1132.7C1321.14 1138.62 1325.85 1143.42 1331.65 1143.42C1337.46 1143.42 1342.16 1138.62 1342.16 1132.7C1342.16 1126.78 1337.45 1121.98 1331.65 1121.98ZM1331.65 1165.38C1325.85 1165.38 1321.14 1170.17 1321.14 1176.09C1321.14 1182.01 1325.85 1186.81 1331.65 1186.81C1337.46 1186.81 1342.16 1182.01 1342.16 1176.09C1342.16 1170.18 1337.45 1165.38 1331.65 1165.38ZM1331.65 1209.39C1325.85 1209.39 1321.14 1214.19 1321.14 1220.11C1321.14 1226.04 1325.85 1230.83 1331.65 1230.83C1337.46 1230.83 1342.16 1226.03 1342.16 1220.11C1342.16 1214.19 1337.45 1209.39 1331.65 1209.39V1209.39ZM1365.6 1220.11C1365.6 1226.04 1370.3 1230.83 1376.11 1230.83C1381.91 1230.83 1386.62 1226.03 1386.62 1220.11C1386.62 1214.19 1381.91 1209.39 1376.11 1209.39C1370.3 1209.39 1365.59 1214.19 1365.59 1220.11L1365.6 1220.11ZM1409.65 1220.11C1409.65 1226.04 1414.36 1230.83 1420.17 1230.83C1425.97 1230.83 1430.68 1226.03 1430.68 1220.11C1430.68 1214.19 1425.97 1209.39 1420.17 1209.39C1414.36 1209.39 1409.65 1214.19 1409.65 1220.11V1220.11ZM1331.65 1268.32C1322.65 1268.32 1300.45 1313.86 1317 1336.89C1320.17 1341.29 1325.71 1343.77 1331.65 1343.77C1337.59 1343.77 1343.14 1341.29 1346.3 1336.89C1362.85 1313.86 1340.65 1268.32 1331.65 1268.32ZM1294.87 1280.25C1283.73 1280.25 1268.29 1296.75 1268.95 1314.29C1269.15 1319.51 1271.21 1326.21 1278.27 1328.55C1285.44 1330.94 1294.02 1327.34 1297.67 1318.82C1304.52 1302.82 1297.86 1280.25 1294.87 1280.25ZM1277.77 1220.11C1277.77 1226.04 1282.47 1230.83 1288.28 1230.83C1294.09 1230.83 1298.79 1226.03 1298.79 1220.11C1298.79 1214.19 1294.08 1209.39 1288.28 1209.39C1282.47 1209.39 1277.77 1214.19 1277.77 1220.11L1277.77 1220.11ZM1234.79 1220.11C1234.79 1226.04 1239.49 1230.83 1245.3 1230.83C1251.11 1230.83 1255.81 1226.03 1255.81 1220.11C1255.81 1214.19 1251.11 1209.39 1245.3 1209.39C1239.49 1209.39 1234.79 1214.19 1234.79 1220.11V1220.11ZM1224.43 1220.11C1224.43 1210.97 1226.01 1202.74 1226.01 1202.74H1313.36V1195.18L1313.36 1131.5L1313.36 1131.5V1113.39C1271.2 1120.77 1237.48 1153.23 1227.42 1195.17C1224.98 1198.66 1217.05 1200.44 1211.47 1199.82C1179.23 1195.88 1114 1184.14 1114 1170.27C1114 1150.78 1127.22 1142.98 1139.92 1142.98C1158.03 1142.98 1178.05 1152.78 1194.71 1128.69C1135.4 1131.4 1180.87 1045.86 1132.22 1029.63C1134.63 1051.47 1132.24 1089.9 1124.57 1110.22C1124.57 1110.22 1107.14 1091.63 1087.56 1084.62C1089.03 1100.47 1086.05 1133.34 1078.95 1148.3C1078.95 1148.3 1058.22 1129.15 1036.73 1121.98C1056.56 1150.68 1055.88 1191.65 1050.54 1216.56C1049 1223.77 1054.38 1232.74 1069.5 1232.08C1093.16 1231.04 1173.95 1234.6 1208.99 1248.9C1219.89 1253.35 1229.22 1258.45 1233.78 1266.2C1237.49 1276.65 1246.68 1292.83 1257.98 1301.12C1263.06 1283.07 1284.69 1263.73 1298.79 1264.43C1303 1264.63 1307.65 1271.66 1308.62 1278.53C1309.86 1272.14 1320.26 1254.46 1331.65 1254.46C1342.16 1254.46 1352.26 1269.25 1355.77 1281.46C1356.83 1273.62 1361.47 1265.23 1365.68 1265.23C1379.84 1265.23 1397.64 1277.76 1404.35 1298.47C1409.78 1291.71 1434.72 1259.71 1437.54 1238.7H1226.01C1226.01 1238.7 1224.42 1229.62 1224.42 1220.11L1224.43 1220.11ZM1349.94 1113.41V1202.74H1437.37C1429.77 1157.19 1394.57 1121.24 1349.94 1113.41H1349.94ZM318.265 1186.96C320.1 1187.58 321.958 1187.14 323.787 1186.17C317.894 1194.36 318.138 1199.75 320.674 1202.27C324.661 1206.21 327.614 1198.97 337.689 1188.29C347.774 1177.63 354.749 1174.38 350.778 1170.42C348.218 1167.88 342.912 1167.81 334.99 1174.26C335.866 1172.37 336.203 1170.49 335.565 1168.66C332.232 1159.03 316.715 1146.21 308.162 1146.18C306.927 1146.19 305.706 1146.45 304.572 1146.94C308.335 1140.91 307.363 1136.35 304.846 1133.85C302.074 1131.11 300.487 1133.03 297.376 1137C297.801 1134.23 297.088 1130.98 294.463 1127.01C281.624 1107.61 213.717 1043.75 198.297 1037.34C189.094 1033.49 186.074 1038.81 186.074 1038.81C186.074 1038.81 180.981 1042.09 185.007 1051.4C191.746 1066.99 256.998 1133.68 276.302 1146.23C280.261 1148.79 283.441 1149.42 286.13 1148.9C282.378 1152.18 280.58 1153.87 283.337 1156.61C285.856 1159.11 290.341 1159.96 296.107 1155.9C295.673 1157.08 295.469 1158.34 295.505 1159.6C295.798 1168.35 308.772 1183.85 318.269 1186.96L318.265 1186.96ZM155.04 998.029C153.028 998.029 150.171 998.506 148.069 1000.73C145.941 1002.98 145.193 1006.46 145.967 1010.5C146.818 1014.89 149.324 1019.34 153.037 1023.03C157.482 1027.46 163.075 1030.09 167.976 1030.09C170.001 1030.09 172.839 1029.63 174.944 1027.41C179.53 1022.55 177.266 1012.33 169.984 1005.1C165.525 1000.69 159.948 998.033 155.041 998.033L155.04 998.029ZM366.234 1235.08C366.177 1228.34 353.394 1217.02 338.232 1217.02C315.713 1217.02 305.965 1231.29 305.965 1238.57C305.965 1252.26 319.198 1254.02 323.254 1254.25C339.103 1255.23 364.66 1239.02 366.234 1235.08ZM346.836 1269.28C340.852 1276.94 338.612 1284.43 340.16 1291.52C342.044 1300.11 350.541 1303.97 358.131 1303.97C366.13 1303.97 373.294 1300.2 377.294 1293.86C385.897 1280.3 386.276 1250.26 383.376 1246.97C376.165 1246.97 356.987 1256.28 346.837 1269.28L346.836 1269.28ZM149.208 956.488C142.843 950.162 129.828 959.588 122.05 955.202C125.498 935.887 139.168 956.158 152.38 942.193C157.647 936.616 154.821 927.909 151.798 925.281C146.106 931.051 137.296 929.052 136.619 925.845C151.614 890.408 122.316 850.9 94.1851 855.851C99.7039 863.237 101.354 888.91 98.9497 895.849C109.66 903.542 102.004 921.662 90.1842 916.398C82.2563 913.168 68.2743 893.348 84.3536 879.384C83.8907 874.351 75.0449 873.128 65.6448 885.255C72.5413 862.995 30.3214 869.975 21.6456 875.317C16.7126 884.365 11.2442 927.855 32.7147 920.089C21.1985 930.109 22.6691 939.13 27.5864 939.454C40.6898 922.543 60.4315 936.262 63.8372 944.284C69.3419 956.245 51.9116 964.637 44.0829 953.907C37.3832 956.596 12.3086 955.713 4.93179 950.288C1.00014 979.265 40.4221 1008.04 74.5032 991.578C77.6445 992.174 79.8724 1001.12 74.4324 1007.14C77.0934 1010.17 85.6589 1012.79 90.9336 1007.2C104.128 993.239 83.9364 979.858 102.661 975.708C107.18 983.549 98.4096 997.184 104.766 1003.51C114.949 1013.62 127.739 994.003 140.3 993.216C140.669 980.318 159.389 966.606 149.209 956.484L149.208 956.488ZM43.6736 911.747C43.6736 911.747 37.0872 907.068 44.9852 898.497C53.0783 890.129 57.8602 896.741 57.8602 896.741C57.8602 896.741 65.2795 913.255 67.4729 920.857C59.9906 918.847 43.6751 911.747 43.6751 911.747H43.6736ZM108.849 961.974C104.761 962.492 95.0779 971.113 90.2219 966.286L68.0003 944.219L79.1104 932.431L90.2645 920.668L112.466 942.761C117.322 947.572 109.222 957.775 108.849 961.973V961.974ZM477.038 1300.2C477.791 1296.89 477.274 1294.24 475.542 1292.52C474.999 1291.98 474.511 1291.67 474.217 1291.67C472.965 1291.67 470.181 1295.11 467.496 1298.45C465.261 1301.21 462.474 1304.65 458.92 1308.4C455.38 1312.17 452.102 1315.12 449.476 1317.51C446.355 1320.33 443.119 1323.26 443.083 1324.57C443.083 1324.88 443.403 1325.38 443.97 1325.94C445.119 1327.09 446.659 1327.66 448.528 1327.66C451.384 1327.66 457.574 1326.2 466.887 1316.33C473.96 1308.86 476.319 1303.43 477.04 1300.2L477.038 1300.2ZM477.172 1326.53C472.33 1331.67 467.41 1335.32 464.686 1337.18C466.618 1339.14 472.11 1342.61 478.973 1342.61C482.891 1342.61 486.55 1341.46 489.891 1339.18C496.741 1327.89 490.131 1316.34 487.158 1313.4C485.42 1316.26 482.009 1321.42 477.17 1326.53L477.172 1326.53ZM402.183 1263.74C398.656 1267.04 390.499 1289.96 394.058 1303.92C395.59 1309.9 398.892 1312.45 404.481 1312.15C410.263 1311.79 413.415 1308.78 414.39 1302.65C416.607 1288.71 406.029 1266.55 402.181 1263.74L402.183 1263.74ZM397.719 1200.04C397.919 1200.43 439.555 1237.01 453.524 1250.25C456.815 1253.38 461.354 1254.1 465.963 1251.76C468.592 1250.41 471.867 1248.87 475.253 1247.32C516.888 1232.62 585.373 1230.97 610.494 1232.08C625.617 1232.74 630.958 1223.78 629.451 1216.56C624.531 1192.98 623.432 1150.68 643.266 1121.98C621.771 1129.14 601.045 1148.3 601.045 1148.3C593.936 1133.34 590.96 1100.47 592.429 1084.61C572.857 1091.62 555.421 1110.22 555.421 1110.22C547.753 1089.9 545.359 1051.47 547.775 1029.63C499.124 1045.86 544.594 1131.4 485.281 1128.69C501.948 1152.78 521.963 1142.99 540.075 1142.99C552.776 1142.99 568.553 1151.29 565.995 1170.27C564.141 1184.01 484.56 1201.12 452.554 1201.12C430.183 1201.12 415.203 1194.22 403.976 1178.72C398.575 1171.26 393.068 1167.88 386.898 1168.83C379.241 1170.01 370.287 1177.83 370.287 1195.93C370.287 1208.76 375.478 1236.87 390.895 1236.87C401.724 1236.87 402.203 1214.66 397.717 1200.04L397.719 1200.04ZM449.175 1298.72C456.442 1291.02 458.984 1285.41 457.189 1281.03C454.591 1274.71 438.063 1256.34 416.428 1235.6C415.782 1239.89 414.818 1244.11 413.543 1248.25C428.123 1267.49 433.571 1288.16 428.655 1305.51C430.435 1306.69 431.537 1307.23 432.182 1307.48C437.78 1309.7 444.768 1303.39 449.172 1298.72H449.175ZM343.894 1194.08C343.789 1194.19 341.096 1196.84 339.355 1200.41C343.88 1200.44 349.153 1201.22 353.896 1202.49C353.581 1198.3 353.269 1192.62 353.68 1187.72C349.678 1188.62 345.379 1192.47 343.896 1194.08H343.894ZM1071.12 1326.25C1084.83 1320.02 1094.71 1303.12 1097.32 1286.59C1088.63 1290.83 1078.84 1292.9 1067.55 1292.9C1036.49 1292.9 997.474 1275.7 962.111 1260.11C962.111 1260.11 954.486 1266.5 941.85 1267.84C977.532 1278.76 1047.65 1317.52 1052.81 1342.38C1056.25 1359.01 1045.37 1365.35 1045.37 1365.35C1029.77 1340 989.557 1300.63 935.893 1280.94C936.003 1290.21 934.218 1296.71 934.218 1296.71C934.218 1296.71 923.328 1299.38 900.197 1295.38C920.422 1312.19 973.55 1371.55 979.318 1416.59C983.163 1446.66 962.065 1448.05 962.065 1448.05C959.053 1402.82 935.235 1356.02 892.25 1309.03C892.25 1309.03 885.202 1320.04 875.834 1325.59C875.834 1325.59 859.959 1322.79 846.783 1314.11C851.856 1373.78 854.853 1451.29 851.705 1474.76C849.507 1491.09 840.003 1497.94 840.003 1497.94C840.003 1497.94 830.465 1491.09 828.263 1474.76C825.121 1451.29 828.112 1373.78 833.185 1314.11C820.014 1322.79 804.135 1325.59 804.135 1325.59C794.766 1320.04 787.728 1309.03 787.728 1309.03C744.734 1356.02 720.915 1402.82 717.908 1448.05C717.908 1448.05 696.809 1446.66 700.657 1416.59C706.423 1371.55 759.553 1312.19 779.775 1295.38C756.645 1299.38 745.754 1296.71 745.754 1296.71C745.754 1296.71 743.97 1290.21 744.082 1280.94C690.421 1300.63 650.217 1340 634.608 1365.36C634.608 1365.36 623.728 1359.01 627.176 1342.38C632.325 1317.52 702.444 1278.76 738.131 1267.84C725.494 1266.5 717.864 1260.11 717.864 1260.11C682.506 1275.71 643.482 1292.9 612.426 1292.9C601.139 1292.9 591.343 1290.83 582.664 1286.59C585.262 1303.12 595.15 1320.02 608.848 1326.25C560.872 1359.87 590.497 1438.66 526.153 1423.85C562.034 1490.2 634.608 1496.86 634.608 1496.86C618.532 1461.77 638.576 1354.69 734.899 1306.04C675.606 1364.91 648.592 1436.29 664.324 1486.64C678.758 1532.86 725.678 1551.59 761.007 1552.4C736.025 1475.98 751.422 1388.46 803.267 1333.37C781.05 1393.79 749.812 1555.06 840.01 1586C930.2 1555.06 898.937 1393.79 876.712 1333.37C928.567 1388.46 943.956 1475.98 918.976 1552.4C954.303 1551.59 1001.22 1532.86 1015.66 1486.64C1031.39 1436.29 1004.38 1364.91 945.087 1306.04C1041.41 1354.69 1061.45 1461.77 1045.37 1496.86C1045.37 1496.86 1117.95 1490.2 1153.83 1423.85C1089.48 1438.66 1119.11 1359.87 1071.13 1326.25L1071.12 1326.25ZM847.66 -2.965C847.66 -7.70044 843.905 -11.5578 839.303 -11.5578C834.689 -11.5578 830.945 -7.70044 830.945 -2.965C830.945 1.78299 834.688 5.64349 839.303 5.64349C843.905 5.64349 847.66 1.78299 847.66 -2.965ZM889.827 -2.965C889.827 -7.70044 886.087 -11.5578 881.469 -11.5578C876.863 -11.5578 873.119 -7.70044 873.119 -2.965C873.119 1.78299 876.863 5.64349 881.469 5.64349C886.087 5.64349 889.827 1.78299 889.827 -2.965ZM824.313 -226.041C824.313 -217.174 831.329 -209.934 839.953 -209.934C848.591 -209.934 855.604 -217.174 855.604 -226.041C855.604 -234.921 848.591 -242.154 839.953 -242.154C831.329 -242.154 824.313 -234.922 824.313 -226.042V-226.041ZM829.347 -260.265H850.644L848.342 -285.94L871.477 -283.481V-303.79L848.34 -301.339L850.642 -327H829.345L831.638 -301.339L808.508 -303.79V-283.481L831.638 -285.94L829.345 -260.266L829.347 -260.265ZM805.492 -2.96658C805.492 -7.70203 801.737 -11.5594 797.128 -11.5594C792.521 -11.5594 788.771 -7.70203 788.771 -2.96658C788.771 1.7814 792.521 5.64191 797.128 5.64191C801.737 5.64191 805.492 1.7814 805.492 -2.96658ZM755.296 28.8958C757.558 29.7081 760.17 30.1502 763.263 30.1502H916.734C919.828 30.1502 922.44 29.7081 924.693 28.8958C929.649 27.1239 932.661 23.4108 933.831 17.4774H746.16C747.325 23.4108 750.339 27.1208 755.296 28.8974V28.8958ZM763.735 -2.96658C763.735 -7.70203 759.988 -11.5594 755.374 -11.5594C750.766 -11.5594 747.01 -7.70203 747.01 -2.96658C747.01 1.7814 750.766 5.64191 755.371 5.64191C759.985 5.64191 763.732 1.7814 763.732 -2.96658H763.735ZM931.59 -2.96658C931.59 -7.70203 927.835 -11.5594 923.24 -11.5594C918.627 -11.5594 914.875 -7.70203 914.875 -2.96658C914.875 1.7814 918.627 5.64191 923.242 5.64191C927.836 5.64191 931.592 1.7814 931.592 -2.96658H931.59ZM941.62 -23.351C945.947 -28.7105 967.458 -70.2225 967.458 -112.13C967.458 -149.847 919.964 -170.609 891.707 -171.558C888.436 -117.681 867.411 -33.1072 840.005 -33.1072C814.067 -33.1072 791.528 -117.193 788.297 -171.56C760.044 -170.608 712.551 -149.846 712.551 -112.128C712.551 -70.2209 734.053 -28.7089 738.383 -23.351H941.623H941.62ZM840.005 -59.8657C852.91 -59.8657 869.591 -113.521 873.851 -164.304C873.851 -174.586 860.94 -190.313 840.006 -190.723C819.065 -190.315 806.154 -174.587 806.154 -164.304C809.895 -116.947 827.297 -59.8657 840.006 -59.8657H840.005ZM429.714 214.022C404.669 248.393 439.303 286.01 441.439 288.609C442.945 290.443 444.236 289.615 444.006 287.558C443.825 285.792 462.03 232.792 566.836 260.702C569.077 261.298 570.451 261.345 568.351 259.177C548.99 243.862 526.019 209.533 518.595 181.92C518.595 181.92 454.763 179.651 429.712 214.022H429.714ZM485.898 206.833C485.898 197.232 499.896 194.583 507.942 194.583C507.942 194.583 511.474 203.855 515.018 208.987C506.852 205.343 495.509 204.973 485.898 206.833ZM541.532 161.982C534.56 161.982 531.955 166.41 534.232 174.078C558.313 255.079 623.963 274.291 649.883 309.372C649.883 309.372 649.698 298.443 661.723 272.364C669.905 285.777 692.073 310.895 706.478 314.092C703.035 306.867 698.939 278.346 702.133 259.18C736.152 288.882 778.092 294.719 800.599 277.582C781.436 278.315 756.483 257.03 743.923 238.149C761.458 242.195 785.601 238.024 790.577 232.997C779.5 230.3 766.066 220.493 757.976 211.175C770.419 210.312 797.418 200.136 805.136 185.788C794.31 188.242 778.259 183.828 767.807 178.312C775.768 174.015 795.634 152.764 800.4 134.114C772.187 147.92 727.672 161.656 661.73 161.656C661.73 161.656 545.207 161.981 541.529 161.981L541.532 161.982ZM614.326 198.909C595.684 206.279 586.342 216.232 586.342 216.232C586.342 216.232 577.395 201.577 574.539 196.866C571.683 192.159 570.788 186.389 580.425 186.389H638.218C638.218 190.321 632.966 191.537 614.325 198.908L614.326 198.909ZM417.032 330.71C423.063 338.695 440.131 363.081 477.574 341.279C515.008 319.474 534.316 307.604 534.316 307.604C534.316 307.604 528.468 318.856 532.906 332.347C533.165 333.122 534.045 333.087 534.383 332.285C538.112 323.554 570.626 298.29 612.087 294.793C596.888 281.535 580.211 269.72 580.211 269.72C562.497 272.574 528.159 284.66 483.744 313.442C439.323 342.224 418.86 330.204 418.01 329.664C417.163 329.122 415.96 329.293 417.031 330.71H417.032ZM947.581 1249.67C953.977 1247.63 959.33 1244.38 962.083 1240.73C933.394 1239.49 909.713 1214.78 901.041 1199.53C891.511 1215.26 874.498 1227.55 874.498 1227.55C862.385 1224.36 845.831 1211.19 840 1201.12C834.174 1211.2 817.618 1224.36 805.502 1227.55C805.502 1227.55 788.49 1215.26 778.958 1199.53C770.29 1214.78 746.607 1239.49 717.916 1240.73C720.671 1244.38 726.025 1247.63 732.421 1249.67C736.703 1251.04 741.443 1251.88 746.214 1251.88C751.268 1251.88 756.343 1250.97 760.893 1248.84C758.028 1259.23 757.075 1272.06 759.172 1280.85C759.172 1280.85 774.43 1282.05 790.18 1276.11C791.313 1285.61 795.659 1297.11 802.789 1304.89C804.19 1306.41 805.654 1307.84 807.267 1309.03C815.727 1309.03 836.152 1299.19 840.002 1293.13C843.847 1299.19 864.273 1309.03 872.737 1309.03C874.343 1307.84 875.81 1306.4 877.213 1304.88C884.339 1297.11 888.687 1285.61 889.817 1276.11C896.903 1279.66 905.133 1281.08 914.242 1281.08C916.437 1281.07 918.633 1281 920.823 1280.85C922.927 1272.05 921.973 1259.23 919.104 1248.84C923.657 1250.97 928.732 1251.88 933.782 1251.88C938.564 1251.88 943.297 1251.04 947.58 1249.67L947.581 1249.67ZM661.249 639.408C655.628 639.408 652.148 642.988 652.148 648.751V998.636C652.148 1032 665.328 1048.92 691.317 1048.92L756.349 1049.17C800.909 1049.17 827.196 1064.47 840 1083.44C850.888 1065.75 881.486 1049.17 923.653 1049.17L988.666 1048.92C1014.66 1048.92 1027.84 1032 1027.84 998.636V648.751C1027.84 642.988 1024.35 639.408 1018.75 639.408H661.246H661.249ZM724.767 966.757C724.143 974.5 733.164 988.584 748.054 984.177C747.606 987.034 748.442 994.849 751.77 1000.71C725.39 1006.67 714.013 985.03 724.767 966.757ZM963.933 850.931C960.302 847.088 956.72 843.199 953.19 839.265C949.427 835.094 946.742 833.473 942.903 833.473C934.27 833.473 925.032 838.189 920.093 841.454C919.765 841.587 919.516 841.904 919.394 842.755C924.643 842.288 929.908 841.904 935.142 841.313C939.737 840.784 944.027 840.968 947.986 843.909C951.103 846.214 952.862 849.068 953.031 852.795C953.53 864.704 963.06 889.77 963.653 897.293C964.396 900.252 960.828 901.114 955.887 914.949C952.239 919.016 942.377 906.105 943.805 903.084C949.552 895.609 951.136 890.952 949.678 885.384C948.513 880.907 946.325 872.912 944.703 868.578C942.536 862.795 937.658 860.628 931.598 862.701C907.819 870.572 904.154 860.082 880.586 869.948L907.728 911.846C907.628 908.81 906.169 903.328 901.779 899.388C902.569 895.159 911.132 893.409 914.331 897.37C918.258 902.392 925.917 909.553 932.221 910.701C944.333 912.936 943.416 931.277 975.781 937.416C971.758 941.574 962.782 940.164 958.871 938.283C961.232 941.921 963.949 945.355 968.826 946.596C963.808 951.619 949.412 939.848 950.885 951.693C953.375 950.256 956.824 950.023 959.74 950.755C966.199 952.362 976.792 988.984 954.478 1004.99C959.228 1006.41 964.337 1003.9 969.156 1003.9C971.98 1003.9 974.619 1006.64 974.9 1009.69C976.981 1011.28 978.348 1013.24 979.56 1015.74C977.88 1016.3 974.637 1015.78 972.837 1014.59C973.561 1016.62 973.388 1021.51 972.632 1021.6C970.614 1021.87 969.058 1020.72 966.995 1019.49C964.122 1020.96 954.682 1020.36 952.009 1017.97C944.882 1019.7 937.847 1022.02 930.422 1022.02C926.413 1022.02 921.132 1021.77 921.321 1016.88C921.412 1014.5 922.596 1013.27 923.525 1010.66C920.108 1007.16 914.413 1010.55 907.622 1011.21C898.417 1012.09 894.621 1010.66 892.625 1008.79C901.316 1000.76 896.07 981.201 882.647 979.47C893.689 990.029 892.247 1007.11 879.887 1010.95C883.458 1012.1 885.227 1013.71 886.594 1016.25C890.94 1018.05 891.003 1021.19 890.677 1022.6C888.299 1020.91 884.017 1019.25 880.6 1019.7C880.354 1021.19 879.731 1023.98 878.443 1025.06C876.967 1024.74 875.042 1023.39 874.294 1022.31C870.346 1019.29 845.753 1025.06 844.259 1021.02C843.314 1017.27 849.88 1014.12 855.938 1012.79C840.361 1007.08 826.846 977.803 802.864 972.845C791.742 970.553 776.673 975.542 776.673 989.987C776.673 997.084 782.389 1002.55 788.569 1002.55C794.258 1002.55 797.103 998.621 797.103 994.644C796.187 995.337 795.62 995.765 795.061 996.222C791.581 999.072 787.147 998.89 783.938 995.767C781.114 993.016 781.114 988.24 783.855 985.01C786.11 982.322 788.818 980.808 792.436 980.275C801.825 978.911 809.504 981.899 814.677 989.424C817.142 993.015 818.503 996.853 818.503 1000.57C818.503 1017.21 801.809 1020.99 792.57 1020.99C769.311 1020.99 755.604 1004.37 755.604 985.129C755.604 982.887 755.714 980.613 756.099 978.324C759.739 956.674 779.103 947.622 795.856 944.914C793.719 937.378 789.592 931.288 783.669 926.317C780.72 923.844 780.421 921.825 782.279 918.671C784.809 914.359 787.467 910.116 788.585 905.257C788.84 904.167 788.956 903.015 789.037 901.831C780.695 909.295 769.034 916.136 752.898 921.02C747.809 923.369 745.116 927.998 744.469 933.322C743.734 939.5 743.562 945.767 743.45 952C743.422 953.438 744.464 955.003 745.256 956.381C748.259 961.524 751.575 966.532 752.315 972.949C752.315 976.057 736.648 976.378 736.648 973.886C736.502 962.603 728.957 958.219 729.767 950.769C731.852 939.181 732.318 927.59 730.418 915.943C729.939 913.011 731.501 911.082 733.594 909.522C736.922 906.988 740.459 904.724 743.781 902.21C751.622 896.228 754.866 888.434 753.024 878.768C752.787 877.511 752.23 876.299 751.685 875.115C747.78 866.516 744.93 857.807 744.93 848.11C744.93 837.476 731.729 838.083 732.592 848.533C732.863 851.798 735.304 856.364 736.675 859.502C750.21 890.59 725.874 912.978 700.7 912.962C727.162 903.818 694.515 870.001 694.515 844.772C694.515 829.3 706.491 817.861 720.782 817.861C737.264 817.861 747.714 828.464 750.707 830.286C758.681 817.664 783.096 815.387 792.263 813.932C791.564 807.136 792.523 801.096 796.697 795.88C796.969 795.528 797.141 794.874 796.993 794.498C795.691 791.283 794.304 788.109 792.505 785C784.988 793.467 783.184 804.698 783.184 810.504C755.349 810.096 743.072 797.928 734.845 793.137C734.877 791.02 742.282 777.716 748.849 768.936C741.651 775.095 735.733 782.029 731.388 790.344C727.409 787.474 723.225 784.879 719.135 783.181C725.408 769.77 733.721 759.331 744.315 748.423C729.397 753.915 716.414 770.751 711.493 781.328C707.237 780.842 700.95 780.677 697.439 781.359C713.696 761.516 721.126 722.42 756.87 713.651C747.917 749.908 770.181 764.641 785.511 755.179C783.516 755.179 782.15 755.496 780.863 755.179C750.974 747.61 768.687 706.296 761.449 697.695C758.7 694.434 757.281 691.443 757.728 687.315C757.889 685.863 757.458 684.179 756.79 682.841L740.893 656.354C738.894 653.019 745.082 650.646 746.415 652.18L762.627 678.669C763.047 679.332 763.564 680.303 764.167 680.414C770.095 681.455 771.929 686.357 774.326 690.695C775.085 692.094 775.683 693.701 775.821 695.282C775.935 696.489 775.604 698.177 774.798 698.998C772.22 701.601 772.72 704.162 774.713 707.539C777.912 712.954 873.947 872.441 873.947 872.441C853.089 880.956 815.358 881.646 804.428 880.589C802.16 886.124 798.615 891.965 793.375 897.592C798.607 894.194 802.653 889.884 806.393 885.199C810.613 885.685 816.939 887.37 823.407 887.841C819.581 895.999 813.834 904.117 806.456 910.916C802.986 914.326 798.687 917.345 800.268 922.806C802.05 928.953 813.516 940.666 817.698 948.265C821.849 949.14 828.857 950.614 833.995 952.662C836.927 958.943 846.843 966.832 858.794 962.749C834.766 962.448 836.539 937.9 844.006 924.917C843.198 936.975 849.038 946.985 856.434 948.127C845.344 938.035 846.454 915.114 857.256 902.54C858.792 922.955 865.002 933.685 873.886 936.111C862.144 925.339 855.097 900.417 872.828 882.257C874.198 928.859 916.994 920.454 920.883 974.401C936.734 974.401 937.636 953.118 928.8 949.206C923.643 947.28 918.984 943.893 916.345 939.283C915.246 937.344 914.106 933.885 913.209 931.851C908.498 917.989 895.196 918.867 895.519 915.543C895.834 914.419 897.928 913.903 900.866 913.903L875.799 875.292L874.492 873.276C877.515 872.664 878.186 870.911 875.081 866.028C875.081 866.028 781.017 710.072 780.569 709.178C789.314 707.665 797.716 710.029 805.897 713.186C803.713 711.166 801.932 708.345 801.551 705.435C801.236 703.096 801.324 701.73 803.214 700.245C805.214 698.617 807.135 696.739 808.536 694.616C813.206 687.534 821.787 684.074 829.584 686.289C841.349 689.621 845.513 702.887 836.864 709.862C832.261 719.98 826.553 718.705 825.379 723.24C827.687 724.306 843.779 736.698 844.853 741.915C840.057 751.868 837.673 767.427 841.834 776.111C844.943 734.738 869.931 714.503 894.267 714.503C900.046 714.503 905.789 715.506 911.551 717.462C914.703 718.523 917.855 720.052 920.478 722.04C924.283 724.942 927.819 728.177 931.044 731.707C935.792 736.909 940.144 742.464 948.222 742.825C945.86 746.18 943.171 748.636 940.419 751.047C938.435 752.819 937.438 754.947 937.194 757.617C936.632 763.364 934.737 768.628 930.499 772.859C929.929 773.432 929.488 774.12 929.208 774.877C926.507 782.692 923.771 790.474 921.231 798.334C920.601 800.248 920.743 802.886 918.151 802.855C915.9 802.824 913.18 802.17 911.503 800.804C907.936 797.925 906.657 793.732 907.936 789.306C909.206 784.904 907.936 781.125 906.537 777.031C905.104 772.936 904.607 768.507 903.645 763.833C897 761.512 884.527 775.744 894.048 787.667C900.231 796.464 905.788 812.652 906.751 819.279C906.951 819.933 901.126 823.591 893.1 822.572C865.971 819.113 848.813 800.337 843.599 784.497C843.174 811.33 865.517 831.221 898.63 829.295C899.979 835.546 905.101 839.792 911.069 839.989C912.308 835.953 912.281 827.486 911.269 822.103C910.819 819.735 912.064 818.523 914.265 817.96C921.505 816.125 930.929 816.839 938.99 813.971C946.139 811.409 949.521 812.909 953.964 821.529C957.334 828.031 963.092 835.03 968.529 839.854C970.812 841.871 973.095 843.919 975.252 846.073C978.001 848.817 979.431 852.047 979.645 856.038C978.937 862.291 979.771 874.878 979.771 875.077C978.201 879.204 966.756 874.836 964.907 870.404C964.21 868.752 969.804 857.147 963.931 850.925L963.933 850.931ZM1161.41 181.92C1153.98 209.533 1131.01 243.862 1111.65 259.177C1109.55 261.344 1110.93 261.3 1113.17 260.702C1217.97 232.792 1236.18 285.791 1235.99 287.56C1235.77 289.617 1237.06 290.445 1238.56 288.61C1240.7 286.012 1275.33 248.393 1250.29 214.024C1225.24 179.652 1161.41 181.921 1161.41 181.921V181.92ZM1164.99 208.987C1168.53 203.855 1172.07 194.583 1172.07 194.583C1180.11 194.583 1194.1 197.233 1194.1 206.833C1184.49 204.971 1173.15 205.343 1164.99 208.987H1164.99ZM1262.97 330.71C1264.04 329.293 1262.83 329.122 1261.99 329.664C1261.14 330.204 1240.67 342.224 1196.26 313.442C1151.84 284.66 1117.5 272.572 1099.79 269.72C1099.79 269.72 1083.11 281.535 1067.91 294.793C1109.37 298.29 1141.89 323.554 1145.62 332.285C1145.96 333.087 1146.83 333.122 1147.09 332.347C1151.53 318.856 1145.68 307.604 1145.68 307.604C1145.68 307.604 1164.99 319.474 1202.42 341.277C1239.87 363.079 1256.94 338.693 1262.97 330.709L1262.97 330.71ZM912.193 178.313C901.743 183.83 885.693 188.242 874.865 185.79C882.585 200.137 909.584 210.314 922.023 211.176C913.938 220.493 900.499 230.3 889.424 232.997C894.402 238.024 918.54 242.193 936.081 238.149C923.516 257.029 898.565 278.315 879.402 277.582C901.914 294.721 943.857 288.881 977.874 259.181C981.062 278.346 976.972 306.865 973.523 314.094C987.931 310.895 1010.1 285.775 1018.28 272.365C1030.3 298.445 1030.12 309.376 1030.12 309.376C1056.05 274.293 1121.69 255.083 1145.77 174.08C1148.05 166.412 1145.44 161.982 1138.47 161.982C1134.79 161.982 1018.28 161.658 1018.28 161.658C952.328 161.658 907.813 147.922 879.6 134.115C884.366 152.765 904.232 174.019 912.199 178.312L912.193 178.313ZM1099.58 186.389C1109.21 186.389 1108.32 192.159 1105.46 196.868C1102.6 201.577 1093.66 216.233 1093.66 216.233C1093.66 216.233 1084.32 206.279 1065.68 198.906C1047.03 191.537 1041.78 190.321 1041.78 186.389H1099.58ZM668.371 307.715C664.616 318.315 663.509 330.006 665.505 345.215C677.623 371.432 683.484 420.11 679.744 447.325C699.048 420.502 707.62 390.338 713.143 366.203C724.212 377.481 738.576 393.627 748.596 406.708C750.317 392.541 753.37 375.046 756.044 362.411C770.463 376.127 800.386 393.348 820.62 399.456C807.001 342.216 783.693 305.73 783.693 305.73C763.913 307.714 732.054 302.914 717.732 288.88C720.289 309.619 734.614 333.462 734.614 333.462C703.921 336.445 682.181 326.011 668.373 307.715H668.371ZM1011.63 307.715C997.819 326.014 976.079 336.446 945.386 333.462C945.386 333.462 959.708 309.62 962.265 288.883C947.943 302.917 916.092 307.715 896.307 305.73C896.307 305.73 873.004 342.215 859.375 399.454C879.617 393.347 909.535 376.125 923.953 362.41C926.63 375.045 929.678 392.539 931.401 406.706C941.423 393.629 955.781 377.478 966.86 366.201C972.38 390.336 980.952 420.502 1000.26 447.323C996.513 420.108 1002.38 371.43 1014.49 345.213C1016.49 330.003 1015.38 318.312 1011.62 307.714L1011.63 307.715ZM747.623 488.054C759.205 506.599 769.512 528.901 773.083 548.764C784.187 535.382 795.914 512.119 803.861 484.333C813.604 496.464 830.624 521.171 840 541.551C849.369 521.171 866.393 496.464 876.133 484.333C884.084 512.119 895.812 535.382 906.915 548.764C910.485 528.901 920.792 506.599 932.373 488.056C941.182 524.149 975.163 559.257 1010.23 561.898C987.417 532.4 986.474 481.414 988.088 464.433C972.9 440.91 962.895 419.688 958.109 405.267C947.808 415.412 931.872 435.13 917.573 457.921C917.573 457.644 917.164 429.344 911.461 394.981C896.72 408.249 870.025 417.855 855.757 421.585C846.75 436.212 844.283 447.623 840 465.981C835.717 447.623 833.242 436.212 824.242 421.585C809.969 417.854 783.279 408.249 768.534 394.982C762.835 429.344 762.42 457.644 762.42 457.92C748.117 435.13 732.189 415.411 721.882 405.265C717.1 419.688 707.097 440.91 691.903 464.435C693.524 481.417 692.575 532.403 669.765 561.901C704.836 559.26 738.813 524.152 747.618 488.059L747.623 488.054ZM429.898 914.907C449.58 902.118 462.034 878.881 476.212 850.461C467.958 853.863 455.998 857.548 444.012 860.026C432.319 882.553 415.76 873.815 415.328 870.619C418.907 866.668 422.993 860.828 426.067 855.746C421.083 846.459 415.08 832.624 411.77 824.069C395.04 859.149 364.313 894.782 338.58 908.685C353.721 929.649 400.646 933.914 429.896 914.905L429.898 914.907ZM490.726 855.782C476.767 885.125 480.05 930.342 524.49 931.623C520.803 899.604 535.285 869.482 550.765 855.784C537.451 859.053 515.774 876.451 515.774 876.451C515.774 876.451 512.51 883.907 511.853 893.555C502.551 895.211 497.41 888.073 501.272 873.186C501.272 873.186 494.549 865.529 490.726 855.786V855.782ZM270.739 889.288C277.29 889.28 283.816 888.485 290.176 886.92C333.088 876.36 373.953 839.811 398.243 809.124C384.368 813.499 370.353 816.34 354.817 817.908C354.817 817.908 343.937 830.586 335.56 835.273C331.315 837.669 327.073 838.813 323.054 838.813C310.914 838.813 305.759 828.895 305.759 828.895C305.759 828.895 325.34 819.55 337.801 806.272C335.332 796.487 333.762 782.932 333.477 769.418C299.687 803.225 236.176 836.072 191.815 842.448C200.595 860.653 231.746 889.288 270.741 889.288H270.739ZM184.824 817.579C187.051 817.578 189.276 817.471 191.492 817.259C235.595 812.916 288.825 784.782 323.101 760.434C312.189 762.641 283.501 763.28 269.889 761.39C265.181 764.531 244.425 777.597 227.156 779.779C195.655 783.754 192.324 764.343 192.324 764.343C212.561 761.881 235.891 755.076 258.192 744.733C260.431 728.008 264.317 713.1 267.639 702.109C219.017 729.079 139.694 748.049 92.6389 748.675C102.055 770.946 138.561 817.577 184.826 817.577L184.824 817.579ZM191.76 659.36C198.538 647.418 209.266 633.302 219.031 621.79C180.214 632.437 130.242 634.663 103.75 634.663C72.5177 634.663 42.1699 632.468 24.7585 628.987C26.3047 660.238 56.1503 714.147 115.037 719.406C118.107 719.688 121.505 719.823 125.139 719.823C161.877 719.823 220.302 705.018 260.506 690.812C231.84 687.138 204.153 680.361 197.839 677.723C182.889 681.996 147.175 687.963 135.577 687.323C109.25 685.885 106.432 665.753 106.432 665.753C106.432 665.753 153.81 667.747 191.757 659.36H191.76ZM50.4016 602.096C72.2784 609.136 107.167 613.174 146.129 613.174C169.899 613.174 194.975 611.057 215.37 608.168C193.342 600.698 166.159 589.407 148.494 578.219C126.415 577.78 96.4446 577.156 77.1989 571.288C48.8963 562.66 49.2979 543.378 49.8017 539.05C74.2702 548.85 115.895 558.224 146.66 560.05C158.002 549.168 175.522 536.201 194.007 524.911C121.001 525.547 27.8021 496.749 -24.5627 469.136C-36.5355 566.172 29.6239 595.397 50.4016 602.094V602.096ZM210.883 400.886C199.617 379.357 188.631 350.395 187.181 325.432C153.037 298.71 114.062 264.707 91.5115 225.842C78.479 203.377 83.2892 183.689 92.5192 176.912C99.5574 201.318 145.408 269.661 186.97 303.93C187.298 282.028 190.996 256.837 196.729 237.891C148.406 185.511 94.2418 98.7516 81.1573 64.7614C66.451 76.8932 41.1008 107.412 34.8703 150.415C28.5957 193.701 42.6863 238.167 76.747 282.584C102.943 316.752 160.607 367.692 210.883 400.887V400.886ZM196.995 510.969C163.775 489.028 140.748 468.67 128.476 450.387C100.716 439.633 64.8245 423.218 47.1423 408.423C22.847 388.117 30.5387 369.839 33.3713 366.187C54.7615 387.943 101.086 419.301 133.988 433.252C154.53 425.277 183.073 419.434 210.881 416.025C128.466 383.59 39.9986 322.704 -6.23333 265.306C-15.6082 283.437 -53.6902 368.73 17.7061 438.672C55.3063 475.515 132.758 500.934 196.991 510.971L196.995 510.969ZM1268.23 824.071C1264.92 832.626 1258.91 846.462 1253.93 855.748C1257 860.828 1261.09 866.668 1264.67 870.621C1264.23 873.816 1247.68 882.553 1235.99 860.026C1224 857.551 1212.04 853.863 1203.79 850.461C1217.97 878.883 1230.41 902.119 1250.1 914.907C1279.35 933.916 1326.28 929.651 1341.41 908.686C1315.68 894.782 1284.95 859.149 1268.23 824.069L1268.23 824.071ZM1189.27 855.784C1185.45 865.529 1178.73 873.184 1178.73 873.184C1182.59 888.073 1177.45 895.211 1168.14 893.553C1167.49 883.907 1164.22 876.449 1164.22 876.449C1164.22 876.449 1142.54 859.052 1129.23 855.782C1144.71 869.481 1159.19 899.604 1155.51 931.623C1199.95 930.344 1203.23 885.125 1189.27 855.784ZM1342.2 806.273C1354.66 819.55 1374.23 828.897 1374.23 828.897C1374.23 828.897 1369.08 838.815 1356.95 838.815C1352.92 838.815 1348.68 837.67 1344.43 835.274C1336.06 830.586 1325.18 817.91 1325.18 817.91C1309.64 816.342 1295.63 813.504 1281.75 809.126C1306.04 839.812 1346.91 876.363 1389.82 886.92C1396.18 888.485 1402.71 889.28 1409.26 889.288C1448.25 889.288 1479.4 860.653 1488.18 842.451C1443.82 836.074 1380.31 803.228 1346.52 769.42C1346.23 782.933 1344.66 796.487 1342.2 806.273ZM1421.8 744.736C1444.11 755.079 1467.44 761.882 1487.68 764.346C1487.68 764.346 1484.34 783.758 1452.84 779.78C1435.57 777.597 1414.81 764.531 1410.11 761.39C1396.5 763.28 1367.8 762.641 1356.9 760.434C1391.17 784.782 1444.4 812.916 1488.5 817.259C1490.72 817.471 1492.95 817.578 1495.17 817.579C1541.44 817.579 1577.94 770.946 1587.36 748.677C1540.3 748.049 1460.98 729.079 1412.36 702.111C1415.68 713.103 1419.56 728.01 1421.8 744.735V744.736ZM1460.96 621.79C1470.73 633.304 1481.46 647.419 1488.23 659.36C1526.18 667.749 1573.56 665.753 1573.56 665.753C1573.56 665.753 1570.74 685.883 1544.42 687.321C1532.82 687.959 1497.11 681.995 1482.16 677.722C1475.84 680.359 1448.16 687.136 1419.49 690.812C1459.69 705.018 1518.13 719.825 1554.86 719.825C1558.5 719.825 1561.89 719.69 1564.96 719.408C1623.85 714.149 1653.7 660.24 1655.24 628.99C1637.83 632.468 1607.48 634.667 1576.25 634.667C1549.76 634.667 1499.78 632.44 1460.96 621.79H1460.96ZM1704.56 469.139C1652.19 496.752 1559 525.551 1485.99 524.914C1504.47 536.204 1521.99 549.171 1533.34 560.054C1564.1 558.225 1605.72 548.852 1630.19 539.051C1630.69 543.379 1631.1 562.661 1602.8 571.29C1583.55 577.158 1553.58 577.782 1531.5 578.221C1513.83 589.409 1486.65 600.7 1464.62 608.17C1485.02 611.055 1510.09 613.175 1533.87 613.175C1572.83 613.175 1607.72 609.139 1629.59 602.097C1650.37 595.402 1716.54 566.174 1704.56 469.139H1704.56ZM1587.48 176.913C1596.71 183.69 1601.52 203.378 1588.49 225.844C1565.93 264.709 1526.96 298.71 1492.82 325.434C1491.37 350.397 1480.38 379.358 1469.11 400.887C1519.39 367.692 1577.06 316.752 1603.25 282.587C1637.31 238.168 1651.4 193.702 1645.12 150.418C1638.89 107.412 1613.55 76.8932 1598.83 64.7629C1585.76 98.7531 1531.59 185.512 1483.26 237.892C1489 256.839 1492.7 282.029 1493.03 303.931C1534.58 269.661 1580.44 201.32 1587.48 176.913ZM1546.01 433.255C1578.91 419.302 1625.24 387.945 1646.62 366.19C1649.46 369.84 1657.15 388.119 1632.85 408.425C1615.17 423.219 1579.28 439.635 1551.52 450.389C1539.25 468.672 1516.22 489.03 1483 510.971C1547.23 500.936 1624.69 475.515 1662.3 438.674C1733.69 368.733 1695.6 283.439 1686.23 265.309C1640 322.707 1551.53 383.594 1469.11 416.028C1496.92 419.437 1525.47 425.28 1546.01 433.256L1546.01 433.255ZM1353.97 335.065C1327.2 396.952 1259.34 452.128 1215.44 479.753C1195.42 492.351 1202.72 516.244 1209.13 526.847C1268.93 625.864 1160.18 699.66 1061.96 650.587C1083.39 650.822 1105.03 632.669 1108.03 616.493C1101.22 622.358 1073.32 619.135 1065.08 611.543C1077.73 604.945 1080.74 598.258 1081.4 592.005C1065.75 601.578 1034.12 602.897 1024.8 586.724C972.903 585.329 938.381 544.96 934.563 533.311C930.716 545.704 924.501 567.36 922.462 588.733C908.386 579.234 884.35 557.739 871.819 528.588C857.637 548.776 846.941 571.517 839.997 595.48C833.053 571.517 822.365 548.776 808.175 528.588C795.642 557.737 771.605 579.235 757.535 588.734C755.488 567.362 749.284 545.708 745.434 533.314C741.616 544.964 707.094 585.333 655.197 586.727C645.875 602.9 614.249 601.581 598.601 592.007C599.252 598.263 602.264 604.948 614.914 611.544C606.671 619.138 578.782 622.364 571.966 616.496C574.963 632.672 596.603 650.824 618.033 650.59C519.809 699.661 411.061 625.867 470.866 526.85C477.274 516.247 484.58 492.354 464.557 479.755C420.658 452.126 352.795 396.952 326.028 335.063C322.847 360.299 325.272 422.926 352.461 461.895C332.597 469.468 307.121 481.754 289.994 493.149C300.827 505.422 326.048 526.62 342.994 538.145C329.161 550.407 307.688 573.887 296.419 589.258C310.697 597.725 339.467 608.004 361.452 614.938C351.288 631.656 335.661 661.812 331.734 679.76C356.351 683.331 381.482 683.003 403.66 682.305C400.83 703.234 402.691 729.512 404.913 748.658C427.76 745.384 452.893 736.14 469.567 727.387C472.732 741.829 481.449 768.485 489.265 782.755C510.938 762.245 539.527 752.859 565.992 758.293C620.18 769.422 636.288 824.072 636.288 824.072L636.372 657.83V639.27C636.372 628.906 641.964 623.422 651.999 623.425H1028C1038.04 623.422 1043.63 628.907 1043.63 639.269V657.826L1043.71 824.069C1043.71 824.069 1059.82 769.418 1114.01 758.29C1140.47 752.855 1169.07 762.242 1190.74 782.751C1198.56 768.482 1207.27 741.826 1210.44 727.384C1227.11 736.137 1252.24 745.381 1275.09 748.656C1277.31 729.511 1279.17 703.234 1276.35 682.305C1298.27 684.571 1323.49 684.571 1348.27 679.759C1344.35 661.814 1328.71 631.658 1318.55 614.939C1341.41 608.824 1369.3 597.727 1383.58 589.26C1372.32 573.888 1350.84 550.409 1337.01 538.147C1353.95 526.622 1379.17 505.422 1390.01 493.15C1372.88 481.755 1347.4 469.468 1327.54 461.896C1354.73 422.928 1357.16 360.301 1353.97 335.065H1353.97ZM670.593 140.456L668.357 146.29C734.055 146.29 797.21 123.876 814.061 45.8258H763.738C754.807 102.055 721.659 140.456 670.591 140.456H670.593ZM386.56 13.4727C386.56 13.4727 422.496 21.7738 436.558 72.1954C450.625 122.617 485.967 146.733 522.229 146.733L519.997 139.862C498.898 137.244 469.15 107.282 463.585 51.7922C457.974 -4.07202 444.231 -11.2693 444.231 -11.2693C430.033 -21.0601 394.343 4.79987 386.555 13.4742L386.56 13.4727ZM281.443 36.0256C311.418 35.0472 331.588 44.5526 369.26 10.3366C413.732 -30.0747 434.845 -23.1675 434.845 -23.1675C412.15 -37.8882 380.501 -44.43 369.632 -35.9281C358.763 -27.42 344.05 -4.59576 319.325 11.6553C284.48 34.5548 248.691 28.5116 247.09 49.8557H248.059C248.059 49.8557 251.473 37.0135 281.44 36.0256H281.443ZM309.092 169.975C327.313 187.885 328.987 224.686 328.987 224.686C328.987 224.686 350.807 185.678 332.825 144.206C314.849 102.742 278.107 70.9268 314.126 46.7102C292.125 46.8952 268.283 41.8493 257.812 56.7221C254.553 61.3524 251.533 72.8336 262.5 89.1678C276.434 109.925 311.243 158.192 282.72 190.334C303.573 186.497 309.091 169.973 309.091 169.973L309.092 169.975ZM534.136 146.512H657.587C657.587 146.512 660.642 139.042 664.534 128.249H527.195C531.091 139.042 534.136 146.512 534.136 146.512ZM608.009 -28.2683C608.009 -34.9889 602.681 -40.4472 596.113 -40.4472C589.541 -40.4472 584.21 -34.9904 584.21 -28.2683C584.21 -21.5415 589.541 -16.0926 596.113 -16.0926C602.679 -16.0926 608.009 -21.5399 608.009 -28.2683ZM669.669 114.469C674.943 97.9613 680.89 72.854 680.89 60.7394C680.89 38.5988 668.939 14.0873 625.8 6.54196C625.8 33.3004 612.76 98.8613 596.995 98.8613H595.222C579.466 98.8613 566.424 33.7881 566.424 6.53571C523.139 14.0717 510.833 38.5909 510.833 60.7394C510.833 72.8555 516.785 97.9613 522.067 114.469H669.67H669.669ZM596.113 80.4997C604.326 80.4997 610.982 37.6924 610.982 16.3798C610.982 4.7356 604.328 -2.90073 596.115 -2.90073C587.896 -2.90073 581.236 4.7356 581.236 16.3798C581.236 37.6924 587.896 80.4997 596.115 80.4997H596.113ZM588.175 -56.6826H604.043L602.062 -76.9792L621.892 -74.947V-91.1855L602.062 -89.1534L604.043 -109.453H588.175L590.159 -89.1534L570.33 -91.1855V-74.947L590.16 -76.9792L588.176 -56.681L588.175 -56.6826ZM916.255 45.8258H865.933C882.788 123.878 945.94 146.29 1011.64 146.29L1009.41 140.456C958.342 140.456 925.188 102.059 916.257 45.8258H916.255ZM1157.77 146.735C1194.03 146.735 1229.37 122.619 1243.44 72.1954C1257.5 21.7769 1293.44 13.4758 1293.44 13.4758C1285.65 4.8046 1249.97 -21.0569 1235.76 -11.2677C1235.76 -11.2677 1222.02 -4.07047 1216.41 51.7953C1210.85 107.285 1181.1 137.247 1160 139.865L1157.77 146.736V146.735ZM1310.74 10.3382C1348.41 44.5526 1368.58 35.0503 1398.56 36.0272C1428.52 37.0151 1431.93 49.8572 1431.93 49.8572H1432.9C1431.3 28.5132 1395.51 34.5564 1360.67 11.6569C1335.95 -4.59421 1321.23 -27.4184 1310.36 -35.9266C1299.49 -44.43 1267.84 -37.8866 1245.15 -23.1659C1245.15 -23.1659 1266.26 -30.0731 1310.74 10.3382H1310.74ZM1422.18 56.7252C1411.71 41.8524 1387.87 46.8984 1365.87 46.7118C1401.89 70.9268 1365.16 102.742 1347.17 144.206C1329.19 185.68 1351.01 224.686 1351.01 224.686C1351.01 224.686 1352.69 187.885 1370.9 169.975C1370.9 169.975 1376.42 186.498 1397.28 190.335C1368.75 158.196 1403.56 109.927 1417.5 89.1693C1428.46 72.8351 1425.44 61.3525 1422.18 56.7237L1422.18 56.7252ZM1145.86 146.514C1145.86 146.514 1148.9 139.044 1152.8 128.251H1015.46C1019.35 139.044 1022.41 146.514 1022.41 146.514H1145.86ZM1095.78 -28.2667C1095.78 -34.9873 1090.45 -40.4456 1083.88 -40.4456C1077.32 -40.4456 1071.98 -34.9889 1071.98 -28.2667C1071.98 -21.5399 1077.31 -16.091 1083.88 -16.091C1090.45 -16.091 1095.78 -21.5383 1095.78 -28.2667ZM1157.93 114.471C1163.21 97.9628 1169.17 72.8555 1169.17 60.7409C1169.17 38.5925 1156.85 14.0732 1113.57 6.53885C1113.57 33.7865 1100.53 98.8613 1084.77 98.8613H1083C1067.24 98.8613 1054.2 33.302 1054.2 6.54196C1011.05 14.0873 999.108 38.5988 999.108 60.7394C999.108 72.8555 1005.05 97.9613 1010.33 114.469H1157.93L1157.93 114.471ZM1083.88 80.5013C1092.1 80.5013 1098.76 37.694 1098.76 16.3813C1098.76 4.73715 1092.1 -2.89914 1083.88 -2.89914C1075.67 -2.89914 1069.01 4.73715 1069.01 16.3813C1069.01 37.694 1075.67 80.5013 1083.88 80.5013ZM1075.96 -56.681H1091.82L1089.84 -76.9776L1109.67 -74.9454V-91.1839L1089.84 -89.1518L1091.82 -109.452H1075.96L1077.94 -89.1518L1058.1 -91.1839V-74.9454L1077.94 -76.9776L1075.96 -56.6794L1075.96 -56.681ZM268.259 431.207C236.194 431.978 179.729 438.36 151.05 447.452C170.543 470.831 221.445 504.399 251.947 518.656C228.228 527.633 185.682 550.415 167.94 566.857C190.799 580.969 241.007 597.095 264.737 602.367C250.922 613.562 222.473 645.933 212.037 663.388C231.687 669.51 272.09 674.835 297.746 676.34C289.52 693.463 280.152 723.687 277.67 743.38C290.388 744.666 332.874 742.474 353.91 737.76C352.106 754.922 352.792 786.143 355.637 799.603C376.393 796.627 406.028 788.287 419.816 782.963C423.809 798.262 438.081 831.207 443.096 839.036C459.723 835.845 479.573 829.063 494.163 821.427C498.773 833.689 509.252 852.035 512.149 856.667C560.752 807.599 630.157 847.39 630.157 899.607C625.172 934.01 576.532 932.086 550.929 948.257C517.262 969.52 523.087 1018.82 488.435 1026.38C521.178 1047.06 530.705 1008.25 564.714 1007.15C560.176 1028.08 560.607 1065.25 564.015 1080.81C578.012 1070.02 597.642 1061.79 610.486 1060.95C607.313 1073.16 604.836 1101.73 609.428 1119.53C618.45 1112.7 652.145 1083.44 732.148 1102.25C741.847 1104.53 677.881 1102.02 685.863 1122.63C692.15 1138.87 693.929 1150.17 686.411 1173.23C689.802 1174.44 693.737 1175.02 697.976 1175.02C715.915 1175.02 739.174 1164.62 748.413 1148.3C755.552 1153.6 755.552 1191.36 731.632 1200.74C757.184 1202.6 776.642 1181.87 780.418 1169.13C780.418 1169.13 792.908 1198.79 807.72 1208.52C817.021 1205.27 833.593 1189.87 839.998 1173.88C846.396 1189.87 862.971 1205.27 872.267 1208.52C887.081 1198.79 899.573 1169.13 899.573 1169.13C903.349 1181.87 922.813 1202.6 948.364 1200.74C924.442 1191.36 924.442 1153.6 931.579 1148.3C940.822 1164.62 964.078 1175.02 982.021 1175.02C986.257 1175.02 990.196 1174.44 993.589 1173.23C986.071 1150.17 987.849 1138.87 994.136 1122.63C1002.12 1102.02 938.151 1104.53 947.85 1102.25C1027.84 1083.44 1061.55 1112.7 1070.57 1119.53C1075.16 1101.73 1072.69 1073.16 1069.51 1060.95C1082.35 1061.79 1101.98 1070.02 1115.98 1080.81C1119.38 1065.24 1119.82 1028.08 1115.27 1007.15C1149.28 1008.25 1158.81 1047.06 1191.56 1026.38C1156.9 1018.81 1162.73 969.516 1129.06 948.255C1103.46 932.084 1054.82 934.008 1049.83 899.606C1049.83 847.39 1119.24 807.597 1167.84 856.665C1170.74 852.032 1181.21 833.686 1185.83 821.424C1200.41 829.063 1220.27 835.843 1236.9 839.036C1241.91 831.204 1256.18 798.259 1260.17 782.96C1273.96 788.283 1303.6 796.624 1324.35 799.602C1327.2 786.142 1327.89 754.921 1326.08 737.758C1347.11 742.472 1389.6 744.666 1402.31 743.378C1399.84 723.684 1390.47 693.461 1382.24 676.337C1407.9 674.832 1448.3 669.507 1467.96 663.385C1457.51 645.928 1429.07 613.558 1415.26 602.362C1438.98 597.09 1489.19 580.966 1512.05 566.851C1494.31 550.41 1451.76 527.628 1428.04 518.653C1458.55 504.395 1509.44 470.828 1528.94 447.449C1500.26 438.354 1443.79 431.972 1411.73 431.204C1478.1 385.975 1480.15 287.873 1461.03 234.563C1448.18 266.88 1405.57 319.974 1378.06 348.598C1380.5 375.844 1371.63 424.171 1356.41 453.667C1378.2 461.909 1404.02 474.342 1422.32 488.203C1410.18 503.419 1384.06 527.032 1367.68 539.826C1381.54 554.267 1404.86 580.794 1415.25 596.129C1399.89 607.582 1366.49 620.721 1349.36 626.753C1357.79 643.97 1370.03 675.377 1373.19 697.057C1353.69 700.271 1326.84 702.445 1298.78 702.106C1300.14 722.867 1297.21 755.011 1293.58 774.259C1267.55 772.197 1236.83 761.55 1223.14 754.71C1215.89 783.402 1197.99 811.238 1197.21 812.718C1115.83 724.359 1043.71 807.716 1043.71 885.594V991.718C1043.71 1041.91 1027.84 1064.83 982.15 1064.83H923.029C886.223 1064.83 855.382 1080.39 839.994 1110.27C824.603 1080.39 793.762 1064.83 756.957 1064.83H697.832C652.145 1064.83 636.268 1041.91 636.268 991.717V885.592C636.268 807.716 564.149 724.359 482.776 812.718C481.993 811.238 464.086 783.402 456.84 754.71C443.146 761.55 412.433 772.197 386.41 774.26C382.77 755.013 379.844 722.868 381.208 702.111C353.14 702.448 326.294 700.276 306.785 697.062C309.953 675.381 322.194 643.973 330.624 626.756C313.502 620.724 280.092 607.585 264.739 596.132C275.123 580.797 298.44 554.271 312.303 539.827C295.919 527.032 269.806 503.421 257.669 488.203C275.957 474.342 301.785 461.907 323.569 453.666C308.352 424.171 299.475 375.844 301.918 348.597C274.411 319.972 231.801 266.877 218.949 234.562C199.834 287.872 201.881 385.974 268.255 431.201L268.259 431.207ZM85.1047 937.905L79.1214 944.266C79.1214 944.266 91.532 960.425 101.552 954.278C107.257 943.788 91.1179 931.573 91.1179 931.573L85.1031 937.905H85.1047Z" stroke="white" stroke-width="6" mask="url(#path-1-inside-1)"/>
</g>
</svg>
