<svg width="72" height="72" viewBox="0 0 72 72" fill="none" xmlns="http://www.w3.org/2000/svg">
<g opacity="0.2">
<circle r="3" transform="matrix(1 0 0 -1 38 29)" fill="#F1361D"/>
<circle r="3" transform="matrix(1 0 0 -1 50 29)" fill="#F1361D"/>
<circle r="3" transform="matrix(1 0 0 -1 26 29)" fill="#F1361D"/>
<circle r="3" transform="matrix(1 0 0 -1 38 51)" fill="#F1361D"/>
<circle r="3" transform="matrix(1 0 0 -1 44 40)" fill="#F1361D"/>
<circle r="3" transform="matrix(1 0 0 -1 32 40)" fill="#F1361D"/>
</g>
<circle r="3" transform="matrix(1 0 0 -1 36 27)" stroke="#F1361D" stroke-width="2"/>
<circle r="3" transform="matrix(1 0 0 -1 48 27)" stroke="#F1361D" stroke-width="2"/>
<circle r="3" transform="matrix(1 0 0 -1 24 27)" stroke="#F1361D" stroke-width="2"/>
<circle r="3" transform="matrix(1 0 0 -1 36 49)" stroke="#F1361D" stroke-width="2"/>
<path d="M37.5 46.5L40.4118 41M46.5 29.5L43.5882 35" stroke="#F1361D" stroke-width="2"/>
<path d="M34.6112 29.5002L31.5 35.377" stroke="#F1361D" stroke-width="2"/>
<path d="M34.5 46.5L31.5882 41M25.5 29.5L28.4118 35" stroke="#F1361D" stroke-width="2"/>
<path d="M37.6112 29.5L40.5229 35" stroke="#F1361D" stroke-width="2"/>
<circle r="3" transform="matrix(1 0 0 -1 42 38)" stroke="#F1361D" stroke-width="2"/>
<circle r="3" transform="matrix(1 0 0 -1 30 38)" stroke="#F1361D" stroke-width="2"/>
<rect x="1" y="1" width="70" height="70" rx="35" stroke="#FFE9E6" stroke-width="2"/>
</svg>
