<svg width="72" height="72" viewBox="0 0 72 72" fill="none" xmlns="http://www.w3.org/2000/svg">
<path opacity="0.2" d="M25.3812 28.9839C25.5021 27.4011 25.5625 26.6097 26.0861 26.0861C26.6097 25.5625 27.4011 25.5021 28.9839 25.3812C35.6379 24.8729 40.3621 24.8729 47.0161 25.3812C48.5989 25.5021 49.3903 25.5625 49.9138 26.0861C50.4374 26.6097 50.4979 27.4011 50.6188 28.9838C51.1271 35.6379 51.1271 40.3621 50.6188 47.0161C50.4979 48.5989 50.4374 49.3903 49.9138 49.9139C49.3903 50.4374 48.5989 50.4979 47.0161 50.6188C40.3621 51.1271 35.6379 51.1271 28.9838 50.6188C27.4011 50.4979 26.6097 50.4374 26.0861 49.9138C25.5625 49.3903 25.5021 48.5989 25.3812 47.0161C24.8729 40.3621 24.8729 35.6379 25.3812 28.9839Z" fill="#F1361D"/>
<path d="M23.3812 26.9839C23.5021 25.4011 23.5625 24.6097 24.0861 24.0861C24.6097 23.5625 25.4011 23.5021 26.9839 23.3812C33.6379 22.8729 38.3621 22.8729 45.0161 23.3812C46.5989 23.5021 47.3903 23.5625 47.9138 24.0861C48.4374 24.6097 48.4979 25.4011 48.6188 26.9838C49.1271 33.6379 49.1271 38.3621 48.6188 45.0161C48.4979 46.5989 48.4374 47.3903 47.9138 47.9139C47.3903 48.4374 46.5989 48.4979 45.0161 48.6188C38.3621 49.1271 33.6379 49.1271 26.9838 48.6188C25.4011 48.4979 24.6097 48.4374 24.0861 47.9138C23.5625 47.3903 23.5021 46.5989 23.3812 45.0161C22.8729 38.3621 22.8729 33.6379 23.3812 26.9839Z" stroke="#F1361D" stroke-width="2"/>
<path d="M21.0306 22.8148C21.0698 22.0279 21.0894 21.6344 21.3619 21.3619C21.6344 21.0894 22.0279 21.0698 22.8148 21.0306C23.6355 20.9898 24.3645 20.9898 25.1852 21.0306C25.9721 21.0698 26.3656 21.0894 26.6381 21.3619C26.9106 21.6344 26.9302 22.0279 26.9694 22.8148C27.0102 23.6355 27.0102 24.3645 26.9694 25.1852C26.9302 25.9721 26.9106 26.3656 26.6381 26.6381C26.3656 26.9106 25.9721 26.9302 25.1852 26.9694C24.3645 27.0102 23.6355 27.0102 22.8148 26.9694C22.0279 26.9302 21.6344 26.9106 21.3619 26.6381C21.0894 26.3656 21.0698 25.9721 21.0306 25.1852C20.9898 24.3645 20.9898 23.6355 21.0306 22.8148Z" fill="white" stroke="#F1361D" stroke-width="2"/>
<path d="M45.0306 22.8148C45.0698 22.0279 45.0894 21.6344 45.3619 21.3619C45.6344 21.0894 46.0279 21.0698 46.8148 21.0306C47.6355 20.9898 48.3645 20.9898 49.1852 21.0306C49.9721 21.0698 50.3656 21.0894 50.6381 21.3619C50.9106 21.6344 50.9302 22.0279 50.9694 22.8148C51.0102 23.6355 51.0102 24.3645 50.9694 25.1852C50.9302 25.9721 50.9106 26.3656 50.6381 26.6381C50.3656 26.9106 49.9721 26.9302 49.1852 26.9694C48.3645 27.0102 47.6355 27.0102 46.8148 26.9694C46.0279 26.9302 45.6344 26.9106 45.3619 26.6381C45.0894 26.3656 45.0698 25.9721 45.0306 25.1852C44.9898 24.3645 44.9898 23.6355 45.0306 22.8148Z" fill="white" stroke="#F1361D" stroke-width="2"/>
<path d="M45.0306 46.8148C45.0698 46.0279 45.0894 45.6344 45.3619 45.3619C45.6344 45.0894 46.0279 45.0698 46.8148 45.0306C47.6355 44.9898 48.3645 44.9898 49.1852 45.0306C49.9721 45.0698 50.3656 45.0894 50.6381 45.3619C50.9106 45.6344 50.9302 46.0279 50.9694 46.8148C51.0102 47.6355 51.0102 48.3645 50.9694 49.1852C50.9302 49.9721 50.9106 50.3656 50.6381 50.6381C50.3656 50.9106 49.9721 50.9302 49.1852 50.9694C48.3645 51.0102 47.6355 51.0102 46.8148 50.9694C46.0279 50.9302 45.6344 50.9106 45.3619 50.6381C45.0894 50.3656 45.0698 49.9721 45.0306 49.1852C44.9898 48.3645 44.9898 47.6355 45.0306 46.8148Z" fill="white" stroke="#F1361D" stroke-width="2"/>
<path d="M21.0306 46.8148C21.0698 46.0279 21.0894 45.6344 21.3619 45.3619C21.6344 45.0894 22.0279 45.0698 22.8148 45.0306C23.6355 44.9898 24.3645 44.9898 25.1852 45.0306C25.9721 45.0698 26.3656 45.0894 26.6381 45.3619C26.9106 45.6344 26.9302 46.0279 26.9694 46.8148C27.0102 47.6355 27.0102 48.3645 26.9694 49.1852C26.9302 49.9721 26.9106 50.3656 26.6381 50.6381C26.3656 50.9106 25.9721 50.9302 25.1852 50.9694C24.3645 51.0102 23.6355 51.0102 22.8148 50.9694C22.0279 50.9302 21.6344 50.9106 21.3619 50.6381C21.0894 50.3656 21.0698 49.9721 21.0306 49.1852C20.9898 48.3645 20.9898 47.6355 21.0306 46.8148Z" fill="white" stroke="#F1361D" stroke-width="2"/>
<path d="M32 29H33C34.6569 29 36 30.3431 36 32V32" stroke="#F1361D" stroke-width="2" stroke-linecap="round" stroke-linejoin="round"/>
<path d="M40 29H39C37.3431 29 36 30.3431 36 32V32" stroke="#F1361D" stroke-width="2" stroke-linecap="round" stroke-linejoin="round"/>
<path d="M32 43H33C34.6569 43 36 41.6569 36 40V40" stroke="#F1361D" stroke-width="2" stroke-linecap="round" stroke-linejoin="round"/>
<path d="M40 43H39C37.3431 43 36 41.6569 36 40V40" stroke="#F1361D" stroke-width="2" stroke-linecap="round" stroke-linejoin="round"/>
<path d="M36 32V40" stroke="#F1361D" stroke-width="2"/>
<rect x="1" y="1" width="70" height="70" rx="35" stroke="#FFE9E6" stroke-width="2"/>
</svg>
