<svg width="72" height="72" viewBox="0 0 72 72" fill="none" xmlns="http://www.w3.org/2000/svg">
<path opacity="0.2" d="M33.5964 38.7152L25.4099 27.8681C24.6696 26.8872 24.9815 25.474 26.1231 25.0191C32.8795 22.327 42.1205 22.327 48.8769 25.0191C50.0185 25.474 50.3304 26.8872 49.5901 27.8681L41.4036 38.7152C41.1417 39.0623 41 39.4852 41 39.92V51.3333C41 51.7661 40.8669 52.194 40.574 52.5125C39.2386 53.9646 37.2959 54.7809 34.9994 54.9615C34.4488 55.0048 34 54.5523 34 54V39.92C34 39.4852 33.8583 39.0623 33.5964 38.7152Z" fill="#F1361D"/>
<path d="M31.1928 36.1804L24.8198 27.7363C23.4877 25.9713 22.8217 25.0888 23.1506 24.0933C23.4795 23.0979 24.4314 22.8179 26.3351 22.258C32.0377 20.5807 38.9623 20.5807 44.6649 22.258C46.5686 22.8179 47.5205 23.0979 47.8494 24.0933C48.1783 25.0888 47.5123 25.9713 46.1802 27.7363L39.8072 36.1804C39.4072 36.7105 39.2072 36.9755 39.1036 37.2847C39 37.5939 39 37.926 39 38.59V48.6667C39 49.3612 39 49.7084 38.8249 50.0989C38.6498 50.4894 38.4662 50.6529 38.099 50.9799C37.0123 51.9478 35.609 52.5678 33.9916 52.8401C33.1362 52.9841 32.7085 53.0561 32.3543 52.7565C32 52.4569 32 51.9713 32 51V38.59C32 37.926 32 37.5939 31.8964 37.2847C31.7928 36.9755 31.5928 36.7105 31.1928 36.1804Z" stroke="#F1361D" stroke-width="2"/>
<path d="M34 29C34.5523 29 35 28.5523 35 28C35 27.4477 34.5523 27 34 27V29ZM22 24.5C22 25.7786 22.6672 26.7158 23.5912 27.3485C24.4759 27.9543 25.6324 28.3153 26.8091 28.5441C29.1714 29.0034 32.0227 29 34 29V27C31.9773 27 29.3286 26.9966 27.1909 26.5809C26.1176 26.3722 25.2741 26.077 24.7213 25.6984C24.2078 25.3467 24 24.9714 24 24.5H22Z" fill="#F1361D"/>
<path d="M43.1341 28.7166C42.5868 28.7907 42.0831 28.4071 42.009 27.8598C41.935 27.3125 42.3186 26.8088 42.8659 26.7347L43.1341 28.7166ZM49 24.5C49 25.9783 48.1165 26.9761 47.0046 27.5987C45.9278 28.2016 44.5285 28.5279 43.1341 28.7166L42.8659 26.7347C44.1809 26.5567 45.2816 26.2713 46.0274 25.8536C46.7382 25.4556 47 25.0239 47 24.5H49Z" fill="#F1361D"/>
<rect x="1" y="1" width="70" height="70" rx="35" stroke="#FFE9E6" stroke-width="2"/>
</svg>
