<svg width="122" height="17" viewBox="0 0 122 17" fill="none" xmlns="http://www.w3.org/2000/svg">
<path d="M20.9935 0.0546875C18.7207 0.0559342 16.4661 0.464373 14.3342 1.26109C14.2703 1.29075 14.217 1.33976 14.1818 1.40134C14.1465 1.46292 14.131 1.53405 14.1374 1.60491L14.4951 4.01771C14.5061 4.07072 14.5358 4.11789 14.5786 4.15041C14.6028 4.16218 14.6293 4.16828 14.6561 4.16828C14.6829 4.16828 14.7094 4.16218 14.7336 4.15041C15.715 3.8667 16.7099 3.63317 17.7145 3.4507C20.0992 3.04052 21.4227 3.1491 22.0904 3.78849C22.2836 3.99395 22.4225 4.24531 22.4944 4.5194C22.5663 4.79348 22.5689 5.08147 22.5018 5.35681L22.4422 5.81524C22.4422 5.81524 19.5507 6.20732 17.6728 6.56321C16.2637 6.7506 14.9046 7.2158 13.6724 7.93247C11.717 9.22332 11.2341 11.7447 11.6097 13.5422C11.9376 15.1166 13.3088 16.9986 17.9887 16.9986H18.3286C25.4827 16.9986 26.4187 15.762 26.7346 13.1441L27.7183 5.06124C27.8674 3.62563 27.6349 2.55797 26.9194 1.75571C25.9059 0.609631 23.9684 0.0546875 20.9935 0.0546875ZM22.0487 8.94585C22.0487 8.94585 21.9056 10.3091 21.9056 10.3272L21.4823 13.7714H21.4227C20.7572 13.9579 20.0681 14.0433 19.3778 14.0248C18.6067 14.1 17.8369 13.8685 17.2316 13.3794C17.0389 13.1697 16.8904 12.9225 16.795 12.6529C16.6997 12.3833 16.6596 12.0968 16.6771 11.811C16.6771 10.4358 17.4879 9.57317 19.1453 9.25951C20.8027 8.94585 22.1262 8.80108 22.1262 8.80108L22.0487 8.94585Z" fill="#F1361D"/>
<path d="M85.821 0.0546875H85.2963C81.5046 0.0546875 78.9292 1.16457 77.6474 3.33609C76.616 5.06728 76.1212 10.9364 76.1152 10.9967C76.0037 11.9277 76.1015 12.8721 76.4014 13.7594C77.4685 16.6306 81.1708 17.0227 83.2991 16.9986C87.1206 16.9986 89.7021 15.8947 90.96 13.7775C91.3475 13.126 91.9139 11.3044 92.4385 6.36415V6.18923C92.5622 5.30123 92.4993 4.39681 92.2537 3.53515C91.431 0.778527 88.3011 0.127071 85.821 0.0546875ZM86.6973 10.7675V10.852C86.6505 11.6564 86.3448 12.4233 85.8269 13.0355C85.3246 13.5033 84.6674 13.7637 83.9847 13.7654C83.3969 13.8371 82.8012 13.73 82.2737 13.4578C81.9771 13.2691 81.7287 13.0125 81.5485 12.7086C81.3682 12.4046 81.2613 12.062 81.2364 11.7085C81.2006 11.244 81.612 8.37281 81.8326 6.82862L81.9339 6.11684C82.0169 5.25585 82.4222 4.45956 83.0666 3.89104C83.5797 3.49386 84.2092 3.28155 84.8551 3.28784C85.4047 3.25297 85.9523 3.38307 86.4291 3.66182C86.7021 3.86383 86.9232 4.12928 87.0736 4.43581C87.2241 4.74234 87.2995 5.08097 87.2935 5.42316C87.2935 5.72476 87.1027 7.58865 86.6973 10.7675Z" fill="#F1361D"/>
<path d="M75.6793 0.194459H73.4078C72.798 0.177895 72.1942 0.319393 71.6537 0.605506C71.1132 0.891618 70.6539 1.31284 70.3197 1.82913L64.5606 9.06752L64.7156 8.63925L65.7291 0.423675C65.7345 0.39651 65.7329 0.368404 65.7246 0.342016C65.7162 0.315629 65.7014 0.291831 65.6814 0.272875C65.6636 0.252154 65.6416 0.235516 65.617 0.224074C65.5923 0.212632 65.5655 0.206648 65.5383 0.206523H60.8047C60.7403 0.209454 60.6788 0.234274 60.6301 0.276967C60.5815 0.31966 60.5484 0.377728 60.5364 0.441771L58.5571 16.4447C58.5524 16.4965 58.5673 16.5483 58.5989 16.5894C58.6385 16.6195 58.6864 16.6364 58.736 16.6377H61.2101C61.8181 16.6475 62.4186 16.5004 62.9548 16.2101C63.4909 15.9199 63.9451 15.4961 64.2744 14.9789L69.9023 7.57762L69.7175 8.03605L68.6921 16.4205C68.6875 16.4742 68.7024 16.5278 68.7338 16.5713C68.7539 16.5924 68.778 16.6091 68.8046 16.6205C68.8313 16.6319 68.8599 16.6378 68.8888 16.6377H73.6165C73.6817 16.6345 73.7439 16.6088 73.7927 16.5649C73.8415 16.521 73.874 16.4615 73.8848 16.3964L75.8522 0.375419C75.8586 0.351142 75.8587 0.325582 75.8524 0.301256C75.8462 0.276929 75.8338 0.254675 75.8164 0.236683C75.7766 0.207558 75.7284 0.192698 75.6793 0.194459Z" fill="#F1361D"/>
<path d="M109.824 0.062775L105.001 0.665974C104.931 0.676415 104.867 0.708874 104.817 0.75871C104.766 0.808546 104.733 0.873207 104.721 0.943446L104.035 6.54717L104 6.77638H99.3911L100.19 0.243735C100.193 0.217995 100.191 0.19183 100.184 0.166906C100.177 0.141981 100.165 0.118844 100.148 0.0989669C100.129 0.0841038 100.107 0.0732561 100.083 0.0670456C100.06 0.060835 100.035 0.0593838 100.011 0.062775L95.1881 0.665974C95.1184 0.676415 95.0538 0.708874 95.0035 0.75871C94.9531 0.808546 94.9197 0.873207 94.9079 0.943446L93.0359 16.4095C93.0332 16.4366 93.036 16.4639 93.0443 16.4899C93.0525 16.5158 93.0658 16.5398 93.0836 16.5603C93.1014 16.581 93.1234 16.5976 93.148 16.6091C93.1727 16.6205 93.1995 16.6265 93.2266 16.6266H97.9603C98.0274 16.6245 98.0917 16.5986 98.1418 16.5534C98.1919 16.5082 98.2248 16.4465 98.2345 16.3793L98.9976 10.1905V10.1422H103.612L102.843 16.4095C102.84 16.4366 102.843 16.4639 102.851 16.4899C102.86 16.5158 102.873 16.5398 102.891 16.5603C102.908 16.581 102.93 16.5976 102.955 16.6091C102.98 16.6205 103.007 16.6265 103.034 16.6266H104.226C106.408 16.6266 108.012 16.3612 108.352 13.8097L110.027 0.243735C110.033 0.218466 110.033 0.192144 110.026 0.166962C110.02 0.14178 110.008 0.118467 109.991 0.0989669C109.969 0.0788337 109.942 0.0649144 109.912 0.0585705C109.883 0.0522266 109.853 0.0536754 109.824 0.062775Z" fill="#F1361D"/>
<path d="M58.6099 3.67574L59.0153 0.358141C59.018 0.331041 59.0151 0.303675 59.0069 0.277737C58.9987 0.251798 58.9854 0.227839 58.9676 0.207341C58.9489 0.186158 58.9259 0.169276 58.9002 0.157831C58.8745 0.146387 58.8467 0.140644 58.8186 0.140989H40.8797C40.5526 0.158061 40.2448 0.302955 40.0212 0.545133L35.0073 6.76412H34.2919L35.0968 0.237501C35.1019 0.212691 35.1008 0.186973 35.0935 0.162724C35.0862 0.138476 35.073 0.116478 35.055 0.0987652C35.0367 0.0818662 35.0149 0.0693088 34.9912 0.0620051C34.9675 0.0547014 34.9424 0.0528349 34.9179 0.0565412L30.0949 0.659741C30.0252 0.670181 29.9606 0.702641 29.9103 0.752477C29.8599 0.802313 29.8265 0.866973 29.8147 0.937212L27.9129 16.3851C27.9073 16.4118 27.9081 16.4395 27.9154 16.4657C27.9227 16.492 27.9361 16.5161 27.9546 16.5359C27.9736 16.5568 27.9966 16.5735 28.0222 16.5849C28.0479 16.5964 28.0756 16.6023 28.1036 16.6023H32.873C32.9383 16.5991 33.0004 16.5734 33.0492 16.5295C33.098 16.4856 33.1305 16.4262 33.1413 16.361L33.9104 10.1239H34.6496L38.0896 16.3671C38.1314 16.4343 38.1883 16.4906 38.2556 16.5314C38.3229 16.5723 38.3988 16.5966 38.4771 16.6023H43.6102C43.6936 16.6023 43.7771 16.5601 43.7055 16.4153L39.0077 8.48927L42.9067 3.92305H48.5405L47.0084 16.3851C47.0028 16.4118 47.0036 16.4395 47.0109 16.4657C47.0182 16.492 47.0316 16.5161 47.0501 16.5359C47.069 16.5568 47.0921 16.5735 47.1177 16.5849C47.1434 16.5964 47.1711 16.6023 47.1991 16.6023H51.9328C51.9987 16.6014 52.0621 16.5765 52.1113 16.5322C52.1606 16.4879 52.1925 16.4271 52.201 16.361L53.7094 3.92305H58.3357C58.4028 3.92094 58.4671 3.89501 58.5172 3.8498C58.5673 3.80458 58.6002 3.74297 58.6099 3.67574Z" fill="#F1361D"/>
<path d="M121.907 8.44897L117.513 0.60737C117.437 0.485072 117.332 0.383302 117.209 0.310805C117.085 0.238308 116.946 0.197251 116.803 0.191162H112.88C112.606 0.191162 112.469 0.372122 112.6 0.595306L117.012 8.4369L110.633 16.2785C110.46 16.4715 110.543 16.6344 110.824 16.6344H115.349C115.659 16.6204 115.953 16.484 116.165 16.2544L121.823 9.30551C121.922 9.1884 121.983 9.04358 121.997 8.89047C122.012 8.73736 121.981 8.5833 121.907 8.44897Z" fill="#F1361D"/>
<path d="M11.1836 0.191162H6.65859C6.34567 0.203604 6.05014 0.340106 5.83587 0.571178L0.184124 7.52004C0.0816062 7.63871 0.0184211 7.7869 0.00345014 7.94378C-0.0115208 8.10067 0.0224751 8.25835 0.100659 8.39468L4.49447 16.2363C4.56861 16.3604 4.67248 16.4636 4.79649 16.5364C4.92049 16.6091 5.06062 16.649 5.20392 16.6525H9.12079C9.401 16.6525 9.53812 16.4715 9.401 16.2483L4.99526 8.40674L11.3743 0.565146C11.5413 0.347994 11.4578 0.191162 11.1836 0.191162Z" fill="#F1361D"/>
</svg>
