<svg width="97" height="51" viewBox="0 0 97 51" fill="none" xmlns="http://www.w3.org/2000/svg">
<path d="M72.999 1.69593C79.0312 2.65735 84.4685 5.88579 88.2002 10.7216C90.0708 13.123 91.4553 15.8661 92.276 18.7973C93.5248 23.228 93.4836 27.923 92.1573 32.3311C91.2638 35.2725 89.8123 38.0143 87.8819 40.4067C86.9211 41.6026 85.8508 42.7063 84.685 43.7035C84.4047 43.9695 84.0864 44.1785 83.7871 44.4303C83.4879 44.6821 83.1838 44.9053 82.8656 45.1191C82.2433 45.5609 81.6115 45.9837 80.9654 46.3827C79.6671 47.1902 78.3184 47.9137 76.9276 48.5489C74.1277 49.8378 71.1373 50.664 68.0729 50.9953L67.9636 49.765C73.8256 49.2614 79.4595 46.6487 84.1149 42.9957C85.255 42.0536 86.3046 41.0072 87.2501 39.8699C88.1871 38.7234 89.0231 37.498 89.7488 36.2074C90.4484 34.8997 91.0348 33.5345 91.5017 32.1268C92.8713 27.8487 92.9883 23.268 91.839 18.9255C91.0805 16.0261 89.7638 13.3023 87.9627 10.9069C84.331 6.0417 78.9785 2.74696 72.999 1.69593Z" fill="url(#paint0_linear)"/>
<path d="M72.999 1.69593C79.0312 2.65735 84.4685 5.88579 88.2002 10.7216C90.0708 13.123 91.4553 15.8661 92.276 18.7973C93.5248 23.228 93.4836 27.923 92.1573 32.3311C91.2638 35.2725 89.8123 38.0143 87.8819 40.4067C86.9211 41.6026 85.8508 42.7063 84.685 43.7035C84.4047 43.9695 84.0864 44.1785 83.7871 44.4303C83.4879 44.6821 83.1838 44.9053 82.8656 45.1191C82.2433 45.5609 81.6115 45.9837 80.9654 46.3827C79.6671 47.1902 78.3184 47.9137 76.9276 48.5489C74.1277 49.8378 71.1373 50.664 68.0729 50.9953L67.9636 49.765C73.8256 49.2614 79.4595 46.6487 84.1149 42.9957C85.255 42.0536 86.3046 41.0072 87.2501 39.8699C88.1871 38.7234 89.0231 37.498 89.7488 36.2074C90.4484 34.8997 91.0348 33.5345 91.5017 32.1268C92.8713 27.8487 92.9883 23.268 91.839 18.9255C91.0805 16.0261 89.7638 13.3023 87.9627 10.9069C84.331 6.0417 78.9785 2.74696 72.999 1.69593Z" fill="#FDC33E"/>
<path d="M79.3744 47.3943C79.5903 47.1851 79.8476 47.0233 80.1298 46.9193C80.4733 46.7975 80.839 46.7509 81.2021 46.7829C81.5652 46.8149 81.9172 46.9246 82.2342 47.1046C82.971 47.53 83.6167 48.0966 84.1343 48.7719C83.9176 48.8739 83.6956 48.9643 83.4693 49.0427C82.9774 49.2154 82.4645 49.3209 81.9444 49.3562C80.8091 49.3895 79.6452 48.9667 79.3744 47.3943Z" fill="url(#paint1_linear)"/>
<path d="M79.3744 47.3943C79.5903 47.1851 79.8476 47.0233 80.1298 46.9193C80.4733 46.7975 80.839 46.7509 81.2021 46.7829C81.5652 46.8149 81.9172 46.9246 82.2342 47.1046C82.971 47.53 83.6167 48.0966 84.1343 48.7719C83.9176 48.8739 83.6956 48.9643 83.4693 49.0427C82.9774 49.2154 82.4645 49.3209 81.9444 49.3562C80.8091 49.3895 79.6452 48.9667 79.3744 47.3943Z" fill="#FDC33E"/>
<path d="M78.8519 46.4111C79.144 46.3557 79.4171 46.2265 79.6452 46.0358C79.9157 45.8048 80.1246 45.5103 80.2531 45.1786C80.3817 44.847 80.4258 44.4886 80.3815 44.1356C80.2713 43.2971 79.9934 42.4893 79.5644 41.7604C79.4199 41.8947 79.2834 42.0374 79.1559 42.188C78.8662 42.5137 78.6159 42.8725 78.4101 43.2568C77.9636 44.1309 77.7023 45.2805 78.8519 46.4111Z" fill="url(#paint2_linear)"/>
<path d="M78.8519 46.4111C79.144 46.3557 79.4171 46.2265 79.6452 46.0358C79.9157 45.8048 80.1246 45.5103 80.2531 45.1786C80.3817 44.847 80.4258 44.4886 80.3815 44.1356C80.2713 43.2971 79.9934 42.4893 79.5644 41.7604C79.4199 41.8947 79.2834 42.0374 79.1559 42.188C78.8662 42.5137 78.6159 42.8725 78.4101 43.2568C77.9636 44.1309 77.7023 45.2805 78.8519 46.4111Z" fill="#FDC33E"/>
<path d="M82.7185 45.3185C82.7699 45.2474 82.8288 45.1821 82.8942 45.1238C83.0545 44.9803 83.2296 44.8545 83.4168 44.7485C83.7427 44.5867 84.0979 44.4923 84.4611 44.4711C84.8244 44.4499 85.1882 44.5022 85.5307 44.625C86.3112 44.9193 87.0251 45.3667 87.6303 45.9408C87.6303 45.9408 87.3738 46.1166 86.9843 46.3303C86.506 46.5904 85.9923 46.7793 85.4594 46.8909C85.1774 46.9535 84.8883 46.979 84.5996 46.9669C84.3264 46.948 84.0591 46.8787 83.8111 46.7626C83.5337 46.6173 83.292 46.4125 83.1031 46.1629C82.9142 45.9132 82.7829 45.6249 82.7185 45.3185Z" fill="url(#paint3_linear)"/>
<path d="M82.7185 45.3185C82.7699 45.2474 82.8288 45.1821 82.8942 45.1238C83.0545 44.9803 83.2296 44.8545 83.4168 44.7485C83.7427 44.5867 84.0979 44.4923 84.4611 44.4711C84.8244 44.4499 85.1882 44.5022 85.5307 44.625C86.3112 44.9193 87.0251 45.3667 87.6303 45.9408C87.6303 45.9408 87.3738 46.1166 86.9843 46.3303C86.506 46.5904 85.9923 46.7793 85.4594 46.8909C85.1774 46.9535 84.8883 46.979 84.5996 46.9669C84.3264 46.948 84.0591 46.8787 83.8111 46.7626C83.5337 46.6173 83.292 46.4125 83.1031 46.1629C82.9142 45.9132 82.7829 45.6249 82.7185 45.3185Z" fill="#FDC33E"/>
<path d="M82.1196 44.4349C82.2017 44.4112 82.2812 44.3793 82.3571 44.3399C82.5484 44.2538 82.7211 44.1312 82.8654 43.9789C83.1047 43.7257 83.276 43.4161 83.3632 43.0788C83.4504 42.7415 83.4508 42.3877 83.3642 42.0502C83.1436 41.2587 82.762 40.5212 82.2431 39.8841C82.1271 40.0256 82.0208 40.1748 81.9248 40.3306C81.7053 40.6763 81.5191 41.0422 81.369 41.4232C81.2839 41.652 81.2233 41.8893 81.1885 42.131C81.1385 42.3828 81.1288 42.641 81.16 42.8958C81.2075 43.2039 81.317 43.4992 81.482 43.7638C81.6469 44.0283 81.8638 44.2566 82.1196 44.4349Z" fill="url(#paint4_linear)"/>
<path d="M82.1196 44.4349C82.2017 44.4112 82.2812 44.3793 82.3571 44.3399C82.5484 44.2538 82.7211 44.1312 82.8654 43.9789C83.1047 43.7257 83.276 43.4161 83.3632 43.0788C83.4504 42.7415 83.4508 42.3877 83.3642 42.0502C83.1436 41.2587 82.762 40.5212 82.2431 39.8841C82.1271 40.0256 82.0208 40.1748 81.9248 40.3306C81.7053 40.6763 81.5191 41.0422 81.369 41.4232C81.2839 41.652 81.2233 41.8893 81.1885 42.131C81.1385 42.3828 81.1288 42.641 81.16 42.8958C81.2075 43.2039 81.317 43.4992 81.482 43.7638C81.6469 44.0283 81.8638 44.2566 82.1196 44.4349Z" fill="#FDC33E"/>
<path d="M85.7921 42.8387C85.9433 42.5751 86.149 42.3468 86.3954 42.1689C86.687 41.9592 87.0171 41.8093 87.3669 41.7277C87.7167 41.6462 88.0791 41.6347 88.4333 41.6939C88.9644 41.7764 89.4781 41.9466 89.9535 42.1974C90.1991 42.3206 90.4371 42.4586 90.666 42.6107C90.4893 42.7843 90.2986 42.9432 90.096 43.0857C89.669 43.4128 89.201 43.6827 88.7041 43.8886C87.5973 44.3018 86.3954 44.2638 85.7921 42.8387Z" fill="url(#paint5_linear)"/>
<path d="M85.7921 42.8387C85.9433 42.5751 86.149 42.3468 86.3954 42.1689C86.687 41.9592 87.0171 41.8093 87.3669 41.7277C87.7167 41.6462 88.0791 41.6347 88.4333 41.6939C88.9644 41.7764 89.4781 41.9466 89.9535 42.1974C90.1991 42.3206 90.4371 42.4586 90.666 42.6107C90.4893 42.7843 90.2986 42.9432 90.096 43.0857C89.669 43.4128 89.201 43.6827 88.7041 43.8886C87.5973 44.3018 86.3954 44.2638 85.7921 42.8387Z" fill="#FDC33E"/>
<path d="M85.0779 42.0835C85.3363 41.9428 85.5603 41.7465 85.7335 41.5087C85.9328 41.2267 86.057 40.8986 86.0944 40.5554C86.1318 40.2122 86.0812 39.865 85.9473 39.5468C85.7576 39.0597 85.4771 38.6132 85.1207 38.2309C84.9422 38.0207 84.7502 37.8224 84.5459 37.6371L84.2989 38.1122C84.1265 38.4878 83.9958 38.8813 83.9094 39.2855C83.7387 39.8146 83.7627 40.3873 83.977 40.9003C84.1912 41.4133 84.5817 41.8329 85.0779 42.0835Z" fill="url(#paint6_linear)"/>
<path d="M85.0779 42.0835C85.3363 41.9428 85.5603 41.7465 85.7335 41.5087C85.9328 41.2267 86.057 40.8986 86.0944 40.5554C86.1318 40.2122 86.0812 39.865 85.9473 39.5468C85.7576 39.0597 85.4771 38.6132 85.1207 38.2309C84.9422 38.0207 84.7502 37.8224 84.5459 37.6371L84.2989 38.1122C84.1265 38.4878 83.9958 38.8813 83.9094 39.2855C83.7387 39.8146 83.7627 40.3873 83.977 40.9003C84.1912 41.4133 84.5817 41.8329 85.0779 42.0835Z" fill="#FDC33E"/>
<path d="M88.4231 39.8888C88.4546 39.8067 88.4927 39.7272 88.5371 39.6513C88.6473 39.4657 88.7745 39.2908 88.9171 39.1287C89.1635 38.8726 89.4584 38.668 89.7846 38.5269C90.1108 38.3858 90.4619 38.311 90.8173 38.3069C91.6082 38.3141 92.3886 38.4889 93.1069 38.82C92.6433 39.4544 92.0629 39.9945 91.3968 40.4113C90.9393 40.7279 90.3895 40.8833 89.8339 40.8531C89.5391 40.8159 89.2574 40.7091 89.012 40.5414C88.7667 40.3737 88.5648 40.15 88.4231 39.8888Z" fill="url(#paint7_linear)"/>
<path d="M88.4231 39.8888C88.4546 39.8067 88.4927 39.7272 88.5371 39.6513C88.6473 39.4657 88.7745 39.2908 88.9171 39.1287C89.1635 38.8726 89.4584 38.668 89.7846 38.5269C90.1108 38.3858 90.4619 38.311 90.8173 38.3069C91.6082 38.3141 92.3886 38.4889 93.1069 38.82C92.6433 39.4544 92.0629 39.9945 91.3968 40.4113C90.9393 40.7279 90.3895 40.8833 89.8339 40.8531C89.5391 40.8159 89.2574 40.7091 89.012 40.5414C88.7667 40.3737 88.5648 40.15 88.4231 39.8888Z" fill="#FDC33E"/>
<path d="M87.6197 39.2759C87.6902 39.2292 87.7555 39.1751 87.8145 39.1144C87.9687 38.9715 88.0945 38.8006 88.185 38.6109C88.3337 38.304 88.4041 37.9652 88.39 37.6245C88.3759 37.2839 88.2777 36.952 88.1042 36.6585C87.6862 36.0003 87.1283 35.4424 86.4701 35.0244C86.4027 35.1961 86.3472 35.3723 86.3039 35.5516C86.1937 35.9494 86.1205 36.3565 86.0853 36.7677C86.0457 37.2538 86.1222 37.7423 86.3086 38.1929C86.44 38.4545 86.6245 38.6859 86.8502 38.8724C87.0759 39.0589 87.338 39.1963 87.6197 39.2759Z" fill="url(#paint8_linear)"/>
<path d="M87.6197 39.2759C87.6902 39.2292 87.7555 39.1751 87.8145 39.1144C87.9687 38.9715 88.0945 38.8006 88.185 38.6109C88.3337 38.304 88.4041 37.9652 88.39 37.6245C88.3759 37.2839 88.2777 36.952 88.1042 36.6585C87.6862 36.0003 87.1283 35.4424 86.4701 35.0244C86.4027 35.1961 86.3472 35.3723 86.3039 35.5516C86.1937 35.9494 86.1205 36.3565 86.0853 36.7677C86.0457 37.2538 86.1222 37.7423 86.3086 38.1929C86.44 38.4545 86.6245 38.6859 86.8502 38.8724C87.0759 39.0589 87.338 39.1963 87.6197 39.2759Z" fill="#FDC33E"/>
<path d="M90.556 36.5635C90.6159 36.2655 90.7354 35.9827 90.9075 35.7321C91.312 35.1483 91.9264 34.7433 92.6224 34.6016C93.3831 34.475 94.1621 34.5123 94.9073 34.7108L94.8171 34.8961C94.7506 35.0101 94.6508 35.1716 94.5273 35.3711C94.2429 35.8092 93.9046 36.2098 93.5202 36.5635C92.6129 37.3188 91.5203 37.675 90.556 36.5635Z" fill="url(#paint9_linear)"/>
<path d="M90.556 36.5635C90.6159 36.2655 90.7354 35.9827 90.9075 35.7321C91.312 35.1483 91.9264 34.7433 92.6224 34.6016C93.3831 34.475 94.1621 34.5123 94.9073 34.7108L94.8171 34.8961C94.7506 35.0101 94.6508 35.1716 94.5273 35.3711C94.2429 35.8092 93.9046 36.2098 93.5202 36.5635C92.6129 37.3188 91.5203 37.675 90.556 36.5635Z" fill="#FDC33E"/>
<path d="M89.6908 36.1027C89.8879 35.8844 90.0368 35.627 90.1278 35.3473C90.2306 35.0256 90.2514 34.6833 90.1884 34.3515C90.1253 34.0196 89.9804 33.7088 89.7668 33.4472C89.2734 32.8754 88.656 32.4237 87.9617 32.1266V32.2786C87.9617 32.3736 87.9142 32.5066 87.8904 32.6729C87.8406 33.0827 87.8326 33.4965 87.8666 33.908C87.9094 34.8058 88.2942 35.8699 89.6908 36.1027Z" fill="url(#paint10_linear)"/>
<path d="M89.6908 36.1027C89.8879 35.8844 90.0368 35.627 90.1278 35.3473C90.2306 35.0256 90.2514 34.6833 90.1884 34.3515C90.1253 34.0196 89.9804 33.7088 89.7668 33.4472C89.2734 32.8754 88.656 32.4237 87.9617 32.1266V32.2786C87.9617 32.3736 87.9142 32.5066 87.8904 32.6729C87.8406 33.0827 87.8326 33.4965 87.8666 33.908C87.9094 34.8058 88.2942 35.8699 89.6908 36.1027Z" fill="#FDC33E"/>
<path d="M92.0944 32.9342C92.101 32.8463 92.1137 32.759 92.1324 32.6729C92.1784 32.4631 92.2436 32.258 92.3272 32.0601C92.6132 31.4164 93.1428 30.9125 93.7998 30.6587C94.5014 30.4033 95.2512 30.3075 95.9945 30.3785C95.9945 30.3785 95.9042 30.673 95.7379 31.0768C95.5284 31.5636 95.2553 32.0204 94.9256 32.4354C94.6139 32.8822 94.1655 33.2156 93.6478 33.3854C93.3718 33.4464 93.0849 33.4371 92.8134 33.3582C92.542 33.2794 92.2948 33.1335 92.0944 32.9342Z" fill="url(#paint11_linear)"/>
<path d="M92.0944 32.9342C92.101 32.8463 92.1137 32.759 92.1324 32.6729C92.1784 32.4631 92.2436 32.258 92.3272 32.0601C92.6132 31.4164 93.1428 30.9125 93.7998 30.6587C94.5014 30.4033 95.2512 30.3075 95.9945 30.3785C95.9945 30.3785 95.9042 30.673 95.7379 31.0768C95.5284 31.5636 95.2553 32.0204 94.9256 32.4354C94.6139 32.8822 94.1655 33.2156 93.6478 33.3854C93.3718 33.4464 93.0849 33.4371 92.8134 33.3582C92.542 33.2794 92.2948 33.1335 92.0944 32.9342Z" fill="#FDC33E"/>
<path d="M91.2073 32.6302C91.2545 32.5601 91.2974 32.4871 91.3355 32.4117C91.4341 32.2268 91.4984 32.0257 91.5256 31.8179C91.5713 31.4873 91.5374 31.1506 91.4267 30.8358C91.3159 30.521 91.1316 30.2372 90.889 30.008C90.3297 29.5287 89.6659 29.1871 88.9509 29.0104C88.9407 29.1956 88.9407 29.3811 88.9509 29.5662C88.9637 29.977 89.0146 30.3857 89.1029 30.7871C89.1988 31.2471 89.4041 31.6773 89.7014 32.0412C89.8937 32.2441 90.1283 32.4021 90.3885 32.5039C90.6488 32.6057 90.9284 32.6488 91.2073 32.6302Z" fill="url(#paint12_linear)"/>
<path d="M91.2073 32.6302C91.2545 32.5601 91.2974 32.4871 91.3355 32.4117C91.4341 32.2268 91.4984 32.0257 91.5256 31.8179C91.5713 31.4873 91.5374 31.1506 91.4267 30.8358C91.3159 30.521 91.1316 30.2372 90.889 30.008C90.3297 29.5287 89.6659 29.1871 88.9509 29.0104C88.9407 29.1956 88.9407 29.3811 88.9509 29.5662C88.9637 29.977 89.0146 30.3857 89.1029 30.7871C89.1988 31.2471 89.4041 31.6773 89.7014 32.0412C89.8937 32.2441 90.1283 32.4021 90.3885 32.5039C90.6488 32.6057 90.9284 32.6488 91.2073 32.6302Z" fill="#FDC33E"/>
<path d="M93.0454 29.1055C93.0095 28.8031 93.0321 28.4967 93.1119 28.2029C93.1886 27.9131 93.3139 27.6385 93.4824 27.3906C93.6946 27.0653 93.973 26.7885 94.2995 26.5783C94.9332 26.2137 95.6413 25.9976 96.3706 25.9465C96.3706 25.9465 96.3231 26.2505 96.2186 26.6733C96.1003 27.1853 95.9133 27.6791 95.6628 28.1411C95.4246 28.6143 95.053 29.0073 94.594 29.2717C94.3435 29.38 94.0692 29.4215 93.7978 29.3924C93.5264 29.3633 93.2672 29.2644 93.0454 29.1055Z" fill="url(#paint13_linear)"/>
<path d="M93.0454 29.1055C93.0095 28.8031 93.0321 28.4967 93.1119 28.2029C93.1886 27.9131 93.3139 27.6385 93.4824 27.3906C93.6946 27.0653 93.973 26.7885 94.2995 26.5783C94.9332 26.2137 95.6413 25.9976 96.3706 25.9465C96.3706 25.9465 96.3231 26.2505 96.2186 26.6733C96.1003 27.1853 95.9133 27.6791 95.6628 28.1411C95.4246 28.6143 95.053 29.0073 94.594 29.2717C94.3435 29.38 94.0692 29.4215 93.7978 29.3924C93.5264 29.3633 93.2672 29.2644 93.0454 29.1055Z" fill="#FDC33E"/>
<path d="M92.1522 28.9581C92.2616 28.6864 92.3165 28.3959 92.3137 28.103C92.3201 27.8166 92.2616 27.5324 92.1427 27.2717C91.9772 26.935 91.7327 26.6433 91.4301 26.4214C90.8287 26.0408 90.1442 25.8111 89.435 25.7516C89.4501 25.9365 89.4755 26.1205 89.511 26.3026C89.5934 26.7069 89.7078 27.104 89.853 27.4902C90.0053 27.9323 90.2725 28.3258 90.6273 28.6303C90.8396 28.7977 91.0874 28.9142 91.3518 28.971C91.6161 29.0278 91.8899 29.0234 92.1522 28.9581Z" fill="url(#paint14_linear)"/>
<path d="M92.1522 28.9581C92.2616 28.6864 92.3165 28.3959 92.3137 28.103C92.3201 27.8166 92.2616 27.5324 92.1427 27.2717C91.9772 26.935 91.7327 26.6433 91.4301 26.4214C90.8287 26.0408 90.1442 25.8111 89.435 25.7516C89.4501 25.9365 89.4755 26.1205 89.511 26.3026C89.5934 26.7069 89.7078 27.104 89.853 27.4902C90.0053 27.9323 90.2725 28.3258 90.6273 28.6303C90.8396 28.7977 91.0874 28.9142 91.3518 28.971C91.6161 29.0278 91.8899 29.0234 92.1522 28.9581Z" fill="#FDC33E"/>
<path d="M93.35 25.1722C93.2764 24.8789 93.2571 24.5746 93.293 24.2744C93.3416 23.5857 93.6569 22.9432 94.1718 22.4835C94.5144 22.1692 94.9144 21.924 95.3499 21.7614C95.5675 21.6723 95.7914 21.5992 96.0197 21.5429C96.0387 21.7864 96.0387 22.031 96.0197 22.2745C95.9713 22.7915 95.871 23.3023 95.7205 23.7993C95.3404 24.8682 94.5946 25.6947 93.35 25.1722Z" fill="url(#paint15_linear)"/>
<path d="M93.35 25.1722C93.2764 24.8789 93.2571 24.5746 93.293 24.2744C93.3416 23.5857 93.6569 22.9432 94.1718 22.4835C94.5144 22.1692 94.9144 21.924 95.3499 21.7614C95.5675 21.6723 95.7914 21.5992 96.0197 21.5429C96.0387 21.7864 96.0387 22.031 96.0197 22.2745C95.9713 22.7915 95.871 23.3023 95.7205 23.7993C95.3404 24.8682 94.5946 25.6947 93.35 25.1722Z" fill="#FDC33E"/>
<path d="M92.4658 25.1768C92.5325 24.8903 92.5454 24.5939 92.5038 24.3027C92.4462 23.9815 92.3162 23.6777 92.1236 23.4143C91.931 23.1509 91.6809 22.9348 91.3923 22.7826C90.979 22.5779 90.5276 22.4614 90.0669 22.4405C89.8328 22.4248 89.5979 22.4248 89.3638 22.4405C89.3638 22.4405 89.4304 22.6591 89.5444 22.9726C89.6687 23.3727 89.8392 23.7569 90.0527 24.1174C90.4992 24.8727 91.2165 25.6423 92.4658 25.1768Z" fill="url(#paint16_linear)"/>
<path d="M92.4658 25.1768C92.5325 24.8903 92.5454 24.5939 92.5038 24.3027C92.4462 23.9815 92.3162 23.6777 92.1236 23.4143C91.931 23.1509 91.6809 22.9348 91.3923 22.7826C90.979 22.5779 90.5276 22.4614 90.0669 22.4405C89.8328 22.4248 89.5979 22.4248 89.3638 22.4405C89.3638 22.4405 89.4304 22.6591 89.5444 22.9726C89.6687 23.3727 89.8392 23.7569 90.0527 24.1174C90.4992 24.8727 91.2165 25.6423 92.4658 25.1768Z" fill="#FDC33E"/>
<path d="M93.0115 21.2674C92.9 20.9851 92.8342 20.6869 92.8168 20.3838C92.7382 19.7045 92.9311 19.0215 93.3536 18.4837C93.6329 18.1244 93.9779 17.8214 94.3701 17.5906C94.5624 17.4686 94.7642 17.3622 94.9734 17.2723L95.0162 17.4719C95.0515 17.6441 95.0737 17.8188 95.0827 17.9944C95.1215 18.5123 95.1072 19.0328 95.0399 19.5478C94.993 20.0653 94.7797 20.5536 94.4319 20.9396C94.2465 21.1171 94.0168 21.2412 93.7668 21.2989C93.5168 21.3566 93.2558 21.3457 93.0115 21.2674Z" fill="url(#paint17_linear)"/>
<path d="M93.0115 21.2674C92.9 20.9851 92.8342 20.6869 92.8168 20.3838C92.7382 19.7045 92.9311 19.0215 93.3536 18.4837C93.6329 18.1244 93.9779 17.8214 94.3701 17.5906C94.5624 17.4686 94.7642 17.3622 94.9734 17.2723L95.0162 17.4719C95.0515 17.6441 95.0737 17.8188 95.0827 17.9944C95.1215 18.5123 95.1072 19.0328 95.0399 19.5478C94.993 20.0653 94.7797 20.5536 94.4319 20.9396C94.2465 21.1171 94.0168 21.2412 93.7668 21.2989C93.5168 21.3566 93.2558 21.3457 93.0115 21.2674Z" fill="#FDC33E"/>
<path d="M92.1611 21.3909C92.2109 20.9166 92.0966 20.4396 91.8372 20.0393C91.5779 19.6391 91.1892 19.3398 90.736 19.1914C90.3147 19.0483 89.8668 19.0013 89.4249 19.0537C89.1981 19.0723 88.9728 19.1056 88.7504 19.1534L88.8216 19.2912C88.8691 19.3815 88.9356 19.505 89.0069 19.6522C89.1883 20.0232 89.4114 20.3722 89.6719 20.6926C89.9422 21.0541 90.2937 21.347 90.698 21.5476C90.9357 21.6453 91.194 21.6822 91.4494 21.6548C91.7049 21.6274 91.9496 21.5367 92.1611 21.3909Z" fill="url(#paint18_linear)"/>
<path d="M92.1611 21.3909C92.2109 20.9166 92.0966 20.4396 91.8372 20.0393C91.5779 19.6391 91.1892 19.3398 90.736 19.1914C90.3147 19.0483 89.8668 19.0013 89.4249 19.0537C89.1981 19.0723 88.9728 19.1056 88.7504 19.1534L88.8216 19.2912C88.8691 19.3815 88.9356 19.505 89.0069 19.6522C89.1883 20.0232 89.4114 20.3722 89.6719 20.6926C89.9422 21.0541 90.2937 21.347 90.698 21.5476C90.9357 21.6453 91.194 21.6822 91.4494 21.6548C91.7049 21.6274 91.9496 21.5367 92.1611 21.3909Z" fill="#FDC33E"/>
<path d="M92.0514 17.434C91.8923 17.1758 91.7812 16.8909 91.7236 16.5931C91.5308 15.9476 91.5973 15.2523 91.9089 14.655C92.1124 14.262 92.3898 13.912 92.7259 13.6242C92.8887 13.4768 93.0634 13.3433 93.2485 13.2251L93.3197 13.4151C93.3865 13.5777 93.4374 13.7463 93.4717 13.9187C93.5989 14.418 93.6753 14.9289 93.6997 15.4435C93.7409 15.9541 93.6195 16.4645 93.353 16.9019C93.2097 17.1059 93.0109 17.2645 92.7802 17.3588C92.5495 17.4531 92.2965 17.4792 92.0514 17.434Z" fill="url(#paint19_linear)"/>
<path d="M92.0514 17.434C91.8923 17.1758 91.7812 16.8909 91.7236 16.5931C91.5308 15.9476 91.5973 15.2523 91.9089 14.655C92.1124 14.262 92.3898 13.912 92.7259 13.6242C92.8887 13.4768 93.0634 13.3433 93.2485 13.2251L93.3197 13.4151C93.3865 13.5777 93.4374 13.7463 93.4717 13.9187C93.5989 14.418 93.6753 14.9289 93.6997 15.4435C93.7409 15.9541 93.6195 16.4645 93.353 16.9019C93.2097 17.1059 93.0109 17.2645 92.7802 17.3588C92.5495 17.4531 92.2965 17.4792 92.0514 17.434Z" fill="#FDC33E"/>
<path d="M91.265 17.6997C91.2412 17.4063 91.1639 17.1197 91.0369 16.8541C90.8816 16.5744 90.6688 16.3307 90.4126 16.1391C90.1563 15.9475 89.8624 15.8124 89.5501 15.7426C89.1267 15.6675 88.692 15.687 88.277 15.7996C88.0619 15.8511 87.8508 15.9177 87.6452 15.9991L87.7402 16.1273C87.8019 16.2033 87.8827 16.3221 87.973 16.4599C88.2112 16.7957 88.4852 17.1047 88.79 17.3814C89.1044 17.6971 89.4884 17.9346 89.9111 18.075C90.15 18.1347 90.4002 18.1315 90.6375 18.0658C90.8748 18 91.0909 17.8739 91.265 17.6997Z" fill="url(#paint20_linear)"/>
<path d="M91.265 17.6997C91.2412 17.4063 91.1639 17.1197 91.0369 16.8541C90.8816 16.5744 90.6688 16.3307 90.4126 16.1391C90.1563 15.9475 89.8624 15.8124 89.5501 15.7426C89.1267 15.6675 88.692 15.687 88.277 15.7996C88.0619 15.8511 87.8508 15.9177 87.6452 15.9991L87.7402 16.1273C87.8019 16.2033 87.8827 16.3221 87.973 16.4599C88.2112 16.7957 88.4852 17.1047 88.79 17.3814C89.1044 17.6971 89.4884 17.9346 89.9111 18.075C90.15 18.1347 90.4002 18.1315 90.6375 18.0658C90.8748 18 91.0909 17.8739 91.265 17.6997Z" fill="#FDC33E"/>
<path d="M90.485 13.8284C90.2845 13.5987 90.1239 13.3369 90.01 13.0541C89.714 12.4548 89.6563 11.7656 89.8485 11.1254C89.9757 10.7174 90.1787 10.337 90.447 10.0043C90.5774 9.83407 90.722 9.67516 90.8793 9.5293C90.8793 9.5293 90.9173 9.5863 90.9838 9.70031C91.0742 9.85202 91.1521 10.0109 91.2166 10.1753C91.4202 10.6439 91.5792 11.1306 91.6916 11.629C91.8197 12.119 91.7932 12.6367 91.6156 13.1111C91.5165 13.327 91.357 13.5097 91.1564 13.637C90.9558 13.7643 90.7226 13.8308 90.485 13.8284Z" fill="url(#paint21_linear)"/>
<path d="M90.485 13.8284C90.2845 13.5987 90.1239 13.3369 90.01 13.0541C89.714 12.4548 89.6563 11.7656 89.8485 11.1254C89.9757 10.7174 90.1787 10.337 90.447 10.0043C90.5774 9.83407 90.722 9.67516 90.8793 9.5293C90.8793 9.5293 90.9173 9.5863 90.9838 9.70031C91.0742 9.85202 91.1521 10.0109 91.2166 10.1753C91.4202 10.6439 91.5792 11.1306 91.6916 11.629C91.8197 12.119 91.7932 12.6367 91.6156 13.1111C91.5165 13.327 91.357 13.5097 91.1564 13.637C90.9558 13.7643 90.7226 13.8308 90.485 13.8284Z" fill="#FDC33E"/>
<path d="M89.7789 14.2036C89.7029 13.9203 89.5792 13.6521 89.4132 13.4103C89.219 13.1594 88.9746 12.9517 88.6958 12.8003C88.4169 12.649 88.1095 12.5575 87.7933 12.5315C87.3748 12.5188 86.9589 12.6017 86.5772 12.7738C86.3812 12.8529 86.1921 12.9482 86.0119 13.0588L86.1211 13.168C86.1972 13.2345 86.2969 13.3343 86.4109 13.4578C86.6973 13.7565 87.016 14.0226 87.361 14.2511C87.7133 14.5133 88.1213 14.6905 88.5533 14.7689C88.7894 14.7921 89.0274 14.7519 89.2428 14.6526C89.4583 14.5532 89.6433 14.3983 89.7789 14.2036Z" fill="url(#paint22_linear)"/>
<path d="M89.7789 14.2036C89.7029 13.9203 89.5792 13.6521 89.4132 13.4103C89.219 13.1594 88.9746 12.9517 88.6958 12.8003C88.4169 12.649 88.1095 12.5575 87.7933 12.5315C87.3748 12.5188 86.9589 12.6017 86.5772 12.7738C86.3812 12.8529 86.1921 12.9482 86.0119 13.0588L86.1211 13.168C86.1972 13.2345 86.2969 13.3343 86.4109 13.4578C86.6973 13.7565 87.016 14.0226 87.361 14.2511C87.7133 14.5133 88.1213 14.6905 88.5533 14.7689C88.7894 14.7921 89.0274 14.7519 89.2428 14.6526C89.4583 14.5532 89.6433 14.3983 89.7789 14.2036Z" fill="#FDC33E"/>
<path d="M88.3481 10.5267C88.1229 10.326 87.9278 10.0941 87.7685 9.83792C87.3856 9.30081 87.2162 8.64039 87.2935 7.98528C87.3366 7.57403 87.4644 7.17616 87.6688 6.81669C87.7661 6.63877 87.8772 6.46881 88.0013 6.3084L88.1343 6.46041C88.2467 6.59081 88.3499 6.7289 88.4431 6.87369C88.7233 7.29861 88.9635 7.74867 89.1604 8.21804C89.3663 8.66299 89.431 9.16035 89.3457 9.64316C89.2924 9.87613 89.1676 10.0866 88.9887 10.245C88.8098 10.4035 88.5858 10.502 88.3481 10.5267Z" fill="url(#paint23_linear)"/>
<path d="M88.3481 10.5267C88.1229 10.326 87.9278 10.0941 87.7685 9.83792C87.3856 9.30081 87.2162 8.64039 87.2935 7.98528C87.3366 7.57403 87.4644 7.17616 87.6688 6.81669C87.7661 6.63877 87.8772 6.46881 88.0013 6.3084L88.1343 6.46041C88.2467 6.59081 88.3499 6.7289 88.4431 6.87369C88.7233 7.29861 88.9635 7.74867 89.1604 8.21804C89.3663 8.66299 89.431 9.16035 89.3457 9.64316C89.2924 9.87613 89.1676 10.0866 88.9887 10.245C88.8098 10.4035 88.5858 10.502 88.3481 10.5267Z" fill="#FDC33E"/>
<path d="M87.7394 10.9925C87.6165 10.7245 87.4477 10.4802 87.2406 10.2704C87.013 10.0554 86.744 9.88889 86.45 9.78109C86.156 9.67329 85.8432 9.62643 85.5305 9.64335C85.1274 9.68853 84.7404 9.82676 84.3999 10.0471C84.2328 10.1537 84.074 10.2728 83.9249 10.4034L84.3999 10.7359C84.7262 10.9889 85.078 11.207 85.4497 11.3867C85.8348 11.5891 86.2597 11.7043 86.6943 11.724C86.9182 11.7072 87.1334 11.6304 87.3173 11.5017C87.5012 11.3729 87.647 11.197 87.7394 10.9925Z" fill="url(#paint24_linear)"/>
<path d="M87.7394 10.9925C87.6165 10.7245 87.4477 10.4802 87.2406 10.2704C87.013 10.0554 86.744 9.88889 86.45 9.78109C86.156 9.67329 85.8432 9.62643 85.5305 9.64335C85.1274 9.68853 84.7404 9.82676 84.3999 10.0471C84.2328 10.1537 84.074 10.2728 83.9249 10.4034L84.3999 10.7359C84.7262 10.9889 85.078 11.207 85.4497 11.3867C85.8348 11.5891 86.2597 11.7043 86.6943 11.724C86.9182 11.7072 87.1334 11.6304 87.3173 11.5017C87.5012 11.3729 87.647 11.197 87.7394 10.9925Z" fill="#FDC33E"/>
<path d="M85.7113 7.61938C85.6375 7.57236 85.5662 7.52163 85.4976 7.46737C85.3298 7.33395 85.1711 7.18954 85.0225 7.03509C84.5584 6.57457 84.2751 5.96259 84.2245 5.3107C84.1902 4.91321 84.242 4.51299 84.3765 4.13736C84.4388 3.94992 84.5183 3.76863 84.614 3.59582C84.7996 3.74286 84.9757 3.90152 85.1413 4.07086C85.4858 4.43918 85.7959 4.83829 86.0676 5.2632C86.3494 5.66577 86.5018 6.14466 86.5046 6.63605C86.4933 6.86278 86.4105 7.08009 86.268 7.25677C86.1254 7.43345 85.9305 7.5604 85.7113 7.61938Z" fill="url(#paint25_linear)"/>
<path d="M85.7113 7.61938C85.6375 7.57236 85.5662 7.52163 85.4976 7.46737C85.3298 7.33395 85.1711 7.18954 85.0225 7.03509C84.5584 6.57457 84.2751 5.96259 84.2245 5.3107C84.1902 4.91321 84.242 4.51299 84.3765 4.13736C84.4388 3.94992 84.5183 3.76863 84.614 3.59582C84.7996 3.74286 84.9757 3.90152 85.1413 4.07086C85.4858 4.43918 85.7959 4.83829 86.0676 5.2632C86.3494 5.66577 86.5018 6.14466 86.5046 6.63605C86.4933 6.86278 86.4105 7.08009 86.268 7.25677C86.1254 7.43345 85.9305 7.5604 85.7113 7.61938Z" fill="#FDC33E"/>
<path d="M85.2033 8.15631C85.2033 8.15631 85.1511 8.07555 85.0513 7.95204C84.9127 7.79045 84.7529 7.64825 84.5763 7.52926C84.3211 7.35123 84.0328 7.22627 83.7285 7.16181C83.4241 7.09734 83.1098 7.09468 82.8044 7.15398C82.4239 7.25203 82.0722 7.43929 81.7784 7.70027C81.6272 7.82544 81.4858 7.96202 81.3556 8.1088L81.8686 8.37007C82.2293 8.56785 82.6098 8.72707 83.0039 8.84511C83.4079 8.99198 83.8399 9.04557 84.2675 9.00187C84.4887 8.96689 84.695 8.86833 84.8611 8.7182C85.0273 8.56806 85.1462 8.37283 85.2033 8.15631Z" fill="url(#paint26_linear)"/>
<path d="M85.2033 8.15631C85.2033 8.15631 85.1511 8.07555 85.0513 7.95204C84.9127 7.79045 84.7529 7.64825 84.5763 7.52926C84.3211 7.35123 84.0328 7.22627 83.7285 7.16181C83.4241 7.09734 83.1098 7.09468 82.8044 7.15398C82.4239 7.25203 82.0722 7.43929 81.7784 7.70027C81.6272 7.82544 81.4858 7.96202 81.3556 8.1088L81.8686 8.37007C82.2293 8.56785 82.6098 8.72707 83.0039 8.84511C83.4079 8.99198 83.8399 9.04557 84.2675 9.00187C84.4887 8.96689 84.695 8.86833 84.8611 8.7182C85.0273 8.56806 85.1462 8.37283 85.2033 8.15631Z" fill="#FDC33E"/>
<path d="M82.6373 5.17313C82.5571 5.14264 82.4792 5.10612 82.4045 5.06387C82.2573 4.98787 82.0768 4.85486 81.863 4.71235C81.3319 4.3388 80.9486 3.79078 80.7799 3.16372C80.6455 2.60539 80.6735 2.02027 80.8606 1.47734C80.8606 1.47734 81.1124 1.61985 81.4592 1.85737C81.8585 2.16336 82.229 2.50523 82.566 2.8787C82.913 3.21596 83.147 3.65241 83.2358 4.12805C83.2644 4.34377 83.2213 4.56289 83.1131 4.75171C83.005 4.94053 82.8378 5.0886 82.6373 5.17313Z" fill="url(#paint27_linear)"/>
<path d="M82.6373 5.17313C82.5571 5.14264 82.4792 5.10612 82.4045 5.06387C82.2573 4.98787 82.0768 4.85486 81.863 4.71235C81.3319 4.3388 80.9486 3.79078 80.7799 3.16372C80.6455 2.60539 80.6735 2.02027 80.8606 1.47734C80.8606 1.47734 81.1124 1.61985 81.4592 1.85737C81.8585 2.16336 82.229 2.50523 82.566 2.8787C82.913 3.21596 83.147 3.65241 83.2358 4.12805C83.2644 4.34377 83.2213 4.56289 83.1131 4.75171C83.005 4.94053 82.8378 5.0886 82.6373 5.17313Z" fill="#FDC33E"/>
<path d="M82.2386 5.76209C82.1811 5.69927 82.1191 5.64054 82.0534 5.58633C81.8971 5.44702 81.721 5.33175 81.5308 5.2443C80.9758 4.96713 80.3336 4.92102 79.7447 5.11604C79.2272 5.359 78.7927 5.7489 78.4954 6.23713C78.4954 6.23713 78.7139 6.31789 79.0464 6.4129C79.4334 6.55487 79.8325 6.6614 80.2387 6.73117C80.6572 6.81086 81.0879 6.80115 81.5023 6.70266C81.7051 6.63756 81.8837 6.51313 82.0149 6.34544C82.1462 6.17776 82.2241 5.97455 82.2386 5.76209Z" fill="url(#paint28_linear)"/>
<path d="M82.2386 5.76209C82.1811 5.69927 82.1191 5.64054 82.0534 5.58633C81.8971 5.44702 81.721 5.33175 81.5308 5.2443C80.9758 4.96713 80.3336 4.92102 79.7447 5.11604C79.2272 5.359 78.7927 5.7489 78.4954 6.23713C78.4954 6.23713 78.7139 6.31789 79.0464 6.4129C79.4334 6.55487 79.8325 6.6614 80.2387 6.73117C80.6572 6.81086 81.0879 6.80115 81.5023 6.70266C81.7051 6.63756 81.8837 6.51313 82.0149 6.34544C82.1462 6.17776 82.2241 5.97455 82.2386 5.76209Z" fill="#FDC33E"/>
<path d="M79.2074 3.2635C79.2074 3.2635 79.1124 3.26351 78.9604 3.1875C78.8084 3.11149 78.6089 3.04024 78.3713 2.93098C77.7943 2.65366 77.3275 2.19014 77.046 1.61512C76.8139 1.11052 76.7378 0.548123 76.8275 0C76.8275 0 77.0983 0.099755 77.483 0.275519C77.9249 0.508407 78.346 0.778577 78.7419 1.08308C78.9352 1.23691 79.1119 1.41044 79.2692 1.60087C79.4115 1.77262 79.521 1.96907 79.5922 2.18042C79.6552 2.3782 79.6517 2.59116 79.5822 2.78675C79.5127 2.98234 79.3811 3.14979 79.2074 3.2635Z" fill="url(#paint29_linear)"/>
<path d="M79.2074 3.2635C79.2074 3.2635 79.1124 3.26351 78.9604 3.1875C78.8084 3.11149 78.6089 3.04024 78.3713 2.93098C77.7943 2.65366 77.3275 2.19014 77.046 1.61512C76.8139 1.11052 76.7378 0.548123 76.8275 0C76.8275 0 77.0983 0.099755 77.483 0.275519C77.9249 0.508407 78.346 0.778577 78.7419 1.08308C78.9352 1.23691 79.1119 1.41044 79.2692 1.60087C79.4115 1.77262 79.521 1.96907 79.5922 2.18042C79.6552 2.3782 79.6517 2.59116 79.5822 2.78675C79.5127 2.98234 79.3811 3.14979 79.2074 3.2635Z" fill="#FDC33E"/>
<path d="M78.926 3.88096C78.8581 3.82862 78.7867 3.781 78.7122 3.73845C78.5374 3.62373 78.3448 3.53866 78.1422 3.48668C77.556 3.30158 76.9209 3.35096 76.3703 3.62444C75.907 3.92355 75.5471 4.35812 75.3395 4.86904C75.3395 4.86904 75.5675 4.91655 75.9095 4.95455C76.315 5.03499 76.7266 5.08107 77.1399 5.09231C77.3625 5.09574 77.585 5.07985 77.8049 5.0448C78.0019 5.02523 78.1944 4.9739 78.375 4.89279C78.5602 4.80184 78.7126 4.65568 78.8113 4.47447C78.91 4.29326 78.9501 4.0859 78.926 3.88096Z" fill="url(#paint30_linear)"/>
<path d="M78.926 3.88096C78.8581 3.82862 78.7867 3.781 78.7122 3.73845C78.5374 3.62373 78.3448 3.53866 78.1422 3.48668C77.556 3.30158 76.9209 3.35096 76.3703 3.62444C75.907 3.92355 75.5471 4.35812 75.3395 4.86904C75.3395 4.86904 75.5675 4.91655 75.9095 4.95455C76.315 5.03499 76.7266 5.08107 77.1399 5.09231C77.3625 5.09574 77.585 5.07985 77.8049 5.0448C78.0019 5.02523 78.1944 4.9739 78.375 4.89279C78.5602 4.80184 78.7126 4.65568 78.8113 4.47447C78.91 4.29326 78.9501 4.0859 78.926 3.88096Z" fill="#FDC33E"/>
<path d="M72.999 1.69593C73.4412 2.1604 73.9648 2.54013 74.5433 2.81683C74.8603 2.98183 75.2188 3.04958 75.5741 3.0116C75.908 2.96016 76.2127 2.7918 76.434 2.53656C76.4155 2.3683 76.3641 2.20533 76.2825 2.05697C76.201 1.90862 76.0911 1.77779 75.9589 1.67199C75.6582 1.43313 75.2882 1.29813 74.9043 1.28721C74.2486 1.2956 73.6006 1.43466 72.999 1.69593Z" fill="url(#paint31_linear)"/>
<path d="M72.999 1.69593C73.4412 2.1604 73.9648 2.54013 74.5433 2.81683C74.8603 2.98183 75.2188 3.04958 75.5741 3.0116C75.908 2.96016 76.2127 2.7918 76.434 2.53656C76.4155 2.3683 76.3641 2.20533 76.2825 2.05697C76.201 1.90862 76.0911 1.77779 75.9589 1.67199C75.6582 1.43313 75.2882 1.29813 74.9043 1.28721C74.2486 1.2956 73.6006 1.43466 72.999 1.69593Z" fill="#FDC33E"/>
<path d="M23.386 1.69593C17.4024 2.74938 12.0468 6.0474 8.41284 10.9164C6.61317 13.3121 5.29808 16.0358 4.54127 18.935C3.39494 23.2776 3.5103 27.857 4.8738 32.1363C5.34027 33.5449 5.92837 34.9102 6.63145 36.2169C7.35552 37.5085 8.19161 38.7341 9.13012 39.8794C10.0744 41.0177 11.1242 42.0643 12.2654 43.0052C16.897 46.6582 22.5309 49.2947 28.3929 49.7697L28.2789 51C25.2115 50.6712 22.2178 49.8466 19.4147 48.5584C18.0234 47.9242 16.6746 47.2007 15.3769 46.3922C14.7261 45.9932 14.0943 45.5704 13.4767 45.1286C13.1632 44.9196 12.8639 44.6535 12.5599 44.4398C12.2559 44.226 11.9423 43.9647 11.6621 43.713C10.4962 42.7158 9.42594 41.6121 8.46508 40.4162C6.53474 38.0238 5.0832 35.282 4.18975 32.3406C2.86343 27.9325 2.82223 23.2375 4.07099 18.8068C4.89175 15.8755 6.2762 13.1325 8.14682 10.7311C11.885 5.88236 17.3382 2.64923 23.386 1.69593Z" fill="url(#paint32_linear)"/>
<path d="M23.386 1.69593C17.4024 2.74938 12.0468 6.0474 8.41284 10.9164C6.61317 13.3121 5.29808 16.0358 4.54127 18.935C3.39494 23.2776 3.5103 27.857 4.8738 32.1363C5.34027 33.5449 5.92837 34.9102 6.63145 36.2169C7.35552 37.5085 8.19161 38.7341 9.13012 39.8794C10.0744 41.0177 11.1242 42.0643 12.2654 43.0052C16.897 46.6582 22.5309 49.2947 28.3929 49.7697L28.2789 51C25.2115 50.6712 22.2178 49.8466 19.4147 48.5584C18.0234 47.9242 16.6746 47.2007 15.3769 46.3922C14.7261 45.9932 14.0943 45.5704 13.4767 45.1286C13.1632 44.9196 12.8639 44.6535 12.5599 44.4398C12.2559 44.226 11.9423 43.9647 11.6621 43.713C10.4962 42.7158 9.42594 41.6121 8.46508 40.4162C6.53474 38.0238 5.0832 35.282 4.18975 32.3406C2.86343 27.9325 2.82223 23.2375 4.07099 18.8068C4.89175 15.8755 6.2762 13.1325 8.14682 10.7311C11.885 5.88236 17.3382 2.64923 23.386 1.69593Z" fill="#FDC33E"/>
<path d="M17.5147 46.4111C17.2226 46.3557 16.9495 46.2265 16.7214 46.0358C16.4499 45.8056 16.2402 45.5112 16.1116 45.1793C15.983 44.8474 15.9395 44.4886 15.9851 44.1356C16.0954 43.2971 16.3732 42.4893 16.8021 41.7604C16.9458 41.8941 17.0806 42.0369 17.2059 42.188C17.5108 42.5119 17.7741 42.8725 17.9897 43.2616C18.2977 43.7574 18.4191 44.3466 18.332 44.9238C18.245 45.5009 17.9552 46.0282 17.5147 46.4111Z" fill="url(#paint33_linear)"/>
<path d="M17.5147 46.4111C17.2226 46.3557 16.9495 46.2265 16.7214 46.0358C16.4499 45.8056 16.2402 45.5112 16.1116 45.1793C15.983 44.8474 15.9395 44.4886 15.9851 44.1356C16.0954 43.2971 16.3732 42.4893 16.8021 41.7604C16.9458 41.8941 17.0806 42.0369 17.2059 42.188C17.5108 42.5119 17.7741 42.8725 17.9897 43.2616C18.2977 43.7574 18.4191 44.3466 18.332 44.9238C18.245 45.5009 17.9552 46.0282 17.5147 46.4111Z" fill="#FDC33E"/>
<path d="M17.0118 47.3945C16.7948 47.1866 16.5379 47.025 16.2565 46.9194C15.9122 46.7975 15.5457 46.7509 15.1818 46.7829C14.818 46.8149 14.4652 46.9246 14.1474 47.1047C13.4108 47.5305 12.7652 48.0971 12.2472 48.7721C12.464 48.874 12.686 48.9644 12.9123 49.0429C13.4025 49.2155 13.9139 49.321 14.4324 49.3564C15.5725 49.3896 16.7411 48.9668 17.0118 47.3945Z" fill="url(#paint34_linear)"/>
<path d="M17.0118 47.3945C16.7948 47.1866 16.5379 47.025 16.2565 46.9194C15.9122 46.7975 15.5457 46.7509 15.1818 46.7829C14.818 46.8149 14.4652 46.9246 14.1474 47.1047C13.4108 47.5305 12.7652 48.0971 12.2472 48.7721C12.464 48.874 12.686 48.9644 12.9123 49.0429C13.4025 49.2155 13.9139 49.321 14.4324 49.3564C15.5725 49.3896 16.7411 48.9668 17.0118 47.3945Z" fill="#FDC33E"/>
<path d="M14.2696 44.4349C14.1875 44.4112 14.1079 44.3793 14.032 44.3399C13.8407 44.2538 13.668 44.1312 13.5238 43.9789C13.2844 43.7257 13.1132 43.4161 13.026 43.0788C12.9387 42.7415 12.9384 42.3877 13.025 42.0502C13.2434 41.2579 13.6253 40.52 14.1461 39.8841C14.2612 40.0251 14.366 40.1744 14.4596 40.3306C14.6809 40.6761 14.8686 41.0419 15.0201 41.4232C15.1031 41.6527 15.1635 41.8898 15.2006 42.131C15.2507 42.3828 15.2603 42.641 15.2291 42.8958C15.1806 43.2036 15.0706 43.4985 14.9058 43.7629C14.7409 44.0273 14.5246 44.2559 14.2696 44.4349Z" fill="url(#paint35_linear)"/>
<path d="M14.2696 44.4349C14.1875 44.4112 14.1079 44.3793 14.032 44.3399C13.8407 44.2538 13.668 44.1312 13.5238 43.9789C13.2844 43.7257 13.1132 43.4161 13.026 43.0788C12.9387 42.7415 12.9384 42.3877 13.025 42.0502C13.2434 41.2579 13.6253 40.52 14.1461 39.8841C14.2612 40.0251 14.366 40.1744 14.4596 40.3306C14.6809 40.6761 14.8686 41.0419 15.0201 41.4232C15.1031 41.6527 15.1635 41.8898 15.2006 42.131C15.2507 42.3828 15.2603 42.641 15.2291 42.8958C15.1806 43.2036 15.0706 43.4985 14.9058 43.7629C14.7409 44.0273 14.5246 44.2559 14.2696 44.4349Z" fill="#FDC33E"/>
<path d="M13.6665 45.3184C13.6123 45.2481 13.5519 45.183 13.4859 45.1237C13.1396 44.7998 12.7083 44.581 12.2424 44.4927C11.7765 44.4044 11.2951 44.4502 10.8542 44.6249C10.0737 44.9192 9.35979 45.3666 8.75456 45.9407C8.96316 46.0814 9.17878 46.2115 9.4006 46.3303C9.87889 46.5903 10.3926 46.7792 10.9255 46.8908C11.2076 46.9534 11.4966 46.9789 11.7853 46.9668C12.0584 46.9472 12.3256 46.878 12.5738 46.7625C12.8512 46.6173 13.0929 46.4125 13.2818 46.1628C13.4707 45.9131 13.6021 45.6248 13.6665 45.3184Z" fill="url(#paint36_linear)"/>
<path d="M13.6665 45.3184C13.6123 45.2481 13.5519 45.183 13.4859 45.1237C13.1396 44.7998 12.7083 44.581 12.2424 44.4927C11.7765 44.4044 11.2951 44.4502 10.8542 44.6249C10.0737 44.9192 9.35979 45.3666 8.75456 45.9407C8.96316 46.0814 9.17878 46.2115 9.4006 46.3303C9.87889 46.5903 10.3926 46.7792 10.9255 46.8908C11.2076 46.9534 11.4966 46.9789 11.7853 46.9668C12.0584 46.9472 12.3256 46.878 12.5738 46.7625C12.8512 46.6173 13.0929 46.4125 13.2818 46.1628C13.4707 45.9131 13.6021 45.6248 13.6665 45.3184Z" fill="#FDC33E"/>
<path d="M11.3013 42.0835C10.8648 41.8466 10.5335 41.4541 10.3733 40.9841C10.2131 40.514 10.2358 40.0009 10.4367 39.5468C10.6265 39.0609 10.9052 38.6146 11.2586 38.2309C11.4386 38.0221 11.6305 37.8238 11.8334 37.6371L12.0851 38.1122C12.2555 38.4887 12.386 38.8819 12.4747 39.2855C12.6439 39.8152 12.6188 40.3879 12.4037 40.9008C12.1887 41.4136 11.7978 41.8329 11.3013 42.0835Z" fill="url(#paint37_linear)"/>
<path d="M11.3013 42.0835C10.8648 41.8466 10.5335 41.4541 10.3733 40.9841C10.2131 40.514 10.2358 40.0009 10.4367 39.5468C10.6265 39.0609 10.9052 38.6146 11.2586 38.2309C11.4386 38.0221 11.6305 37.8238 11.8334 37.6371L12.0851 38.1122C12.2555 38.4887 12.386 38.8819 12.4747 39.2855C12.6439 39.8152 12.6188 40.3879 12.4037 40.9008C12.1887 41.4136 11.7978 41.8329 11.3013 42.0835Z" fill="#FDC33E"/>
<path d="M10.5943 42.8387C10.4442 42.5716 10.2385 42.34 9.99102 42.1594C9.69934 41.9499 9.36918 41.8001 9.01946 41.7186C8.66973 41.6371 8.30735 41.6254 7.95312 41.6843C7.42071 41.7676 6.90556 41.9378 6.42824 42.1879C6.18256 42.3111 5.9446 42.4491 5.71568 42.6012C5.89352 42.7755 6.08582 42.9344 6.29049 43.0762C6.7175 43.4033 7.18541 43.6732 7.68234 43.879C8.78918 44.3018 9.97202 44.2638 10.5943 42.8387Z" fill="url(#paint38_linear)"/>
<path d="M10.5943 42.8387C10.4442 42.5716 10.2385 42.34 9.99102 42.1594C9.69934 41.9499 9.36918 41.8001 9.01946 41.7186C8.66973 41.6371 8.30735 41.6254 7.95312 41.6843C7.42071 41.7676 6.90556 41.9378 6.42824 42.1879C6.18256 42.3111 5.9446 42.4491 5.71568 42.6012C5.89352 42.7755 6.08582 42.9344 6.29049 43.0762C6.7175 43.4033 7.18541 43.6732 7.68234 43.879C8.78918 44.3018 9.97202 44.2638 10.5943 42.8387Z" fill="#FDC33E"/>
<path d="M8.76011 39.2759C8.69069 39.2277 8.62551 39.1737 8.56533 39.1144C8.41419 38.9698 8.29031 38.7993 8.19957 38.6109C8.04967 38.3044 7.97854 37.9653 7.99264 37.6244C8.00674 37.2835 8.10562 36.9515 8.28032 36.6585C8.70053 36.0072 9.25831 35.4559 9.91445 35.0433C9.98185 35.2151 10.0374 35.3913 10.0807 35.5706C10.1886 35.9689 10.2617 36.3758 10.2992 36.7867C10.3389 37.2727 10.2624 37.7612 10.076 38.2118C9.94153 38.4701 9.75528 38.6979 9.52888 38.8809C9.30249 39.064 9.04078 39.1985 8.76011 39.2759Z" fill="url(#paint39_linear)"/>
<path d="M8.76011 39.2759C8.69069 39.2277 8.62551 39.1737 8.56533 39.1144C8.41419 38.9698 8.29031 38.7993 8.19957 38.6109C8.04967 38.3044 7.97854 37.9653 7.99264 37.6244C8.00674 37.2835 8.10562 36.9515 8.28032 36.6585C8.70053 36.0072 9.25831 35.4559 9.91445 35.0433C9.98185 35.2151 10.0374 35.3913 10.0807 35.5706C10.1886 35.9689 10.2617 36.3758 10.2992 36.7867C10.3389 37.2727 10.2624 37.7612 10.076 38.2118C9.94153 38.4701 9.75528 38.6979 9.52888 38.8809C9.30249 39.064 9.04078 39.1985 8.76011 39.2759Z" fill="#FDC33E"/>
<path d="M7.96152 39.8888C7.92999 39.8067 7.89187 39.7272 7.84751 39.6513C7.73728 39.4657 7.61004 39.2908 7.46746 39.1287C7.22076 38.873 6.92582 38.6687 6.59967 38.5276C6.27352 38.3866 5.92263 38.3115 5.56731 38.3069C4.76984 38.3195 3.98429 38.5025 3.26339 38.8437C3.7256 39.4777 4.3044 40.0178 4.96879 40.4351C5.42826 40.7513 5.97943 40.9066 6.53641 40.8769C6.83604 40.8394 7.12214 40.7299 7.3703 40.5578C7.61846 40.3858 7.8213 40.1562 7.96152 39.8888Z" fill="url(#paint40_linear)"/>
<path d="M7.96152 39.8888C7.92999 39.8067 7.89187 39.7272 7.84751 39.6513C7.73728 39.4657 7.61004 39.2908 7.46746 39.1287C7.22076 38.873 6.92582 38.6687 6.59967 38.5276C6.27352 38.3866 5.92263 38.3115 5.56731 38.3069C4.76984 38.3195 3.98429 38.5025 3.26339 38.8437C3.7256 39.4777 4.3044 40.0178 4.96879 40.4351C5.42826 40.7513 5.97943 40.9066 6.53641 40.8769C6.83604 40.8394 7.12214 40.7299 7.3703 40.5578C7.61846 40.3858 7.8213 40.1562 7.96152 39.8888Z" fill="#FDC33E"/>
<path d="M6.69319 36.1027C6.49611 35.8844 6.34721 35.627 6.25616 35.3473C6.15338 35.0256 6.13258 34.6833 6.19562 34.3515C6.25867 34.0196 6.40357 33.7088 6.6172 33.4472C7.11062 32.8754 7.72799 32.4237 8.42233 32.1266V32.2786C8.42233 32.3736 8.46984 32.5066 8.48884 32.6729C8.54048 33.0825 8.55003 33.4964 8.51734 33.908C8.48884 34.8058 8.1088 35.8699 6.69319 36.1027Z" fill="url(#paint41_linear)"/>
<path d="M6.69319 36.1027C6.49611 35.8844 6.34721 35.627 6.25616 35.3473C6.15338 35.0256 6.13258 34.6833 6.19562 34.3515C6.25867 34.0196 6.40357 33.7088 6.6172 33.4472C7.11062 32.8754 7.72799 32.4237 8.42233 32.1266V32.2786C8.42233 32.3736 8.46984 32.5066 8.48884 32.6729C8.54048 33.0825 8.55003 33.4964 8.51734 33.908C8.48884 34.8058 8.1088 35.8699 6.69319 36.1027Z" fill="#FDC33E"/>
<path d="M5.82811 36.5635C5.76769 36.2648 5.64641 35.9818 5.47183 35.7321C5.07019 35.1475 4.45689 34.7421 3.76168 34.6016C3.00093 34.475 2.22195 34.5123 1.47675 34.7108L1.56701 34.8961C1.63351 35.0101 1.73326 35.1716 1.85677 35.3711C2.14455 35.8165 2.48954 36.2221 2.88287 36.5777C3.77119 37.3188 4.86378 37.675 5.82811 36.5635Z" fill="url(#paint42_linear)"/>
<path d="M5.82811 36.5635C5.76769 36.2648 5.64641 35.9818 5.47183 35.7321C5.07019 35.1475 4.45689 34.7421 3.76168 34.6016C3.00093 34.475 2.22195 34.5123 1.47675 34.7108L1.56701 34.8961C1.63351 35.0101 1.73326 35.1716 1.85677 35.3711C2.14455 35.8165 2.48954 36.2221 2.88287 36.5777C3.77119 37.3188 4.86378 37.675 5.82811 36.5635Z" fill="#FDC33E"/>
<path d="M5.16356 32.6302C5.11633 32.5601 5.07348 32.4871 5.03529 32.4117C4.93713 32.2263 4.87128 32.0255 4.84054 31.8179C4.79481 31.4873 4.82871 31.1506 4.93944 30.8358C5.05016 30.521 5.23448 30.2372 5.47707 30.008C6.03844 29.5291 6.70366 29.1876 7.41999 29.0104C7.4301 29.1956 7.4301 29.3811 7.41999 29.5662C7.40461 29.9768 7.35374 30.3853 7.26797 30.7871C7.17029 31.2474 6.96337 31.6775 6.66466 32.0412C6.47418 32.245 6.24054 32.4037 5.98081 32.5057C5.72109 32.6076 5.44186 32.6501 5.16356 32.6302Z" fill="url(#paint43_linear)"/>
<path d="M5.16356 32.6302C5.11633 32.5601 5.07348 32.4871 5.03529 32.4117C4.93713 32.2263 4.87128 32.0255 4.84054 31.8179C4.79481 31.4873 4.82871 31.1506 4.93944 30.8358C5.05016 30.521 5.23448 30.2372 5.47707 30.008C6.03844 29.5291 6.70366 29.1876 7.41999 29.0104C7.4301 29.1956 7.4301 29.3811 7.41999 29.5662C7.40461 29.9768 7.35374 30.3853 7.26797 30.7871C7.17029 31.2474 6.96337 31.6775 6.66466 32.0412C6.47418 32.245 6.24054 32.4037 5.98081 32.5057C5.72109 32.6076 5.44186 32.6501 5.16356 32.6302Z" fill="#FDC33E"/>
<path d="M4.27952 32.9342C4.27652 32.8462 4.26539 32.7588 4.24626 32.6729C4.19831 32.463 4.13154 32.2579 4.04676 32.0601C3.90701 31.741 3.70531 31.4528 3.45334 31.2122C3.20136 30.9717 2.90412 30.7835 2.57888 30.6587C1.87726 30.4033 1.1275 30.3075 0.384208 30.3785C0.457237 30.6156 0.542855 30.8487 0.640717 31.0768C0.848366 31.5635 1.11995 32.0204 1.44829 32.4354C1.7627 32.8816 2.21242 33.2147 2.73089 33.3854C3.00615 33.4465 3.29234 33.4371 3.56302 33.3582C3.8337 33.2794 4.08014 33.1335 4.27952 32.9342Z" fill="url(#paint44_linear)"/>
<path d="M4.27952 32.9342C4.27652 32.8462 4.26539 32.7588 4.24626 32.6729C4.19831 32.463 4.13154 32.2579 4.04676 32.0601C3.90701 31.741 3.70531 31.4528 3.45334 31.2122C3.20136 30.9717 2.90412 30.7835 2.57888 30.6587C1.87726 30.4033 1.1275 30.3075 0.384208 30.3785C0.457237 30.6156 0.542855 30.8487 0.640717 31.0768C0.848366 31.5635 1.11995 32.0204 1.44829 32.4354C1.7627 32.8816 2.21242 33.2147 2.73089 33.3854C3.00615 33.4465 3.29234 33.4371 3.56302 33.3582C3.8337 33.2794 4.08014 33.1335 4.27952 32.9342Z" fill="#FDC33E"/>
<path d="M4.21396 28.9581C4.10159 28.6872 4.04505 28.3963 4.04771 28.103C4.04616 27.817 4.10441 27.5339 4.21872 27.2717C4.38713 26.9355 4.63298 26.6441 4.93603 26.4214C5.5356 26.0405 6.21858 25.8107 6.92643 25.7516C6.91465 25.9366 6.89084 26.1207 6.85517 26.3026C6.77049 26.7064 6.65619 27.1033 6.51315 27.4902C6.35928 27.9315 6.09228 28.3246 5.73884 28.6303C5.52652 28.7977 5.2787 28.9142 5.0144 28.971C4.75009 29.0278 4.47629 29.0234 4.21396 28.9581Z" fill="url(#paint45_linear)"/>
<path d="M4.21396 28.9581C4.10159 28.6872 4.04505 28.3963 4.04771 28.103C4.04616 27.817 4.10441 27.5339 4.21872 27.2717C4.38713 26.9355 4.63298 26.6441 4.93603 26.4214C5.5356 26.0405 6.21858 25.8107 6.92643 25.7516C6.91465 25.9366 6.89084 26.1207 6.85517 26.3026C6.77049 26.7064 6.65619 27.1033 6.51315 27.4902C6.35928 27.9315 6.09228 28.3246 5.73884 28.6303C5.52652 28.7977 5.2787 28.9142 5.0144 28.971C4.75009 29.0278 4.47629 29.0234 4.21396 28.9581Z" fill="#FDC33E"/>
<path d="M3.32526 29.1055C3.36114 28.8031 3.33856 28.4967 3.25875 28.2029C3.18206 27.9131 3.05679 27.6385 2.88823 27.3906C2.67465 27.0665 2.39648 26.79 2.07116 26.5783C1.43727 26.2141 0.729208 25.9981 0 25.9465C0 25.9465 0.0475072 26.2505 0.152015 26.6733C0.266039 27.1866 0.453207 27.681 0.707801 28.1411C0.946034 28.6143 1.3176 29.0073 1.77663 29.2717C2.02718 29.38 2.30148 29.4215 2.57284 29.3924C2.8442 29.3633 3.1034 29.2644 3.32526 29.1055Z" fill="url(#paint46_linear)"/>
<path d="M3.32526 29.1055C3.36114 28.8031 3.33856 28.4967 3.25875 28.2029C3.18206 27.9131 3.05679 27.6385 2.88823 27.3906C2.67465 27.0665 2.39648 26.79 2.07116 26.5783C1.43727 26.2141 0.729208 25.9981 0 25.9465C0 25.9465 0.0475072 26.2505 0.152015 26.6733C0.266039 27.1866 0.453207 27.681 0.707801 28.1411C0.946034 28.6143 1.3176 29.0073 1.77663 29.2717C2.02718 29.38 2.30148 29.4215 2.57284 29.3924C2.8442 29.3633 3.1034 29.2644 3.32526 29.1055Z" fill="#FDC33E"/>
<path d="M3.91867 25.1768C3.8494 24.8908 3.83489 24.5942 3.87591 24.3027C3.93435 23.9812 4.06526 23.6773 4.25869 23.4139C4.45211 23.1505 4.70298 22.9346 4.99226 22.7826C5.4041 22.5786 5.85374 22.4621 6.31285 22.4406C6.54852 22.4247 6.78498 22.4247 7.02065 22.4406C7.02065 22.4406 6.95417 22.6591 6.84017 22.9726C6.7145 23.3662 6.54395 23.744 6.33187 24.0985C5.88059 24.8728 5.16327 25.6424 3.91867 25.1768Z" fill="url(#paint47_linear)"/>
<path d="M3.91867 25.1768C3.8494 24.8908 3.83489 24.5942 3.87591 24.3027C3.93435 23.9812 4.06526 23.6773 4.25869 23.4139C4.45211 23.1505 4.70298 22.9346 4.99226 22.7826C5.4041 22.5786 5.85374 22.4621 6.31285 22.4406C6.54852 22.4247 6.78498 22.4247 7.02065 22.4406C7.02065 22.4406 6.95417 22.6591 6.84017 22.9726C6.7145 23.3662 6.54395 23.744 6.33187 24.0985C5.88059 24.8728 5.16327 25.6424 3.91867 25.1768Z" fill="#FDC33E"/>
<path d="M3.03016 25.1722C3.10618 24.8793 3.12553 24.5745 3.08716 24.2744C3.04284 23.5856 2.72876 22.9421 2.21308 22.4835C1.86906 22.1711 1.46945 21.9262 1.035 21.7614C0.817381 21.6723 0.593524 21.5992 0.365208 21.5429C0.34627 21.7864 0.34627 22.031 0.365208 22.2745C0.411319 22.7918 0.511629 23.3029 0.664483 23.7993C1.04451 24.8682 1.79031 25.6947 3.03016 25.1722Z" fill="url(#paint48_linear)"/>
<path d="M3.03016 25.1722C3.10618 24.8793 3.12553 24.5745 3.08716 24.2744C3.04284 23.5856 2.72876 22.9421 2.21308 22.4835C1.86906 22.1711 1.46945 21.9262 1.035 21.7614C0.817381 21.6723 0.593524 21.5992 0.365208 21.5429C0.34627 21.7864 0.34627 22.031 0.365208 22.2745C0.411319 22.7918 0.511629 23.3029 0.664483 23.7993C1.04451 24.8682 1.79031 25.6947 3.03016 25.1722Z" fill="#FDC33E"/>
<path d="M4.21422 21.391C4.18865 21.0978 4.22094 20.8025 4.30924 20.5217C4.41671 20.2166 4.59045 19.939 4.81797 19.7091C5.04549 19.4791 5.32111 19.3023 5.62507 19.1916C6.04474 19.0486 6.49115 19.0015 6.93142 19.0538C7.15979 19.0722 7.38674 19.1056 7.61075 19.1536L7.53949 19.2914C7.48723 19.3816 7.42547 19.5051 7.35421 19.6524C7.17281 20.0233 6.9497 20.3724 6.68918 20.6927C6.41892 21.0542 6.06742 21.3471 5.66308 21.5478C5.42718 21.6421 5.17173 21.6772 4.91913 21.6499C4.66653 21.6225 4.42449 21.5337 4.21422 21.391Z" fill="url(#paint49_linear)"/>
<path d="M4.21422 21.391C4.18865 21.0978 4.22094 20.8025 4.30924 20.5217C4.41671 20.2166 4.59045 19.939 4.81797 19.7091C5.04549 19.4791 5.32111 19.3023 5.62507 19.1916C6.04474 19.0486 6.49115 19.0015 6.93142 19.0538C7.15979 19.0722 7.38674 19.1056 7.61075 19.1536L7.53949 19.2914C7.48723 19.3816 7.42547 19.5051 7.35421 19.6524C7.17281 20.0233 6.9497 20.3724 6.68918 20.6927C6.41892 21.0542 6.06742 21.3471 5.66308 21.5478C5.42718 21.6421 5.17173 21.6772 4.91913 21.6499C4.66653 21.6225 4.42449 21.5337 4.21422 21.391Z" fill="#FDC33E"/>
<path d="M3.37192 21.2674C3.48313 20.9853 3.54733 20.6868 3.56195 20.3838C3.6019 20.0474 3.57505 19.7063 3.48294 19.3803C3.39083 19.0542 3.23526 18.7495 3.02515 18.4837C2.74743 18.1247 2.40407 17.8216 2.01332 17.5906C1.82102 17.4686 1.61927 17.3622 1.41002 17.2723L1.36252 17.4671C1.32484 17.639 1.30258 17.8138 1.29601 17.9897C1.2576 18.5074 1.27034 19.0277 1.33402 19.543C1.38491 20.0604 1.59958 20.548 1.94681 20.9349C2.1321 21.114 2.36249 21.2395 2.61344 21.298C2.86439 21.3566 3.12651 21.346 3.37192 21.2674Z" fill="url(#paint50_linear)"/>
<path d="M3.37192 21.2674C3.48313 20.9853 3.54733 20.6868 3.56195 20.3838C3.6019 20.0474 3.57505 19.7063 3.48294 19.3803C3.39083 19.0542 3.23526 18.7495 3.02515 18.4837C2.74743 18.1247 2.40407 17.8216 2.01332 17.5906C1.82102 17.4686 1.61927 17.3622 1.41002 17.2723L1.36252 17.4671C1.32484 17.639 1.30258 17.8138 1.29601 17.9897C1.2576 18.5074 1.27034 19.0277 1.33402 19.543C1.38491 20.0604 1.59958 20.548 1.94681 20.9349C2.1321 21.114 2.36249 21.2395 2.61344 21.298C2.86439 21.3566 3.12651 21.346 3.37192 21.2674Z" fill="#FDC33E"/>
<path d="M5.11644 17.6997C5.14348 17.4063 5.22228 17.12 5.34921 16.8541C5.50329 16.5734 5.7157 16.329 5.97217 16.1372C6.22864 15.9455 6.52324 15.8109 6.83608 15.7425C7.25948 15.6678 7.69415 15.6872 8.10917 15.7995C8.32282 15.8505 8.53241 15.9172 8.73623 15.9991L8.64597 16.1273C8.58421 16.2033 8.50346 16.3221 8.40845 16.4598C8.17328 16.7967 7.90077 17.1058 7.59612 17.3814C7.28176 17.697 6.8978 17.9346 6.47504 18.075C6.23548 18.1356 5.98429 18.1328 5.74611 18.067C5.50792 18.0013 5.29093 17.8747 5.11644 17.6997Z" fill="url(#paint51_linear)"/>
<path d="M5.11644 17.6997C5.14348 17.4063 5.22228 17.12 5.34921 16.8541C5.50329 16.5734 5.7157 16.329 5.97217 16.1372C6.22864 15.9455 6.52324 15.8109 6.83608 15.7425C7.25948 15.6678 7.69415 15.6872 8.10917 15.7995C8.32282 15.8505 8.53241 15.9172 8.73623 15.9991L8.64597 16.1273C8.58421 16.2033 8.50346 16.3221 8.40845 16.4598C8.17328 16.7967 7.90077 17.1058 7.59612 17.3814C7.28176 17.697 6.8978 17.9346 6.47504 18.075C6.23548 18.1356 5.98429 18.1328 5.74611 18.067C5.50792 18.0013 5.29093 17.8747 5.11644 17.6997Z" fill="#FDC33E"/>
<path d="M4.33178 17.434C4.48846 17.1746 4.59934 16.8901 4.65955 16.5931C4.85233 15.9476 4.78586 15.2523 4.47428 14.655C4.27078 14.262 3.99337 13.912 3.65723 13.6242C3.49451 13.4768 3.3197 13.3433 3.13467 13.2251L3.05868 13.4151C2.99598 13.5787 2.94673 13.7471 2.91142 13.9187C2.78251 14.4178 2.70453 14.9287 2.67866 15.4435C2.64118 15.9544 2.76407 16.4642 3.03018 16.9019C3.17301 17.1064 3.37175 17.2653 3.60261 17.3596C3.83346 17.454 4.08663 17.4798 4.33178 17.434Z" fill="url(#paint52_linear)"/>
<path d="M4.33178 17.434C4.48846 17.1746 4.59934 16.8901 4.65955 16.5931C4.85233 15.9476 4.78586 15.2523 4.47428 14.655C4.27078 14.262 3.99337 13.912 3.65723 13.6242C3.49451 13.4768 3.3197 13.3433 3.13467 13.2251L3.05868 13.4151C2.99598 13.5787 2.94673 13.7471 2.91142 13.9187C2.78251 14.4178 2.70453 14.9287 2.67866 15.4435C2.64118 15.9544 2.76407 16.4642 3.03018 16.9019C3.17301 17.1064 3.37175 17.2653 3.60261 17.3596C3.83346 17.454 4.08663 17.4798 4.33178 17.434Z" fill="#FDC33E"/>
<path d="M6.58845 14.2036C6.66504 13.9197 6.79043 13.6513 6.95899 13.4103C7.15237 13.1585 7.39649 12.9502 7.67555 12.7988C7.95461 12.6474 8.26235 12.5563 8.57886 12.5315C8.99583 12.5188 9.41016 12.6017 9.7902 12.7738C9.98803 12.8522 10.1788 12.9476 10.3602 13.0588L10.251 13.168C10.175 13.2345 10.0752 13.3343 9.9612 13.4578C9.67479 13.7565 9.35616 14.0226 9.01113 14.2511C8.65887 14.5133 8.25083 14.6905 7.81881 14.7689C7.5821 14.7915 7.34362 14.7511 7.12756 14.6518C6.9115 14.5525 6.72552 14.3979 6.58845 14.2036Z" fill="url(#paint53_linear)"/>
<path d="M6.58845 14.2036C6.66504 13.9197 6.79043 13.6513 6.95899 13.4103C7.15237 13.1585 7.39649 12.9502 7.67555 12.7988C7.95461 12.6474 8.26235 12.5563 8.57886 12.5315C8.99583 12.5188 9.41016 12.6017 9.7902 12.7738C9.98803 12.8522 10.1788 12.9476 10.3602 13.0588L10.251 13.168C10.175 13.2345 10.0752 13.3343 9.9612 13.4578C9.67479 13.7565 9.35616 14.0226 9.01113 14.2511C8.65887 14.5133 8.25083 14.6905 7.81881 14.7689C7.5821 14.7915 7.34362 14.7511 7.12756 14.6518C6.9115 14.5525 6.72552 14.3979 6.58845 14.2036Z" fill="#FDC33E"/>
<path d="M5.89974 13.8284C6.10027 13.5987 6.26084 13.3369 6.37478 13.0541C6.67071 12.4548 6.72844 11.7656 6.53631 11.1254C6.40929 10.7164 6.20443 10.3357 5.933 10.0043C5.80257 9.83407 5.65797 9.67516 5.50073 9.5293L5.40096 9.70031C5.30863 9.85173 5.22918 10.0106 5.16344 10.1753C4.95982 10.6439 4.80077 11.1306 4.6884 11.629C4.56181 12.1195 4.59001 12.6372 4.76915 13.1111C4.86822 13.327 5.0277 13.5097 5.22833 13.637C5.42896 13.7643 5.66215 13.8308 5.89974 13.8284Z" fill="url(#paint54_linear)"/>
<path d="M5.89974 13.8284C6.10027 13.5987 6.26084 13.3369 6.37478 13.0541C6.67071 12.4548 6.72844 11.7656 6.53631 11.1254C6.40929 10.7164 6.20443 10.3357 5.933 10.0043C5.80257 9.83407 5.65797 9.67516 5.50073 9.5293L5.40096 9.70031C5.30863 9.85173 5.22918 10.0106 5.16344 10.1753C4.95982 10.6439 4.80077 11.1306 4.6884 11.629C4.56181 12.1195 4.59001 12.6372 4.76915 13.1111C4.86822 13.327 5.0277 13.5097 5.22833 13.637C5.42896 13.7643 5.66215 13.8308 5.89974 13.8284Z" fill="#FDC33E"/>
<path d="M8.64546 10.9923C8.76183 10.7265 8.92245 10.4823 9.1205 10.2703C9.35236 10.0515 9.62685 9.88289 9.92682 9.775C10.2268 9.66711 10.5458 9.62225 10.8639 9.64322C11.2669 9.6884 11.654 9.82663 11.9945 10.047C12.1616 10.1536 12.3204 10.2727 12.4695 10.4033L11.9945 10.7358C11.6657 10.9875 11.3123 11.2056 10.9399 11.3866C10.5567 11.5895 10.1332 11.7047 9.70003 11.7239C9.47451 11.7087 9.25733 11.6327 9.07162 11.5039C8.8859 11.375 8.73863 11.1983 8.64546 10.9923Z" fill="url(#paint55_linear)"/>
<path d="M8.64546 10.9923C8.76183 10.7265 8.92245 10.4823 9.1205 10.2703C9.35236 10.0515 9.62685 9.88289 9.92682 9.775C10.2268 9.66711 10.5458 9.62225 10.8639 9.64322C11.2669 9.6884 11.654 9.82663 11.9945 10.047C12.1616 10.1536 12.3204 10.2727 12.4695 10.4033L11.9945 10.7358C11.6657 10.9875 11.3123 11.2056 10.9399 11.3866C10.5567 11.5895 10.1332 11.7047 9.70003 11.7239C9.47451 11.7087 9.25733 11.6327 9.07162 11.5039C8.8859 11.375 8.73863 11.1983 8.64546 10.9923Z" fill="#FDC33E"/>
<path d="M8.01474 10.5267C8.24139 10.3275 8.43675 10.0953 8.59427 9.83792C8.97936 9.3018 9.14891 8.64055 9.06931 7.98528C9.02393 7.5745 8.89631 7.17708 8.69404 6.81669C8.59628 6.63797 8.48343 6.46793 8.35676 6.3084L8.22852 6.46041C8.1131 6.58838 8.00973 6.72673 7.91973 6.87369C7.63949 7.29861 7.39935 7.74867 7.20242 8.21804C6.99648 8.66299 6.93185 9.16035 7.01718 9.64316C7.07043 9.87613 7.19525 10.0866 7.37415 10.245C7.55305 10.4035 7.77704 10.502 8.01474 10.5267Z" fill="url(#paint56_linear)"/>
<path d="M8.01474 10.5267C8.24139 10.3275 8.43675 10.0953 8.59427 9.83792C8.97936 9.3018 9.14891 8.64055 9.06931 7.98528C9.02393 7.5745 8.89631 7.17708 8.69404 6.81669C8.59628 6.63797 8.48343 6.46793 8.35676 6.3084L8.22852 6.46041C8.1131 6.58838 8.00973 6.72673 7.91973 6.87369C7.63949 7.29861 7.39935 7.74867 7.20242 8.21804C6.99648 8.66299 6.93185 9.16035 7.01718 9.64316C7.07043 9.87613 7.19525 10.0866 7.37415 10.245C7.55305 10.4035 7.77704 10.502 8.01474 10.5267Z" fill="#FDC33E"/>
<path d="M11.1815 8.15631C11.1815 8.15631 11.2338 8.07555 11.3336 7.95204C11.4722 7.79045 11.632 7.64825 11.8086 7.52926C12.0638 7.35123 12.3521 7.22627 12.6565 7.16181C12.9608 7.09734 13.2751 7.09468 13.5805 7.15398C13.961 7.25203 14.3128 7.43929 14.6066 7.70027C14.7577 7.82544 14.8991 7.96202 15.0294 8.1088L14.5163 8.37007C14.1548 8.56614 13.7744 8.72529 13.381 8.84511C12.9755 8.99269 12.5418 9.0463 12.1126 9.00187C11.8923 8.96605 11.6871 8.86711 11.5218 8.71703C11.3566 8.56695 11.2384 8.37218 11.1815 8.15631Z" fill="url(#paint57_linear)"/>
<path d="M11.1815 8.15631C11.1815 8.15631 11.2338 8.07555 11.3336 7.95204C11.4722 7.79045 11.632 7.64825 11.8086 7.52926C12.0638 7.35123 12.3521 7.22627 12.6565 7.16181C12.9608 7.09734 13.2751 7.09468 13.5805 7.15398C13.961 7.25203 14.3128 7.43929 14.6066 7.70027C14.7577 7.82544 14.8991 7.96202 15.0294 8.1088L14.5163 8.37007C14.1548 8.56614 13.7744 8.72529 13.381 8.84511C12.9755 8.99269 12.5418 9.0463 12.1126 9.00187C11.8923 8.96605 11.6871 8.86711 11.5218 8.71703C11.3566 8.56695 11.2384 8.37218 11.1815 8.15631Z" fill="#FDC33E"/>
<path d="M10.6736 7.61938C10.7474 7.57236 10.8187 7.52163 10.8874 7.46737C11.055 7.33388 11.2137 7.18947 11.3624 7.03509C11.8301 6.57655 12.1154 5.96378 12.1652 5.3107C12.198 4.91287 12.1445 4.51264 12.0084 4.13736C11.9463 3.95058 11.8685 3.76941 11.7757 3.59582C11.5901 3.74286 11.4139 3.90152 11.2484 4.07086C10.9039 4.43918 10.5938 4.83829 10.3221 5.2632C10.0378 5.66453 9.88507 6.14422 9.88504 6.63605C9.89603 6.86217 9.97821 7.07902 10.1198 7.25563C10.2615 7.43223 10.4553 7.55955 10.6736 7.61938Z" fill="url(#paint58_linear)"/>
<path d="M10.6736 7.61938C10.7474 7.57236 10.8187 7.52163 10.8874 7.46737C11.055 7.33388 11.2137 7.18947 11.3624 7.03509C11.8301 6.57655 12.1154 5.96378 12.1652 5.3107C12.198 4.91287 12.1445 4.51264 12.0084 4.13736C11.9463 3.95058 11.8685 3.76941 11.7757 3.59582C11.5901 3.74286 11.4139 3.90152 11.2484 4.07086C10.9039 4.43918 10.5938 4.83829 10.3221 5.2632C10.0378 5.66453 9.88507 6.14422 9.88504 6.63605C9.89603 6.86217 9.97821 7.07902 10.1198 7.25563C10.2615 7.43223 10.4553 7.55955 10.6736 7.61938Z" fill="#FDC33E"/>
<path d="M14.1461 5.76224C14.2027 5.70004 14.2629 5.64134 14.3266 5.58647C14.4845 5.44932 14.6603 5.33426 14.8492 5.24444C15.4076 4.97215 16.0505 4.92952 16.6401 5.12569C17.1566 5.36823 17.5897 5.75834 17.8847 6.24677C17.8847 6.24677 17.6662 6.32753 17.3384 6.42254C16.9497 6.56447 16.5491 6.67099 16.1413 6.74081C15.7228 6.82036 15.2922 6.81065 14.8777 6.71231C14.6737 6.64698 14.4944 6.52108 14.3637 6.35137C14.2331 6.18165 14.1571 5.97616 14.1461 5.76224Z" fill="url(#paint59_linear)"/>
<path d="M14.1461 5.76224C14.2027 5.70004 14.2629 5.64134 14.3266 5.58647C14.4845 5.44932 14.6603 5.33426 14.8492 5.24444C15.4076 4.97215 16.0505 4.92952 16.6401 5.12569C17.1566 5.36823 17.5897 5.75834 17.8847 6.24677C17.8847 6.24677 17.6662 6.32753 17.3384 6.42254C16.9497 6.56447 16.5491 6.67099 16.1413 6.74081C15.7228 6.82036 15.2922 6.81065 14.8777 6.71231C14.6737 6.64698 14.4944 6.52108 14.3637 6.35137C14.2331 6.18165 14.1571 5.97616 14.1461 5.76224Z" fill="#FDC33E"/>
<path d="M13.7468 5.17313C13.8271 5.14264 13.9049 5.10612 13.9796 5.06387C14.1221 4.98787 14.3026 4.85486 14.5164 4.71235C15.0558 4.34421 15.4452 3.79469 15.6137 3.16372C15.7513 2.606 15.7249 2.02043 15.5377 1.47734C15.5377 1.47734 15.286 1.61985 14.9344 1.85737C14.5362 2.1646 14.1658 2.50637 13.8276 2.8787C13.4841 3.21789 13.2521 3.65369 13.1625 4.12805C13.1329 4.3421 13.174 4.55997 13.2794 4.74858C13.3849 4.93719 13.549 5.08625 13.7468 5.17313Z" fill="url(#paint60_linear)"/>
<path d="M13.7468 5.17313C13.8271 5.14264 13.9049 5.10612 13.9796 5.06387C14.1221 4.98787 14.3026 4.85486 14.5164 4.71235C15.0558 4.34421 15.4452 3.79469 15.6137 3.16372C15.7513 2.606 15.7249 2.02043 15.5377 1.47734C15.5377 1.47734 15.286 1.61985 14.9344 1.85737C14.5362 2.1646 14.1658 2.50637 13.8276 2.8787C13.4841 3.21789 13.2521 3.65369 13.1625 4.12805C13.1329 4.3421 13.174 4.55997 13.2794 4.74858C13.3849 4.93719 13.549 5.08625 13.7468 5.17313Z" fill="#FDC33E"/>
<path d="M17.4578 3.88096C17.5245 3.82921 17.5943 3.78161 17.6668 3.73845C17.8439 3.62466 18.0379 3.53968 18.2416 3.48668C18.8278 3.30158 19.4629 3.35096 20.0135 3.62444C20.4768 3.92355 20.8367 4.35812 21.0443 4.86904C21.0443 4.86904 20.8163 4.91655 20.4743 4.95455C20.0688 5.03499 19.6572 5.08107 19.2439 5.09231C19.0213 5.09574 18.7988 5.07985 18.5789 5.0448C18.3818 5.02582 18.1892 4.97446 18.0088 4.89279C17.8232 4.80239 17.6703 4.65634 17.5715 4.47498C17.4728 4.29362 17.433 4.08598 17.4578 3.88096Z" fill="url(#paint61_linear)"/>
<path d="M17.4578 3.88096C17.5245 3.82921 17.5943 3.78161 17.6668 3.73845C17.8439 3.62466 18.0379 3.53968 18.2416 3.48668C18.8278 3.30158 19.4629 3.35096 20.0135 3.62444C20.4768 3.92355 20.8367 4.35812 21.0443 4.86904C21.0443 4.86904 20.8163 4.91655 20.4743 4.95455C20.0688 5.03499 19.6572 5.08107 19.2439 5.09231C19.0213 5.09574 18.7988 5.07985 18.5789 5.0448C18.3818 5.02582 18.1892 4.97446 18.0088 4.89279C17.8232 4.80239 17.6703 4.65634 17.5715 4.47498C17.4728 4.29362 17.433 4.08598 17.4578 3.88096Z" fill="#FDC33E"/>
<path d="M17.1718 3.2635C17.1718 3.2635 17.2715 3.26351 17.4188 3.1875C17.5661 3.11149 17.7751 3.04024 18.0078 2.93098C18.5866 2.65452 19.0553 2.19091 19.338 1.61512C19.57 1.11052 19.6461 0.548123 19.5565 0C19.5565 0 19.2809 0.099755 18.9009 0.275519C18.4591 0.508407 18.038 0.778577 17.6421 1.08308C17.4418 1.2371 17.2572 1.41054 17.091 1.60087C16.9501 1.77275 16.8422 1.96925 16.7728 2.18042C16.706 2.37941 16.7092 2.59522 16.7817 2.79217C16.8543 2.98912 16.9919 3.1554 17.1718 3.2635Z" fill="url(#paint62_linear)"/>
<path d="M17.1718 3.2635C17.1718 3.2635 17.2715 3.26351 17.4188 3.1875C17.5661 3.11149 17.7751 3.04024 18.0078 2.93098C18.5866 2.65452 19.0553 2.19091 19.338 1.61512C19.57 1.11052 19.6461 0.548123 19.5565 0C19.5565 0 19.2809 0.099755 18.9009 0.275519C18.4591 0.508407 18.038 0.778577 17.6421 1.08308C17.4418 1.2371 17.2572 1.41054 17.091 1.60087C16.9501 1.77275 16.8422 1.96925 16.7728 2.18042C16.706 2.37941 16.7092 2.59522 16.7817 2.79217C16.8543 2.98912 16.9919 3.1554 17.1718 3.2635Z" fill="#FDC33E"/>
<path d="M23.386 1.69593C22.7859 1.4354 22.1404 1.29636 21.4863 1.28721C21.104 1.29914 20.7359 1.43409 20.4364 1.67199C20.3033 1.77688 20.1927 1.90748 20.1111 2.056C20.0295 2.20453 19.9786 2.36796 19.9614 2.53656C20.1827 2.7918 20.4874 2.96016 20.8212 3.0116C21.1765 3.04958 21.5351 2.98183 21.852 2.81683C22.4272 2.53914 22.9466 2.15946 23.386 1.69593Z" fill="url(#paint63_linear)"/>
<path d="M23.386 1.69593C22.7859 1.4354 22.1404 1.29636 21.4863 1.28721C21.104 1.29914 20.7359 1.43409 20.4364 1.67199C20.3033 1.77688 20.1927 1.90748 20.1111 2.056C20.0295 2.20453 19.9786 2.36796 19.9614 2.53656C20.1827 2.7918 20.4874 2.96016 20.8212 3.0116C21.1765 3.04958 21.5351 2.98183 21.852 2.81683C22.4272 2.53914 22.9466 2.15946 23.386 1.69593Z" fill="#FDC33E"/>
<path d="M31.0766 9.86655H33.6656C34.4735 9.83348 35.2802 9.95771 36.0407 10.2323C36.5884 10.4684 37.0508 10.8662 37.3661 11.3724C37.6852 11.8833 37.8502 12.4755 37.8411 13.0778C37.8466 13.6374 37.6988 14.1877 37.4136 14.6692C37.1132 15.1656 36.6806 15.5685 36.1643 15.833C36.7347 16.0051 37.268 16.2822 37.7366 16.6501C38.1044 16.9577 38.3982 17.3441 38.5964 17.7807C38.801 18.2278 38.9064 18.714 38.9052 19.2058C38.9133 19.7084 38.8141 20.2069 38.6142 20.6681C38.4143 21.1293 38.1184 21.5425 37.7461 21.8802C36.8977 22.6377 35.7848 23.0303 34.6489 22.9728H31.0433L31.0766 9.86655ZM32.364 11.1492V15.3485H33.1145C33.7939 15.3826 34.474 15.2974 35.1239 15.0967C35.5374 14.938 35.8934 14.6582 36.1452 14.2939C36.3909 13.936 36.5218 13.5119 36.5205 13.0778C36.5342 12.8074 36.4841 12.5375 36.3743 12.29C36.2646 12.0425 36.0983 11.8242 35.8887 11.6527C35.2971 11.2615 34.591 11.0808 33.8841 11.1397L32.364 11.1492ZM32.364 16.6691V21.6997H33.9886C34.7029 21.7377 35.4181 21.6427 36.0977 21.4195C36.5358 21.239 36.9109 20.9333 37.1761 20.5406C37.4654 20.1194 37.6061 19.6138 37.5759 19.1036C37.5458 18.5935 37.3466 18.108 37.0098 17.7237C36.5917 17.2692 36.0419 16.957 35.4374 16.8306C34.6673 16.6987 33.8859 16.6446 33.105 16.6691H32.364Z" fill="url(#paint64_linear)"/>
<path d="M31.0766 9.86655H33.6656C34.4735 9.83348 35.2802 9.95771 36.0407 10.2323C36.5884 10.4684 37.0508 10.8662 37.3661 11.3724C37.6852 11.8833 37.8502 12.4755 37.8411 13.0778C37.8466 13.6374 37.6988 14.1877 37.4136 14.6692C37.1132 15.1656 36.6806 15.5685 36.1643 15.833C36.7347 16.0051 37.268 16.2822 37.7366 16.6501C38.1044 16.9577 38.3982 17.3441 38.5964 17.7807C38.801 18.2278 38.9064 18.714 38.9052 19.2058C38.9133 19.7084 38.8141 20.2069 38.6142 20.6681C38.4143 21.1293 38.1184 21.5425 37.7461 21.8802C36.8977 22.6377 35.7848 23.0303 34.6489 22.9728H31.0433L31.0766 9.86655ZM32.364 11.1492V15.3485H33.1145C33.7939 15.3826 34.474 15.2974 35.1239 15.0967C35.5374 14.938 35.8934 14.6582 36.1452 14.2939C36.3909 13.936 36.5218 13.5119 36.5205 13.0778C36.5342 12.8074 36.4841 12.5375 36.3743 12.29C36.2646 12.0425 36.0983 11.8242 35.8887 11.6527C35.2971 11.2615 34.591 11.0808 33.8841 11.1397L32.364 11.1492ZM32.364 16.6691V21.6997H33.9886C34.7029 21.7377 35.4181 21.6427 36.0977 21.4195C36.5358 21.239 36.9109 20.9333 37.1761 20.5406C37.4654 20.1194 37.6061 19.6138 37.5759 19.1036C37.5458 18.5935 37.3466 18.108 37.0098 17.7237C36.5917 17.2692 36.0419 16.957 35.4374 16.8306C34.6673 16.6987 33.8859 16.6446 33.105 16.6691H32.364Z" fill="#FDC33E"/>
<path d="M41.5419 9.86647H49.0617V11.1491H42.853V15.2629H49.0284V16.5455H42.853V21.6996H49.0284V22.987H41.5419V9.86647Z" fill="url(#paint65_linear)"/>
<path d="M41.5419 9.86647H49.0617V11.1491H42.853V15.2629H49.0284V16.5455H42.853V21.6996H49.0284V22.987H41.5419V9.86647Z" fill="#FDC33E"/>
<path d="M49.9691 20.55L51.0854 19.8849C51.8708 21.329 52.7782 22.0511 53.8074 22.0511C54.2383 22.0518 54.6626 21.9457 55.0425 21.7423C55.4088 21.5552 55.715 21.2688 55.9261 20.9158C56.1243 20.584 56.2294 20.2049 56.2301 19.8184C56.2188 19.3519 56.0627 18.9003 55.7836 18.5263C55.1394 17.7207 54.3827 17.012 53.5367 16.4219C52.7855 15.9084 52.0995 15.3055 51.494 14.6263C51.0447 14.0544 50.7989 13.3489 50.7957 12.6216C50.7899 12.0729 50.9327 11.5329 51.209 11.0587C51.4814 10.5869 51.8815 10.2016 52.3633 9.94715C52.8594 9.67952 53.4148 9.54068 53.9784 9.54337C54.5899 9.54434 55.1901 9.70832 55.7171 10.0184C56.3924 10.4555 56.9712 11.0261 57.4177 11.6953L56.3489 12.5076C56.0084 12.0034 55.5804 11.5642 55.0853 11.2107C54.7432 11.0032 54.3501 10.8946 53.9499 10.8972C53.7131 10.8866 53.4765 10.9232 53.2539 11.0047C53.0313 11.0862 52.827 11.2112 52.6531 11.3723C52.4897 11.5232 52.3603 11.7071 52.2735 11.9119C52.1867 12.1166 52.1444 12.3375 52.1495 12.5599C52.1487 12.8447 52.2087 13.1265 52.3253 13.3864C52.4875 13.7148 52.708 14.011 52.9761 14.2605C53.1471 14.4283 53.7124 14.8654 54.672 15.5716C55.5727 16.1809 56.3631 16.9391 57.0092 17.8138C57.4087 18.3946 57.6284 19.0803 57.641 19.7852C57.6428 20.2511 57.5475 20.7123 57.361 21.1393C57.1745 21.5663 56.901 21.9496 56.5579 22.2649C56.2107 22.6069 55.7985 22.876 55.3458 23.0563C54.893 23.2365 54.4087 23.3244 53.9214 23.3147C53.1566 23.3271 52.4054 23.1104 51.7647 22.6924C51.0008 22.135 50.3844 21.3996 49.9691 20.55Z" fill="url(#paint66_linear)"/>
<path d="M49.9691 20.55L51.0854 19.8849C51.8708 21.329 52.7782 22.0511 53.8074 22.0511C54.2383 22.0518 54.6626 21.9457 55.0425 21.7423C55.4088 21.5552 55.715 21.2688 55.9261 20.9158C56.1243 20.584 56.2294 20.2049 56.2301 19.8184C56.2188 19.3519 56.0627 18.9003 55.7836 18.5263C55.1394 17.7207 54.3827 17.012 53.5367 16.4219C52.7855 15.9084 52.0995 15.3055 51.494 14.6263C51.0447 14.0544 50.7989 13.3489 50.7957 12.6216C50.7899 12.0729 50.9327 11.5329 51.209 11.0587C51.4814 10.5869 51.8815 10.2016 52.3633 9.94715C52.8594 9.67952 53.4148 9.54068 53.9784 9.54337C54.5899 9.54434 55.1901 9.70832 55.7171 10.0184C56.3924 10.4555 56.9712 11.0261 57.4177 11.6953L56.3489 12.5076C56.0084 12.0034 55.5804 11.5642 55.0853 11.2107C54.7432 11.0032 54.3501 10.8946 53.9499 10.8972C53.7131 10.8866 53.4765 10.9232 53.2539 11.0047C53.0313 11.0862 52.827 11.2112 52.6531 11.3723C52.4897 11.5232 52.3603 11.7071 52.2735 11.9119C52.1867 12.1166 52.1444 12.3375 52.1495 12.5599C52.1487 12.8447 52.2087 13.1265 52.3253 13.3864C52.4875 13.7148 52.708 14.011 52.9761 14.2605C53.1471 14.4283 53.7124 14.8654 54.672 15.5716C55.5727 16.1809 56.3631 16.9391 57.0092 17.8138C57.4087 18.3946 57.6284 19.0803 57.641 19.7852C57.6428 20.2511 57.5475 20.7123 57.361 21.1393C57.1745 21.5663 56.901 21.9496 56.5579 22.2649C56.2107 22.6069 55.7985 22.876 55.3458 23.0563C54.893 23.2365 54.4087 23.3244 53.9214 23.3147C53.1566 23.3271 52.4054 23.1104 51.7647 22.6924C51.0008 22.135 50.3844 21.3996 49.9691 20.55Z" fill="#FDC33E"/>
<path d="M59.1237 11.1586V9.86647H66.3157V11.1491H63.3895V22.987H62.0499V11.1586H59.1237Z" fill="url(#paint67_linear)"/>
<path d="M59.1237 11.1586V9.86647H66.3157V11.1491H63.3895V22.987H62.0499V11.1586H59.1237Z" fill="#FDC33E"/>
<path d="M34.0174 29.6802H39.2761V30.7063H35.091V33.9983H39.2998V35.0434H35.091V40.1976H34.0411L34.0174 29.6802Z" fill="url(#paint68_linear)"/>
<path d="M34.0174 29.6802H39.2761V30.7063H35.091V33.9983H39.2998V35.0434H35.091V40.1976H34.0411L34.0174 29.6802Z" fill="#FDC33E"/>
<path d="M40.9568 29.6802H42.0019V40.1786H40.9568V29.6802Z" fill="url(#paint69_linear)"/>
<path d="M40.9568 29.6802H42.0019V40.1786H40.9568V29.6802Z" fill="#FDC33E"/>
<path d="M44.4116 29.6802H45.4566V39.181H49.4992V40.1928H44.4116V29.6802Z" fill="url(#paint70_linear)"/>
<path d="M44.4116 29.6802H45.4566V39.181H49.4992V40.1928H44.4116V29.6802Z" fill="#FDC33E"/>
<path d="M50.6806 40.1786L52.1817 29.6802H52.3528L56.6281 38.2927L60.8559 29.6802H61.0222L62.5328 40.1786H61.5019L60.4616 32.6682L56.7516 40.1738H56.4666L52.709 32.6065L51.7162 40.1786H50.6806Z" fill="url(#paint71_linear)"/>
<path d="M50.6806 40.1786L52.1817 29.6802H52.3528L56.6281 38.2927L60.8559 29.6802H61.0222L62.5328 40.1786H61.5019L60.4616 32.6682L56.7516 40.1738H56.4666L52.709 32.6065L51.7162 40.1786H50.6806Z" fill="#FDC33E"/>
<defs>
<linearGradient id="paint0_linear" x1="78" y1="-54" x2="21" y2="66.5" gradientUnits="userSpaceOnUse">
<stop stop-color="#FDC33E" stop-opacity="0"/>
<stop offset="0.370814" stop-color="#FDC33E" stop-opacity="0.55"/>
<stop offset="1" stop-color="#FDC33E"/>
</linearGradient>
<linearGradient id="paint1_linear" x1="78" y1="-54" x2="21" y2="66.5" gradientUnits="userSpaceOnUse">
<stop stop-color="#FDC33E" stop-opacity="0"/>
<stop offset="0.370814" stop-color="#FDC33E" stop-opacity="0.55"/>
<stop offset="1" stop-color="#FDC33E"/>
</linearGradient>
<linearGradient id="paint2_linear" x1="78" y1="-54" x2="21" y2="66.5" gradientUnits="userSpaceOnUse">
<stop stop-color="#FDC33E" stop-opacity="0"/>
<stop offset="0.370814" stop-color="#FDC33E" stop-opacity="0.55"/>
<stop offset="1" stop-color="#FDC33E"/>
</linearGradient>
<linearGradient id="paint3_linear" x1="78" y1="-54" x2="21" y2="66.5" gradientUnits="userSpaceOnUse">
<stop stop-color="#FDC33E" stop-opacity="0"/>
<stop offset="0.370814" stop-color="#FDC33E" stop-opacity="0.55"/>
<stop offset="1" stop-color="#FDC33E"/>
</linearGradient>
<linearGradient id="paint4_linear" x1="78" y1="-54" x2="21" y2="66.5" gradientUnits="userSpaceOnUse">
<stop stop-color="#FDC33E" stop-opacity="0"/>
<stop offset="0.370814" stop-color="#FDC33E" stop-opacity="0.55"/>
<stop offset="1" stop-color="#FDC33E"/>
</linearGradient>
<linearGradient id="paint5_linear" x1="78" y1="-54" x2="21" y2="66.5" gradientUnits="userSpaceOnUse">
<stop stop-color="#FDC33E" stop-opacity="0"/>
<stop offset="0.370814" stop-color="#FDC33E" stop-opacity="0.55"/>
<stop offset="1" stop-color="#FDC33E"/>
</linearGradient>
<linearGradient id="paint6_linear" x1="78" y1="-54" x2="21" y2="66.5" gradientUnits="userSpaceOnUse">
<stop stop-color="#FDC33E" stop-opacity="0"/>
<stop offset="0.370814" stop-color="#FDC33E" stop-opacity="0.55"/>
<stop offset="1" stop-color="#FDC33E"/>
</linearGradient>
<linearGradient id="paint7_linear" x1="78" y1="-54" x2="21" y2="66.5" gradientUnits="userSpaceOnUse">
<stop stop-color="#FDC33E" stop-opacity="0"/>
<stop offset="0.370814" stop-color="#FDC33E" stop-opacity="0.55"/>
<stop offset="1" stop-color="#FDC33E"/>
</linearGradient>
<linearGradient id="paint8_linear" x1="78" y1="-54" x2="21" y2="66.5" gradientUnits="userSpaceOnUse">
<stop stop-color="#FDC33E" stop-opacity="0"/>
<stop offset="0.370814" stop-color="#FDC33E" stop-opacity="0.55"/>
<stop offset="1" stop-color="#FDC33E"/>
</linearGradient>
<linearGradient id="paint9_linear" x1="78" y1="-54" x2="21" y2="66.5" gradientUnits="userSpaceOnUse">
<stop stop-color="#FDC33E" stop-opacity="0"/>
<stop offset="0.370814" stop-color="#FDC33E" stop-opacity="0.55"/>
<stop offset="1" stop-color="#FDC33E"/>
</linearGradient>
<linearGradient id="paint10_linear" x1="78" y1="-54" x2="21" y2="66.5" gradientUnits="userSpaceOnUse">
<stop stop-color="#FDC33E" stop-opacity="0"/>
<stop offset="0.370814" stop-color="#FDC33E" stop-opacity="0.55"/>
<stop offset="1" stop-color="#FDC33E"/>
</linearGradient>
<linearGradient id="paint11_linear" x1="78" y1="-54" x2="21" y2="66.5" gradientUnits="userSpaceOnUse">
<stop stop-color="#FDC33E" stop-opacity="0"/>
<stop offset="0.370814" stop-color="#FDC33E" stop-opacity="0.55"/>
<stop offset="1" stop-color="#FDC33E"/>
</linearGradient>
<linearGradient id="paint12_linear" x1="78" y1="-54" x2="21" y2="66.5" gradientUnits="userSpaceOnUse">
<stop stop-color="#FDC33E" stop-opacity="0"/>
<stop offset="0.370814" stop-color="#FDC33E" stop-opacity="0.55"/>
<stop offset="1" stop-color="#FDC33E"/>
</linearGradient>
<linearGradient id="paint13_linear" x1="78" y1="-54" x2="21" y2="66.5" gradientUnits="userSpaceOnUse">
<stop stop-color="#FDC33E" stop-opacity="0"/>
<stop offset="0.370814" stop-color="#FDC33E" stop-opacity="0.55"/>
<stop offset="1" stop-color="#FDC33E"/>
</linearGradient>
<linearGradient id="paint14_linear" x1="78" y1="-54" x2="21" y2="66.5" gradientUnits="userSpaceOnUse">
<stop stop-color="#FDC33E" stop-opacity="0"/>
<stop offset="0.370814" stop-color="#FDC33E" stop-opacity="0.55"/>
<stop offset="1" stop-color="#FDC33E"/>
</linearGradient>
<linearGradient id="paint15_linear" x1="78" y1="-54" x2="21" y2="66.5" gradientUnits="userSpaceOnUse">
<stop stop-color="#FDC33E" stop-opacity="0"/>
<stop offset="0.370814" stop-color="#FDC33E" stop-opacity="0.55"/>
<stop offset="1" stop-color="#FDC33E"/>
</linearGradient>
<linearGradient id="paint16_linear" x1="78" y1="-54" x2="21" y2="66.5" gradientUnits="userSpaceOnUse">
<stop stop-color="#FDC33E" stop-opacity="0"/>
<stop offset="0.370814" stop-color="#FDC33E" stop-opacity="0.55"/>
<stop offset="1" stop-color="#FDC33E"/>
</linearGradient>
<linearGradient id="paint17_linear" x1="78" y1="-54" x2="21" y2="66.5" gradientUnits="userSpaceOnUse">
<stop stop-color="#FDC33E" stop-opacity="0"/>
<stop offset="0.370814" stop-color="#FDC33E" stop-opacity="0.55"/>
<stop offset="1" stop-color="#FDC33E"/>
</linearGradient>
<linearGradient id="paint18_linear" x1="78" y1="-54" x2="21" y2="66.5" gradientUnits="userSpaceOnUse">
<stop stop-color="#FDC33E" stop-opacity="0"/>
<stop offset="0.370814" stop-color="#FDC33E" stop-opacity="0.55"/>
<stop offset="1" stop-color="#FDC33E"/>
</linearGradient>
<linearGradient id="paint19_linear" x1="78" y1="-54" x2="21" y2="66.5" gradientUnits="userSpaceOnUse">
<stop stop-color="#FDC33E" stop-opacity="0"/>
<stop offset="0.370814" stop-color="#FDC33E" stop-opacity="0.55"/>
<stop offset="1" stop-color="#FDC33E"/>
</linearGradient>
<linearGradient id="paint20_linear" x1="78" y1="-54" x2="21" y2="66.5" gradientUnits="userSpaceOnUse">
<stop stop-color="#FDC33E" stop-opacity="0"/>
<stop offset="0.370814" stop-color="#FDC33E" stop-opacity="0.55"/>
<stop offset="1" stop-color="#FDC33E"/>
</linearGradient>
<linearGradient id="paint21_linear" x1="78" y1="-54" x2="21" y2="66.5" gradientUnits="userSpaceOnUse">
<stop stop-color="#FDC33E" stop-opacity="0"/>
<stop offset="0.370814" stop-color="#FDC33E" stop-opacity="0.55"/>
<stop offset="1" stop-color="#FDC33E"/>
</linearGradient>
<linearGradient id="paint22_linear" x1="78" y1="-54" x2="21" y2="66.5" gradientUnits="userSpaceOnUse">
<stop stop-color="#FDC33E" stop-opacity="0"/>
<stop offset="0.370814" stop-color="#FDC33E" stop-opacity="0.55"/>
<stop offset="1" stop-color="#FDC33E"/>
</linearGradient>
<linearGradient id="paint23_linear" x1="78" y1="-54" x2="21" y2="66.5" gradientUnits="userSpaceOnUse">
<stop stop-color="#FDC33E" stop-opacity="0"/>
<stop offset="0.370814" stop-color="#FDC33E" stop-opacity="0.55"/>
<stop offset="1" stop-color="#FDC33E"/>
</linearGradient>
<linearGradient id="paint24_linear" x1="78" y1="-54" x2="21" y2="66.5" gradientUnits="userSpaceOnUse">
<stop stop-color="#FDC33E" stop-opacity="0"/>
<stop offset="0.370814" stop-color="#FDC33E" stop-opacity="0.55"/>
<stop offset="1" stop-color="#FDC33E"/>
</linearGradient>
<linearGradient id="paint25_linear" x1="78" y1="-54" x2="21" y2="66.5" gradientUnits="userSpaceOnUse">
<stop stop-color="#FDC33E" stop-opacity="0"/>
<stop offset="0.370814" stop-color="#FDC33E" stop-opacity="0.55"/>
<stop offset="1" stop-color="#FDC33E"/>
</linearGradient>
<linearGradient id="paint26_linear" x1="78" y1="-54" x2="21" y2="66.5" gradientUnits="userSpaceOnUse">
<stop stop-color="#FDC33E" stop-opacity="0"/>
<stop offset="0.370814" stop-color="#FDC33E" stop-opacity="0.55"/>
<stop offset="1" stop-color="#FDC33E"/>
</linearGradient>
<linearGradient id="paint27_linear" x1="78" y1="-54" x2="21" y2="66.5" gradientUnits="userSpaceOnUse">
<stop stop-color="#FDC33E" stop-opacity="0"/>
<stop offset="0.370814" stop-color="#FDC33E" stop-opacity="0.55"/>
<stop offset="1" stop-color="#FDC33E"/>
</linearGradient>
<linearGradient id="paint28_linear" x1="78" y1="-54" x2="21" y2="66.5" gradientUnits="userSpaceOnUse">
<stop stop-color="#FDC33E" stop-opacity="0"/>
<stop offset="0.370814" stop-color="#FDC33E" stop-opacity="0.55"/>
<stop offset="1" stop-color="#FDC33E"/>
</linearGradient>
<linearGradient id="paint29_linear" x1="78" y1="-54" x2="21" y2="66.5" gradientUnits="userSpaceOnUse">
<stop stop-color="#FDC33E" stop-opacity="0"/>
<stop offset="0.370814" stop-color="#FDC33E" stop-opacity="0.55"/>
<stop offset="1" stop-color="#FDC33E"/>
</linearGradient>
<linearGradient id="paint30_linear" x1="78" y1="-54" x2="21" y2="66.5" gradientUnits="userSpaceOnUse">
<stop stop-color="#FDC33E" stop-opacity="0"/>
<stop offset="0.370814" stop-color="#FDC33E" stop-opacity="0.55"/>
<stop offset="1" stop-color="#FDC33E"/>
</linearGradient>
<linearGradient id="paint31_linear" x1="78" y1="-54" x2="21" y2="66.5" gradientUnits="userSpaceOnUse">
<stop stop-color="#FDC33E" stop-opacity="0"/>
<stop offset="0.370814" stop-color="#FDC33E" stop-opacity="0.55"/>
<stop offset="1" stop-color="#FDC33E"/>
</linearGradient>
<linearGradient id="paint32_linear" x1="78" y1="-54" x2="21" y2="66.5" gradientUnits="userSpaceOnUse">
<stop stop-color="#FDC33E" stop-opacity="0"/>
<stop offset="0.370814" stop-color="#FDC33E" stop-opacity="0.55"/>
<stop offset="1" stop-color="#FDC33E"/>
</linearGradient>
<linearGradient id="paint33_linear" x1="78" y1="-54" x2="21" y2="66.5" gradientUnits="userSpaceOnUse">
<stop stop-color="#FDC33E" stop-opacity="0"/>
<stop offset="0.370814" stop-color="#FDC33E" stop-opacity="0.55"/>
<stop offset="1" stop-color="#FDC33E"/>
</linearGradient>
<linearGradient id="paint34_linear" x1="78" y1="-54" x2="21" y2="66.5" gradientUnits="userSpaceOnUse">
<stop stop-color="#FDC33E" stop-opacity="0"/>
<stop offset="0.370814" stop-color="#FDC33E" stop-opacity="0.55"/>
<stop offset="1" stop-color="#FDC33E"/>
</linearGradient>
<linearGradient id="paint35_linear" x1="78" y1="-54" x2="21" y2="66.5" gradientUnits="userSpaceOnUse">
<stop stop-color="#FDC33E" stop-opacity="0"/>
<stop offset="0.370814" stop-color="#FDC33E" stop-opacity="0.55"/>
<stop offset="1" stop-color="#FDC33E"/>
</linearGradient>
<linearGradient id="paint36_linear" x1="78" y1="-54" x2="21" y2="66.5" gradientUnits="userSpaceOnUse">
<stop stop-color="#FDC33E" stop-opacity="0"/>
<stop offset="0.370814" stop-color="#FDC33E" stop-opacity="0.55"/>
<stop offset="1" stop-color="#FDC33E"/>
</linearGradient>
<linearGradient id="paint37_linear" x1="78" y1="-54" x2="21" y2="66.5" gradientUnits="userSpaceOnUse">
<stop stop-color="#FDC33E" stop-opacity="0"/>
<stop offset="0.370814" stop-color="#FDC33E" stop-opacity="0.55"/>
<stop offset="1" stop-color="#FDC33E"/>
</linearGradient>
<linearGradient id="paint38_linear" x1="78" y1="-54" x2="21" y2="66.5" gradientUnits="userSpaceOnUse">
<stop stop-color="#FDC33E" stop-opacity="0"/>
<stop offset="0.370814" stop-color="#FDC33E" stop-opacity="0.55"/>
<stop offset="1" stop-color="#FDC33E"/>
</linearGradient>
<linearGradient id="paint39_linear" x1="78" y1="-54" x2="21" y2="66.5" gradientUnits="userSpaceOnUse">
<stop stop-color="#FDC33E" stop-opacity="0"/>
<stop offset="0.370814" stop-color="#FDC33E" stop-opacity="0.55"/>
<stop offset="1" stop-color="#FDC33E"/>
</linearGradient>
<linearGradient id="paint40_linear" x1="78" y1="-54" x2="21" y2="66.5" gradientUnits="userSpaceOnUse">
<stop stop-color="#FDC33E" stop-opacity="0"/>
<stop offset="0.370814" stop-color="#FDC33E" stop-opacity="0.55"/>
<stop offset="1" stop-color="#FDC33E"/>
</linearGradient>
<linearGradient id="paint41_linear" x1="78" y1="-54" x2="21" y2="66.5" gradientUnits="userSpaceOnUse">
<stop stop-color="#FDC33E" stop-opacity="0"/>
<stop offset="0.370814" stop-color="#FDC33E" stop-opacity="0.55"/>
<stop offset="1" stop-color="#FDC33E"/>
</linearGradient>
<linearGradient id="paint42_linear" x1="78" y1="-54" x2="21" y2="66.5" gradientUnits="userSpaceOnUse">
<stop stop-color="#FDC33E" stop-opacity="0"/>
<stop offset="0.370814" stop-color="#FDC33E" stop-opacity="0.55"/>
<stop offset="1" stop-color="#FDC33E"/>
</linearGradient>
<linearGradient id="paint43_linear" x1="78" y1="-54" x2="21" y2="66.5" gradientUnits="userSpaceOnUse">
<stop stop-color="#FDC33E" stop-opacity="0"/>
<stop offset="0.370814" stop-color="#FDC33E" stop-opacity="0.55"/>
<stop offset="1" stop-color="#FDC33E"/>
</linearGradient>
<linearGradient id="paint44_linear" x1="78" y1="-54" x2="21" y2="66.5" gradientUnits="userSpaceOnUse">
<stop stop-color="#FDC33E" stop-opacity="0"/>
<stop offset="0.370814" stop-color="#FDC33E" stop-opacity="0.55"/>
<stop offset="1" stop-color="#FDC33E"/>
</linearGradient>
<linearGradient id="paint45_linear" x1="78" y1="-54" x2="21" y2="66.5" gradientUnits="userSpaceOnUse">
<stop stop-color="#FDC33E" stop-opacity="0"/>
<stop offset="0.370814" stop-color="#FDC33E" stop-opacity="0.55"/>
<stop offset="1" stop-color="#FDC33E"/>
</linearGradient>
<linearGradient id="paint46_linear" x1="78" y1="-54" x2="21" y2="66.5" gradientUnits="userSpaceOnUse">
<stop stop-color="#FDC33E" stop-opacity="0"/>
<stop offset="0.370814" stop-color="#FDC33E" stop-opacity="0.55"/>
<stop offset="1" stop-color="#FDC33E"/>
</linearGradient>
<linearGradient id="paint47_linear" x1="78" y1="-54" x2="21" y2="66.5" gradientUnits="userSpaceOnUse">
<stop stop-color="#FDC33E" stop-opacity="0"/>
<stop offset="0.370814" stop-color="#FDC33E" stop-opacity="0.55"/>
<stop offset="1" stop-color="#FDC33E"/>
</linearGradient>
<linearGradient id="paint48_linear" x1="78" y1="-54" x2="21" y2="66.5" gradientUnits="userSpaceOnUse">
<stop stop-color="#FDC33E" stop-opacity="0"/>
<stop offset="0.370814" stop-color="#FDC33E" stop-opacity="0.55"/>
<stop offset="1" stop-color="#FDC33E"/>
</linearGradient>
<linearGradient id="paint49_linear" x1="78" y1="-54" x2="21" y2="66.5" gradientUnits="userSpaceOnUse">
<stop stop-color="#FDC33E" stop-opacity="0"/>
<stop offset="0.370814" stop-color="#FDC33E" stop-opacity="0.55"/>
<stop offset="1" stop-color="#FDC33E"/>
</linearGradient>
<linearGradient id="paint50_linear" x1="78" y1="-54" x2="21" y2="66.5" gradientUnits="userSpaceOnUse">
<stop stop-color="#FDC33E" stop-opacity="0"/>
<stop offset="0.370814" stop-color="#FDC33E" stop-opacity="0.55"/>
<stop offset="1" stop-color="#FDC33E"/>
</linearGradient>
<linearGradient id="paint51_linear" x1="78" y1="-54" x2="21" y2="66.5" gradientUnits="userSpaceOnUse">
<stop stop-color="#FDC33E" stop-opacity="0"/>
<stop offset="0.370814" stop-color="#FDC33E" stop-opacity="0.55"/>
<stop offset="1" stop-color="#FDC33E"/>
</linearGradient>
<linearGradient id="paint52_linear" x1="78" y1="-54" x2="21" y2="66.5" gradientUnits="userSpaceOnUse">
<stop stop-color="#FDC33E" stop-opacity="0"/>
<stop offset="0.370814" stop-color="#FDC33E" stop-opacity="0.55"/>
<stop offset="1" stop-color="#FDC33E"/>
</linearGradient>
<linearGradient id="paint53_linear" x1="78" y1="-54" x2="21" y2="66.5" gradientUnits="userSpaceOnUse">
<stop stop-color="#FDC33E" stop-opacity="0"/>
<stop offset="0.370814" stop-color="#FDC33E" stop-opacity="0.55"/>
<stop offset="1" stop-color="#FDC33E"/>
</linearGradient>
<linearGradient id="paint54_linear" x1="78" y1="-54" x2="21" y2="66.5" gradientUnits="userSpaceOnUse">
<stop stop-color="#FDC33E" stop-opacity="0"/>
<stop offset="0.370814" stop-color="#FDC33E" stop-opacity="0.55"/>
<stop offset="1" stop-color="#FDC33E"/>
</linearGradient>
<linearGradient id="paint55_linear" x1="78" y1="-54" x2="21" y2="66.5" gradientUnits="userSpaceOnUse">
<stop stop-color="#FDC33E" stop-opacity="0"/>
<stop offset="0.370814" stop-color="#FDC33E" stop-opacity="0.55"/>
<stop offset="1" stop-color="#FDC33E"/>
</linearGradient>
<linearGradient id="paint56_linear" x1="78" y1="-54" x2="21" y2="66.5" gradientUnits="userSpaceOnUse">
<stop stop-color="#FDC33E" stop-opacity="0"/>
<stop offset="0.370814" stop-color="#FDC33E" stop-opacity="0.55"/>
<stop offset="1" stop-color="#FDC33E"/>
</linearGradient>
<linearGradient id="paint57_linear" x1="78" y1="-54" x2="21" y2="66.5" gradientUnits="userSpaceOnUse">
<stop stop-color="#FDC33E" stop-opacity="0"/>
<stop offset="0.370814" stop-color="#FDC33E" stop-opacity="0.55"/>
<stop offset="1" stop-color="#FDC33E"/>
</linearGradient>
<linearGradient id="paint58_linear" x1="78" y1="-54" x2="21" y2="66.5" gradientUnits="userSpaceOnUse">
<stop stop-color="#FDC33E" stop-opacity="0"/>
<stop offset="0.370814" stop-color="#FDC33E" stop-opacity="0.55"/>
<stop offset="1" stop-color="#FDC33E"/>
</linearGradient>
<linearGradient id="paint59_linear" x1="78" y1="-54" x2="21" y2="66.5" gradientUnits="userSpaceOnUse">
<stop stop-color="#FDC33E" stop-opacity="0"/>
<stop offset="0.370814" stop-color="#FDC33E" stop-opacity="0.55"/>
<stop offset="1" stop-color="#FDC33E"/>
</linearGradient>
<linearGradient id="paint60_linear" x1="78" y1="-54" x2="21" y2="66.5" gradientUnits="userSpaceOnUse">
<stop stop-color="#FDC33E" stop-opacity="0"/>
<stop offset="0.370814" stop-color="#FDC33E" stop-opacity="0.55"/>
<stop offset="1" stop-color="#FDC33E"/>
</linearGradient>
<linearGradient id="paint61_linear" x1="78" y1="-54" x2="21" y2="66.5" gradientUnits="userSpaceOnUse">
<stop stop-color="#FDC33E" stop-opacity="0"/>
<stop offset="0.370814" stop-color="#FDC33E" stop-opacity="0.55"/>
<stop offset="1" stop-color="#FDC33E"/>
</linearGradient>
<linearGradient id="paint62_linear" x1="78" y1="-54" x2="21" y2="66.5" gradientUnits="userSpaceOnUse">
<stop stop-color="#FDC33E" stop-opacity="0"/>
<stop offset="0.370814" stop-color="#FDC33E" stop-opacity="0.55"/>
<stop offset="1" stop-color="#FDC33E"/>
</linearGradient>
<linearGradient id="paint63_linear" x1="78" y1="-54" x2="21" y2="66.5" gradientUnits="userSpaceOnUse">
<stop stop-color="#FDC33E" stop-opacity="0"/>
<stop offset="0.370814" stop-color="#FDC33E" stop-opacity="0.55"/>
<stop offset="1" stop-color="#FDC33E"/>
</linearGradient>
<linearGradient id="paint64_linear" x1="78" y1="-54" x2="21" y2="66.5" gradientUnits="userSpaceOnUse">
<stop stop-color="#FDC33E" stop-opacity="0"/>
<stop offset="0.370814" stop-color="#FDC33E" stop-opacity="0.55"/>
<stop offset="1" stop-color="#FDC33E"/>
</linearGradient>
<linearGradient id="paint65_linear" x1="78" y1="-54" x2="21" y2="66.5" gradientUnits="userSpaceOnUse">
<stop stop-color="#FDC33E" stop-opacity="0"/>
<stop offset="0.370814" stop-color="#FDC33E" stop-opacity="0.55"/>
<stop offset="1" stop-color="#FDC33E"/>
</linearGradient>
<linearGradient id="paint66_linear" x1="78" y1="-54" x2="21" y2="66.5" gradientUnits="userSpaceOnUse">
<stop stop-color="#FDC33E" stop-opacity="0"/>
<stop offset="0.370814" stop-color="#FDC33E" stop-opacity="0.55"/>
<stop offset="1" stop-color="#FDC33E"/>
</linearGradient>
<linearGradient id="paint67_linear" x1="78" y1="-54" x2="21" y2="66.5" gradientUnits="userSpaceOnUse">
<stop stop-color="#FDC33E" stop-opacity="0"/>
<stop offset="0.370814" stop-color="#FDC33E" stop-opacity="0.55"/>
<stop offset="1" stop-color="#FDC33E"/>
</linearGradient>
<linearGradient id="paint68_linear" x1="78" y1="-54" x2="21" y2="66.5" gradientUnits="userSpaceOnUse">
<stop stop-color="#FDC33E" stop-opacity="0"/>
<stop offset="0.370814" stop-color="#FDC33E" stop-opacity="0.55"/>
<stop offset="1" stop-color="#FDC33E"/>
</linearGradient>
<linearGradient id="paint69_linear" x1="78" y1="-54" x2="21" y2="66.5" gradientUnits="userSpaceOnUse">
<stop stop-color="#FDC33E" stop-opacity="0"/>
<stop offset="0.370814" stop-color="#FDC33E" stop-opacity="0.55"/>
<stop offset="1" stop-color="#FDC33E"/>
</linearGradient>
<linearGradient id="paint70_linear" x1="78" y1="-54" x2="21" y2="66.5" gradientUnits="userSpaceOnUse">
<stop stop-color="#FDC33E" stop-opacity="0"/>
<stop offset="0.370814" stop-color="#FDC33E" stop-opacity="0.55"/>
<stop offset="1" stop-color="#FDC33E"/>
</linearGradient>
<linearGradient id="paint71_linear" x1="78" y1="-54" x2="21" y2="66.5" gradientUnits="userSpaceOnUse">
<stop stop-color="#FDC33E" stop-opacity="0"/>
<stop offset="0.370814" stop-color="#FDC33E" stop-opacity="0.55"/>
<stop offset="1" stop-color="#FDC33E"/>
</linearGradient>
</defs>
</svg>
