<svg width="63" height="62" viewBox="0 0 63 62" fill="none" xmlns="http://www.w3.org/2000/svg">
<g clip-path="url(#clip0)">
<path d="M43.6473 27.7441H19.8051C19.506 27.7441 19.2632 27.9869 19.2632 28.286V41.2909C19.2632 42.7842 20.4781 44.0002 21.9725 44.0002H41.4797C42.9742 44.0002 44.1891 42.7842 44.1891 41.2909V28.286C44.1891 27.9869 43.9464 27.7441 43.6473 27.7441ZM43.1054 41.2908C43.1054 42.1871 42.3761 42.9164 41.4798 42.9164H21.9726C21.0763 42.9164 20.347 42.1871 20.347 41.2908V28.8279H43.1054V41.2908Z" fill="white"/>
<path d="M44.1709 22.7295L43.2487 19.2301C43.0363 18.3794 42.1671 17.8451 41.3056 18.0402L19.4726 23.2204C19.0434 23.318 18.6804 23.5791 18.4495 23.9541C18.2187 24.3291 18.1504 24.7712 18.2588 25.2004L19.2796 29.2362C19.3403 29.4811 19.5614 29.6448 19.8042 29.6448C19.8475 29.6448 19.8919 29.6405 19.9385 29.6285C20.2279 29.556 20.4034 29.2612 20.3297 28.9707L20.2701 28.7356L43.7666 23.3971C43.9097 23.3635 44.0343 23.2746 44.1102 23.1489C44.1872 23.0232 44.2078 22.8715 44.1709 22.7295ZM20.0047 27.6843L19.309 24.9371C19.2732 24.794 19.297 24.6466 19.3729 24.5209C19.4499 24.3963 19.5712 24.3096 19.7186 24.2749L41.5515 19.0958C41.5905 19.086 41.6306 19.0817 41.6696 19.0817C41.9124 19.0817 42.1367 19.2486 42.1985 19.4989L42.9799 22.4629L20.0047 27.6843Z" fill="white"/>
<path d="M24.3829 27.8002C24.1142 27.6691 23.7912 27.7752 23.6547 28.043L21.4872 32.3779C21.3539 32.6456 21.4622 32.9707 21.73 33.1051C21.8091 33.1441 21.8915 33.1625 21.9727 33.1625C22.1711 33.1625 22.3629 33.0531 22.4582 32.8624L24.6257 28.5274C24.759 28.2597 24.6506 27.9346 24.3829 27.8002Z" fill="white"/>
<path d="M29.8003 27.8002C29.5327 27.6691 29.2075 27.7752 29.0731 28.043L26.9056 32.3779C26.7723 32.6456 26.8807 32.9707 27.1484 33.1051C27.2275 33.1441 27.3099 33.1625 27.3912 33.1625C27.5895 33.1625 27.7813 33.0531 27.8756 32.8624L30.0431 28.5274C30.1764 28.2597 30.068 27.9346 29.8003 27.8002Z" fill="white"/>
<path d="M35.2188 27.8002C34.9522 27.6691 34.6271 27.7752 34.4916 28.043L32.3241 32.3779C32.1908 32.6456 32.2992 32.9707 32.5669 33.1051C32.646 33.1441 32.7284 33.1625 32.8096 33.1625C33.008 33.1625 33.1998 33.0531 33.2941 32.8624L35.4616 28.5274C35.5949 28.2597 35.4865 27.9346 35.2188 27.8002Z" fill="white"/>
<path d="M40.6377 27.8002C40.369 27.6691 40.046 27.7752 39.9105 28.043L37.743 32.3779C37.6097 32.6456 37.7181 32.9707 37.9858 33.1051C38.0649 33.1441 38.1473 33.1625 38.2286 33.1625C38.4269 33.1625 38.6187 33.0531 38.713 32.8624L40.8805 28.5274C41.0138 28.2597 40.9054 27.9346 40.6377 27.8002Z" fill="white"/>
<path d="M43.6473 32.0791H19.8051C19.506 32.0791 19.2632 32.3219 19.2632 32.621C19.2632 32.9201 19.506 33.1629 19.8051 33.1629H43.6473C43.9475 33.1629 44.1892 32.9201 44.1892 32.621C44.1892 32.3219 43.9464 32.0791 43.6473 32.0791Z" fill="white"/>
<path d="M25.0448 26.7981L21.3124 23.0657C21.1011 22.8544 20.7575 22.8544 20.5462 23.0657C20.3349 23.2771 20.3349 23.6206 20.5462 23.8319L24.2786 27.5654C24.3848 27.6705 24.5235 27.7236 24.6622 27.7236C24.801 27.7236 24.9396 27.6705 25.0448 27.5643C25.2561 27.3529 25.2561 27.0094 25.0448 26.7981Z" fill="white"/>
<path d="M30.3458 25.594L26.6103 21.8616C26.3989 21.6503 26.0554 21.6503 25.844 21.8616C25.6327 22.0729 25.6327 22.4165 25.844 22.6278L29.5786 26.3602C29.6848 26.4653 29.8235 26.5185 29.9623 26.5185C30.101 26.5185 30.2397 26.4654 30.3459 26.3602C30.5572 26.1489 30.5572 25.8053 30.3458 25.594Z" fill="white"/>
<path d="M35.6436 24.39L31.9145 20.6565C31.7031 20.4452 31.3596 20.4452 31.1482 20.6565C30.9369 20.8679 30.9369 21.2114 31.1482 21.4228L34.8774 25.1562C34.9836 25.2613 35.1223 25.3145 35.261 25.3145C35.3998 25.3145 35.5384 25.2624 35.6436 25.1562C35.8549 24.9449 35.8549 24.6013 35.6436 24.39Z" fill="white"/>
<path d="M40.9387 23.1869L37.2084 19.4534C36.9971 19.2421 36.6535 19.2421 36.4422 19.4534C36.2309 19.6647 36.2309 20.0083 36.4422 20.2196L40.1724 23.9531C40.2786 24.0582 40.4173 24.1113 40.556 24.1113C40.6948 24.1113 40.8335 24.0582 40.9386 23.9531C41.15 23.7418 41.15 23.3982 40.9387 23.1869Z" fill="white"/>
</g>
<rect x="0.699219" y="0.5" width="61" height="61" rx="30.5" stroke="#999999"/>
<defs>
<clipPath id="clip0">
<rect width="26" height="26" fill="white" transform="translate(18.1992 18)"/>
</clipPath>
</defs>
</svg>
