<svg width="62" height="62" viewBox="0 0 62 62" fill="none" xmlns="http://www.w3.org/2000/svg">
<g clip-path="url(#clip0)">
<path d="M40.7146 19.2197C40.5324 19.0582 40.2907 18.9807 40.0486 19.0063L24.62 20.7205C24.1857 20.7686 23.8571 21.1356 23.8572 21.5725V36.8468C23.08 36.3828 22.1909 36.1397 21.2857 36.1439C18.9226 36.144 17 37.6817 17 39.5725C17 41.4634 18.9226 43.0011 21.2857 43.0011C23.6488 43.0011 25.5714 41.4634 25.5714 39.5725V26.6297L39.2857 25.1014V35.13C38.5082 34.6668 37.6192 34.4247 36.7143 34.4297C34.3511 34.4297 32.4286 35.9674 32.4286 37.8583C32.4286 39.7491 34.3512 41.2869 36.7143 41.2869C39.0774 41.2869 40.9999 39.7491 40.9999 37.8583V19.8583C40.9999 19.6145 40.8962 19.3823 40.7146 19.2197ZM21.2857 41.2868C19.892 41.2868 18.7143 40.5017 18.7143 39.5725C18.7143 38.6434 19.892 37.8583 21.2857 37.8583C22.6794 37.8583 23.8571 38.6434 23.8571 39.5725C23.8571 40.5017 22.6794 41.2868 21.2857 41.2868ZM36.7143 39.5725C35.3206 39.5725 34.1428 38.7874 34.1428 37.8583C34.1428 36.9291 35.3206 36.144 36.7143 36.144C38.1079 36.144 39.2857 36.9291 39.2857 37.8583C39.2857 38.7874 38.108 39.5725 36.7143 39.5725ZM39.2857 23.3768L25.5714 24.9009V22.344L39.2857 20.8157V23.3768Z" fill="white"/>
</g>
<rect x="0.5" y="0.5" width="61" height="61" rx="30.5" stroke="#999999"/>
<defs>
<clipPath id="clip0">
<rect width="24" height="24" fill="white" transform="translate(17 19)"/>
</clipPath>
</defs>
</svg>
