<svg width="101" height="77" viewBox="0 0 101 77" fill="none" xmlns="http://www.w3.org/2000/svg">
<g opacity="0.5">
<path d="M79.984 28.6474C79.7819 26.2731 79.9365 19.8189 85.6237 10.8438C86.0539 10.1666 85.9758 9.25316 85.4416 8.67249C83.1229 6.1517 81.6873 4.56101 80.6804 3.44791C79.3564 1.98024 78.752 1.31149 77.8673 0.439475C77.2766 -0.137779 76.3828 -0.147831 75.7859 0.418007C65.873 9.79565 54.8627 29.1732 56.456 52.9135C57.3895 66.8534 66.7423 76.9716 78.6938 76.9716C90.9589 76.9716 100.938 66.1247 100.938 52.7903C100.938 39.9268 91.6509 29.3778 79.984 28.6474ZM78.6938 73.5639C68.4304 73.5639 60.3939 64.7753 59.5813 52.6673C59.5813 52.6673 59.5813 52.6673 59.5813 52.6656C57.789 25.9652 72.3882 8.62257 76.7991 4.03027C77.2291 4.49116 77.7204 5.03348 78.4443 5.83547C79.3166 6.80051 80.5105 8.12165 82.3164 10.0918C75.4124 21.6558 76.7149 29.8953 77.2857 31.0767C77.5567 31.6374 78.1122 32.0151 78.6938 32.0151C89.2311 32.0151 97.8032 41.3345 97.8032 52.7903C97.8032 64.2446 89.2311 73.5639 78.6938 73.5639Z" fill="#1C9AA2"/>
<path d="M24.3224 28.6469C24.1189 26.2793 24.2688 19.83 29.9622 10.8434C30.3908 10.1661 30.3142 9.25273 29.7801 8.67207C27.4659 6.15621 26.0319 4.56723 25.0264 3.45413C23.6981 1.98322 23.0919 1.3126 22.2073 0.43905C21.6165 -0.138204 20.7227 -0.146553 20.1259 0.415877C10.213 9.79352 -0.798773 29.1678 0.791313 52.9131V52.9148C1.72803 66.853 11.0822 76.9711 23.0337 76.9711C35.299 76.9711 45.2777 66.1243 45.2777 52.7899C45.2777 39.9249 35.9907 29.3741 24.3224 28.6469ZM23.0337 73.5635C12.772 73.5635 4.7308 64.7749 3.91663 52.6652V52.6669C2.12908 25.9599 16.7282 8.62044 21.139 4.02985C21.5706 4.49073 22.0635 5.03646 22.7889 5.84015C23.6597 6.80519 24.852 8.12463 26.6549 10.0913C19.7509 21.657 21.0534 29.8948 21.6242 31.0745C21.8951 31.6353 22.4521 32.0147 23.0337 32.0147C33.5711 32.0147 42.1433 41.3341 42.1433 52.7899C42.1433 64.2441 33.5711 73.5635 23.0337 73.5635Z" fill="#1C9AA2"/>
</g>
</svg>
