<svg width="72" height="72" viewBox="0 0 72 72" fill="none" xmlns="http://www.w3.org/2000/svg">
<rect width="72" height="72" rx="36" fill="#FFE9E6"/>
<path d="M24.3196 32.5811V23.2559C24.3196 22.4106 25.0073 21.7224 25.8526 21.7224H28.6848C29.4021 21.7224 29.9835 21.141 29.9835 20.4237C29.9835 19.7064 29.4021 19.125 28.6848 19.125H25.8526C23.575 19.125 21.7217 20.9783 21.7217 23.2559V32.5816C21.7217 32.613 21.7097 32.6421 21.6875 32.6643L19.6706 34.6812C18.9431 35.4087 18.9431 36.5918 19.6706 37.3188L21.6875 39.3357C21.7097 39.3579 21.7217 39.3875 21.7217 39.4184V48.7441C21.7217 51.0217 23.575 52.875 25.8526 52.875H28.6848C29.4021 52.875 29.9835 52.2936 29.9835 51.5763C29.9835 50.859 29.4021 50.2776 28.6848 50.2776H25.8526C25.0073 50.2776 24.3196 49.5899 24.3196 48.7446V39.4184C24.3196 38.6933 24.0372 38.0116 23.5242 37.4986L22.0254 35.9998L23.5242 34.5009C24.0372 33.9879 24.3196 33.3062 24.3196 32.5811Z" fill="#F1361D"/>
<path d="M52.328 34.6807L50.3111 32.6638C50.2889 32.6416 50.2769 32.6125 50.2769 32.5811V23.2559C50.2769 20.9783 48.4236 19.125 46.146 19.125H43.3138C42.5965 19.125 42.0151 19.7064 42.0151 20.4237C42.0151 21.141 42.5965 21.7224 43.3138 21.7224H46.146C46.9913 21.7224 47.6795 22.4101 47.6795 23.2559V32.5816C47.6795 33.3067 47.9619 33.9884 48.4744 34.5009L49.9737 35.9998L48.4749 37.4986C47.9619 38.0116 47.68 38.6933 47.68 39.4184V48.7441C47.68 49.5894 46.9923 50.2771 46.1465 50.2771H43.3143C42.597 50.2771 42.0156 50.8585 42.0156 51.5758C42.0156 52.2931 42.597 52.8745 43.3143 52.8745H46.1465C48.4241 52.8745 50.2774 51.0212 50.2774 48.7437V39.4184C50.2774 39.387 50.2894 39.3574 50.3116 39.3357L52.3285 37.3188C53.0555 36.5913 53.0555 35.4082 52.328 34.6807Z" fill="#F1361D"/>
<path d="M36.1766 26.4694C34.7078 26.4694 33.55 27.6276 33.55 29.1245C33.55 30.5933 34.7082 31.7515 36.1766 31.7515C37.674 31.7515 38.8317 30.5933 38.8317 29.1245C38.8317 27.6276 37.6735 26.4694 36.1766 26.4694Z" fill="#F1361D"/>
<path d="M33.8867 38.8323V43.154H35.9489V43.606C35.9489 44.877 35.4405 45.188 34.4801 45.188V47.0238C39.1407 47.0238 39.4235 42.3069 37.8697 38.8323H33.8867Z" fill="#F1361D"/>
</svg>
