<svg width="34" height="34" viewBox="0 0 34 34" fill="none" xmlns="http://www.w3.org/2000/svg">
<path d="M5.31957 13.5811V4.25588C5.31957 3.41057 6.00727 2.7224 6.85258 2.7224H9.68476C10.4021 2.7224 10.9835 2.14099 10.9835 1.4237C10.9835 0.706411 10.4021 0.125 9.68476 0.125H6.85258C4.57501 0.125 2.7217 1.9783 2.7217 4.25588V13.5816C2.7217 13.613 2.70969 13.6421 2.6875 13.6643L0.670592 15.6812C-0.0568641 16.4087 -0.0568641 17.5918 0.670592 18.3188L2.6875 20.3357C2.70969 20.3579 2.7217 20.3875 2.7217 20.4184V29.7441C2.7217 32.0217 4.57501 33.875 6.85258 33.875H9.68476C10.4021 33.875 10.9835 33.2936 10.9835 32.5763C10.9835 31.859 10.4021 31.2776 9.68476 31.2776H6.85258C6.00727 31.2776 5.31957 30.5899 5.31957 29.7446V20.4184C5.31957 19.6933 5.03718 19.0116 4.52417 18.4986L3.02535 16.9998L4.52417 15.5009C5.03718 14.9879 5.31957 14.3062 5.31957 13.5811Z" fill="#F1361D"/>
<path d="M33.328 15.6807L31.3111 13.6638C31.2889 13.6416 31.2769 13.6125 31.2769 13.5811V4.25588C31.2769 1.9783 29.4236 0.125 27.146 0.125H24.3138C23.5965 0.125 23.0151 0.706411 23.0151 1.4237C23.0151 2.14099 23.5965 2.7224 24.3138 2.7224H27.146C27.9913 2.7224 28.6795 3.41011 28.6795 4.25588V13.5816C28.6795 14.3067 28.9619 14.9884 29.4744 15.5009L30.9737 16.9998L29.4749 18.4986C28.9619 19.0116 28.68 19.6933 28.68 20.4184V29.7441C28.68 30.5894 27.9923 31.2771 27.1465 31.2771H24.3143C23.597 31.2771 23.0156 31.8585 23.0156 32.5758C23.0156 33.2931 23.597 33.8745 24.3143 33.8745H27.1465C29.4241 33.8745 31.2774 32.0212 31.2774 29.7437V20.4184C31.2774 20.387 31.2894 20.3574 31.3116 20.3357L33.3285 18.3188C34.0555 17.5913 34.0555 16.4082 33.328 15.6807Z" fill="#F1361D"/>
<path d="M17.1766 7.46936C15.7078 7.46936 14.55 8.62756 14.55 10.1245C14.55 11.5933 15.7082 12.7515 17.1766 12.7515C18.674 12.7515 19.8317 11.5933 19.8317 10.1245C19.8317 8.62756 18.6735 7.46936 17.1766 7.46936Z" fill="#F1361D"/>
<path d="M14.8867 19.8323V24.154H16.9489V24.606C16.9489 25.877 16.4405 26.188 15.4801 26.188V28.0238C20.1407 28.0238 20.4235 23.3069 18.8697 19.8323H14.8867Z" fill="#F1361D"/>
</svg>
