<svg width="48" height="48" viewBox="0 0 48 48" fill="none" xmlns="http://www.w3.org/2000/svg">
<path d="M23.9999 0C37.2555 0 48 10.746 48 24.0001C48 37.2557 37.2555 48 23.9999 48C10.7443 48 0 37.2555 0 24.0001C0 10.746 10.7445 0 23.9999 0Z" fill="#111111"/>
<path fill-rule="evenodd" clip-rule="evenodd" d="M35.0325 17.948C35.1964 17.4015 35.0325 17 34.2526 17H31.6737C31.018 17 30.7156 17.3469 30.5517 17.7294C30.5517 17.7294 29.2402 20.9261 27.3823 23.0025C26.7812 23.6036 26.508 23.7949 26.1801 23.7949C26.0162 23.7949 25.7789 23.6036 25.7789 23.0572V17.948C25.7789 17.2922 25.5886 17 25.0421 17H20.9895C20.5797 17 20.3333 17.3043 20.3333 17.5928C20.3333 18.2144 21.2622 18.3578 21.3579 20.1064V23.9042C21.3579 24.7368 21.2075 24.8878 20.8797 24.8878C20.0054 24.8878 17.8787 21.6768 16.6174 18.0026C16.3702 17.2885 16.1223 17 15.4632 17H12.8842C12.1474 17 12 17.3469 12 17.7294C12 18.4124 12.8743 21.8004 16.071 26.2812C18.2021 29.3412 21.2046 31 23.9368 31C25.5762 31 25.779 30.6316 25.779 29.997V27.6842C25.779 26.9474 25.9343 26.8003 26.4534 26.8003C26.8359 26.8003 27.4916 26.9916 29.0217 28.467C30.7703 30.2156 31.0585 31 32.0421 31H34.6211C35.3579 31 35.7263 30.6316 35.5138 29.9045C35.2812 29.1799 34.4463 28.1286 33.3386 26.8823C32.7374 26.1719 31.8358 25.4069 31.5626 25.0243C31.1801 24.5326 31.2894 24.314 31.5626 23.8769C31.5626 23.8769 34.7047 19.4507 35.0325 17.948Z" fill="white"/>
</svg>
