<svg width="29" height="35" viewBox="0 0 29 35" fill="none" xmlns="http://www.w3.org/2000/svg">
<path d="M2.08596 10.3609C2.23336 6.61503 2.30706 4.74212 3.55043 3.4972C4.7938 2.25228 6.64846 2.17697 10.3578 2.02637C13.2762 1.90788 15.7237 1.90788 18.6422 2.02637C22.3515 2.17698 24.2062 2.25228 25.4495 3.49721C26.6929 4.74213 26.7666 6.61505 26.914 10.3609C27.1119 15.3915 27.1119 19.6085 26.914 24.6391C26.7666 28.385 26.6929 30.2579 25.4495 31.5028C24.2062 32.7478 22.3515 32.8231 18.6421 32.9737C15.7237 33.0921 13.2762 33.0921 10.3578 32.9737C6.64847 32.8231 4.7938 32.7478 3.55043 31.5028C2.30706 30.2579 2.23336 28.385 2.08596 24.6392C1.88801 19.6085 1.88801 15.3915 2.08596 10.3609Z" stroke="#111111" stroke-width="3"/>
<path d="M26.5 10.75H2.5" stroke="#111111" stroke-width="3"/>
<circle cx="18.2524" cy="18.064" r="2.06396" fill="#111111"/>
<circle cx="18.2524" cy="24.8125" r="2.06397" fill="#111111"/>
<circle cx="10.756" cy="18.0643" r="2.06045" fill="#111111"/>
<circle cx="10.7499" cy="24.813" r="2.0653" fill="#111111"/>
</svg>
