<svg width="37" height="34" viewBox="0 0 37 34" fill="none" xmlns="http://www.w3.org/2000/svg">
<path d="M7.25127 10C6.66154 14.7178 6.99919 22.2179 7.89966 27.3956C8.17936 29.0039 8.31921 29.8081 9.08972 30.5019C9.86023 31.1957 10.7197 31.2538 12.4386 31.3701C16.2304 31.6266 20.7721 31.6266 24.5638 31.3701C26.2827 31.2538 27.1422 31.1957 27.9127 30.5019C28.6832 29.8081 28.8231 29.0039 29.1028 27.3956C30.0033 22.2179 30.341 14.7178 29.7513 10" stroke="#111111" stroke-width="3"/>
<path d="M15.125 30.25V23.5C15.125 22.0858 15.125 21.3787 15.5643 20.9393C16.0037 20.5 16.7108 20.5 18.125 20.5H18.875C20.2892 20.5 20.9963 20.5 21.4357 20.9393C21.875 21.3787 21.875 22.0858 21.875 23.5V30.25" stroke="#111111" stroke-width="3" stroke-linecap="round"/>
<path d="M2 14.5L14.7006 4.10862C16.5196 2.62033 17.4291 1.87618 18.5 1.87618C19.5709 1.87618 20.4804 2.62033 22.2994 4.10862L35 14.5" stroke="#111111" stroke-width="3" stroke-linecap="round" stroke-linejoin="round"/>
</svg>
