<svg width="42" height="31" viewBox="0 0 42 31" fill="none" xmlns="http://www.w3.org/2000/svg">
<path d="M9.5 14.25V23.2918C9.5 25.1516 9.5 26.0816 10.1092 26.8853C10.7183 27.689 11.4654 27.8987 12.9596 28.318C17.3866 29.5607 22.6134 29.5607 27.0404 28.318C28.5346 27.8987 29.2817 27.689 29.8908 26.8853C30.5 26.0816 30.5 25.1516 30.5 23.2918V14.25" stroke="#111111" stroke-width="3"/>
<path d="M20 17.25C20 17.25 10.0863 15.3912 2.64875 11.1104C1.65849 10.5404 1.76211 9.14173 2.80584 8.67688C9.31031 5.77996 17.6253 3.02277 19.5769 2.3869C19.8575 2.2955 20.1436 2.29073 20.4269 2.37302C22.5534 2.99065 32.1702 5.84116 38.9533 8.80678C39.9355 9.2362 40.093 10.5137 39.1885 11.089C32.4334 15.385 20 17.25 20 17.25Z" stroke="#111111" stroke-width="3"/>
<path d="M36.5 12.75V22.5" stroke="#111111" stroke-width="3" stroke-linecap="round"/>
</svg>
