<svg width="18" height="42" viewBox="0 0 18 42" fill="none" xmlns="http://www.w3.org/2000/svg">
<path d="M14.1937 5.8311L13.9359 5.05756C13.4535 3.61057 13.2124 2.88707 12.7198 2.38947C12.4857 2.15305 12.214 1.95721 11.9157 1.80995C11.2879 1.5 10.5253 1.5 9 1.5C7.47473 1.5 6.7121 1.5 6.08426 1.80995C5.78597 1.95721 5.51425 2.15305 5.28023 2.38947C4.78764 2.88707 4.54648 3.61057 4.06415 5.05756L3.8063 5.8311C3.52367 6.679 3.38235 7.10296 3.36475 7.52558C3.34654 7.96314 3.42434 8.39937 3.5927 8.80365C3.75531 9.19414 4.03448 9.5431 4.59281 10.241L4.59282 10.241C5.08866 10.8608 5.33658 11.1707 5.64033 11.3988C5.95498 11.6351 6.31303 11.8072 6.69411 11.9053C7.062 12 7.45886 12 8.25259 12H9.74741C10.5411 12 10.938 12 11.3059 11.9053C11.687 11.8072 12.045 11.6351 12.3597 11.3988C12.6634 11.1707 12.9113 10.8608 13.4072 10.241L13.4072 10.241C13.9655 9.5431 14.2447 9.19414 14.4073 8.80365C14.5757 8.39937 14.6535 7.96314 14.6352 7.52558C14.6177 7.10296 14.4763 6.67901 14.1937 5.83112L14.1937 5.8311Z" stroke="#111111" stroke-width="3"/>
<path d="M1.58408 30.0009C1.93809 23.8317 3.41007 18.4748 6 12H12C14.0208 18.305 15.9082 23.7908 16.3848 30.0024C16.4909 31.385 16.5439 32.0763 16.2596 32.9344C15.9754 33.7925 15.5256 34.309 14.626 35.3422C14.0074 36.0526 13.3767 36.7081 12.6536 37.3889C11.0112 38.9352 10.19 39.7084 9 39.7084C7.80995 39.7084 6.98876 38.9352 5.34636 37.3889C4.62329 36.7081 3.99257 36.0526 3.37399 35.3422C2.47948 34.3148 2.03222 33.8012 1.74697 32.9671C1.46172 32.1331 1.50251 31.4224 1.58408 30.0009Z" stroke="#111111" stroke-width="3"/>
</svg>
