<svg width="30" height="36" viewBox="0 0 30 36" fill="none" xmlns="http://www.w3.org/2000/svg">
<path d="M9.75 18.75C6.15171 19.9494 3.99205 21.6284 2.50412 24.1704C1.73291 25.4879 1.5 27.0344 1.5 28.561V29.1878C1.5 31.3876 3.08922 33.2786 5.2733 33.5409C11.7578 34.3196 18.2422 34.3196 24.7267 33.5409C26.9108 33.2786 28.5 31.3876 28.5 29.1878V28.561C28.5 27.0344 28.2671 25.4879 27.4959 24.1704C26.008 21.6284 23.8483 19.9494 20.25 18.75" stroke="#111111" stroke-width="3" stroke-linecap="round"/>
<path d="M7.78825 8.99446C7.63088 4.90282 10.9053 1.5 15 1.5V1.5C19.0947 1.5 22.3691 4.90281 22.2118 8.99446L22.0094 14.255C21.8646 18.0214 18.7692 21 15 21V21C11.2308 21 8.13544 18.0214 7.99058 14.255L7.78825 8.99446Z" stroke="#111111" stroke-width="3"/>
<path d="M7.5 9C11.25 11.25 21 9.75 21 4.5" stroke="#111111" stroke-width="3"/>
</svg>
