<svg width="29" height="35" viewBox="0 0 29 35" fill="none" xmlns="http://www.w3.org/2000/svg">
<path d="M2.14846 10.4234C2.29586 6.67753 2.36956 4.80462 3.61293 3.5597C4.8563 2.31478 6.71096 2.23947 10.4203 2.08887C13.3387 1.97038 15.7862 1.97038 18.7047 2.08887C22.414 2.23948 24.2687 2.31478 25.512 3.55971C26.7554 4.80463 26.8291 6.67755 26.9765 10.4234C27.1744 15.454 27.1744 19.671 26.9765 24.7016C26.8291 28.4475 26.7554 30.3204 25.512 31.5653C24.2687 32.8103 22.414 32.8856 18.7046 33.0362C15.7862 33.1546 13.3387 33.1546 10.4203 33.0362C6.71097 32.8856 4.8563 32.8103 3.61293 31.5653C2.36956 30.3204 2.29586 28.4475 2.14846 24.7017C1.95051 19.671 1.95051 15.454 2.14846 10.4234Z" stroke="#111111" stroke-width="3"/>
<path d="M9.5 2V5C9.5 6.41421 9.5 7.12132 9.93934 7.56066C10.3787 8 11.0858 8 12.5 8H17C18.4142 8 19.1213 8 19.5607 7.56066C20 7.12132 20 6.41421 20 5V2" stroke="#111111" stroke-width="3"/>
<path d="M8 17H21.125" stroke="#111111" stroke-width="3" stroke-linecap="round"/>
<path d="M8 22.25H14" stroke="#111111" stroke-width="3" stroke-linecap="round"/>
</svg>
