<svg width="34" height="30" viewBox="0 0 34 30" fill="none" xmlns="http://www.w3.org/2000/svg">
<path d="M12.5004 5.49994L12.6496 6.99249C13.4164 6.91581 14.0004 6.27052 14.0004 5.49988L12.5004 5.49994ZM21.5004 5.49992H20.0004C20.0004 6.27054 20.5843 6.91578 21.3511 6.99247L21.5004 5.49992ZM20.7988 2.8616L21.4256 1.49887L20.7988 2.8616ZM12.5003 4.05274L11.0003 4.0528L12.5003 4.05274ZM13.2019 2.8615L12.5751 1.49876L13.2019 2.8615ZM4.99283 19.6008C4.6326 15.9982 5.02152 12.9754 6.21776 10.8222C7.36141 8.76361 9.33763 7.32371 12.6496 6.99249L12.3511 4.00738C8.1629 4.42623 5.26411 6.36135 3.59528 9.36528C1.97903 12.2746 1.618 16.0018 2.00772 19.8992L4.99283 19.6008ZM21.3511 6.99247C24.5361 7.31101 26.5593 9.02088 27.7617 11.3454C28.9973 13.7341 29.3588 16.7889 29.0119 19.5639L31.9887 19.9361C32.3918 16.7111 32.0033 13.0159 30.4263 9.9671C28.8161 6.85408 25.9644 4.43891 21.6496 4.00736L21.3511 6.99247ZM14.0004 5.49988L14.0003 4.05269L11.0003 4.0528L11.0004 5.5L14.0004 5.49988ZM13.8288 4.22425C14.6515 3.84582 15.7911 3.62499 17.0003 3.625C18.2095 3.62501 19.3492 3.84586 20.1719 4.22433L21.4256 1.49887C20.1134 0.895226 18.5221 0.625016 17.0003 0.625C15.4786 0.624985 13.8873 0.895162 12.5751 1.49876L13.8288 4.22425ZM20.0004 4.05278V5.49992H23.0004V4.05278H20.0004ZM20.1719 4.22433C20.088 4.18576 20.0375 4.12627 20.0156 4.08754C19.9969 4.05467 20.0004 4.04209 20.0004 4.05278H23.0004C23.0004 3.09918 22.5251 2.00462 21.4256 1.49887L20.1719 4.22433ZM14.0003 4.05269C14.0003 4.04198 14.0037 4.05457 13.9851 4.08745C13.9631 4.12618 13.9126 4.18568 13.8288 4.22425L12.5751 1.49876C11.4756 2.00452 11.0003 3.09915 11.0003 4.0528L14.0003 4.05269Z" fill="#111111"/>
<path d="M31.2505 19.75C20.7506 21.25 13.2504 21.25 2.75047 19.75C2.0004 21.25 0.500366 28 17.0004 28C33.5004 28 32.0004 21.25 31.2505 19.75Z" stroke="#111111" stroke-width="3" stroke-linejoin="round"/>
<path d="M12.5 5.5V8.5" stroke="#111111" stroke-width="3" stroke-linecap="round"/>
<path d="M21.5 5.5V8.5" stroke="#111111" stroke-width="3" stroke-linecap="round"/>
</svg>
